<?xml version="1.0" encoding="utf-8"?>
<!-- Generator: Adobe Illustrator 19.0.0, SVG Export Plug-In . SVG Version: 6.00 Build 0)  -->
<svg version="1.1"
	 id="svg2" sodipodi:docname="T84.svg" inkscape:version="0.91 r13725" xmlns:dc="http://purl.org/dc/elements/1.1/" xmlns:rdf="http://www.w3.org/1999/02/22-rdf-syntax-ns#" xmlns:svg="http://www.w3.org/2000/svg" xmlns:cc="http://creativecommons.org/ns#" xmlns:inkscape="http://www.inkscape.org/namespaces/inkscape" xmlns:sodipodi="http://sodipodi.sourceforge.net/DTD/sodipodi-0.dtd"
	 xmlns="http://www.w3.org/2000/svg" xmlns:xlink="http://www.w3.org/1999/xlink" x="0px" y="0px" viewBox="321 216.3 1253.5 361.7"
	 style="enable-background:new 321 216.3 1253.5 361.7;" xml:space="preserve">
<style type="text/css">
	.st0{fill:#333333;stroke:#000000;stroke-width:0.6;stroke-linecap:round;stroke-linejoin:round;}
	.st1{fill:#1A1A1A;stroke:#000000;stroke-linecap:round;stroke-linejoin:round;}
	.st2{fill:url(#path5543_1_);}
	.st3{fill:url(#path5563_1_);}
	.st4{fill:url(#path5448_1_);}
	.st5{fill:url(#path5450_1_);}
	.st6{fill:url(#path5452_1_);}
	.st7{opacity:0.8;fill:#333333;enable-background:new    ;}
	.st8{fill:url(#path5466_1_);}
	.st9{fill:url(#path5468_1_);}
	.st10{filter:url(#filter4361);}
	.st11{opacity:0.8;enable-background:new    ;}
	.st12{fill:url(#path5366_1_);}
	.st13{fill:url(#path5368_1_);}
	.st14{fill:url(#path5370_1_);}
	.st15{fill:url(#path5384_1_);}
	.st16{fill:url(#path5386_1_);}
	.st17{fill:url(#path5284_1_);}
	.st18{fill:url(#path5286_1_);}
	.st19{fill:url(#path5288_1_);}
	.st20{fill:url(#path5302_1_);}
	.st21{fill:url(#path5304_1_);}
	.st22{fill:url(#path5202_1_);}
	.st23{fill:url(#path5204_1_);}
	.st24{fill:url(#path5206_1_);}
	.st25{fill:url(#path5220_1_);}
	.st26{fill:url(#path5222_1_);}
	.st27{fill:url(#path5120_1_);}
	.st28{fill:url(#path5122_1_);}
	.st29{fill:url(#path5124_1_);}
	.st30{fill:url(#path5138_1_);}
	.st31{fill:url(#path5140_1_);}
	.st32{fill:url(#path3329_1_);}
	.st33{fill:url(#path3339-1_1_);}
	.st34{fill:url(#path3343_1_);}
	.st35{fill:url(#path3379_1_);}
	.st36{fill:url(#path3383_1_);}
	.st37{fill:#4D4D4D;stroke:#000000;stroke-linecap:round;stroke-linejoin:round;}
	.st38{fill:#22241C;stroke:#000000;stroke-width:1.5;stroke-linecap:round;stroke-linejoin:round;}
	.st39{fill:#454837;stroke:#000000;stroke-width:1.5;stroke-linecap:round;stroke-linejoin:round;}
	.st40{fill:#0D0D0D;stroke:#000000;stroke-width:1.5;stroke-linecap:round;stroke-linejoin:round;}
	.st41{fill:#1A1A1A;stroke:#000000;stroke-width:1.5;stroke-linecap:round;stroke-linejoin:round;}
	.st42{fill:#4D4D4D;stroke:#000000;stroke-width:1.5;stroke-linecap:round;stroke-linejoin:round;}
	.st43{fill:none;stroke:#000000;stroke-width:1.5;stroke-linecap:round;stroke-linejoin:round;}
	.st44{fill:#808080;stroke:#000000;stroke-linecap:round;stroke-linejoin:round;}
	.st45{fill:#666666;stroke:#000000;stroke-linecap:round;stroke-linejoin:round;}
	.st46{fill:#333333;stroke:#000000;stroke-linecap:round;stroke-linejoin:round;}
	.st47{fill:#CCCCCC;stroke:#000000;stroke-width:0.5;stroke-linecap:round;stroke-linejoin:round;}
	.st48{fill:#666666;stroke:#000000;stroke-width:1;stroke-linecap:round;stroke-linejoin:round;}
	.st49{fill:#CCCCCC;stroke:#000000;stroke-linecap:round;stroke-linejoin:round;}
	.st50{fill:none;stroke:#000000;stroke-linecap:round;stroke-linejoin:round;}
</style>
<filter  style="color-interpolation-filters:sRGB" inkscape:collect="always" id="filter4361">
	<feGaussianBlur  inkscape:collect="always" stdDeviation="0.16920084" id="feGaussianBlur4363"></feGaussianBlur>
</filter>
<sodipodi:namedview  fit-margin-right="0" inkscape:guide-bbox="true" inkscape:window-maximized="1" inkscape:window-height="705" inkscape:document-units="px" inkscape:pageopacity="0.0" inkscape:window-x="-8" inkscape:window-y="-8" inkscape:window-width="1366" inkscape:pageshadow="2" inkscape:current-layer="layer1" fit-margin-bottom="0" fit-margin-left="0" borderopacity="1.0" showguides="true" inkscape:cx="578.07903" inkscape:zoom="0.49497475" bordercolor="#666666" showgrid="false" pagecolor="#ffffff" fit-margin-top="0" id="base" inkscape:cy="290.66994">
	</sodipodi:namedview>
<g id="layer1" transform="translate(-62.64613,101.37329)" inkscape:label="Layer 1" inkscape:groupmode="layer">
	<g id="g5662">
		<path id="path5539" inkscape:connector-curvature="0" sodipodi:nodetypes="ccccc" class="st0" d="M472.9,202.2l-1.7,17.9
			c-1.8,0-3.3-1-3.3-1L470,202L472.9,202.2z"/>
		<path id="path4871" inkscape:connector-curvature="0" sodipodi:nodetypes="cccccccccccccccccc" class="st1" d="M1249.4,222.5
			c1.6-12.6-2.5-20.7-2.5-20.7c-2.3-5.1-7.5-9.1-7.5-9.1c-7.1-6-24.3-16.7-24.3-16.7l-48.7-32.8l-8.1-5.8
			c-12.9-9-24.8-10.4-24.8-10.4c-6.3-0.6-9.1-0.4-9.1-0.4l-45.7,0.3l-440,0.1l-30.4,0c-18.1-0.2-28.7,5.4-28.7,5.4L560,143.4
			l-52.2,34.4c-15.4,11.7-24.6,25-24.6,25s-3,3.8-4,17.6C479,226,482,231,482,231L1249.4,222.5z"/>
		<g id="g5658" transform="matrix(0.61904762,0,0,0.61904762,564.01623,88.701317)">
			
				<radialGradient id="path5543_1_" cx="825.8256" cy="-2296.605" r="185.9029" gradientTransform="matrix(7.000571e-002 -0.179 -0.196 -7.664594e-002 -592.5124 166.3538)" gradientUnits="userSpaceOnUse">
				<stop  offset="0" style="stop-color:#666666"/>
				<stop  offset="0.5" style="stop-color:#4D4D4D"/>
				<stop  offset="1" style="stop-color:#000000"/>
			</radialGradient>
			<path id="path5543" inkscape:connector-curvature="0" class="st2" d="M-126.7,194.6c0-23.2,18.8-42,42-42s42,18.8,42,42
				s-18.8,42-42,42S-126.7,217.8-126.7,194.6z"/>
			
				<radialGradient id="path5563_1_" cx="7257.4653" cy="-15478.4307" r="185.87" gradientTransform="matrix(-2.425319e-004 -3.791521e-002 -3.496998e-002 2.236861e-004 -624.1126 474.0839)" gradientUnits="userSpaceOnUse">
				<stop  offset="0" style="stop-color:#CCCCCC"/>
				<stop  offset="1" style="stop-color:#1A1A1A"/>
			</radialGradient>
			<path id="path5563" inkscape:connector-curvature="0" class="st3" d="M-95.2,194.6c0-5.8,4.7-10.5,10.5-10.5
				c5.8,0,10.5,4.7,10.5,10.5c0,5.8-4.7,10.5-10.5,10.5C-90.5,205.1-95.2,200.4-95.2,194.6z"/>
		</g>
		<g id="g5446" transform="matrix(0.30935718,0,0,0.30935718,1442.1075,32.226891)">
			
				<radialGradient id="path5448_1_" cx="-3212.1279" cy="-3119.8103" r="185.9028" gradientTransform="matrix(0.1131 -0.2891 -0.3166 -0.1238 -3379.1614 -857.1813)" gradientUnits="userSpaceOnUse">
				<stop  offset="0" style="stop-color:#666666"/>
				<stop  offset="0.5" style="stop-color:#4D4D4D"/>
				<stop  offset="1" style="stop-color:#000000"/>
			</radialGradient>
			<path id="path5448" inkscape:connector-curvature="0" class="st4" d="M-2890.6,457.8c0-75,60.8-135.8,135.8-135.8
				c75,0,135.8,60.8,135.8,135.8s-60.8,135.8-135.8,135.8C-2829.8,593.6-2890.6,532.8-2890.6,457.8z"/>
			
				<radialGradient id="path5450_1_" cx="-2175.4363" cy="-7388.5571" r="185.87" gradientTransform="matrix(2.298375e-003 -0.1682 -0.1614 -2.205568e-003 -3943.6965 79.7116)" gradientUnits="userSpaceOnUse">
				<stop  offset="0" style="stop-color:#000000"/>
				<stop  offset="1" style="stop-color:#999999"/>
			</radialGradient>
			<path id="path5450" inkscape:connector-curvature="0" class="st5" d="M-2851.8,457.8c0-53.6,43.4-97,97-97c53.6,0,97,43.4,97,97
				s-43.4,97-97,97C-2808.4,554.8-2851.8,511.4-2851.8,457.8z"/>
			
				<radialGradient id="path5452_1_" cx="-1734.5977" cy="-8161.3066" r="185.87" gradientTransform="matrix(2.807676e-004 -0.1493 -0.1453 -2.733010e-004 -3940.0635 198.9266)" gradientUnits="userSpaceOnUse">
				<stop  offset="0" style="stop-color:#4D4D4D"/>
				<stop  offset="1" style="stop-color:#4D4D4D;stop-opacity:0"/>
			</radialGradient>
			<path id="path5452" inkscape:connector-curvature="0" class="st6" d="M-2842.1,457.7c0-48.2,39.1-87.3,87.3-87.3
				s87.3,39.1,87.3,87.3s-39.1,87.3-87.3,87.3S-2842.1,506-2842.1,457.7z"/>
			<path id="path5454" inkscape:connector-curvature="0" class="st7" d="M-2754.9,545c7,0,13.8-0.8,20.3-2.4
				c-1.7-7.4-10.1-13-20.3-13c-10.1,0-18.5,5.6-20.3,13C-2768.6,544.2-2761.8,545-2754.9,545L-2754.9,545z"/>
			<path id="path5456" inkscape:connector-curvature="0" class="st7" d="M-2691.5,517.7c9.3-9.8,16.3-21.8,20.3-35.1
				c-7.2-2.2-16.3,2.3-21.4,11.1C-2697.6,502.5-2697,512.5-2691.5,517.7z"/>
			<path id="path5458" inkscape:connector-curvature="0" class="st7" d="M-2674.7,433.4c1.2,0,2.4-0.2,3.6-0.5
				c-4-13.3-11-25.3-20.3-35.1c-5.5,5.2-6.2,15.3-1.1,24C-2688.3,429.2-2681.2,433.5-2674.7,433.4L-2674.7,433.4z"/>
			<path id="path5460" inkscape:connector-curvature="0" class="st7" d="M-2754.9,385.8c10.1,0,18.6-5.6,20.3-13
				c-6.5-1.5-13.3-2.4-20.3-2.4c-7,0-13.8,0.8-20.3,2.4C-2773.4,380.2-2765,385.8-2754.9,385.8L-2754.9,385.8z"/>
			<path id="path5462" inkscape:connector-curvature="0" class="st7" d="M-2834.2,433.4c6.2-0.2,12.9-4.5,17-11.6
				c5.1-8.8,4.4-18.8-1.1-24c-9.3,9.8-16.3,21.8-20.3,35.1C-2837.1,433.3-2835.7,433.5-2834.2,433.4L-2834.2,433.4z"/>
			<path id="path5464" inkscape:connector-curvature="0" class="st7" d="M-2818.2,517.7c5.5-5.2,6.1-15.3,1.1-24
				c-5.1-8.8-14.1-13.3-21.4-11.1C-2834.6,495.9-2827.5,507.9-2818.2,517.7L-2818.2,517.7z"/>
			
				<radialGradient id="path5466_1_" cx="8.1274" cy="-10710.4639" r="185.8118" gradientTransform="matrix(-3.917897e-004 -0.1077 -0.1076 3.909829e-004 -3907.0991 462.8074)" gradientUnits="userSpaceOnUse">
				<stop  offset="0" style="stop-color:#FFFFFF"/>
				<stop  offset="1" style="stop-color:#4D4D4D"/>
			</radialGradient>
			<path id="path5466" inkscape:connector-curvature="0" class="st8" d="M-2819.5,457.7c0-35.7,28.9-64.7,64.7-64.7
				s64.7,28.9,64.7,64.7s-28.9,64.7-64.7,64.7S-2819.5,493.5-2819.5,457.7z"/>
			
				<radialGradient id="path5468_1_" cx="4800.877" cy="-19439.5879" r="185.87" gradientTransform="matrix(-3.917823e-004 -6.124764e-002 -5.648996e-002 3.613391e-004 -3850.8855 761.6976)" gradientUnits="userSpaceOnUse">
				<stop  offset="0" style="stop-color:#CCCCCC"/>
				<stop  offset="1" style="stop-color:#1A1A1A"/>
			</radialGradient>
			<path id="path5468" inkscape:connector-curvature="0" class="st9" d="M-2788.8,457.8c0-18.7,15.2-33.9,33.9-33.9
				c18.7,0,33.9,15.2,33.9,33.9c0,18.7-15.2,33.9-33.9,33.9C-2773.6,491.7-2788.8,476.5-2788.8,457.8z"/>
			<g id="g5470" transform="translate(1015.3617,-203.0207)" inkscape:transform-center-y="-53.790562" class="st10">
				<path id="path5472_4_" inkscape:connector-curvature="0" class="st11" d="M-3768.1,703.4c0-2.1,1.7-3.8,3.8-3.8
					c2.1,0,3.8,1.7,3.8,3.8c0,2.1-1.7,3.8-3.8,3.8C-3766.4,707.2-3768.1,705.5-3768.1,703.4z"/>
				<path id="path5474_4_" inkscape:connector-curvature="0" class="st11" d="M-3779.8,703.4c0-2.1,1.7-3.8,3.8-3.8
					c2.1,0,3.8,1.7,3.8,3.8c0,2.1-1.7,3.8-3.8,3.8C-3778.1,707.2-3779.8,705.5-3779.8,703.4z"/>
			</g>
			
				<g id="g5476" transform="matrix(0.70711,-0.70711,0.70711,0.70711,-52.82826,-790.2907)" inkscape:transform-center-x="38.035671" inkscape:transform-center-y="-38.035676" class="st10">
				<path id="path5478_4_" inkscape:connector-curvature="0" class="st11" d="M-2790.7-985.3c0-2.1,1.7-3.8,3.8-3.8
					c2.1,0,3.8,1.7,3.8,3.8s-1.7,3.8-3.8,3.8C-2789-981.5-2790.7-983.2-2790.7-985.3z"/>
				<path id="path5480_4_" inkscape:connector-curvature="0" class="st11" d="M-2802.5-985.3c0-2.1,1.7-3.8,3.8-3.8
					c2.1,0,3.8,1.7,3.8,3.8s-1.7,3.8-3.8,3.8C-2800.7-981.5-2802.5-983.2-2802.5-985.3z"/>
			</g>
			<g id="g5482" transform="matrix(0,-1,1,0,-1223.4183,-450.2207)" inkscape:transform-center-x="53.790566" class="st10">
				<path id="path5484_4_" inkscape:connector-curvature="0" class="st11" d="M-905.5-1488.3c0-2.1,1.7-3.8,3.8-3.8s3.8,1.7,3.8,3.8
					c0,2.1-1.7,3.8-3.8,3.8S-905.5-1486.2-905.5-1488.3z"/>
				<path id="path5486_4_" inkscape:connector-curvature="0" class="st11" d="M-917.3-1488.3c0-2.1,1.7-3.8,3.8-3.8s3.8,1.7,3.8,3.8
					c0,2.1-1.7,3.8-3.8,3.8S-917.3-1486.2-917.3-1488.3z"/>
			</g>
			
				<g id="g5488" transform="matrix(-0.70711,-0.70711,0.70711,-0.70711,-1810.6883,617.9793)" inkscape:transform-center-x="38.03568" inkscape:transform-center-y="38.035651" class="st10">
				<path id="path5490_4_" inkscape:connector-curvature="0" class="st11" d="M783.2-510.9c0-2.1,1.7-3.8,3.8-3.8s3.8,1.7,3.8,3.8
					s-1.7,3.8-3.8,3.8S783.2-508.8,783.2-510.9z"/>
				<path id="path5492_4_" inkscape:connector-curvature="0" class="st11" d="M771.5-510.9c0-2.1,1.7-3.8,3.8-3.8s3.8,1.7,3.8,3.8
					s-1.7,3.8-3.8,3.8S771.5-508.8,771.5-510.9z"/>
			</g>
			
				<g id="g5494" transform="matrix(-1,0,0,-1,-1470.6183,1788.5793)" inkscape:transform-center-x="1.614671e-005" inkscape:transform-center-y="53.790566" class="st10">
				<path id="path5496_4_" inkscape:connector-curvature="0" class="st11" d="M1286.2,1374.3c0-2.1,1.7-3.8,3.8-3.8
					c2.1,0,3.8,1.7,3.8,3.8s-1.7,3.8-3.8,3.8C1287.9,1378.1,1286.2,1376.4,1286.2,1374.3z"/>
				<path id="path5498_4_" inkscape:connector-curvature="0" class="st11" d="M1274.5,1374.3c0-2.1,1.7-3.8,3.8-3.8
					c2.1,0,3.8,1.7,3.8,3.8s-1.7,3.8-3.8,3.8C1276.2,1378.1,1274.5,1376.4,1274.5,1374.3z"/>
			</g>
			
				<g id="g5500" transform="matrix(-0.70711,0.70711,-0.70711,-0.70711,-402.41826,2375.8793)" inkscape:transform-center-x="-38.035665" inkscape:transform-center-y="38.03571" class="st10">
				<path id="path5502_4_" inkscape:connector-curvature="0" class="st11" d="M308.8,3063c0-2.1,1.7-3.8,3.8-3.8s3.8,1.7,3.8,3.8
					c0,2.1-1.7,3.8-3.8,3.8S308.8,3065.2,308.8,3063z"/>
				<path id="path5504_4_" inkscape:connector-curvature="0" class="st11" d="M297,3063c0-2.1,1.7-3.8,3.8-3.8s3.8,1.7,3.8,3.8
					c0,2.1-1.7,3.8-3.8,3.8S297,3065.2,297,3063z"/>
			</g>
			
				<g id="g5506" transform="matrix(0,1,-1,0,768.16174,2035.7793)" inkscape:transform-center-x="-53.79063" inkscape:transform-center-y="3.6146709e-005" class="st10">
				<path id="path5508_4_" inkscape:connector-curvature="0" class="st11" d="M-1576.4,3566c0-2.1,1.7-3.8,3.8-3.8
					c2.1,0,3.8,1.7,3.8,3.8s-1.7,3.8-3.8,3.8C-1574.7,3569.8-1576.4,3568.1-1576.4,3566z"/>
				<path id="path5510_4_" inkscape:connector-curvature="0" class="st11" d="M-1588.2,3566c0-2.1,1.7-3.8,3.8-3.8
					c2.1,0,3.8,1.7,3.8,3.8s-1.7,3.8-3.8,3.8C-1586.4,3569.8-1588.2,3568.1-1588.2,3566z"/>
			</g>
			
				<g id="g5512" transform="matrix(0.70711,0.70711,-0.70711,0.70711,1355.4617,967.5793)" inkscape:transform-center-x="-38.035774" inkscape:transform-center-y="-38.035665" class="st10">
				<path id="path5514_4_" inkscape:connector-curvature="0" class="st11" d="M-3265.2,2588.6c0-2.1,1.7-3.8,3.8-3.8
					c2.1,0,3.8,1.7,3.8,3.8c0,2.1-1.7,3.8-3.8,3.8C-3263.4,2592.5-3265.2,2590.7-3265.2,2588.6z"/>
				<path id="path5516_4_" inkscape:connector-curvature="0" class="st11" d="M-3276.9,2588.6c0-2.1,1.7-3.8,3.8-3.8
					c2.1,0,3.8,1.7,3.8,3.8c0,2.1-1.7,3.8-3.8,3.8C-3275.2,2592.5-3276.9,2590.7-3276.9,2588.6z"/>
			</g>
		</g>
		<g id="g5364" transform="matrix(0.30935718,0,0,0.30935718,1308.1075,38.226891)">
			
				<radialGradient id="path5366_1_" cx="-2778.9714" cy="-3139.2053" r="185.9028" gradientTransform="matrix(0.1131 -0.2891 -0.3166 -0.1238 -2654.6033 -769.259)" gradientUnits="userSpaceOnUse">
				<stop  offset="0" style="stop-color:#666666"/>
				<stop  offset="0.5" style="stop-color:#4D4D4D"/>
				<stop  offset="1" style="stop-color:#000000"/>
			</radialGradient>
			<path id="path5366" inkscape:connector-curvature="0" class="st12" d="M-2110.9,422.9c0-75,60.8-135.8,135.8-135.8
				c75,0,135.8,60.8,135.8,135.8s-60.8,135.8-135.8,135.8C-2050.1,558.6-2110.9,497.9-2110.9,422.9z"/>
			
				<radialGradient id="path5368_1_" cx="-1742.2799" cy="-7407.9521" r="185.87" gradientTransform="matrix(2.298375e-003 -0.1682 -0.1614 -2.205568e-003 -3168.1404 117.6067)" gradientUnits="userSpaceOnUse">
				<stop  offset="0" style="stop-color:#000000"/>
				<stop  offset="1" style="stop-color:#999999"/>
			</radialGradient>
			<path id="path5368" inkscape:connector-curvature="0" class="st13" d="M-2072.2,422.9c0-53.6,43.4-97,97-97s97,43.4,97,97
				s-43.4,97-97,97C-2028.7,519.9-2072.2,476.4-2072.2,422.9z"/>
			
				<radialGradient id="path5370_1_" cx="-1301.4412" cy="-8180.7017" r="185.87" gradientTransform="matrix(2.807676e-004 -0.1493 -0.1453 -2.733010e-004 -3163.3208 228.7004)" gradientUnits="userSpaceOnUse">
				<stop  offset="0" style="stop-color:#4D4D4D"/>
				<stop  offset="1" style="stop-color:#4D4D4D;stop-opacity:0"/>
			</radialGradient>
			<path id="path5370" inkscape:connector-curvature="0" class="st14" d="M-2062.4,422.8c0-48.2,39.1-87.3,87.3-87.3
				c48.2,0,87.3,39.1,87.3,87.3s-39.1,87.3-87.3,87.3C-2023.3,510.1-2062.4,471-2062.4,422.8z"/>
			<path id="path5372" inkscape:connector-curvature="0" class="st7" d="M-1975.2,510.1c7,0,13.8-0.8,20.3-2.4
				c-1.7-7.4-10.1-13-20.3-13c-10.1,0-18.5,5.6-20.3,13C-1988.9,509.2-1982.2,510.1-1975.2,510.1L-1975.2,510.1z"/>
			<path id="path5374" inkscape:connector-curvature="0" class="st7" d="M-1911.8,482.8c9.3-9.8,16.3-21.8,20.3-35.1
				c-7.2-2.2-16.3,2.3-21.4,11.1C-1918,467.6-1917.3,477.6-1911.8,482.8z"/>
			<path id="path5376" inkscape:connector-curvature="0" class="st7" d="M-1895.1,398.5c1.2,0,2.4-0.2,3.5-0.5
				c-4-13.3-11-25.3-20.3-35.1c-5.5,5.2-6.2,15.3-1.1,24C-1908.6,394.3-1901.5,398.6-1895.1,398.5L-1895.1,398.5z"/>
			<path id="path5378" inkscape:connector-curvature="0" class="st7" d="M-1975.2,350.9c10.1,0,18.6-5.6,20.3-13
				c-6.5-1.5-13.3-2.4-20.3-2.4c-7,0-13.8,0.8-20.3,2.4C-1993.7,345.3-1985.3,350.9-1975.2,350.9L-1975.2,350.9z"/>
			<path id="path5380" inkscape:connector-curvature="0" class="st7" d="M-2054.5,398.5c6.2-0.2,12.9-4.5,17-11.6
				c5.1-8.8,4.4-18.8-1.1-24c-9.3,9.8-16.3,21.8-20.3,35.1C-2057.5,398.4-2056,398.6-2054.5,398.5L-2054.5,398.5z"/>
			<path id="path5382" inkscape:connector-curvature="0" class="st7" d="M-2038.6,482.8c5.5-5.2,6.1-15.3,1.1-24
				c-5.1-8.8-14.1-13.3-21.4-11.1C-2054.9,461-2047.9,473-2038.6,482.8L-2038.6,482.8z"/>
			
				<radialGradient id="path5384_1_" cx="441.2839" cy="-10729.8584" r="185.8118" gradientTransform="matrix(-3.917897e-004 -0.1077 -0.1076 3.909829e-004 -3129.3345 474.5356)" gradientUnits="userSpaceOnUse">
				<stop  offset="0" style="stop-color:#FFFFFF"/>
				<stop  offset="1" style="stop-color:#4D4D4D"/>
			</radialGradient>
			<path id="path5384" inkscape:connector-curvature="0" class="st15" d="M-2039.8,422.8c0-35.7,28.9-64.7,64.7-64.7
				s64.7,28.9,64.7,64.7s-28.9,64.7-64.7,64.7S-2039.8,458.5-2039.8,422.8z"/>
			
				<radialGradient id="path5386_1_" cx="5234.0332" cy="-19458.9824" r="185.87" gradientTransform="matrix(-3.917823e-004 -6.124764e-002 -5.648996e-002 3.613391e-004 -3072.1296 753.3233)" gradientUnits="userSpaceOnUse">
				<stop  offset="0" style="stop-color:#CCCCCC"/>
				<stop  offset="1" style="stop-color:#1A1A1A"/>
			</radialGradient>
			<path id="path5386" inkscape:connector-curvature="0" class="st16" d="M-2009.1,422.9c0-18.7,15.2-33.9,33.9-33.9
				s33.9,15.2,33.9,33.9s-15.2,33.9-33.9,33.9S-2009.1,441.6-2009.1,422.9z"/>
			<g id="g5388" transform="translate(1015.3617,-203.0207)" inkscape:transform-center-y="-53.790562" class="st10">
				<path id="path5390_4_" inkscape:connector-curvature="0" class="st11" d="M-2988.4,668.5c0-2.1,1.7-3.8,3.8-3.8s3.8,1.7,3.8,3.8
					s-1.7,3.8-3.8,3.8S-2988.4,670.6-2988.4,668.5z"/>
				<path id="path5392_4_" inkscape:connector-curvature="0" class="st11" d="M-3000.2,668.5c0-2.1,1.7-3.8,3.8-3.8s3.8,1.7,3.8,3.8
					s-1.7,3.8-3.8,3.8S-3000.2,670.6-3000.2,668.5z"/>
			</g>
			
				<g id="g5394" transform="matrix(0.70711,-0.70711,0.70711,0.70711,-52.82826,-790.2907)" inkscape:transform-center-x="38.035671" inkscape:transform-center-y="-38.035676" class="st10">
				<path id="path5396_4_" inkscape:connector-curvature="0" class="st11" d="M-2214.7-458.7c0-2.1,1.7-3.8,3.8-3.8s3.8,1.7,3.8,3.8
					s-1.7,3.8-3.8,3.8S-2214.7-456.6-2214.7-458.7z"/>
				<path id="path5398_4_" inkscape:connector-curvature="0" class="st11" d="M-2226.5-458.7c0-2.1,1.7-3.8,3.8-3.8
					c2.1,0,3.8,1.7,3.8,3.8s-1.7,3.8-3.8,3.8C-2224.7-454.9-2226.5-456.6-2226.5-458.7z"/>
			</g>
			<g id="g5400" transform="matrix(0,-1,1,0,-1223.4183,-450.2207)" inkscape:transform-center-x="53.790566" class="st10">
				<path id="path5402_4_" inkscape:connector-curvature="0" class="st11" d="M-870.6-708.7c0-2.1,1.7-3.8,3.8-3.8s3.8,1.7,3.8,3.8
					s-1.7,3.8-3.8,3.8S-870.6-706.5-870.6-708.7z"/>
				<path id="path5404_4_" inkscape:connector-curvature="0" class="st11" d="M-882.3-708.7c0-2.1,1.7-3.8,3.8-3.8
					c2.1,0,3.8,1.7,3.8,3.8s-1.7,3.8-3.8,3.8C-880.6-704.8-882.3-706.5-882.3-708.7z"/>
			</g>
			
				<g id="g5406" transform="matrix(-0.70711,-0.70711,0.70711,-0.70711,-1810.6883,617.9793)" inkscape:transform-center-x="38.03568" inkscape:transform-center-y="38.035651" class="st10">
				<path id="path5408_4_" inkscape:connector-curvature="0" class="st11" d="M256.6,65.1c0-2.1,1.7-3.8,3.8-3.8
					c2.1,0,3.8,1.7,3.8,3.8c0,2.1-1.7,3.8-3.8,3.8C258.3,68.9,256.6,67.2,256.6,65.1z"/>
				<path id="path5410_4_" inkscape:connector-curvature="0" class="st11" d="M244.8,65.1c0-2.1,1.7-3.8,3.8-3.8s3.8,1.7,3.8,3.8
					c0,2.1-1.7,3.8-3.8,3.8S244.8,67.2,244.8,65.1z"/>
			</g>
			
				<g id="g5412" transform="matrix(-1,0,0,-1,-1470.6183,1788.5793)" inkscape:transform-center-x="1.614671e-005" inkscape:transform-center-y="53.790566" class="st10">
				<path id="path5414_4_" inkscape:connector-curvature="0" class="st11" d="M506.5,1409.2c0-2.1,1.7-3.8,3.8-3.8
					c2.1,0,3.8,1.7,3.8,3.8c0,2.1-1.7,3.8-3.8,3.8C508.2,1413,506.5,1411.3,506.5,1409.2z"/>
				<path id="path5416_4_" inkscape:connector-curvature="0" class="st11" d="M494.8,1409.2c0-2.1,1.7-3.8,3.8-3.8s3.8,1.7,3.8,3.8
					c0,2.1-1.7,3.8-3.8,3.8S494.8,1411.3,494.8,1409.2z"/>
			</g>
			
				<g id="g5418" transform="matrix(-0.70711,0.70711,-0.70711,-0.70711,-402.41826,2375.8793)" inkscape:transform-center-x="-38.035665" inkscape:transform-center-y="38.03571" class="st10">
				<path id="path5420_4_" inkscape:connector-curvature="0" class="st11" d="M-267.2,2536.4c0-2.1,1.7-3.8,3.8-3.8s3.8,1.7,3.8,3.8
					c0,2.1-1.7,3.8-3.8,3.8S-267.2,2538.5-267.2,2536.4z"/>
				<path id="path5422_4_" inkscape:connector-curvature="0" class="st11" d="M-279,2536.4c0-2.1,1.7-3.8,3.8-3.8s3.8,1.7,3.8,3.8
					c0,2.1-1.7,3.8-3.8,3.8S-279,2538.5-279,2536.4z"/>
			</g>
			
				<g id="g5424" transform="matrix(0,1,-1,0,768.16174,2035.7793)" inkscape:transform-center-x="-53.79063" inkscape:transform-center-y="3.6146709e-005" class="st10">
				<path id="path5426_4_" inkscape:connector-curvature="0" class="st11" d="M-1611.3,2786.3c0-2.1,1.7-3.8,3.8-3.8
					c2.1,0,3.8,1.7,3.8,3.8c0,2.1-1.7,3.8-3.8,3.8C-1609.6,2790.1-1611.3,2788.4-1611.3,2786.3z"/>
				<path id="path5428_4_" inkscape:connector-curvature="0" class="st11" d="M-1623.1,2786.3c0-2.1,1.7-3.8,3.8-3.8
					c2.1,0,3.8,1.7,3.8,3.8c0,2.1-1.7,3.8-3.8,3.8C-1621.3,2790.1-1623.1,2788.4-1623.1,2786.3z"/>
			</g>
			
				<g id="g5430" transform="matrix(0.70711,0.70711,-0.70711,0.70711,1355.4617,967.5793)" inkscape:transform-center-x="-38.035774" inkscape:transform-center-y="-38.035665" class="st10">
				<path id="path5432_4_" inkscape:connector-curvature="0" class="st11" d="M-2738.5,2012.6c0-2.1,1.7-3.8,3.8-3.8
					s3.8,1.7,3.8,3.8c0,2.1-1.7,3.8-3.8,3.8S-2738.5,2014.7-2738.5,2012.6z"/>
				<path id="path5434_4_" inkscape:connector-curvature="0" class="st11" d="M-2750.3,2012.6c0-2.1,1.7-3.8,3.8-3.8
					c2.1,0,3.8,1.7,3.8,3.8c0,2.1-1.7,3.8-3.8,3.8C-2748.5,2016.5-2750.3,2014.7-2750.3,2012.6z"/>
			</g>
		</g>
		<g id="g5282" transform="matrix(0.30935718,0,0,0.30935718,1164.1075,38.226891)">
			
				<radialGradient id="path5284_1_" cx="-2313.4897" cy="-3139.2053" r="185.9028" gradientTransform="matrix(0.1131 -0.2891 -0.3166 -0.1238 -1869.3759 -634.6783)" gradientUnits="userSpaceOnUse">
				<stop  offset="0" style="stop-color:#666666"/>
				<stop  offset="0.5" style="stop-color:#4D4D4D"/>
				<stop  offset="1" style="stop-color:#000000"/>
			</radialGradient>
			<path id="path5284" inkscape:connector-curvature="0" class="st17" d="M-1273,422.9c0-75,60.8-135.8,135.8-135.8
				s135.8,60.8,135.8,135.8s-60.8,135.8-135.8,135.8S-1273,497.9-1273,422.9z"/>
			
				<radialGradient id="path5286_1_" cx="-1276.7982" cy="-7407.9521" r="185.87" gradientTransform="matrix(2.298375e-003 -0.1682 -0.1614 -2.205568e-003 -2331.3435 195.8922)" gradientUnits="userSpaceOnUse">
				<stop  offset="0" style="stop-color:#000000"/>
				<stop  offset="1" style="stop-color:#999999"/>
			</radialGradient>
			<path id="path5286" inkscape:connector-curvature="0" class="st18" d="M-1234.3,422.9c0-53.6,43.4-97,97-97s97,43.4,97,97
				s-43.4,97-97,97C-1190.9,519.9-1234.3,476.4-1234.3,422.9z"/>
			
				<radialGradient id="path5288_1_" cx="-835.9595" cy="-8180.7017" r="185.87" gradientTransform="matrix(2.807676e-004 -0.1493 -0.1453 -2.733010e-004 -2325.5845 298.2183)" gradientUnits="userSpaceOnUse">
				<stop  offset="0" style="stop-color:#4D4D4D"/>
				<stop  offset="1" style="stop-color:#4D4D4D;stop-opacity:0"/>
			</radialGradient>
			<path id="path5288" inkscape:connector-curvature="0" class="st19" d="M-1224.5,422.8c0-48.2,39.1-87.3,87.3-87.3
				c48.2,0,87.3,39.1,87.3,87.3s-39.1,87.3-87.3,87.3C-1185.5,510.1-1224.5,471-1224.5,422.8z"/>
			<path id="path5290" inkscape:connector-curvature="0" class="st7" d="M-1137.3,510.1c7,0,13.8-0.8,20.3-2.4
				c-1.7-7.4-10.1-13-20.3-13c-10.1,0-18.5,5.6-20.3,13C-1151.1,509.2-1144.3,510.1-1137.3,510.1L-1137.3,510.1z"/>
			<path id="path5292" inkscape:connector-curvature="0" class="st7" d="M-1073.9,482.8c9.3-9.8,16.3-21.8,20.3-35.1
				c-7.2-2.2-16.3,2.3-21.4,11.1C-1080.1,467.6-1079.4,477.6-1073.9,482.8z"/>
			<path id="path5294" inkscape:connector-curvature="0" class="st7" d="M-1057.2,398.5c1.2,0,2.4-0.2,3.5-0.5
				c-4-13.3-11-25.3-20.3-35.1c-5.5,5.2-6.2,15.3-1.1,24C-1070.8,394.3-1063.7,398.6-1057.2,398.5L-1057.2,398.5z"/>
			<path id="path5296" inkscape:connector-curvature="0" class="st7" d="M-1137.3,350.9c10.1,0,18.6-5.6,20.3-13
				c-6.5-1.5-13.3-2.4-20.3-2.4c-7,0-13.8,0.8-20.3,2.4C-1155.9,345.3-1147.4,350.9-1137.3,350.9L-1137.3,350.9z"/>
			<path id="path5298" inkscape:connector-curvature="0" class="st7" d="M-1216.6,398.5c6.2-0.2,12.9-4.5,17-11.6
				c5.1-8.8,4.4-18.8-1.1-24c-9.3,9.8-16.3,21.8-20.3,35.1C-1219.6,398.4-1218.1,398.6-1216.6,398.5L-1216.6,398.5z"/>
			<path id="path5300" inkscape:connector-curvature="0" class="st7" d="M-1200.7,482.8c5.5-5.2,6.1-15.3,1.1-24
				c-5.1-8.8-14.1-13.3-21.4-11.1C-1217,461-1210,473-1200.7,482.8L-1200.7,482.8z"/>
			
				<radialGradient id="path5302_1_" cx="906.7655" cy="-10729.8584" r="185.8118" gradientTransform="matrix(-3.917897e-004 -0.1077 -0.1076 3.909829e-004 -2291.2852 524.6473)" gradientUnits="userSpaceOnUse">
				<stop  offset="0" style="stop-color:#FFFFFF"/>
				<stop  offset="1" style="stop-color:#4D4D4D"/>
			</radialGradient>
			<path id="path5302" inkscape:connector-curvature="0" class="st20" d="M-1202,422.8c0-35.7,28.9-64.7,64.7-64.7
				c35.7,0,64.7,28.9,64.7,64.7s-28.9,64.7-64.7,64.7C-1173,487.5-1202,458.5-1202,422.8z"/>
			
				<radialGradient id="path5304_1_" cx="5699.5151" cy="-19458.9824" r="185.87" gradientTransform="matrix(-3.917823e-004 -6.124764e-002 -5.648996e-002 3.613391e-004 -2234.0803 781.8329)" gradientUnits="userSpaceOnUse">
				<stop  offset="0" style="stop-color:#CCCCCC"/>
				<stop  offset="1" style="stop-color:#1A1A1A"/>
			</radialGradient>
			<path id="path5304" inkscape:connector-curvature="0" class="st21" d="M-1171.2,422.9c0-18.7,15.2-33.9,33.9-33.9
				s33.9,15.2,33.9,33.9s-15.2,33.9-33.9,33.9C-1156.1,456.8-1171.2,441.6-1171.2,422.9z"/>
			<g id="g5306" transform="translate(1015.3617,-203.0207)" inkscape:transform-center-y="-53.790562" class="st10">
				<path id="path5308_4_" inkscape:connector-curvature="0" class="st11" d="M-2150.6,668.5c0-2.1,1.7-3.8,3.8-3.8s3.8,1.7,3.8,3.8
					s-1.7,3.8-3.8,3.8S-2150.6,670.6-2150.6,668.5z"/>
				<path id="path5310_4_" inkscape:connector-curvature="0" class="st11" d="M-2162.3,668.5c0-2.1,1.7-3.8,3.8-3.8s3.8,1.7,3.8,3.8
					s-1.7,3.8-3.8,3.8S-2162.3,670.6-2162.3,668.5z"/>
			</g>
			
				<g id="g5312" transform="matrix(0.70711,-0.70711,0.70711,0.70711,-52.82826,-790.2907)" inkscape:transform-center-x="38.035671" inkscape:transform-center-y="-38.035676" class="st10">
				<path id="path5314_4_" inkscape:connector-curvature="0" class="st11" d="M-1622.3,133.8c0-2.1,1.7-3.8,3.8-3.8
					c2.1,0,3.8,1.7,3.8,3.8s-1.7,3.8-3.8,3.8C-1620.6,137.6-1622.3,135.9-1622.3,133.8z"/>
				<path id="path5316_4_" inkscape:connector-curvature="0" class="st11" d="M-1634,133.8c0-2.1,1.7-3.8,3.8-3.8s3.8,1.7,3.8,3.8
					s-1.7,3.8-3.8,3.8S-1634,135.9-1634,133.8z"/>
			</g>
			<g id="g5318" transform="matrix(0,-1,1,0,-1223.4183,-450.2207)" inkscape:transform-center-x="53.790566" class="st10">
				<path id="path5320_4_" inkscape:connector-curvature="0" class="st11" d="M-870.6,129.2c0-2.1,1.7-3.8,3.8-3.8s3.8,1.7,3.8,3.8
					c0,2.1-1.7,3.8-3.8,3.8S-870.6,131.3-870.6,129.2z"/>
				<path id="path5322_4_" inkscape:connector-curvature="0" class="st11" d="M-882.3,129.2c0-2.1,1.7-3.8,3.8-3.8
					c2.1,0,3.8,1.7,3.8,3.8c0,2.1-1.7,3.8-3.8,3.8C-880.6,133.1-882.3,131.3-882.3,129.2z"/>
			</g>
			
				<g id="g5324" transform="matrix(-0.70711,-0.70711,0.70711,-0.70711,-1810.6883,617.9793)" inkscape:transform-center-x="38.03568" inkscape:transform-center-y="38.035651" class="st10">
				<path id="path5326_4_" inkscape:connector-curvature="0" class="st11" d="M-335.9,657.5c0-2.1,1.7-3.8,3.8-3.8s3.8,1.7,3.8,3.8
					s-1.7,3.8-3.8,3.8S-335.9,659.6-335.9,657.5z"/>
				<path id="path5328_4_" inkscape:connector-curvature="0" class="st11" d="M-347.6,657.5c0-2.1,1.7-3.8,3.8-3.8
					c2.1,0,3.8,1.7,3.8,3.8s-1.7,3.8-3.8,3.8C-345.9,661.4-347.6,659.6-347.6,657.5z"/>
			</g>
			
				<g id="g5330" transform="matrix(-1,0,0,-1,-1470.6183,1788.5793)" inkscape:transform-center-x="1.614671e-005" inkscape:transform-center-y="53.790566" class="st10">
				<path id="path5332_4_" inkscape:connector-curvature="0" class="st11" d="M-331.4,1409.2c0-2.1,1.7-3.8,3.8-3.8s3.8,1.7,3.8,3.8
					c0,2.1-1.7,3.8-3.8,3.8S-331.4,1411.3-331.4,1409.2z"/>
				<path id="path5334_4_" inkscape:connector-curvature="0" class="st11" d="M-343.1,1409.2c0-2.1,1.7-3.8,3.8-3.8
					c2.1,0,3.8,1.7,3.8,3.8c0,2.1-1.7,3.8-3.8,3.8C-341.4,1413-343.1,1411.3-343.1,1409.2z"/>
			</g>
			
				<g id="g5336" transform="matrix(-0.70711,0.70711,-0.70711,-0.70711,-402.41826,2375.8793)" inkscape:transform-center-x="-38.035665" inkscape:transform-center-y="38.03571" class="st10">
				<path id="path5338_4_" inkscape:connector-curvature="0" class="st11" d="M-859.7,1944c0-2.1,1.7-3.8,3.8-3.8s3.8,1.7,3.8,3.8
					s-1.7,3.8-3.8,3.8S-859.7,1946.1-859.7,1944z"/>
				<path id="path5340_4_" inkscape:connector-curvature="0" class="st11" d="M-871.4,1944c0-2.1,1.7-3.8,3.8-3.8s3.8,1.7,3.8,3.8
					s-1.7,3.8-3.8,3.8S-871.4,1946.1-871.4,1944z"/>
			</g>
			
				<g id="g5342" transform="matrix(0,1,-1,0,768.16174,2035.7793)" inkscape:transform-center-x="-53.79063" inkscape:transform-center-y="3.6146709e-005" class="st10">
				<path id="path5344_4_" inkscape:connector-curvature="0" class="st11" d="M-1611.3,1948.4c0-2.1,1.7-3.8,3.8-3.8
					c2.1,0,3.8,1.7,3.8,3.8c0,2.1-1.7,3.8-3.8,3.8C-1609.6,1952.3-1611.3,1950.6-1611.3,1948.4z"/>
				<path id="path5346_4_" inkscape:connector-curvature="0" class="st11" d="M-1623.1,1948.4c0-2.1,1.7-3.8,3.8-3.8
					c2.1,0,3.8,1.7,3.8,3.8c0,2.1-1.7,3.8-3.8,3.8C-1621.3,1952.3-1623.1,1950.6-1623.1,1948.4z"/>
			</g>
			
				<g id="g5348" transform="matrix(0.70711,0.70711,-0.70711,0.70711,1355.4617,967.5793)" inkscape:transform-center-x="-38.035774" inkscape:transform-center-y="-38.035665" class="st10">
				<path id="path5350_4_" inkscape:connector-curvature="0" class="st11" d="M-2146.1,1420.2c0-2.1,1.7-3.8,3.8-3.8
					c2.1,0,3.8,1.7,3.8,3.8c0,2.1-1.7,3.8-3.8,3.8C-2144.4,1424-2146.1,1422.3-2146.1,1420.2z"/>
				<path id="path5352_4_" inkscape:connector-curvature="0" class="st11" d="M-2157.8,1420.2c0-2.1,1.7-3.8,3.8-3.8
					c2.1,0,3.8,1.7,3.8,3.8c0,2.1-1.7,3.8-3.8,3.8C-2156.1,1424-2157.8,1422.3-2157.8,1420.2z"/>
			</g>
		</g>
		<g id="g5200" transform="matrix(0.30935718,0,0,0.30935718,1042.1075,38.226891)">
			
				<radialGradient id="path5202_1_" cx="-1919.1234" cy="-3139.2053" r="185.9028" gradientTransform="matrix(0.1131 -0.2891 -0.3166 -0.1238 -1204.1136 -520.6585)" gradientUnits="userSpaceOnUse">
				<stop  offset="0" style="stop-color:#666666"/>
				<stop  offset="0.5" style="stop-color:#4D4D4D"/>
				<stop  offset="1" style="stop-color:#000000"/>
			</radialGradient>
			<path id="path5202" inkscape:connector-curvature="0" class="st22" d="M-563.2,422.9c0-75,60.8-135.8,135.8-135.8
				s135.8,60.8,135.8,135.8s-60.8,135.8-135.8,135.8S-563.2,497.9-563.2,422.9z"/>
			
				<radialGradient id="path5204_1_" cx="-882.4319" cy="-7407.9521" r="185.87" gradientTransform="matrix(2.298375e-003 -0.1682 -0.1614 -2.205568e-003 -1622.3903 262.2174)" gradientUnits="userSpaceOnUse">
				<stop  offset="0" style="stop-color:#000000"/>
				<stop  offset="1" style="stop-color:#999999"/>
			</radialGradient>
			<path id="path5204" inkscape:connector-curvature="0" class="st23" d="M-524.4,422.9c0-53.6,43.4-97,97-97s97,43.4,97,97
				s-43.4,97-97,97S-524.4,476.4-524.4,422.9z"/>
			
				<radialGradient id="path5206_1_" cx="-441.5931" cy="-8180.7017" r="185.87" gradientTransform="matrix(2.807676e-004 -0.1493 -0.1453 -2.733010e-004 -1615.8358 357.1154)" gradientUnits="userSpaceOnUse">
				<stop  offset="0" style="stop-color:#4D4D4D"/>
				<stop  offset="1" style="stop-color:#4D4D4D;stop-opacity:0"/>
			</radialGradient>
			<path id="path5206" inkscape:connector-curvature="0" class="st24" d="M-514.7,422.8c0-48.2,39.1-87.3,87.3-87.3
				s87.3,39.1,87.3,87.3s-39.1,87.3-87.3,87.3S-514.7,471-514.7,422.8z"/>
			<path id="path5208" inkscape:connector-curvature="0" class="st7" d="M-427.5,510.1c7,0,13.8-0.8,20.3-2.4
				c-1.7-7.4-10.1-13-20.3-13c-10.1,0-18.5,5.6-20.3,13C-441.2,509.2-434.4,510.1-427.5,510.1L-427.5,510.1z"/>
			<path id="path5210" inkscape:connector-curvature="0" class="st7" d="M-364.1,482.8c9.3-9.8,16.3-21.8,20.3-35.1
				c-7.2-2.2-16.3,2.3-21.4,11.1C-370.2,467.6-369.6,477.6-364.1,482.8z"/>
			<path id="path5212" inkscape:connector-curvature="0" class="st7" d="M-347.3,398.5c1.2,0,2.4-0.2,3.6-0.5
				c-4-13.3-11-25.3-20.3-35.1c-5.5,5.2-6.2,15.3-1.1,24C-360.9,394.3-353.8,398.6-347.3,398.5L-347.3,398.5z"/>
			<path id="path5214" inkscape:connector-curvature="0" class="st7" d="M-427.5,350.9c10.1,0,18.6-5.6,20.3-13
				c-6.5-1.5-13.3-2.4-20.3-2.4c-7,0-13.8,0.8-20.3,2.4C-446,345.3-437.6,350.9-427.5,350.9L-427.5,350.9z"/>
			<path id="path5216" inkscape:connector-curvature="0" class="st7" d="M-506.8,398.5c6.2-0.2,12.9-4.5,17-11.6
				c5.1-8.8,4.4-18.8-1.1-24c-9.3,9.8-16.3,21.8-20.3,35.1C-509.7,398.4-508.3,398.6-506.8,398.5L-506.8,398.5z"/>
			<path id="path5218" inkscape:connector-curvature="0" class="st7" d="M-490.8,482.8c5.5-5.2,6.1-15.3,1.1-24
				c-5.1-8.8-14.1-13.3-21.4-11.1C-507.2,461-500.1,473-490.8,482.8L-490.8,482.8z"/>
			
				<radialGradient id="path5220_1_" cx="1301.1318" cy="-10729.8584" r="185.8118" gradientTransform="matrix(-3.917897e-004 -0.1077 -0.1076 3.909829e-004 -1581.2712 567.1031)" gradientUnits="userSpaceOnUse">
				<stop  offset="0" style="stop-color:#FFFFFF"/>
				<stop  offset="1" style="stop-color:#4D4D4D"/>
			</radialGradient>
			<path id="path5220" inkscape:connector-curvature="0" class="st25" d="M-492.1,422.8c0-35.7,28.9-64.7,64.7-64.7
				s64.7,28.9,64.7,64.7s-28.9,64.7-64.7,64.7S-492.1,458.5-492.1,422.8z"/>
			
				<radialGradient id="path5222_1_" cx="6093.8813" cy="-19458.9824" r="185.87" gradientTransform="matrix(-3.917823e-004 -6.124764e-002 -5.648996e-002 3.613391e-004 -1524.0664 805.9869)" gradientUnits="userSpaceOnUse">
				<stop  offset="0" style="stop-color:#CCCCCC"/>
				<stop  offset="1" style="stop-color:#1A1A1A"/>
			</radialGradient>
			<path id="path5222" inkscape:connector-curvature="0" class="st26" d="M-461.4,422.9c0-18.7,15.2-33.9,33.9-33.9
				s33.9,15.2,33.9,33.9s-15.2,33.9-33.9,33.9C-446.2,456.8-461.4,441.6-461.4,422.9z"/>
			<g id="g5224" transform="translate(1015.3617,-203.0207)" inkscape:transform-center-y="-53.790562" class="st10">
				<path id="path5226_4_" inkscape:connector-curvature="0" class="st11" d="M-1440.7,668.5c0-2.1,1.7-3.8,3.8-3.8
					c2.1,0,3.8,1.7,3.8,3.8s-1.7,3.8-3.8,3.8C-1439,672.3-1440.7,670.6-1440.7,668.5z"/>
				<path id="path5228_4_" inkscape:connector-curvature="0" class="st11" d="M-1452.4,668.5c0-2.1,1.7-3.8,3.8-3.8
					c2.1,0,3.8,1.7,3.8,3.8s-1.7,3.8-3.8,3.8C-1450.7,672.3-1452.4,670.6-1452.4,668.5z"/>
			</g>
			
				<g id="g5230" transform="matrix(0.70711,-0.70711,0.70711,0.70711,-52.82826,-790.2907)" inkscape:transform-center-x="38.035671" inkscape:transform-center-y="-38.035676" class="st10">
				<path id="path5232_4_" inkscape:connector-curvature="0" class="st11" d="M-1120.3,635.7c0-2.1,1.7-3.8,3.8-3.8s3.8,1.7,3.8,3.8
					s-1.7,3.8-3.8,3.8S-1120.3,637.8-1120.3,635.7z"/>
				<path id="path5234_4_" inkscape:connector-curvature="0" class="st11" d="M-1132.1,635.7c0-2.1,1.7-3.8,3.8-3.8
					c2.1,0,3.8,1.7,3.8,3.8s-1.7,3.8-3.8,3.8C-1130.3,639.5-1132.1,637.8-1132.1,635.7z"/>
			</g>
			<g id="g5236" transform="matrix(0,-1,1,0,-1223.4183,-450.2207)" inkscape:transform-center-x="53.790566" class="st10">
				<path id="path5238_4_" inkscape:connector-curvature="0" class="st11" d="M-870.6,839.1c0-2.1,1.7-3.8,3.8-3.8s3.8,1.7,3.8,3.8
					s-1.7,3.8-3.8,3.8S-870.6,841.2-870.6,839.1z"/>
				<path id="path5240_4_" inkscape:connector-curvature="0" class="st11" d="M-882.3,839.1c0-2.1,1.7-3.8,3.8-3.8
					c2.1,0,3.8,1.7,3.8,3.8s-1.7,3.8-3.8,3.8C-880.6,842.9-882.3,841.2-882.3,839.1z"/>
			</g>
			
				<g id="g5242" transform="matrix(-0.70711,-0.70711,0.70711,-0.70711,-1810.6883,617.9793)" inkscape:transform-center-x="38.03568" inkscape:transform-center-y="38.035651" class="st10">
				<path id="path5244_4_" inkscape:connector-curvature="0" class="st11" d="M-837.8,1159.5c0-2.1,1.7-3.8,3.8-3.8s3.8,1.7,3.8,3.8
					c0,2.1-1.7,3.8-3.8,3.8S-837.8,1161.6-837.8,1159.5z"/>
				<path id="path5246_4_" inkscape:connector-curvature="0" class="st11" d="M-849.6,1159.5c0-2.1,1.7-3.8,3.8-3.8
					c2.1,0,3.8,1.7,3.8,3.8c0,2.1-1.7,3.8-3.8,3.8C-847.8,1163.3-849.6,1161.6-849.6,1159.5z"/>
			</g>
			
				<g id="g5248" transform="matrix(-1,0,0,-1,-1470.6183,1788.5793)" inkscape:transform-center-x="1.614671e-005" inkscape:transform-center-y="53.790566" class="st10">
				<path id="path5250_4_" inkscape:connector-curvature="0" class="st11" d="M-1041.2,1409.2c0-2.1,1.7-3.8,3.8-3.8
					c2.1,0,3.8,1.7,3.8,3.8c0,2.1-1.7,3.8-3.8,3.8C-1039.5,1413-1041.2,1411.3-1041.2,1409.2z"/>
				<path id="path5252_4_" inkscape:connector-curvature="0" class="st11" d="M-1052.9,1409.2c0-2.1,1.7-3.8,3.8-3.8
					c2.1,0,3.8,1.7,3.8,3.8c0,2.1-1.7,3.8-3.8,3.8C-1051.2,1413-1052.9,1411.3-1052.9,1409.2z"/>
			</g>
			
				<g id="g5254" transform="matrix(-0.70711,0.70711,-0.70711,-0.70711,-402.41826,2375.8793)" inkscape:transform-center-x="-38.035665" inkscape:transform-center-y="38.03571" class="st10">
				<path id="path5256_4_" inkscape:connector-curvature="0" class="st11" d="M-1361.6,1442c0-2.1,1.7-3.8,3.8-3.8
					c2.1,0,3.8,1.7,3.8,3.8c0,2.1-1.7,3.8-3.8,3.8C-1359.9,1445.8-1361.6,1444.1-1361.6,1442z"/>
				<path id="path5258_4_" inkscape:connector-curvature="0" class="st11" d="M-1373.4,1442c0-2.1,1.7-3.8,3.8-3.8
					c2.1,0,3.8,1.7,3.8,3.8c0,2.1-1.7,3.8-3.8,3.8C-1371.6,1445.8-1373.4,1444.1-1373.4,1442z"/>
			</g>
			
				<g id="g5260" transform="matrix(0,1,-1,0,768.16174,2035.7793)" inkscape:transform-center-x="-53.79063" inkscape:transform-center-y="3.6146709e-005" class="st10">
				<path id="path5262_4_" inkscape:connector-curvature="0" class="st11" d="M-1611.3,1238.6c0-2.1,1.7-3.8,3.8-3.8
					c2.1,0,3.8,1.7,3.8,3.8c0,2.1-1.7,3.8-3.8,3.8C-1609.6,1242.4-1611.3,1240.7-1611.3,1238.6z"/>
				<path id="path5264_4_" inkscape:connector-curvature="0" class="st11" d="M-1623.1,1238.6c0-2.1,1.7-3.8,3.8-3.8
					c2.1,0,3.8,1.7,3.8,3.8c0,2.1-1.7,3.8-3.8,3.8C-1621.3,1242.4-1623.1,1240.7-1623.1,1238.6z"/>
			</g>
			
				<g id="g5266" transform="matrix(0.70711,0.70711,-0.70711,0.70711,1355.4617,967.5793)" inkscape:transform-center-x="-38.035774" inkscape:transform-center-y="-38.035665" class="st10">
				<path id="path5268_4_" inkscape:connector-curvature="0" class="st11" d="M-1644.1,918.2c0-2.1,1.7-3.8,3.8-3.8
					c2.1,0,3.8,1.7,3.8,3.8s-1.7,3.8-3.8,3.8C-1642.4,922.1-1644.1,920.3-1644.1,918.2z"/>
				<path id="path5270_4_" inkscape:connector-curvature="0" class="st11" d="M-1655.9,918.2c0-2.1,1.7-3.8,3.8-3.8
					c2.1,0,3.8,1.7,3.8,3.8s-1.7,3.8-3.8,3.8C-1654.1,922.1-1655.9,920.3-1655.9,918.2z"/>
			</g>
		</g>
		<g id="g5118" transform="matrix(0.30935718,0,0,0.30935718,904.10751,38.226891)">
			
				<radialGradient id="path5120_1_" cx="-1473.0366" cy="-3139.2053" r="185.9028" gradientTransform="matrix(0.1131 -0.2891 -0.3166 -0.1238 -451.6038 -391.6852)" gradientUnits="userSpaceOnUse">
				<stop  offset="0" style="stop-color:#666666"/>
				<stop  offset="0.5" style="stop-color:#4D4D4D"/>
				<stop  offset="1" style="stop-color:#000000"/>
			</radialGradient>
			<path id="path5120" inkscape:connector-curvature="0" class="st27" d="M239.8,422.9c0-75,60.8-135.8,135.8-135.8
				s135.8,60.8,135.8,135.8s-60.8,135.8-135.8,135.8S239.8,497.9,239.8,422.9z"/>
			
				<radialGradient id="path5122_1_" cx="-436.3451" cy="-7407.9521" r="185.87" gradientTransform="matrix(2.298375e-003 -0.1682 -0.1614 -2.205568e-003 -820.4594 337.241)" gradientUnits="userSpaceOnUse">
				<stop  offset="0" style="stop-color:#000000"/>
				<stop  offset="1" style="stop-color:#999999"/>
			</radialGradient>
			<path id="path5122" inkscape:connector-curvature="0" class="st28" d="M278.5,422.9c0-53.6,43.4-97,97-97s97,43.4,97,97
				s-43.4,97-97,97S278.5,476.4,278.5,422.9z"/>
			
				<radialGradient id="path5124_1_" cx="4.4936" cy="-8180.7017" r="185.87" gradientTransform="matrix(2.807676e-004 -0.1493 -0.1453 -2.733010e-004 -813.0048 423.7368)" gradientUnits="userSpaceOnUse">
				<stop  offset="0" style="stop-color:#4D4D4D"/>
				<stop  offset="1" style="stop-color:#4D4D4D;stop-opacity:0"/>
			</radialGradient>
			<path id="path5124" inkscape:connector-curvature="0" class="st29" d="M288.3,422.8c0-48.2,39.1-87.3,87.3-87.3
				s87.3,39.1,87.3,87.3s-39.1,87.3-87.3,87.3S288.3,471,288.3,422.8z"/>
			<path id="path5126" inkscape:connector-curvature="0" class="st7" d="M375.5,510.1c7,0,13.8-0.8,20.3-2.4
				c-1.7-7.4-10.1-13-20.3-13c-10.1,0-18.5,5.6-20.3,13C361.7,509.2,368.5,510.1,375.5,510.1L375.5,510.1z"/>
			<path id="path5128" inkscape:connector-curvature="0" class="st7" d="M438.9,482.8c9.3-9.8,16.3-21.8,20.3-35.1
				c-7.2-2.2-16.3,2.3-21.4,11.1C432.7,467.6,433.4,477.6,438.9,482.8z"/>
			<path id="path5130" inkscape:connector-curvature="0" class="st7" d="M455.6,398.5c1.2,0,2.4-0.2,3.6-0.5
				c-4-13.3-11-25.3-20.3-35.1c-5.5,5.2-6.2,15.3-1.1,24C442,394.3,449.2,398.6,455.6,398.5L455.6,398.5z"/>
			<path id="path5132" inkscape:connector-curvature="0" class="st7" d="M375.5,350.9c10.1,0,18.6-5.6,20.3-13
				c-6.5-1.5-13.3-2.4-20.3-2.4c-7,0-13.8,0.8-20.3,2.4C357,345.3,365.4,350.9,375.5,350.9L375.5,350.9z"/>
			<path id="path5134" inkscape:connector-curvature="0" class="st7" d="M296.2,398.5c6.2-0.2,12.9-4.5,17-11.6
				c5.1-8.8,4.4-18.8-1.1-24c-9.3,9.8-16.3,21.8-20.3,35.1C293.2,398.4,294.7,398.6,296.2,398.5L296.2,398.5z"/>
			<path id="path5136" inkscape:connector-curvature="0" class="st7" d="M312.1,482.8c5.5-5.2,6.1-15.3,1.1-24
				c-5.1-8.8-14.1-13.3-21.4-11.1C295.8,461,302.8,473,312.1,482.8L312.1,482.8z"/>
			
				<radialGradient id="path5138_1_" cx="1747.2186" cy="-10729.8584" r="185.8118" gradientTransform="matrix(-3.917897e-004 -0.1077 -0.1076 3.909829e-004 -778.1403 615.1268)" gradientUnits="userSpaceOnUse">
				<stop  offset="0" style="stop-color:#FFFFFF"/>
				<stop  offset="1" style="stop-color:#4D4D4D"/>
			</radialGradient>
			<path id="path5138" inkscape:connector-curvature="0" class="st30" d="M310.8,422.8c0-35.7,28.9-64.7,64.7-64.7
				s64.7,28.9,64.7,64.7s-28.9,64.7-64.7,64.7S310.8,458.5,310.8,422.8z"/>
			
				<radialGradient id="path5140_1_" cx="6539.9683" cy="-19458.9824" r="185.87" gradientTransform="matrix(-3.917823e-004 -6.124764e-002 -5.648996e-002 3.613391e-004 -720.9355 833.3087)" gradientUnits="userSpaceOnUse">
				<stop  offset="0" style="stop-color:#CCCCCC"/>
				<stop  offset="1" style="stop-color:#1A1A1A"/>
			</radialGradient>
			<path id="path5140" inkscape:connector-curvature="0" class="st31" d="M341.6,422.9c0-18.7,15.2-33.9,33.9-33.9
				c18.7,0,33.9,15.2,33.9,33.9s-15.2,33.9-33.9,33.9S341.6,441.6,341.6,422.9z"/>
			<g id="g5142" transform="translate(1015.3617,-203.0207)" inkscape:transform-center-y="-53.790562" class="st10">
				<path id="path5144_4_" inkscape:connector-curvature="0" class="st11" d="M-637.8,668.5c0-2.1,1.7-3.8,3.8-3.8s3.8,1.7,3.8,3.8
					s-1.7,3.8-3.8,3.8S-637.8,670.6-637.8,668.5z"/>
				<path id="path5146_4_" inkscape:connector-curvature="0" class="st11" d="M-649.5,668.5c0-2.1,1.7-3.8,3.8-3.8s3.8,1.7,3.8,3.8
					s-1.7,3.8-3.8,3.8S-649.5,670.6-649.5,668.5z"/>
			</g>
			
				<g id="g5148" transform="matrix(0.70711,-0.70711,0.70711,0.70711,-52.82826,-790.2907)" inkscape:transform-center-x="38.035671" inkscape:transform-center-y="-38.035676" class="st10">
				<path id="path5150_4_" inkscape:connector-curvature="0" class="st11" d="M-552.6,1203.5c0-2.1,1.7-3.8,3.8-3.8s3.8,1.7,3.8,3.8
					c0,2.1-1.7,3.8-3.8,3.8S-552.6,1205.6-552.6,1203.5z"/>
				<path id="path5152_4_" inkscape:connector-curvature="0" class="st11" d="M-564.3,1203.5c0-2.1,1.7-3.8,3.8-3.8s3.8,1.7,3.8,3.8
					c0,2.1-1.7,3.8-3.8,3.8S-564.3,1205.6-564.3,1203.5z"/>
			</g>
			<g id="g5154" transform="matrix(0,-1,1,0,-1223.4183,-450.2207)" inkscape:transform-center-x="53.790566" class="st10">
				<path id="path5156_4_" inkscape:connector-curvature="0" class="st11" d="M-870.6,1642c0-2.1,1.7-3.8,3.8-3.8s3.8,1.7,3.8,3.8
					c0,2.1-1.7,3.8-3.8,3.8S-870.6,1644.2-870.6,1642z"/>
				<path id="path5158_4_" inkscape:connector-curvature="0" class="st11" d="M-882.3,1642c0-2.1,1.7-3.8,3.8-3.8
					c2.1,0,3.8,1.7,3.8,3.8c0,2.1-1.7,3.8-3.8,3.8C-880.6,1645.9-882.3,1644.2-882.3,1642z"/>
			</g>
			
				<g id="g5160" transform="matrix(-0.70711,-0.70711,0.70711,-0.70711,-1810.6883,617.9793)" inkscape:transform-center-x="38.03568" inkscape:transform-center-y="38.035651" class="st10">
				<path id="path5162_4_" inkscape:connector-curvature="0" class="st11" d="M-1405.6,1727.2c0-2.1,1.7-3.8,3.8-3.8
					c2.1,0,3.8,1.7,3.8,3.8c0,2.1-1.7,3.8-3.8,3.8C-1403.9,1731.1-1405.6,1729.4-1405.6,1727.2z"/>
				<path id="path5164_4_" inkscape:connector-curvature="0" class="st11" d="M-1417.3,1727.2c0-2.1,1.7-3.8,3.8-3.8
					c2.1,0,3.8,1.7,3.8,3.8c0,2.1-1.7,3.8-3.8,3.8C-1415.6,1731.1-1417.3,1729.4-1417.3,1727.2z"/>
			</g>
			
				<g id="g5166" transform="matrix(-1,0,0,-1,-1470.6183,1788.5793)" inkscape:transform-center-x="1.614671e-005" inkscape:transform-center-y="53.790566" class="st10">
				<path id="path5168_4_" inkscape:connector-curvature="0" class="st11" d="M-1844.2,1409.2c0-2.1,1.7-3.8,3.8-3.8
					c2.1,0,3.8,1.7,3.8,3.8c0,2.1-1.7,3.8-3.8,3.8C-1842.5,1413-1844.2,1411.3-1844.2,1409.2z"/>
				<path id="path5170_4_" inkscape:connector-curvature="0" class="st11" d="M-1855.9,1409.2c0-2.1,1.7-3.8,3.8-3.8
					s3.8,1.7,3.8,3.8c0,2.1-1.7,3.8-3.8,3.8S-1855.9,1411.3-1855.9,1409.2z"/>
			</g>
			
				<g id="g5172" transform="matrix(-0.70711,0.70711,-0.70711,-0.70711,-402.41826,2375.8793)" inkscape:transform-center-x="-38.035665" inkscape:transform-center-y="38.03571" class="st10">
				<path id="path5174_4_" inkscape:connector-curvature="0" class="st11" d="M-1929.4,874.2c0-2.1,1.7-3.8,3.8-3.8
					c2.1,0,3.8,1.7,3.8,3.8s-1.7,3.8-3.8,3.8C-1927.7,878.1-1929.4,876.4-1929.4,874.2z"/>
				<path id="path5176_4_" inkscape:connector-curvature="0" class="st11" d="M-1941.1,874.2c0-2.1,1.7-3.8,3.8-3.8
					c2.1,0,3.8,1.7,3.8,3.8s-1.7,3.8-3.8,3.8C-1939.4,878.1-1941.1,876.4-1941.1,874.2z"/>
			</g>
			
				<g id="g5178" transform="matrix(0,1,-1,0,768.16174,2035.7793)" inkscape:transform-center-x="-53.79063" inkscape:transform-center-y="3.6146709e-005" class="st10">
				<path id="path5180_4_" inkscape:connector-curvature="0" class="st11" d="M-1611.3,435.6c0-2.1,1.7-3.8,3.8-3.8
					c2.1,0,3.8,1.7,3.8,3.8s-1.7,3.8-3.8,3.8C-1609.6,439.5-1611.3,437.7-1611.3,435.6z"/>
				<path id="path5182_4_" inkscape:connector-curvature="0" class="st11" d="M-1623.1,435.6c0-2.1,1.7-3.8,3.8-3.8
					c2.1,0,3.8,1.7,3.8,3.8s-1.7,3.8-3.8,3.8C-1621.3,439.5-1623.1,437.7-1623.1,435.6z"/>
			</g>
			
				<g id="g5184" transform="matrix(0.70711,0.70711,-0.70711,0.70711,1355.4617,967.5793)" inkscape:transform-center-x="-38.035774" inkscape:transform-center-y="-38.035665" class="st10">
				<path id="path5186_4_" inkscape:connector-curvature="0" class="st11" d="M-1076.4,350.4c0-2.1,1.7-3.8,3.8-3.8
					c2.1,0,3.8,1.7,3.8,3.8s-1.7,3.8-3.8,3.8C-1074.6,354.3-1076.4,352.6-1076.4,350.4z"/>
				<path id="path5188_4_" inkscape:connector-curvature="0" class="st11" d="M-1088.1,350.4c0-2.1,1.7-3.8,3.8-3.8
					c2.1,0,3.8,1.7,3.8,3.8s-1.7,3.8-3.8,3.8C-1086.4,354.3-1088.1,352.6-1088.1,350.4z"/>
			</g>
		</g>
		<g id="g5417" transform="matrix(0.30935718,0,0,0.30935718,774.10751,38.226891)">
			
				<radialGradient id="path3329_1_" cx="-1052.8102" cy="-3139.2053" r="185.9028" gradientTransform="matrix(0.1131 -0.2891 -0.3166 -0.1238 257.2821 -270.1888)" gradientUnits="userSpaceOnUse">
				<stop  offset="0" style="stop-color:#666666"/>
				<stop  offset="0.5" style="stop-color:#4D4D4D"/>
				<stop  offset="1" style="stop-color:#000000"/>
			</radialGradient>
			<path id="path3329" inkscape:connector-curvature="0" class="st32" d="M996.2,422.9c0-75,60.8-135.8,135.8-135.8
				s135.8,60.8,135.8,135.8s-60.8,135.8-135.8,135.8S996.2,497.9,996.2,422.9z"/>
			
				<radialGradient id="path3339-1_1_" cx="-16.1187" cy="-7407.9521" r="185.87" gradientTransform="matrix(2.298375e-003 -0.1682 -0.1614 -2.205568e-003 -65.0176 407.9154)" gradientUnits="userSpaceOnUse">
				<stop  offset="0" style="stop-color:#000000"/>
				<stop  offset="1" style="stop-color:#999999"/>
			</radialGradient>
			<path id="path3339-1" inkscape:connector-curvature="0" class="st33" d="M1034.9,422.9c0-53.6,43.4-97,97-97s97,43.4,97,97
				s-43.4,97-97,97S1034.9,476.4,1034.9,422.9z"/>
			
				<radialGradient id="path3343_1_" cx="424.7201" cy="-8180.7017" r="185.87" gradientTransform="matrix(2.807676e-004 -0.1493 -0.1453 -2.733010e-004 -56.7152 486.496)" gradientUnits="userSpaceOnUse">
				<stop  offset="0" style="stop-color:#4D4D4D"/>
				<stop  offset="1" style="stop-color:#4D4D4D;stop-opacity:0"/>
			</radialGradient>
			<path id="path3343" inkscape:connector-curvature="0" class="st34" d="M1044.7,422.8c0-48.2,39.1-87.3,87.3-87.3
				c48.2,0,87.3,39.1,87.3,87.3s-39.1,87.3-87.3,87.3C1083.8,510.1,1044.7,471,1044.7,422.8z"/>
			<path id="path3345-1" inkscape:connector-curvature="0" class="st7" d="M1131.9,510.1c7,0,13.8-0.8,20.3-2.4
				c-1.7-7.4-10.1-13-20.3-13c-10.1,0-18.5,5.6-20.3,13C1118.1,509.2,1124.9,510.1,1131.9,510.1L1131.9,510.1z"/>
			<path id="path3351" inkscape:connector-curvature="0" class="st7" d="M1195.3,482.8c9.3-9.8,16.3-21.8,20.3-35.1
				c-7.2-2.2-16.3,2.3-21.4,11.1C1189.1,467.6,1189.8,477.6,1195.3,482.8z"/>
			<path id="path3353" inkscape:connector-curvature="0" class="st7" d="M1212,398.5c1.2,0,2.4-0.2,3.6-0.5
				c-4-13.3-11-25.3-20.3-35.1c-5.5,5.2-6.2,15.3-1.1,24C1198.5,394.3,1205.6,398.6,1212,398.5L1212,398.5z"/>
			<path id="path3355-8" inkscape:connector-curvature="0" class="st7" d="M1131.9,350.9c10.1,0,18.6-5.6,20.3-13
				c-6.5-1.5-13.3-2.4-20.3-2.4c-7,0-13.8,0.8-20.3,2.4C1113.4,345.3,1121.8,350.9,1131.9,350.9L1131.9,350.9z"/>
			<path id="path3357-6" inkscape:connector-curvature="0" class="st7" d="M1052.6,398.5c6.2-0.2,12.9-4.5,17-11.6
				c5.1-8.8,4.4-18.8-1.1-24c-9.3,9.8-16.3,21.8-20.3,35.1C1049.6,398.4,1051.1,398.6,1052.6,398.5L1052.6,398.5z"/>
			<path id="path3359-7" inkscape:connector-curvature="0" class="st7" d="M1068.5,482.8c5.5-5.2,6.1-15.3,1.1-24
				c-5.1-8.8-14.1-13.3-21.4-11.1C1052.2,461,1059.2,473,1068.5,482.8L1068.5,482.8z"/>
			
				<radialGradient id="path3379_1_" cx="2167.4451" cy="-10729.8584" r="185.8118" gradientTransform="matrix(-3.917897e-004 -0.1077 -0.1076 3.909829e-004 -21.568 660.3666)" gradientUnits="userSpaceOnUse">
				<stop  offset="0" style="stop-color:#FFFFFF"/>
				<stop  offset="1" style="stop-color:#4D4D4D"/>
			</radialGradient>
			<path id="path3379" inkscape:connector-curvature="0" class="st35" d="M1067.3,422.8c0-35.7,28.9-64.7,64.7-64.7
				s64.7,28.9,64.7,64.7s-28.9,64.7-64.7,64.7S1067.3,458.5,1067.3,422.8z"/>
			
				<radialGradient id="path3383_1_" cx="6960.1943" cy="-19458.9824" r="185.87" gradientTransform="matrix(-3.917823e-004 -6.124764e-002 -5.648996e-002 3.613391e-004 35.6368 859.0466)" gradientUnits="userSpaceOnUse">
				<stop  offset="0" style="stop-color:#CCCCCC"/>
				<stop  offset="1" style="stop-color:#1A1A1A"/>
			</radialGradient>
			<path id="path3383" inkscape:connector-curvature="0" class="st36" d="M1098,422.9c0-18.7,15.2-33.9,33.9-33.9
				s33.9,15.2,33.9,33.9s-15.2,33.9-33.9,33.9S1098,441.6,1098,422.9z"/>
			<g id="g3579" transform="translate(1015.3617,-203.0207)" inkscape:transform-center-y="-53.790562" class="st10">
				<path id="path3581_4_" inkscape:connector-curvature="0" class="st11" d="M118.6,668.5c0-2.1,1.7-3.8,3.8-3.8
					c2.1,0,3.8,1.7,3.8,3.8s-1.7,3.8-3.8,3.8C120.4,672.3,118.6,670.6,118.6,668.5z"/>
				<path id="path3583_4_" inkscape:connector-curvature="0" class="st11" d="M106.9,668.5c0-2.1,1.7-3.8,3.8-3.8
					c2.1,0,3.8,1.7,3.8,3.8s-1.7,3.8-3.8,3.8C108.6,672.3,106.9,670.6,106.9,668.5z"/>
			</g>
			
				<g id="g4365" transform="matrix(0.70711,-0.70711,0.70711,0.70711,-52.82826,-790.2907)" inkscape:transform-center-x="38.035671" inkscape:transform-center-y="-38.035676" class="st10">
				<path id="path4367_4_" inkscape:connector-curvature="0" class="st11" d="M-17.7,1738.3c0-2.1,1.7-3.8,3.8-3.8s3.8,1.7,3.8,3.8
					c0,2.1-1.7,3.8-3.8,3.8S-17.7,1740.5-17.7,1738.3z"/>
				<path id="path4369-5_4_" inkscape:connector-curvature="0" class="st11" d="M-29.4,1738.3c0-2.1,1.7-3.8,3.8-3.8
					s3.8,1.7,3.8,3.8c0,2.1-1.7,3.8-3.8,3.8S-29.4,1740.5-29.4,1738.3z"/>
			</g>
			<g id="g4371" transform="matrix(0,-1,1,0,-1223.4183,-450.2207)" inkscape:transform-center-x="53.790566" class="st10">
				<path id="path4373_4_" inkscape:connector-curvature="0" class="st11" d="M-870.6,2398.4c0-2.1,1.7-3.8,3.8-3.8s3.8,1.7,3.8,3.8
					c0,2.1-1.7,3.8-3.8,3.8S-870.6,2400.6-870.6,2398.4z"/>
				<path id="path4375-0_4_" inkscape:connector-curvature="0" class="st11" d="M-882.3,2398.4c0-2.1,1.7-3.8,3.8-3.8
					c2.1,0,3.8,1.7,3.8,3.8c0,2.1-1.7,3.8-3.8,3.8C-880.6,2402.3-882.3,2400.6-882.3,2398.4z"/>
			</g>
			
				<g id="g4377" transform="matrix(-0.70711,-0.70711,0.70711,-0.70711,-1810.6883,617.9793)" inkscape:transform-center-x="38.03568" inkscape:transform-center-y="38.035651" class="st10">
				<path id="path4379_4_" inkscape:connector-curvature="0" class="st11" d="M-1940.5,2262.1c0-2.1,1.7-3.8,3.8-3.8
					c2.1,0,3.8,1.7,3.8,3.8c0,2.1-1.7,3.8-3.8,3.8C-1938.7,2265.9-1940.5,2264.2-1940.5,2262.1z"/>
				<path id="path4381_4_" inkscape:connector-curvature="0" class="st11" d="M-1952.2,2262.1c0-2.1,1.7-3.8,3.8-3.8
					c2.1,0,3.8,1.7,3.8,3.8c0,2.1-1.7,3.8-3.8,3.8C-1950.5,2265.9-1952.2,2264.2-1952.2,2262.1z"/>
			</g>
			
				<g id="g4383" transform="matrix(-1,0,0,-1,-1470.6183,1788.5793)" inkscape:transform-center-x="1.614671e-005" inkscape:transform-center-y="53.790566" class="st10">
				<path id="path4385_4_" inkscape:connector-curvature="0" class="st11" d="M-2600.6,1409.2c0-2.1,1.7-3.8,3.8-3.8
					s3.8,1.7,3.8,3.8c0,2.1-1.7,3.8-3.8,3.8S-2600.6,1411.3-2600.6,1409.2z"/>
				<path id="path4387_4_" inkscape:connector-curvature="0" class="st11" d="M-2612.3,1409.2c0-2.1,1.7-3.8,3.8-3.8
					s3.8,1.7,3.8,3.8c0,2.1-1.7,3.8-3.8,3.8S-2612.3,1411.3-2612.3,1409.2z"/>
			</g>
			
				<g id="g4389" transform="matrix(-0.70711,0.70711,-0.70711,-0.70711,-402.41826,2375.8793)" inkscape:transform-center-x="-38.035665" inkscape:transform-center-y="38.03571" class="st10">
				<path id="path4391_4_" inkscape:connector-curvature="0" class="st11" d="M-2464.3,339.4c0-2.1,1.7-3.8,3.8-3.8
					c2.1,0,3.8,1.7,3.8,3.8c0,2.1-1.7,3.8-3.8,3.8C-2462.6,343.2-2464.3,341.5-2464.3,339.4z"/>
				<path id="path4393_4_" inkscape:connector-curvature="0" class="st11" d="M-2476,339.4c0-2.1,1.7-3.8,3.8-3.8s3.8,1.7,3.8,3.8
					c0,2.1-1.7,3.8-3.8,3.8S-2476,341.5-2476,339.4z"/>
			</g>
			
				<g id="g4395" transform="matrix(0,1,-1,0,768.16174,2035.7793)" inkscape:transform-center-x="-53.79063" inkscape:transform-center-y="3.6146709e-005" class="st10">
				<path id="path4397_4_" inkscape:connector-curvature="0" class="st11" d="M-1611.3-320.8c0-2.1,1.7-3.8,3.8-3.8
					c2.1,0,3.8,1.7,3.8,3.8s-1.7,3.8-3.8,3.8C-1609.6-316.9-1611.3-318.7-1611.3-320.8z"/>
				<path id="path4399_4_" inkscape:connector-curvature="0" class="st11" d="M-1623.1-320.8c0-2.1,1.7-3.8,3.8-3.8
					c2.1,0,3.8,1.7,3.8,3.8s-1.7,3.8-3.8,3.8C-1621.3-316.9-1623.1-318.7-1623.1-320.8z"/>
			</g>
			
				<g id="g4401" transform="matrix(0.70711,0.70711,-0.70711,0.70711,1355.4617,967.5793)" inkscape:transform-center-x="-38.035774" inkscape:transform-center-y="-38.035665" class="st10">
				<path id="path4403_4_" inkscape:connector-curvature="0" class="st11" d="M-541.5-184.4c0-2.1,1.7-3.8,3.8-3.8s3.8,1.7,3.8,3.8
					s-1.7,3.8-3.8,3.8S-541.5-182.3-541.5-184.4z"/>
				<path id="path4405_4_" inkscape:connector-curvature="0" class="st11" d="M-553.2-184.4c0-2.1,1.7-3.8,3.8-3.8s3.8,1.7,3.8,3.8
					s-1.7,3.8-3.8,3.8S-553.2-182.3-553.2-184.4z"/>
			</g>
		</g>
		
			<path id="path4865" inkscape:connector-curvature="0" sodipodi:nodetypes="ccccccccccccccccccccccccccccccccccccccccccccccccccccccccccccccccccccccccccccccccccccccccccccccccccccccccccccccccccccccccccccccccccccccccccccccccccccccccccccccccccccccccccccccccccccccccccccccccccccccccccc" class="st37" d="
			M621.8,118.3v3.2l1.6,0l0.2-3.3l16.2,0v3.2l1.6,0l0.1-3.3l16.4,0l0.1,3.4h1.4v-3.4l17.6,0.1v3.2l1.6,0l0-3.3l17.6,0v3.2l1.6,0
			l0.2-3.3l17.8,0v3.2l1.6,0l0-3.3l17.6,0v3.2l1.6,0l0-3.3l17.6,0v3.2l1.6,0l0-3.3l17.1,0.1l0.2,3.2l1.6,0v-3.2l17.6,0l0,3.3l1.6,0
			v-3.2l17.6,0v3.3l1.6,0v-3.2l17.6,0l0,3.3l1.6,0v-3.2l17.6,0l0,3.3l1.6,0v-3.2l17.7,0l0.1,3.3l1.6,0v-3.2l17.6,0l0,3.3l1.6,0v-3.2
			l17.6,0l0,3.3l1.6,0v-3.2l17.7,0l0.1,3.3l1.6,0v-3.2l17.6,0l0,3.3l1.6,0v-3.2l17.6,0l0,3.3l1.6,0v-3.2l17.6,0l0,3.3l1.6,0v-3.2
			l17.6,0l0,3.3l1.6,0v-3.2l17.6,0l0,3.3l1.6,0v-3.2l17.6,0l0,3.3l1.6,0v-3.2l17.8,0l0.2,3.3l1.6,0v-3.2l17.6,0l0,3.3l1.6,0v-3.2
			l17.6-0.1v3.4h1.4l0.1-3.4h17.9l0.3,3.4l0.9,0l0.1-3.3l17.9,0.1v4.2c0,0,1.5,0.3,1.7,0.4l2.3-3.5l15.5,8.2l-1.8,3.5l1.1,0.6l2.2-3
			l14.5,10.1l-1.7,3l1.2,0.9l2.1-2.8l14.3,10.3l-1.5,2.7l0.9,0.8l2.2-2.9l14.3,9.7l-1.8,2.9l1.3,1l1.8-2.9l14.8,9.8l-1.7,2.9
			l1.1,0.7l1.9-2.9l14.7,9.7l-1.7,3.1l1.3,0.9l2.8-2.7l13.1,12.7l-2.7,3.5l1.1,1.9l4.2,0.2l0.1,1.4l1.3,16.2l0.2,3.7l-9.5,0
			c1.6-12.6-2.5-20.7-2.5-20.7c-2.3-5.1-7.5-9.1-7.5-9.1c-7.1-6-24.3-16.7-24.3-16.7l-48.7-32.8l-8.1-5.8
			c-12.9-9-24.8-10.4-24.8-10.4c-6.3-0.6-9.1-0.4-9.1-0.4l-45.7,0.3l-440,0.1l-30.4,0c-18.1-0.2-28.7,5.4-28.7,5.4L560,143.4
			l-52.2,34.4c-15.4,11.7-24.6,25-24.6,25s-3,3.8-4,17.6C479,226,482,231,482,231l-7.9,3.6l-2.8-7.6l2.6-1.5l-0.4-2.8l-2.9-0.3
			l2.3-22.1l4,0.6l1-1.6l-2.7-3.5l13.1-12.7l2.8,2.7l1.3-0.9l-1.7-3.1l14.7-9.7l1.9,2.9l1.1-0.7l-1.7-2.9l14.8-9.8l1.8,2.9l1.3-1
			l-1.8-2.9l14.3-9.7l2.2,2.9l0.9-0.8l-1.5-2.7l14.3-10.3l2.1,2.8l1.2-0.9l-1.7-3l14.5-10.1l2.2,3l1.1-0.6l-1.8-3.5l15.5-8.2
			l2.3,3.5c0.2-0.1,1.7-0.4,1.7-0.4v-4.2l17.9-0.1l1.7,0l0.1,3.2h1.8l0-3.3L621.8,118.3z"/>
		<path id="path4220" inkscape:connector-curvature="0" sodipodi:nodetypes="cccccccccccccc" class="st38" d="M452.4,265.9l-23-0.6
			l-34.9-0.9l-10.3,26l8.3,10.3l17.8,3.2l13.7,2.5l57.9,10.4h160.4l2-2.6H666l2.3-3.6v-52.5L452.4,265.9z"/>
		<path id="path4222" inkscape:connector-curvature="0" sodipodi:nodetypes="ccccccccccc" class="st39" d="M410.4,303.8l13.7,2.5
			l57.9,10.4h160.4l2-2.6H666l2.3-3.6v-52.5l-215.8,8l-23-0.6l-34.9-0.9L410.4,303.8z"/>
		<path id="path3418" inkscape:connector-curvature="0" sodipodi:nodetypes="ccccccc" class="st40" d="M1031.4,280h-16h-35.3H813.6
			v38.4h217.9V280z"/>
		<path id="path4960" inkscape:connector-curvature="0" sodipodi:nodetypes="cccccccccc" class="st41" d="M517.6,300.8l120.2,6.4
			h120.1h122.4l120-4.8l116.4-11.2l121.7-14.4v-29.6H517.6L517.6,300.8z"/>
		<path id="path3416" inkscape:connector-curvature="0" sodipodi:nodetypes="ccccc" class="st39" d="M684,272h129.9v38.4H684V272z"
			/>
		<path id="path4198" inkscape:connector-curvature="0" sodipodi:nodetypes="cccccc" class="st38" d="M748.4,384.7v-73.8l203.7-0.1
			v85.2l-130.5-11.3H748.4z"/>
		<path id="path11899" inkscape:connector-curvature="0" sodipodi:nodetypes="ccccc" class="st39" d="M1636.5,326.2V347h-192v-20.8
			H1636.5z"/>
		<path id="path3355" inkscape:connector-curvature="0" sodipodi:nodetypes="ccccc" class="st39" d="M1444.5,327.8v17.6h-4.8v-17.6
			H1444.5z"/>
		<path id="path3357" inkscape:connector-curvature="0" sodipodi:nodetypes="ccccc" class="st39" d="M1439.7,323v25.6h-102.4V323
			H1439.7z"/>
		<path id="path3359" inkscape:connector-curvature="0" sodipodi:nodetypes="ccccc" class="st39" d="M1337.3,324.6V347h-4.8v-22.4
			H1337.3z"/>
		<path id="path3361" inkscape:connector-curvature="0" sodipodi:nodetypes="ccccc" class="st39" d="M1332.5,324.6V347l-217.6,3.2
			v-28.8L1332.5,324.6z"/>
		<path id="path3339" inkscape:connector-curvature="0" sodipodi:nodetypes="ccccc" class="st39" d="M1104,357.7h7.9l3-7.5v-28.8
			l-10.9-0.5V357.7z"/>
		<path id="path3341" inkscape:connector-curvature="0" sodipodi:nodetypes="cccc" class="st39" d="M1104,320.9v36.7l-14.4,0v-36.7
			H1104z"/>
		<path id="path3345" inkscape:connector-curvature="0" sodipodi:nodetypes="ccccc" class="st39" d="M1089.6,320.9v36.7L952,359.3
			v-38.3H1089.6z"/>
		<path id="path4204" inkscape:connector-curvature="0" sodipodi:nodetypes="ccccc" class="st41" d="M1045.6,314.8
			c-66.7-1.8-118.4,7.5-118.1,8.1l-22.1,0.4l-13.3-7.1l-49.7,1.2l-0.1-0.5l109.3-5.7l92.7-1.6
			C1044.2,309.7,1045.4,311.9,1045.6,314.8z"/>
		<path id="path3346" inkscape:connector-curvature="0" sodipodi:nodetypes="cccccc" class="st39" d="M956.7,348.4l99-5.5
			l-26.5,26.7l-97.4,12.9c24.4-21.3,24.8-27.3,24.8-27.3C957.7,352.9,956.7,348.4,956.7,348.4z"/>
		<path id="path4200" inkscape:connector-curvature="0" sodipodi:nodetypes="ccc" class="st39" d="M931.9,382.5l-4-9.3l-85.4,11.4
			L931.9,382.5z"/>
		<path id="path4148" inkscape:connector-curvature="0" sodipodi:nodetypes="cccccccccc" class="st39" d="M927.5,322.9
			c0,0,18.1,10.7,29.2,25.4c0,0,1,4.5,0,6.8c0,0-0.4,6-24.8,27.3l-4-9.3l-85.4,11.4v-67.2l49.7-1.2l13.3,7.1L927.5,322.9z"/>
		<path id="path4194" inkscape:connector-curvature="0" sodipodi:nodetypes="cccc" class="st38" d="M898.2,377.2l-55.8,7.5v-67.2
			l49.7-1.2L898.2,377.2z"/>
		<path id="path4162" inkscape:connector-curvature="0" sodipodi:nodetypes="cccccc" class="st39" d="M927.5,322.9
			c0,0,18.1,10.7,29.2,25.4l19.1-1.1l79.9-4.4c-0.9-20.1-10.1-28.1-10.1-28.1C978.9,313,927.2,322.3,927.5,322.9z"/>
		<path id="path4168" inkscape:connector-curvature="0" sodipodi:nodetypes="ccccc" class="st38" d="M975.8,347.3
			c4.6-4,1.6-9.8,1.6-9.8L951,318.7l-11,1.9L975.8,347.3z"/>
		<path id="path4170" inkscape:connector-curvature="0" sodipodi:nodetypes="ccc" class="st39" d="M977.4,337.6c0,0,3,5.8-1.6,9.8
			l79.9-4.4l2.3-0.1c3.2-3.6,2.9-9.4,2.9-9.4L977.4,337.6z"/>
		<path id="path3414" inkscape:connector-curvature="0" sodipodi:nodetypes="ccccccc" class="st39" d="M1031.4,272h-16h-35.3H829.6
			v38.4l201.9-11.2L1031.4,272z"/>
		<path id="path4174" inkscape:connector-curvature="0" sodipodi:nodetypes="cc" class="st42" d="M1006.3,336.1l-28.8,1.5l8.1-29.2
			l29.9-0.3L1006.3,336.1z"/>
		<path id="path4176" inkscape:connector-curvature="0" sodipodi:nodetypes="ccccc" class="st42" d="M1034.5,334.7l26.4-1.3l9-25.6
			l-26.1,0.3L1034.5,334.7z"/>
		<path id="path4178" inkscape:connector-curvature="0" sodipodi:nodetypes="ccccccccccc" class="st39" d="M756.7,327.2h-8.3v47.7
			h76.5l4.6,0.8l76.9,11.5L863,334.2v-6.5l-5.7-1.5l-35.5,0.2L756.7,327.2z"/>
		<path id="path4180" inkscape:connector-curvature="0" sodipodi:nodetypes="ccccccccccccccc" class="st38" d="M748.4,313.9v13.4
			l0,0v8v39.7v13h-204l-2.6-19.6v-25.1V330l22.5-1.8v-9.3h40.8v7.3L748.4,313.9z"/>
		<path id="path4186" inkscape:connector-curvature="0" sodipodi:nodetypes="cccccc" class="st39" d="M748.4,335.3v39.7v13h-204
			l-2.6-19.6v-25.1L748.4,335.3z"/>
		<path id="path4188" inkscape:connector-curvature="0" sodipodi:nodetypes="ccccc" class="st43" d="M738.8,368.4v6.6v13H544.4
			l-2.6-19.6H738.8z"/>
		<path id="path4416" inkscape:connector-curvature="0" sodipodi:nodetypes="ccccc" class="st44" d="M772.9,445l-1.7-55.3h-9.9
			l2.4,55.6L772.9,445z"/>
		<path id="rect4322" inkscape:connector-curvature="0" class="st45" d="M849.3,437.9h-9.1V407h9.1V437.9z"/>
		<path id="path4310" inkscape:connector-curvature="0" sodipodi:nodetypes="ccccc" class="st45" d="M814,445.2h8.3l-1-39.8l-8.3,0
			L814,445.2z"/>
		<path id="path4206" inkscape:connector-curvature="0" sodipodi:nodetypes="cccccccc" class="st39" d="M821.5,384.7h-73.2l13.4,9.3
			v4l38,19h53.7v-19.4L821.5,384.7z"/>
		<path id="path4210" inkscape:connector-curvature="0" class="st39" d="M853.5,398.1v-0.4l-9-3.6l-82.7,0v0v4
			C761.7,398.1,853.5,398.1,853.5,398.1z"/>
		<path id="path4418" inkscape:connector-curvature="0" sodipodi:nodetypes="cccc" class="st44" d="M763.8,445.3l9.1-0.3
			c-1,4.5-4.5,4.5-4.5,4.5S763.7,449.4,763.8,445.3z"/>
		
			<path id="path4428" sodipodi:rx="18.471653" sodipodi:cy="1177.672" sodipodi:ry="23.842552" sodipodi:end="0" sodipodi:type="arc" sodipodi:start="3.1415927" sodipodi:cx="43.486538" class="st44" d="
			M745.1,415.7c10.5,0,19.1,6.6,19.1,14.8c0,0,0,0,0,0c0,8.2-8.5,14.8-19.1,14.8h0v-14.8V415.7z"/>
		<rect id="rect4420" x="762.8" y="434.4" class="st44" width="4.8" height="21.3"/>
		<path id="path4422" inkscape:connector-curvature="0" class="st44" d="M771.1,455.7c0,3.3-2.7,5.9-6,5.9l0,0c-3.3,0-6-2.6-6-5.9
			l0,0h6H771.1z"/>
		<path id="rect4425" inkscape:connector-curvature="0" sodipodi:nodetypes="cc" class="st44" d="M762.8,434.4h4.8l0-4.9
			c0,0,0.7-0.7,1.4-0.9c0.8-2.6-2-3.7-2-3.7c-1.7-1.1-4,2.1-4,2.1c-0.3,0.4-0.3,1-0.3,1L762.8,434.4z"/>
		<path id="path4824" inkscape:connector-curvature="0" sodipodi:nodetypes="cccc" class="st39" d="M550.8,416.7h21v-28.8h-21V416.7
			z"/>
		<path id="path4826" inkscape:connector-curvature="0" sodipodi:nodetypes="cccc" class="st39" d="M549.2,400.7l1.6,16h21l1.6-16
			H549.2z"/>
		<path id="path4333" inkscape:connector-curvature="0" sodipodi:nodetypes="cccc" class="st45" d="M851.7,447.9v-2l-29.9,0v2.9
			L851.7,447.9z"/>
		<path id="path4312" inkscape:connector-curvature="0" sodipodi:nodetypes="cccc" class="st46" d="M812.4,445.2h11.5v1.6l-11.5,0
			V445.2z"/>
		<path id="path4316" inkscape:connector-curvature="0" sodipodi:nodetypes="cccc" class="st46" d="M812.4,438.8h11.5v1.6l-11.5,0
			V438.8z"/>
		<path id="path4325" inkscape:connector-curvature="0" sodipodi:nodetypes="cccc" class="st45" d="M839.4,437.9h10.7v6.4l-10.7,0
			V437.9z"/>
		<path id="path4331" inkscape:connector-curvature="0" sodipodi:nodetypes="ccccc" class="st46" d="M837.8,444.3h13.9v1.6l-13.9,0
			V444.3z"/>
		<path id="path4354" inkscape:connector-curvature="0" sodipodi:nodetypes="ccccccccccccccc" class="st37" d="M889.3,472.9
			l-70.9,1.9l-0.1-12.2l15.9-0.3v-4l15.4,1.1l1.6,0.1l0.8-0.7l5.9,0l1.3,1.3l29.1-0.9l0.5-0.8l0.7,0.1v2L889.3,472.9z"/>
		<path id="rect4408" inkscape:connector-curvature="0" sodipodi:nodetypes="cccccccccc" class="st47" d="M889.1,449.7v-16.3h-32.8
			v16.3H889.1z M888.3,448.9h-31.2v-14.7h31.2L888.3,448.9z"/>
		<path id="rect4360" inkscape:connector-curvature="0" sodipodi:nodetypes="ccccc" class="st37" d="M885.7,454.9h-40.9v-5.3h40.9
			L885.7,454.9z"/>
		<path id="path4335" inkscape:connector-curvature="0" sodipodi:nodetypes="cccccccc" class="st45" d="M821.8,448.8l29.9-0.9
			l-15.4,8c-2.2,1-1.8,3.2-1.8,3.2c0,1,1.2,2.3,1.2,2.3c2.8,0,5.3,0.1,5.3,0.1c2.6,0.1,2.3,3.9,2.3,3.9c-0.1,2.2-3.7,2.3-3.7,2.3
			c-3.3,0.6-8,3.9-8,3.9c-1.3,1.3-2.5,1.6-2.5,1.6c-1.8,0.1-2.9-2.8-2.9-2.8c-3.1-7.3-4-12.6-4-12.6
			C821.6,452.4,821.8,448.8,821.8,448.8L821.8,448.8z"/>
		<circle id="path4337" class="st48" cx="839.8" cy="464.5" r="2"/>
		<circle id="path4337-4" class="st48" cx="829.1" cy="469.6" r="2"/>
		<path id="path4356" inkscape:connector-curvature="0" sodipodi:nodetypes="cccc" class="st46" d="M818.5,476.4l-0.1-13.8l3.2,0
			l0.1,13.8H818.5z"/>
		<path id="path4363" inkscape:connector-curvature="0" sodipodi:nodetypes="ccccc" class="st37" d="M885.6,469.9l-0.6-25.7
			l-23.4,0.4l0.6,25.8L885.6,469.9z"/>
		<path id="path4365" inkscape:connector-curvature="0" sodipodi:nodetypes="cccc" class="st46" d="M860.6,470.3l26.6-0.5l0,3.2
			l-26.6,0.5V470.3z"/>
		<path id="path4369" inkscape:connector-curvature="0" sodipodi:nodetypes="ccccc" class="st37" d="M891.4,469.2l-2.1,2.1l0.1-10.8
			l2,0.7L891.4,469.2z"/>
		<path id="path4371" inkscape:connector-curvature="0" sodipodi:nodetypes="cccc" class="st49" d="M891.4,461.2v8h27.2v-8H891.4z"
			/>
		<circle id="path4375" class="st50" cx="914.5" cy="465.2" r="1.4"/>
		<circle id="circle4392" class="st50" cx="909.7" cy="465.2" r="1.4"/>
		<circle id="circle4394" class="st50" cx="904.9" cy="465.2" r="1.4"/>
		<circle id="circle4396" class="st50" cx="900.1" cy="465.2" r="1.4"/>
		<path id="path4398" inkscape:connector-curvature="0" sodipodi:nodetypes="ccccc" class="st49" d="M918.6,462v6.4h4.8V462H918.6z"
			/>
		<path id="path4400" inkscape:connector-curvature="0" sodipodi:nodetypes="ccccc" class="st49" d="M923.4,462.8v4.8h3.2v-4.8
			H923.4z"/>
		<path id="path4402" inkscape:connector-curvature="0" sodipodi:nodetypes="ccccc" class="st49" d="M990.6,466.8l-64,0.8l0-4.8
			l64,0.8L990.6,466.8z"/>
		<path id="path3408" inkscape:connector-curvature="0" sodipodi:nodetypes="ccccccc" class="st39" d="M466.4,272h16h35.3h150.6
			v38.4l-201.9-11.2V272z"/>
		<path id="path4923" inkscape:connector-curvature="0" sodipodi:nodetypes="ccccccccccccccccc" class="st38" d="M517.6,280h120.2
			h120.1h122.4h120h116.4h121.7v-72.4l-52.4-36.2h-69.3h-116.4h-120H757.9H637.8h-55.3l-64.9,44.4V280z"/>
		<path id="path4950" inkscape:connector-curvature="0" sodipodi:nodetypes="cccc" class="st43" d="M1116.7,171.4V280 M1000.3,280
			V171.4"/>
		<path id="path4956" inkscape:connector-curvature="0" sodipodi:nodetypes="ccccccc" class="st43" d="M519.2,241.6h118.6h120.1
			h122.4h120h116.4h120.1"/>
		<path id="path4936" inkscape:connector-curvature="0" sodipodi:nodetypes="cccccccccccc" class="st39" d="M880.3,300.8h120
			l116.4-8l76.9-6.4l44.9-6.4v-18.6v-29.6h-121.7h-116.4h-120v29.6V300.8z"/>
		<path id="path4938" inkscape:connector-curvature="0" sodipodi:nodetypes="cccc" class="st43" d="M1000.3,231.8v69 M1116.7,292.8
			v-61"/>
		<path id="path4940" inkscape:connector-curvature="0" sodipodi:nodetypes="cc" class="st43" d="M1238.4,261.4H880.3"/>
		<path id="path4942" inkscape:connector-curvature="0" sodipodi:nodetypes="ccccccccc" class="st39" d="M517.6,215.8v24.3V280
			h-35.3l-28.9-15.9l-2.5-4.9l-8.6-16.5l65.1-26.9L517.6,215.8z"/>
		<path id="path4944" inkscape:connector-curvature="0" sodipodi:nodetypes="ccccc" class="st39" d="M451,259.2l-8.6-16.5l65.1-26.9
			h10.1v24.3L451,259.2z"/>
		<path id="path4946" inkscape:connector-curvature="0" sodipodi:nodetypes="cccccc" class="st39" d="M1017.9,299.6l98.8-6.8
			l6.7-0.6l-13.8,9.4h-91.3L1017.9,299.6z"/>
		<path id="path4948" inkscape:connector-curvature="0" sodipodi:nodetypes="cccccccccc" class="st41" d="M1094.8,301.6h-69.7v3.3
			l1.8,1.9h42.4l1.2-2.6h20.5l1,1.4h2.8V301.6z"/>
		<path id="path4952" inkscape:connector-curvature="0" sodipodi:nodetypes="cccc" class="st43" d="M880.3,171.4V280 M757.9,280
			V171.4"/>
		<path id="path4954" inkscape:connector-curvature="0" sodipodi:nodetypes="cc" class="st43" d="M637.9,280V171.4"/>
		<path id="path4958" inkscape:connector-curvature="0" sodipodi:nodetypes="ccccccc" class="st43" d="M519.2,216h118.6h120.1h122.4
			h120l116.4,0h120.1"/>
		<path id="path4224" inkscape:connector-curvature="0" sodipodi:nodetypes="cc" class="st43" d="M424.1,306.3l5.3-41"/>
		<path id="path4936-2" inkscape:connector-curvature="0" sodipodi:nodetypes="cc" class="st0" d="M504.6,172.4l-13.5,9
			c-1.1-1.4-1.3-3.2-1.3-3.2L503,170L504.6,172.4z"/>
		<path id="path4849" inkscape:connector-curvature="0" sodipodi:nodetypes="cc" class="st0" d="M1257.4,202.7l1.3,16.2
			c1.8,0,3.3-0.9,3.3-0.9l-1.7-15.5L1257.4,202.7z"/>
		<path id="path4849-2" inkscape:connector-curvature="0" sodipodi:nodetypes="cc" class="st0" d="M1242.7,184l11.7,11.3
			c1.4-1.2,1.9-2.9,1.9-2.9l-11.5-10.4L1242.7,184z"/>
		<path id="path4849-2-1" inkscape:connector-curvature="0" sodipodi:nodetypes="cc" class="st0" d="M1225.3,172.4l13.5,9
			c1.1-1.4,1.3-3.2,1.3-3.2L1227,170L1225.3,172.4z"/>
		<path id="rect4881" inkscape:connector-curvature="0" sodipodi:nodetypes="ccccc" class="st0" d="M1221.9,170.6l-11.5-7.6l1.7-2.4
			l11.5,7.6L1221.9,170.6z"/>
		<path id="rect4881-0" inkscape:connector-curvature="0" sodipodi:nodetypes="ccccc" class="st0" d="M1206.1,160l-11.3-7.8l1.7-2.4
			l11.3,7.8L1206.1,160z"/>
		<path id="rect4881-0-1" inkscape:connector-curvature="0" sodipodi:nodetypes="ccccc" class="st0" d="M1190.3,149.5l-11.2-8
			l1.8-2.4l11.2,8L1190.3,149.5z"/>
		<path id="rect4881-0-5" inkscape:connector-curvature="0" sodipodi:nodetypes="ccccc" class="st0" d="M1174.4,138.1l-11.3-7.8
			l1.7-2.4l11.3,7.8L1174.4,138.1z"/>
		<path id="rect4881-0-1-0" inkscape:connector-curvature="0" sodipodi:nodetypes="ccccc" class="st0" d="M1157.5,126.7l-12.2-6.5
			l1.5-2.6l12.2,6.5L1157.5,126.7z"/>
		<path id="path4938-5" inkscape:connector-curvature="0" sodipodi:nodetypes="ccccc" class="st0" d="M508,170.6l11.5-7.6l-1.7-2.4
			l-11.5,7.6L508,170.6z"/>
		<path id="path4940-0" inkscape:connector-curvature="0" sodipodi:nodetypes="ccccc" class="st0" d="M523.8,160l11.3-7.8l-1.7-2.4
			l-11.3,7.8L523.8,160z"/>
		<path id="path4942-3" inkscape:connector-curvature="0" sodipodi:nodetypes="ccccc" class="st0" d="M539.7,149.5l11.2-8l-1.8-2.4
			l-11.2,8L539.7,149.5z"/>
		<path id="path4944-9" inkscape:connector-curvature="0" sodipodi:nodetypes="ccccc" class="st0" d="M555.6,138.1l11.3-7.8
			l-1.7-2.4l-11.3,7.8L555.6,138.1z"/>
		<path id="path4946-5" inkscape:connector-curvature="0" sodipodi:nodetypes="ccccc" class="st0" d="M572.5,126.7l12.2-6.5
			l-1.5-2.6l-12.2,6.5L572.5,126.7z"/>
		<path id="rect4881-0-1-0-8" inkscape:connector-curvature="0" sodipodi:nodetypes="ccccc" class="st0" d="M1137.5,118.3l-13.8-0.1
			l0.1-2.9l13.8,0.1L1137.5,118.3z"/>
		<path id="path4963" inkscape:connector-curvature="0" sodipodi:nodetypes="ccccc" class="st0" d="M1118,118.3l-13.8-0.1l0.1-2.9
			l13.8,0.1L1118,118.3z"/>
		<path id="path4965" inkscape:connector-curvature="0" sodipodi:nodetypes="ccccc" class="st0" d="M1098.5,118.3l-13.8-0.1l0.1-2.9
			l13.8,0.1L1098.5,118.3z"/>
		<path id="path4967" inkscape:connector-curvature="0" sodipodi:nodetypes="ccccc" class="st0" d="M1078.9,118.3l-13.8-0.1l0.1-2.9
			l13.8,0.1L1078.9,118.3z"/>
		<path id="path4969" inkscape:connector-curvature="0" sodipodi:nodetypes="ccccc" class="st0" d="M1059.8,118.3l-13.8-0.1l0.1-2.9
			l13.8,0.1L1059.8,118.3z"/>
		<path id="path4971" inkscape:connector-curvature="0" sodipodi:nodetypes="ccccc" class="st0" d="M1040.3,118.3l-13.8-0.1l0.1-2.9
			l13.8,0.1L1040.3,118.3z"/>
		<path id="path4973" inkscape:connector-curvature="0" sodipodi:nodetypes="ccccc" class="st0" d="M1020.8,118.3l-13.8-0.1l0.1-2.9
			l13.8,0.1L1020.8,118.3z"/>
		<path id="path4975" inkscape:connector-curvature="0" sodipodi:nodetypes="ccccc" class="st0" d="M1001.3,118.3l-13.8-0.1l0.1-2.9
			l13.8,0.1L1001.3,118.3z"/>
		<path id="path4977" inkscape:connector-curvature="0" sodipodi:nodetypes="ccccc" class="st0" d="M984.8,118.3l-13.8-0.1l0.1-2.9
			l13.8,0.1L984.8,118.3z"/>
		<path id="path4979" inkscape:connector-curvature="0" sodipodi:nodetypes="ccccc" class="st0" d="M965.3,118.3l-13.8-0.1l0.1-2.9
			l13.8,0.1L965.3,118.3z"/>
		<path id="path4981" inkscape:connector-curvature="0" sodipodi:nodetypes="ccccc" class="st0" d="M945.8,118.3l-13.8-0.1l0.1-2.9
			l13.8,0.1L945.8,118.3z"/>
		<path id="path4983" inkscape:connector-curvature="0" sodipodi:nodetypes="ccccc" class="st0" d="M926.2,118.3l-13.8-0.1l0.1-2.9
			l13.8,0.1L926.2,118.3z"/>
		<path id="path4985" inkscape:connector-curvature="0" sodipodi:nodetypes="ccccc" class="st0" d="M907.1,118.3l-13.8-0.1l0.1-2.9
			l13.8,0.1L907.1,118.3z"/>
		<path id="path4987" inkscape:connector-curvature="0" sodipodi:nodetypes="ccccc" class="st0" d="M887.6,118.3l-13.8-0.1l0.1-2.9
			l13.8,0.1L887.6,118.3z"/>
		<path id="path4989" inkscape:connector-curvature="0" sodipodi:nodetypes="ccccc" class="st0" d="M868.1,118.3l-13.8-0.1l0.1-2.9
			l13.8,0.1L868.1,118.3z"/>
		<path id="path4991" inkscape:connector-curvature="0" sodipodi:nodetypes="ccccc" class="st0" d="M848.5,118.3l-13.8-0.1l0.1-2.9
			l13.8,0.1L848.5,118.3z"/>
		<path id="path4993" inkscape:connector-curvature="0" sodipodi:nodetypes="ccccc" class="st0" d="M829.3,118.3l-13.8-0.1l0.1-2.9
			l13.8,0.1L829.3,118.3z"/>
		<path id="path4995" inkscape:connector-curvature="0" sodipodi:nodetypes="ccccc" class="st0" d="M809.7,118.3l-13.8-0.1l0.1-2.9
			l13.8,0.1L809.7,118.3z"/>
		<path id="path4997" inkscape:connector-curvature="0" sodipodi:nodetypes="ccccc" class="st0" d="M790.9,118.3l-13.8-0.1l0.1-2.9
			l13.8,0.1L790.9,118.3z"/>
		<path id="path4999" inkscape:connector-curvature="0" sodipodi:nodetypes="ccccc" class="st0" d="M771.4,118.3l-13.8-0.1l0.1-2.9
			l13.8,0.1L771.4,118.3z"/>
		<path id="path5001" inkscape:connector-curvature="0" sodipodi:nodetypes="ccccc" class="st0" d="M752.3,118.3l-13.8-0.1l0.1-2.9
			l13.8,0.1L752.3,118.3z"/>
		<path id="path5003" inkscape:connector-curvature="0" sodipodi:nodetypes="ccccc" class="st0" d="M732.9,118.3l-13.8-0.1l0.1-2.9
			l13.8,0.1L732.9,118.3z"/>
		<path id="path5005" inkscape:connector-curvature="0" sodipodi:nodetypes="ccccc" class="st0" d="M714,118.3l-13.8-0.1l0.1-2.9
			l13.8,0.1L714,118.3z"/>
		<path id="path5007" inkscape:connector-curvature="0" sodipodi:nodetypes="ccccc" class="st0" d="M695.2,118.3l-13.8-0.1l0.1-2.9
			l13.8,0.1L695.2,118.3z"/>
		<path id="path5009" inkscape:connector-curvature="0" sodipodi:nodetypes="ccccc" class="st0" d="M675.4,118.3l-13.8-0.1l0.1-2.9
			l13.8,0.1L675.4,118.3z"/>
		<path id="path5011" inkscape:connector-curvature="0" sodipodi:nodetypes="ccccc" class="st0" d="M656.5,118.3l-13.8-0.1l0.1-2.9
			l13.8,0.1L656.5,118.3z"/>
		<path id="path5013" inkscape:connector-curvature="0" sodipodi:nodetypes="ccccc" class="st0" d="M605.3,118.3l-13.8-0.1l0.1-2.9
			l13.8,0.1L605.3,118.3z"/>
		<path id="path4867" inkscape:connector-curvature="0" sodipodi:nodetypes="ccccc" class="st0" d="M638.3,118.3l-13.8-0.1l0.1-2.9
			l13.8,0.1L638.3,118.3z"/>
		<path id="path4869" inkscape:connector-curvature="0" sodipodi:nodetypes="ccccc" class="st0" d="M621.2,118.3l-9.2-0.1l0.1-2.9
			l9.2,0.1L621.2,118.3z"/>
		<path id="path5528" inkscape:connector-curvature="0" sodipodi:nodetypes="cc" class="st0" d="M487.5,183.9l-11.7,11.3
			c-1.4-1.2-1.9-2.9-1.9-2.9l11.5-10.4L487.5,183.9z"/>
		<path id="path4921" inkscape:connector-curvature="0" sodipodi:nodetypes="ccccccc" class="st39" d="M1238.4,276.8l18.1-5.3
			l23.1-35.6l-0.1-4l-13.7-14.9l-27.4,0.1V276.8z"/>
	</g>
</g>
</svg>
