<?xml version="1.0" encoding="utf-8"?>
<!-- Generator: Adobe Illustrator 19.0.0, SVG Export Plug-In . SVG Version: 6.00 Build 0)  -->
<svg version="1.1" id="Layer_1" xmlns="http://www.w3.org/2000/svg" xmlns:xlink="http://www.w3.org/1999/xlink" x="0px" y="0px"
	 viewBox="0 0 403.7 158" style="enable-background:new 0 0 403.7 158;" xml:space="preserve">
<style type="text/css">
	.st0{fill:#FBFEFF;}
	.st1{fill:#C22329;}
	.st2{fill:#9C2029;}
	.st3{fill:#EEEEEF;}
	.st4{fill:#A22323;}
	.st5{fill:#D9DBDD;}
	.st6{fill:#A12A2B;}
	.st7{fill:#DF3735;}
	.st8{fill:#EB8585;}
	.st9{fill:#D32A29;}
	.st10{fill:#C12331;}
	.st11{fill:#B12328;}
	.st12{fill:#6E1B1D;}
</style>
<g transform="translate(403.7, 0) scale(-1, 1)">
	<path class="st0" d="M399.6,31.1c-12.7,2.6-24.6,13.2-36.7,18.1c-11.3,4.6-23.6,7.7-35.1,9.4c-5.2,0.8-9.9,0.6-14.5-2.8
		c-4.2-3-3.8-0.4-3.5-5.6c0.2-4.3,2.4-5.4,5.4-8c2.7-2.4,4.9-2.6,4.6-5.6c-0.2-2.5-2,0.4-3.4-1.2c0.1-0.5,0.2-1,0.5-1.4
		c-0.8,0.2-1.5,0.3-2.3,0.5c0.3-0.4,0.5-0.8,0.5-1.3c-0.7-0.7-3,1-3.9,0.5c0.5-0.5,0.8-1.1,0.8-1.8c-0.5-0.9-2.6,1.1-3.3,0.1
		c-0.4-0.6,1.5-3.2,1.6-3.3c-0.9-0.3-4.1,1.9-4.8,1c-0.3-0.4,1.3-2.4,1.4-2.8c-0.4,0.3-4.1,1.9-4.8,1c0.3-1.3,0.8-2.5,1.7-3.6
		c-1.4,0.2-2.8,0.3-4.3,0.3c1.6-3.4,0.2-1.1-1.6-2.4c0.4-0.5,0.6-1.1,0.6-1.7c0,0-5,2.4-5.4,1.4c0.2-1.1,0.7-2,1.5-2.7
		c-1.5,0.7-3,1-4.6,0.9c-0.9-0.4,0.3-0.9-1.4-1.5c-1.3-0.5-3,1.7-4.4,0.4c6.3-7.9-1-2.2-3.5-2.3c-0.3-0.8,0.7-2,1.3-2.4
		c-2.5-1.2-6,0.2-8.6,0.7c-0.2-1.4,2.3-3.7,2.7-5.2C265.4,13.9,255.6,19.9,245,24c-5.6,2.2-9.5,3-15.1,2.4c-2.5-0.3-6.1-2-8.6-1.5
		c0.9-1.1,1.9-2.1,2.9-3.1c-6.6,0.4-8.8,0.4-2.9-5.6c-1.1-1.1-9.3,4.9-10.7,1.8c-0.3-0.8,1.8-3.1,2.4-3.3c-2-1.1-11.5,3.9-12.9,1
		c-0.7-1.5,3.3-4.8,2.8-5.5c-0.1-0.1-12.8,2.8-13.1,2.8c-2.2,0.4-3.1,2.3-4.7,0.6c-1.3-1.4,5.2-9.1,6.1-10.3
		c-5.8,1-10.5,12.4-16.8,10.9c-6.1-1.5,0.6-5.6,0.6-10.1C173,6,162.8,19.9,158,15.7c-1.9-1.7,7.2-14.6,7.9-15.7
		c-7.7,5.6-16.7,9.6-22.9,17.1c0.1-1.7,4.3-15.7,4.6-15.5c-4.8-3.2-15.1,19.7-18.1,18.9c-2.5-0.7,0.7-13.6-1.1-15.3
		c-3.5,5.7-5.2,11.9-8.1,17.8c-2.3,4.7-2.3,4.1-8.3,5.6c-3,0.7-6.1,1.6-9.1,2.4c-14.1,3.9-27.8,8.9-41.1,14.9
		c-13.2,5.9-26.1,12.9-38.1,21C17,71.4,13.3,73,19.9,79.6c3.3,3.3,11.3,9.9,16.2,10.1c-4.1,3.8-10.1,5.2-15.6,4.6
		c-5.1-0.6-8.9-4-12.7-1.9c-2.8,1.5-4.8,4.7-2.7,7.4c3.7,4.9,18.1,6.2,23.6,7.9c11.8,3.5,23.7,6.5,35.8,9
		c15.3,3.2,27.7,5.5,44.6,7.2c2.5,0.2,13.3-0.2,15,1.2c0.6,0.5,2.7,7.7,3.8,9.1c7.4,9.7,20.4,19.1,31.5,23.9
		c-0.3-1.1-0.5-2.2-0.5-3.3c1.9,0.7,3.7,2.3,5.4,2.2c-1.1,0,3.7-1.3,3.2-0.9c-0.2-1.4,0.3-2.3,0.7-2.7c0-1.3-2.9-3.6-3.3-4.3
		c-0.8-1.4-3-5.5-3.3-7.6c0.5-0.1,0.9,0.1,1.3,0.4c-2.1-5.1-2.4-11-5.7-15.5c1-2.1,22.6-1.8,25.8-2.1c11.4-1.3,22.7-3,33.8-5.6
		c4.7-1.1,9.8-3.3,14.6-3.8c5.7-0.5,5.5,1.4,10.7,4.4c1.1,0.6,15,5.3,15.7,3.5c0.3-0.7-3.9-4.3-4-4.4c14.5,1.2,27.5,11.3,42.5,7.7
		c0-0.7,8.9-6,4.8-6.7c1.8-0.5,5.3-1.8,2.7-3.4c7.7-3,1-1.9,1.8-4.4c0.2-0.7,3.5-1.2,3.5-2.1c0.2-3.6-26.3-7.6-29.6-10.6
		c3.2-4,13.7-6,18.4-8.1c3.9-1.8,11.7-7.3,16.1-6.8c2.2,0.2,6.2,3.2,8.4,3.9c2.9,0.9,5.9,1.3,8.8,2.3c6.4,2.1,12.5,5.2,18.1,8.9
		c9.4,6.1,19.5,19.1,29.5,21.7c16.5,4.3,14.2-19.3,12.7-28.8c-0.7-4.8-1.3-9.9-3.4-14.4c-1.3-2.7-2.6-2.1-2.7-4.4
		c-0.1-1.6,3.8-7.2,4.5-8.3C392,60.9,410.8,28.8,399.6,31.1C397.1,31.6,402.8,30.4,399.6,31.1z"/>
	<path class="st0" d="M320.3,37.7C319.9,37.1,319.8,38.3,320.3,37.7C320.3,37.7,320.3,37.8,320.3,37.7z"/>
	<path class="st1" d="M150.6,126c10.4-0.5,8.8,7.8,12.2,15.8c-0.4-0.4-0.8-0.5-1.3-0.4c0.6,4.3,3.7,8.9,6.6,11.9
		c-0.3,0.5-0.9,1.4-0.7,2.7c0.5-0.4-4.2,1-3.2,0.9c-1.8,0-3.5-1.5-5.4-2.2c0.1,1.1,0.3,2.2,0.5,3.3c-10.2-4.4-20.4-12.2-28.1-20.2
		c-2.1-2.1-7-6.4-6.9-9.7c0.1-4.8,8.1-2.7,12.1-2.3c-2.8,4.5,6.4,26,11.8,24.3c-2.9-3.3-15-18.6-8.8-21.1
		c8.4-3.4,11.6,25.2,16.8,22.7c1.4-0.7-9.3-18.2-9.5-20.8c-0.7-7.8,9.7,6.5,11.4,7.6C157,133.7,155,128.8,150.6,126
		C152.4,125.9,155.2,128.9,150.6,126z M161.7,140.9c-0.1-0.4-0.2-0.8-0.3-1.2C161.1,140.2,161.1,140.7,161.7,140.9z M167.2,154.3
		C166.9,154.2,167.2,154.7,167.2,154.3C167.2,154.3,167.2,154.4,167.2,154.3z"/>
	<path class="st2" d="M17.1,71.6c6.9,2.8,10,4.8,15.4,9.4c1.9,1.6,18.9,12.7,16.2,13.7c-0.9,0.3-12.6-5.3-14.9-6.2
		C30.8,87.3,9.9,74.8,17.1,71.6C19.7,72.6,15.1,72.5,17.1,71.6z"/>
	<path class="st2" d="M36.3,89.7c-1,4.8-1.3,8.5-8.3,10.3c-5.5,1.4-16.2,0.6-19-5.2c-3.6-7.4,7.8-0.9,11.5-0.5
		C26.4,95,31.8,93.2,36.3,89.7z"/>
	<path class="st3" d="M80.6,120.8c1.7,0.3,2.9,0.3,4.5,0.5C84.5,119.1,79.2,120.6,80.6,120.8z"/>
	<path class="st4" d="M379.7,70.1c-3.5-1.3-32.2,0.7-32.3-2.8c0-1.1,19.3-3.8,20.9-4.2c-1.8-1.9-22.9,4.1-23.4,1.1
		c1.3-1.7,3.5-1,4.5-3.2c0.3-0.8-0.7-6-0.8-6.7c-3.1,0.4-6.2,2.9-8.3,3.4c-2.8,0.6-7.8,0.3-11,0.8c-5.3,0.8-16,5.8-14.1,11.9
		c-5,1.9-4.5,9.9-1.2,13.5c4.7,5.1,16.1,5.5,22.2,8c12.7,5.3,26.8,22.7,41.6,20.2c-2-3-24.5-14.5-24.2-15.2
		c0.3-0.5,21,9.9,23.3,10.3c-7.5-5.7-15.6-10.5-23.6-15.4c1.8-0.5,22.2,13.5,23.5,9.3c-0.2,0.7-20.3-11.1-21.6-11.9
		c-0.1,0,2.6,0.4,2.7,0.3c-0.1-1-6.2-2.4-6.4-2.4c8.3,0.1,16.8,6.1,25,4.3c-2.3-1.5-29.7-8.5-29.2-9.8c0.5-1.5,6.3-0.2,7.3-0.1
		c1.7,1.8-4.1-2.7-3.9-3.5c0.6-2.3,23.8,2,26.2,2.2c-9.3-5.6-22.5-0.8-31.5-6.3c7.9-3,15.2-2.8,23.5-2.8
		C370.6,70.9,381.1,70.6,379.7,70.1C376.3,68.9,380,70.2,379.7,70.1z"/>
	<path class="st5" d="M348.6,53.3c-1.6,0.6-12.5,2.6-12.4,3.9c2.3,0.3,13.1-1,13.8-3.6C349.5,53.4,349.1,53.4,348.6,53.3
		C348,53.5,348.8,53.7,348.6,53.3z"/>
	<path class="st6" d="M348.6,54.2c2.5-2,8.1-2.7,11.1-3.9c3.6-1.4,8.4-4.9,12.2-5.1c-1.6,4.6-18.4,10.4-23.1,12
		C348.7,56.3,348.7,55.3,348.6,54.2C349,53.9,348.7,55.3,348.6,54.2z"/>
	<path class="st1" d="M286.8,102.9c1.1,0.7,0.6,3.1,0.9,4.4c-4.7-1-8.6-3.8-11.6-7.5C280,97.3,283,101.8,286.8,102.9
		C287.1,103,284.1,102.1,286.8,102.9z"/>
	<path class="st3" d="M371.1,116.7c0.8,0.4,4.5,3.4,5.9,3C375.8,118,371.9,114.1,371.1,116.7C371.2,116.8,371.2,116.4,371.1,116.7z"
		/>
	<path class="st7" d="M286,14.7c-0.4,0.2-4.2,3.4-3.9,3.9C283.3,20.7,288.2,17.3,286,14.7C285.9,14.8,286.3,15,286,14.7z"/>
	<path class="st7" d="M280.6,16.7c-1.1-0.9,0.1-3,1.1-2.6C281.5,15,280.2,15.5,280.6,16.7C279.6,15.8,280.2,15.5,280.6,16.7z"/>
	<path class="st8" d="M391.4,91.1c-0.7-1-0.5-2.1-0.5-3.2C391.7,88.8,391.5,89.9,391.4,91.1z"/>
	<path class="st6" d="M373.8,44.3c-0.4,0.8-1,1.1-1.9,1C372.5,44.9,373,44.4,373.8,44.3z"/>
	<path class="st8" d="M273.3,14.8C272,15.3,273.1,13,273.3,14.8C273,15,273.3,14.6,273.3,14.8z"/>
	<path class="st5" d="M211.1,14.8c-0.3,0.4-0.8,0.4-1.2,0.4C210.2,14.7,210.5,14.4,211.1,14.8z"/>
	<path class="st8" d="M275.4,14.5c-0.3,0.3-0.6,0.3-1,0.2C274.7,14.4,275,14.2,275.4,14.5z"/>
	<path class="st3" d="M377.2,119.8c0.4,0,0.5,0.3,0.7,0.5C377.4,120.3,377.2,120.2,377.2,119.8z"/>
	<path class="st7" d="M281.2,16.7c-0.2,0.7-0.4,0.4-0.6,0C280.8,16.6,281,16.6,281.2,16.7z"/>
	<path class="st7" d="M36.3,89.7C35.4,89.2,35.8,88.6,36.3,89.7C36.3,89.7,36.2,89.3,36.3,89.7z"/>
	<path class="st9" d="M320.3,37.7C319.8,38.3,319.9,37.1,320.3,37.7C320.3,37.8,320.3,37.7,320.3,37.7z"/>
	<path class="st1" d="M168.1,153.2C168.6,153.6,168.2,153.3,168.1,153.2C168.2,153.3,168.1,153.2,168.1,153.2z"/>
	<path class="st8" d="M281.7,14.3C281.6,14,282.1,14.1,281.7,14.3C281.7,14.3,281.8,14.3,281.7,14.3z"/>
	<path class="st9" d="M310.1,28.6C310,28,310.1,28.7,310.1,28.6C310.1,28.6,310.1,28.6,310.1,28.6z"/>
	<path class="st2" d="M198,88.6c-13.5,13.8-34.4,20.2-53,22.8c-4.5,0.6-23.9,4.9-27,1.3c-0.8-1,0.9-9.3,0.7-11.4
		c-0.5-4.4-1.7-9.6-5.4-12.4c9.2,4.3,43.7-28.4,46.7-24c0.5,0.7-2.6,3.7-2,3.3c1.3,1.6,5.3-5,6.8-3.4c1.2,1.4-4.2,4.9-4,6.3
		c2.8-1.8,5.6-3.9,9.1-4.3c-3.8,5.7-10.1,9.1-14.7,14.1c2.4-0.5,14.3-10.7,16.5-7.8c1.4,1.9-12.4,9.4-14,9.8
		c0.3,0.4,16.1-8,18.6-7.9c-0.8,2.1-5.4,6.7-7.7,7.2c0.6,0.8,10.9-7.1,11.9-5.4c1,1.9-5.3,4.2-5.7,5.7c1.6-0.6,3.2-1,4.9-1.2
		c-4.6,4.1-11.3,5.7-16.2,9.2c9.3-0.8,17-9.1,25.8-9.4c-4,4.2-10.6,5.8-14.8,9.9c5.5-1.5,10.5-5.1,16.2-6.8
		c-1.9,3.8-10.2,9.7-14.4,10.6C175.7,94.3,196,88.6,198,88.6C194.8,91.8,197.1,88.6,198,88.6z M135.5,102.4c-0.2-0.9-1.6,0.4-2-0.4
		c-0.2-0.5,23.3-9.6,25-11.8c-3.9-0.2-26.3,13.1-28.2,8.2c-1.5-4.1,17.9-10.6,20.4-11.8c-0.5-1.4-19.7,4.8-21.4,5.3
		c6.5-4,13.7-6.9,19.7-11.8c-5.8,3.4-12.4,4.7-18.4,7.5c-2,0.9-6.1,2.5-7,4.9c-0.9,2.3,2,1.9,2.3,3.4
		C126.9,102.2,125.1,103.1,135.5,102.4C135.5,102.3,132.9,102.6,135.5,102.4z M137.1,102.1c1.1,0.7,13.4-0.5,12.1-3.2
		C148.6,97.8,138.1,101.9,137.1,102.1C137.7,102.5,140.5,101.4,137.1,102.1z"/>
	<path class="st10" d="M314.3,69.9c1.6,0.3,0.1,0.8-0.8,1c-3.2,0.8-9.5-1-12.8-1.5c-8.9-1.2-17.1-3.5-25.7-5.9
		c-9.1-2.5-18.2-2.4-27.3-4.2c-9.4-1.9-18.7-4.1-28.1-6.2c-21.7-4.8-41.5-4-63.5-2.5c-10.8,0.7-21.5,2-32.2,3.4
		c-9.1,1.2-21.2,4.7-29.7,0.1c18.4-3.4,35.9-8.7,54.7-10.4c20.2-1.8,40.1-0.9,60.2,2c17.8,2.6,36.2,4.5,53.6,9.2
		c8.5,2.3,16.9,4.7,25.4,7.3C295.5,64.6,306.1,70.8,314.3,69.9C314.6,70,312.7,70.1,314.3,69.9z"/>
	<path class="st6" d="M91.8,98.7c-6.6,10.4-13.8,13.2-25.7,14c9.4-6.8,17.6-13.8,22.4-24.7c1.4-3.3,7-30.3,5.6-30.2
		C95.1,69.1,100.9,88.8,91.8,98.7C89.9,101.7,91.9,98.6,91.8,98.7z"/>
	<path class="st3" d="M46.7,62.2c11.1-7.9,22.5,10.7,10.5,17.3c-8.2,4.5-21-9.1-14.3-12.7c0.6,1.6,2.6,0.9,3.4,1.8
		c0.6,0.6,0.3,3.8,1.4,5c2.3,2.5,7,2.3,8.8-0.8c1.8-3,0.1-6.1-2.7-7.7c-1.8-1-3.8,0.6-5.3-0.4C47.7,64,48.3,62.2,46.7,62.2
		C49.4,60.3,47.1,62.2,46.7,62.2z"/>
	<path class="st0" d="M9.9,101.7c-1,0.2-3.1-1.2-4-1.8C7.9,101.8,11.1,101.4,9.9,101.7C9.4,101.8,10.2,101.7,9.9,101.7z"/>
	<path class="st8" d="M179.9,92.9c1.7-1.2,13.9-8.6,15.5-4.3C190.5,89.1,184.4,93.4,179.9,92.9C182.2,91.2,180.1,92.9,179.9,92.9z"
		/>
	<path class="st8" d="M172.4,88c-2.6,1-6.3,2.2-9.2,2.5C165.8,88.7,169.1,86.5,172.4,88C170.2,88.9,171.2,87.5,172.4,88z"/>
	<path class="st8" d="M237.1,61.3"/>
	<path class="st7" d="M300.9,56.9c-36.3-12.2-73.2-23.2-111.7-24.3c-22.2-0.6-44,1.9-65.7,6.3c-11.7,2.4-23.1,5.8-34.4,9.5
		c-5.9,2-11.8,4.1-17.6,6.4C67.9,56.1,59,58,57.1,61.4c17.6,14.6-15,29.7-15,7.2c-2.5,0.2-12.9,5-14.1,6.9c-1.2,1.9-0.3,1.1,1.3,3.3
		c2,2.7,22.2,14.9,19.4,15.9c-1.8,0.6-9-5.6-12.4-5c-0.4,2,0.3,4.9-2.1,7.3c-4.1,4-11.9,4.2-17,2.5c-3-1-8.1-7.7-9.7-7.4
		c-3.8,0.6-3.5,5.6-2,7.5c3.9,4.7,18.1,6.5,23.2,8c10.7,3.2,33.4,13.7,42.6,4.7c-1.7,0.1-3.5,0.2-5.2,0.3
		c19.5-14.2,29.2-32.5,27.6-57c2,4.9,1.9,11.5,2.3,17.1c0.4,5.3,0.7,10.3-0.4,15.6c-0.4,2-4,8.4-3.5,10c6.3-1.6,12.4-7.1,18.8-9.4
		c4.9-1.8,10-2.1,14.8-4c4-1.5,32.4-22.9,34.3-20.1c0.5,0.7-2.6,3.7-2,3.3c1.3,1.6,5.3-5,6.8-3.4c1.2,1.4-4.2,4.9-4,6.3
		c2.8-1.8,5.6-3.9,9.1-4.3c-3.8,5.7-10.1,9.1-14.7,14.1c2.4-0.5,14.3-10.7,16.5-7.8c0.7,0.9-3.5,4-3.6,4.3c2.7-0.7,5.3-2.4,8.2-2.4
		c-1.1,3-4.9,3.7-6.1,6.4c0.8-0.3,9.7-5.6,10.3-4.5c1,1.9-5.3,4.2-5.7,5.7c1.6-0.6,3.2-1,4.9-1.2c-1.2,1.1-10.9,4.8-10.9,6.4
		c6.7,2.9,14-6.3,20.5-6.5c-1.7,1.8-10.5,4.3-10.7,6.8c3.3,0.9,8.8-2.8,12.1-3.7c-1.1,1.4-2.3,2.7-3.6,4c20.9,0,42.5-0.9,63.5-4
		c11.8-1.7,23.7-3.6,35.5-5.9c7.1-1.4,24.5-1.2,27.6-7.5c-6.7-3-17-1.7-24.4-3.3c-8.5-1.9-16.7-5.6-25.5-6.6
		c-17.7-2-34.6-6.2-52.2-9.5c-20-3.8-39.3-2-59.5-0.6c-10.6,0.8-21.2,2.3-31.7,3.7c-8.3,1.1-18.4,3.7-26.1-0.4
		c19.7-3.6,38.4-9.2,58.5-10.6c20.9-1.5,41,0.1,61.6,3.1c18.3,2.7,36.7,5.1,54.5,10.2c9.3,2.7,18.6,5.2,27.7,8.3
		c4.1,1.4,10.3,4.5,14.6,4.3c4.7-0.3,4.8-2.4,8-6.5C312.9,61,306.9,58.9,300.9,56.9C297.4,55.7,306.9,58.9,300.9,56.9z M6.1,99.5
		C6,98.9,6,98.3,6,97.7C6,98.3,6,98.9,6.1,99.5z M5.9,96.1C6.1,97.7,5.8,95.2,5.9,96.1C5.9,96.2,5.9,96,5.9,96.1z"/>
	<path class="st8" d="M179.9,88.1c-0.9,1-4.5,2.5-5.6,2.8C175.2,90.1,178.1,86.6,179.9,88.1C179,89.2,179.4,87.7,179.9,88.1z"/>
	<path class="st11" d="M257.7,44c0.7-1.1,1.6-1.4,2.7-1C260.4,44.7,259.5,45,257.7,44C258,43.4,258.5,43.9,257.7,44z"/>
	<path class="st10" d="M94.2,57.8c-0.9,0.2-1.1-0.5-0.4-2.1C94.3,56.3,94.5,57,94.2,57.8C94.1,57.8,94.8,57,94.2,57.8z"/>
	<path class="st10" d="M94.9,60.9c-0.9-0.2-0.5-1-0.7-1.6C95.2,59.6,94.8,60.4,94.9,60.9z"/>
	<path class="st3" d="M9.9,101.7c-0.5,0.1-1,0.2-1.1-0.5C9.2,101.2,9.6,101.3,9.9,101.7z"/>
	<path class="st8" d="M123.1,85.9c-0.2,0.3-0.5,0.3-0.7,0.3C122.6,86.1,122.8,86,123.1,85.9z"/>
	<path class="st12" d="M276.2,99.8c3.8,4.8,9.4,7.4,15.1,8.8c1.8,0.5,9.2,0.9,9.3,3.4c-5.3-0.3-10.5-0.6-15.4-2.2
		c-3.8-1.3-9.5-7.6-12.9-7.9c-5.5-0.4,3.9,6.5,4.7,7c1.6,1,15.2,7.3,15.1,8.1c-4.3-0.9-8.7-1.9-12.9-3.5c-3-1.2-12.5-8.4-16.1-6.2
		c-6.1,3.7,16.9,9.9,16.3,11.9c-0.3,1-21.5-5.6-22.9-7.1c-4.5-4.7,0-5.2,4.5-6.8C265.8,103.6,271.1,100.9,276.2,99.8
		C279.2,103.6,275.7,99.9,276.2,99.8z"/>
	<path class="st12" d="M150.6,126c4.4,2.8,6.4,7.7,7.6,12.6c-2.2-1.4-11.6-15.1-11.4-7.6c0.1,2.9,11.3,19.9,9.5,20.8
		c-3.9,1.9-9-22.4-15.9-22.5c-8.3-0.1,5.8,17.6,7.7,20.6c-5.2-3.4-11.3-11.5-12.1-17.9C134.7,122.7,143.8,123.4,150.6,126
		C155.2,128.9,150,125.7,150.6,126z"/>
	<path class="st5" d="M188.6,111.5"/>
	<path class="st7" d="M91.8,98.7c0.1-0.1,0.2-0.2,0.3-0.3C92,98.4,91.9,98.6,91.8,98.7z"/>
	<path class="st0" d="M46.7,62.2c1.2,0,4.6,6.8,4.8,7.7c-1.9-0.5-7.2-3.2-8.6-3.1C42.7,66.9,48.8,61,46.7,62.2
		C47.1,62.2,45.5,62.8,46.7,62.2z"/>
	<path class="st3" d="M43.9,65c0,0.1,0,0.2-0.1,0.2C43.6,65,43.7,65,43.9,65z"/>
	<path class="st3" d="M43.6,65.5c-0.1,0.1-0.2,0.2-0.2,0.4C43.3,65.7,43.4,65.5,43.6,65.5z"/>
	<path class="st3" d="M43.3,66.3c0,0.2-0.1,0.4-0.3,0.5C42.9,66.6,43.1,66.4,43.3,66.3z"/>
	<path class="st4" d="M349.4,62c0-1.4-0.2-2.8-0.6-4.1c11.1-0.7,21.4-5.7,32.3-6.4c-1,2-11.3,3.5-13.4,4.2
		C361.6,57.6,355.5,59.6,349.4,62C349.4,60.6,352.4,60.9,349.4,62z"/>
	<g>
		<path class="st7" d="M371,115.7C371,115.6,370.9,115.7,371,115.7C371,115.7,371,115.7,371,115.7z"/>
		<path class="st7" d="M399.6,31.1c-9.6,1.9-19.1,9.8-27.6,14.2c-1.6,4.7-23.3,8.8-23.1,12.6c11.1-0.7,21.4-5.7,32.3-6.4
			c-1.1,2.2-16.6,5.2-19.1,6c-4.3,1.4-14.5,3.2-17.2,6.7c0.6,3.5,21.2-3.4,23.4-1.1c-1.6,0.4-20.9,3.1-20.9,4.2
			c0.1,4,33.8,0.3,33,3.4c-0.2,0.8-13.4,0.2-14.9,0.2c-7.1,0-13.4,0.4-20.1,2.9c9.1,5.5,22.2,0.7,31.5,6.3
			c-2.5-0.2-25.7-4.5-26.2-2.2c-0.2,0.7,5.6,5.2,3.9,3.5c-1-0.1-6.8-1.4-7.3,0.1c-0.4,1.3,26.8,8.2,29.2,9.8
			c-8.2,1.8-16.7-4.2-25-4.3c2.8,0.9,24,8.7,23.8,9.7c-0.4,1.9-16.6-8.6-20.1-7.5c1.3,0.8,21.4,12.6,21.6,11.9
			c-1.3,4.1-21.9-9.8-23.5-9.3c8,4.9,16.1,9.8,23.6,15.4c-2.6-0.6-22.9-11-23.3-10.3c-0.3,0.7,22.2,12.2,24.2,15.2
			c-6,1-10.3-2.8-15.9-4c5.1,4.3,13.1,13,20.2,13.1c5.2,0,14.6-11.3,9.4-15.3c0.9,0.7,0.9-7.1,0.8-8.2c-0.6-7.7-3.7-14.4-5.4-21.5
			c-1-4-1.8-1.9,0.3-6.8c2.2-5.1,5.7-9.8,8.3-14.6C397.4,51.3,410.1,28.9,399.6,31.1C397.1,31.6,402.8,30.4,399.6,31.1z M357,82.1
			c3.3,0.3,6.4,1.6,9.5,2.7C363.2,84.4,360,83.7,357,82.1z M380.9,120.1c-0.7-0.2-1.4-0.4-2.1-0.6c1.9,1.5,4.4,0,5.6-1.5
			C383.5,119.1,382.3,119.8,380.9,120.1C380.1,120.2,382,120.1,380.9,120.1z M391.5,105.8c-0.5-0.4-0.8-0.9-1.2-1.4
			C390.7,104.9,391,105.4,391.5,105.8z M391.4,99.4c0.3-0.3,0.4-0.6,0.4-1C391.8,98.8,391.7,99.1,391.4,99.4z M372.7,62.3
			c-0.3,0-3.6,1.7-3.6,0.4c0-0.9,12.5-2.8,14.2-3.1C379.9,60.8,376.3,62,372.7,62.3C371.7,62.4,376.4,62,372.7,62.3z"/>
	</g>
	<path class="st11" d="M383.3,59.6c-0.7,0.3-14.2,4.1-14.2,3.1C369.1,61.8,381.6,59.9,383.3,59.6C379.8,60.8,381.4,59.9,383.3,59.6z
		"/>
	<path class="st4" d="M363.7,91.9c0.8,0.1,11.6,4.5,11.6,4.8C374.9,98.3,364.6,92.7,363.7,91.9z"/>
	<path class="st10" d="M366.5,84.8c-3.3-0.5-6.5-1.1-9.5-2.7C360.4,82.4,363.4,83.8,366.5,84.8z"/>
	<path class="st4" d="M361.7,91.1c0.8-0.1,1.5,0.1,1.9,0.8C363.1,92.6,361.9,91.2,361.7,91.1z"/>
	<path class="st11" d="M360.8,90.5C361.5,90.5,362.5,91.4,360.8,90.5C361.2,90.5,360.8,90.5,360.8,90.5z"/>
	<path class="st11" d="M359.8,90.3C359,90.3,358.2,89.4,359.8,90.3C359.3,90.3,359.8,90.3,359.8,90.3z"/>
	<path class="st11" d="M359.8,90.3C360,90.3,362.2,90.9,359.8,90.3C360.1,90.2,359.8,90.3,359.8,90.3z"/>
	<path class="st4" d="M358.8,89.7C358.5,89.7,356.6,89.1,358.8,89.7C358.5,89.7,358.8,89.7,358.8,89.7z"/>
	<path class="st11" d="M320,58.6c-2.4-1-5.8-3-8.6-3.3c-1.7-0.2-2.9,1.1-3.9,1c-4.7-0.6-9.3-3.2-13.6-4.9c-7.7-2.9-15.4-6-22.9-9.3
		c-5.2-2.3-10.6-4-15.9-5.9c-9.6-3.4-20.4-10.1-30.3-10.5c-3.1-0.1-4.7,1.2-7.3,1.2c-4.8,0.1-9-2.9-13.6-3.7
		c-6.9-1.3-13.9-0.7-20.8-0.5c-11.6,0.4-23.1,0.5-34.6,2.2c-6.3,0.9-12.6,1.7-18.8,2.7c-3.3,0.5-10.5,4.1-10-0.8
		C83.5,34.5,46.7,49.3,17.1,71.6c5.6,2.3,8.1,4.6,13.7,2.8c4.2-1.4,9.4-4.9,12.1-7.5c2.1-2-0.3-1.8,3.8-4.6c3.4-2.3,5.4-0.8,8.7-1.2
		c3.2-0.4,6.1-2.2,9.5-3.6c28.9-12.4,60.9-21.4,92.4-23.7c30.3-2.3,60-0.7,89.5,7.1c9.9,2.6,19.6,5.2,29.4,8.2
		c8.3,2.5,16.5,5.2,24.7,8c5.8,1.9,17.7,9.4,21.3,2.7C321.5,59.1,320.8,58.7,320,58.6z"/>
	<path class="st12" d="M218.3,19.3c1-1,2-2.1,2.9-3.1c-1.1-1.1-9.3,4.9-10.7,1.8c0.3-1.3,1.1-2.4,2.2-3.2
		c-2.4-0.3-11.5,3.2-12.7,0.9c-0.7-1.5,3.3-4.8,2.8-5.5c-0.1-0.1-12.8,2.8-13.1,2.8c-2.2,0.4-3.1,2.3-4.7,0.6
		c-1.3-1.4,5.2-9.1,6.1-10.3c-5.8,1-10.5,12.4-16.8,10.9c-6.1-1.5,0.6-5.6,0.6-10.1C173,6,162.8,19.9,158,15.7
		c-1.9-1.7,7.2-14.6,7.9-15.7c-7.7,5.6-16.7,9.6-22.9,17.1c0.1-1.7,4.3-15.7,4.6-15.5c-4.8-3.2-15.1,19.7-18.1,18.9
		c-2.5-0.7,0.7-13.6-1.1-15.3c-3.4,5.5-6.6,11.4-8.1,17.8c-1.6,7-1.1,6.5,5.7,5.3c14.2-2.5,28.8-4.7,43.3-5.3
		c9.5-0.4,19-0.7,28.2-0.4c8.3,0.3,21.1,9.1,26.6-0.7C222,22,215,23.6,218.3,19.3C219.1,18.2,217.7,20,218.3,19.3z"/>
	<g>
		<path class="st9" d="M310.1,28.6C310.1,28.6,310.2,28.7,310.1,28.6C310.1,28.6,310.1,28.6,310.1,28.6z"/>
		<path class="st9" d="M319.3,35.6c-0.1,0.1-2.9,0-3.1-0.2c0.1-0.5,0.2-1,0.5-1.4c-0.8,0.2-1.5,0.3-2.3,0.5c0.3-0.4,0.5-0.8,0.5-1.3
			c-0.7-0.7-3,1-3.9,0.5c0.5-0.5,0.8-1.1,0.8-1.8c-0.5-0.9-2.6,1.1-3.3,0.1c-0.4-0.6,1.5-3.2,1.6-3.3c-0.9-0.3-4.1,1.9-4.8,1
			c-0.3-0.4,1.3-2.4,1.4-2.8c-0.4,0.3-4.1,1.9-4.8,1c0.3-1.3,0.8-2.5,1.7-3.6c-1.4,0.2-2.8,0.3-4.3,0.3c1.6-3.4,0.2-1.1-1.6-2.4
			c0.4-0.5,0.6-1.1,0.6-1.7c0,0-5,2.4-5.4,1.4c0.2-1.1,0.7-2,1.5-2.7c-1.5,0.7-3,1-4.6,0.9c0.4-0.8,0.3-1.4-0.2-1.8
			c-1,0.2-2,0.5-3.1,0.7c-1-0.3-3.8,0.9-4.4-0.4c-0.3-0.6,3.3-3.4,3.4-3.7c-1.2,0.2-5,1.6-5,1.7c-0.8,0.3,0.4-2.3,0.8-2.6
			c-0.7-0.3-8.9,1-8.9,0.8c0,0.2,3.6-5.2,3.5-5.1c-6.8,2.7-16.2,6.7-21.1,12.2c4.2-0.9,7.5-3.7,11.6-5c-1.4,3.7-7.9,4.6-8.5,8.6
			c3.1-1.7,6.6-3.8,10-4.6c-0.2,4.5-4.7,5.8-6.1,9.6c1,0.7,7.8-4.8,8.9-5.2c-0.9,0.3-6.7,8.9-6.6,9c3.1,2.2,18-10.9,20.2-8.6
			c1.2,1.3-9,7.3-8.6,9c3.9-1.9,7.9-3.8,11.7-5.8c-0.6,1.2-6.1,7.5-5.3,8.6c0.8,1.1,11.3-6.5,11.7-6.8c-1.2,2.8-3.3,5-4.8,7.7
			c1.7,0.2,6.8-2.9,7.4-2.4c1.1,1-2.9,3.9-2.1,4.8c0.7,0.9,8.1-4.6,9.8-4.5c-3,5.8-6.2,9.9,2.4,4.9c-0.5,0.8-4.5,2.9-3,4.1
			C307.1,48.5,322.1,37.6,319.3,35.6C319.3,35.6,319.7,35.8,319.3,35.6z M319.3,35.9C318.9,36.1,319.9,35.5,319.3,35.9
			C319.2,35.9,319.4,35.8,319.3,35.9z"/>
	</g>
	<path class="st9" d="M268,22.5c3.2,2.1-1.9,3.4-3.3,3.8C265,24.4,266.1,23.1,268,22.5C268.7,23,266.1,23,268,22.5z"/>
	<path class="st11" d="M302.8,43.9c1-1.2,2.3-2,3.7-2.6C306.2,41.8,303.6,44.6,302.8,43.9C303.7,42.5,303,44,302.8,43.9z"/>
	<path class="st1" d="M308.5,108.7c-2.3-1.5-17.3-6.9-20.1-5.2c-5.7,3.5,9.3,7.6,12.2,8c0,0.2,0,0.4,0,0.6
		c-5.3-0.3-10.5-0.6-15.4-2.2c-3.8-1.3-9.5-7.6-12.9-7.9c-5.5-0.4,3.9,6.5,4.7,7c1.6,1,15.2,7.3,15.1,8.1c-4.3-0.9-8.7-1.9-12.9-3.5
		c-3-1.2-12.5-8.4-16.1-6.2c-6.1,3.7,16.9,9.9,16.3,11.9c-0.4,1.4-20.2-5.6-21.4-6.4c-4.5-3-2.4-4.7-7.9-4c-1.9,0.2-13.8,3.4-14,5.2
		c0.8,1,19.9,12.7,21.7,8.5c0.3-0.7-3.9-4.3-4-4.4c14.5,1.2,27.5,11.3,42.5,7.7c0-0.7,8.9-6,4.8-6.7c1.8-0.5,5.3-1.8,2.7-3.4
		c7.7-3,1-1.9,1.8-4.4C305.9,110.5,310.5,110,308.5,108.7z"/>
	<path class="st6" d="M319.2,38c-4.6,4.4-11.1,8.8-16,6.2c-5.6-2.9-1.9-2.5,0.9-7.9c-1.6-0.1-8.9,5.5-9.8,4.5
		c-0.8-0.9,3.2-3.9,2.1-4.8c-0.2-0.2-6.2,2.6-7.4,2.4c1.5-2.6,3.7-4.8,4.8-7.7c-0.8,0.5-10.9,7.9-11.7,6.8c-0.8-1.1,4.7-7.4,5.3-8.6
		c-3.8,2.1-7.8,3.9-11.7,5.8c-0.4-1.8,9.8-7.7,8.6-9c-2.1-2.3-15.8,9.5-18.8,7.3c0.3,0.2,9.3-10.1,10.8-10.7
		c-0.8,0.3-8.4,0.6-8.5,0.2c0.3-0.5,0.3-1,0.1-1.6c-3.5,0.7-7,2.9-10,4.6c0.7-4,7.1-4.9,8.5-8.6c-4.1,1.2-7.4,4-11.6,5
		c1.5-1.6,8.7-4.1,8.6-6.2c-9.9,4.6-19.7,9.7-30.4,12.1c14.5,6.1,29.4,11.2,44,17.2c5.1,2.1,27.2,13.8,31.7,10.4
		c1.7-1.3,0.4-6.3,1.7-8.7c1.8-3.5,5.8-3.5,7.9-6.2C318.6,40,321,37.4,319.2,38C316.4,40.6,319.4,37.9,319.2,38z"/>
	<path class="st0" d="M319.3,35.5C319.4,35.6,319,36.4,319.3,35.5C319.4,35.7,319.3,35.5,319.3,35.5z"/>
	<path class="st0" d="M161.7,140.9c-0.7-0.3-0.6-0.7-0.3-1.2C161.5,140.1,161.6,140.5,161.7,140.9z"/>
	<path class="st12" d="M148.1,149.8C148.7,150.5,148.1,149.9,148.1,149.8C148.2,149.9,148.1,149.8,148.1,149.8z"/>
	<path class="st0" d="M167.2,154.3C167.2,154.7,166.9,154.2,167.2,154.3C167.2,154.4,167.2,154.3,167.2,154.3z"/>
	<path class="st1" d="M135.5,102.4c-5.5,0.4-7.8,1.7-9.8-2.3c-0.7-1.5,0.4-3.2,0.1-4.2c-0.4-1.3-3-1.2-2.3-3.4c0.8-2.5,5-3.9,7-4.9
		c6-2.8,12.6-4.1,18.4-7.5c-5.9,4.9-13.2,7.8-19.7,11.8c1.7-0.4,20.8-6.7,21.4-5.3c-2.4,1.3-21.9,7.8-20.4,11.8
		c1.8,4.9,24.2-8.4,28.2-8.2c-1.9,2.3-25.3,11.2-25,11.8C133.9,102.8,135.3,101.5,135.5,102.4C132.9,102.6,135.5,102.3,135.5,102.4z
		"/>
	<path class="st1" d="M137.1,102.1c1.3-0.3,11.4-4.6,12.1-3.2C150.5,101.6,138.2,102.9,137.1,102.1
		C140.5,101.4,137.7,102.5,137.1,102.1z"/>
	<path class="st10" d="M167.6,77.6c-1.9,2.4-6.6,4.2-9.5,5C158.9,81.4,166.9,77,167.6,77.6C166.6,78.9,167.5,77.5,167.6,77.6z"/>
	<path class="st7" d="M179.9,92.9c2.8,0.3-3.4,1.9-3.3,1.8C177.5,93.6,178.6,93,179.9,92.9C180.1,92.9,178.5,93,179.9,92.9z"/>
	<path class="st7" d="M170.1,81.2C170.1,81.7,168.3,82.5,170.1,81.2C170.1,81.9,170.1,81.2,170.1,81.2z"/>
	<path class="st7" d="M169.2,81.9C169.1,82,167.4,82.5,169.2,81.9C169,82.2,169.2,81.9,169.2,81.9z"/>
	<path class="st10" d="M158.2,82.7C158.2,82.7,156.5,83.3,158.2,82.7C158.1,82.9,158.2,82.7,158.2,82.7z"/>
	<path class="st7" d="M176.6,94.7C176.2,94.9,175.6,95,176.6,94.7C176.5,94.8,176.6,94.7,176.6,94.7z"/>
	<path class="st7" d="M167.6,77.6C167.1,77.1,168.2,76.9,167.6,77.6C167.5,77.5,167.7,77.5,167.6,77.6z"/>
	<path class="st12" d="M46.4,68.5c1.7,0.4,3.4,0.9,5.1,1.3c-0.8-1.5-1.6-3-2.5-4.5c5.2-1.7,11.5,3.3,6.7,8.2
		C51.4,78.1,46.1,73.6,46.4,68.5C48,69,46.2,72.5,46.4,68.5z"/>
	<path class="st8" d="M308.6,74.7c-18.8,1.1-37.6,6.5-56.2,9.3c-11.1,1.6-22.3,2.5-33.6,3.3c-9.4,0.6-17.1-0.5-24.6,4.7
		c-15.6,10.9-32.2,17.1-51.1,19.6c-4.1,0.5-23,4.4-25.4,0.6c-0.7-1,1.2-10.4,0.8-12.5c-0.6-4-1.8-8.3-5.2-10.8
		c3.6,1.7,6.5-0.2,9.1-2.6c-9.3,0.5-23.2,5.9-30.2,12.1c-3.5,3.1-5.1,7.7-9.3,10.5c-3.1,2.1-5,1.8-8.4,3c-3.6,1.2-6.3,3.1-9.9,4.8
		c1.4,2.4,16.7,3.9,20.5,4.5c12,1.9,24.5,2.9,36.6,3.8c9.6,0.7,19.2,0.3,28.9,1.1c9.6,0.7,20.4-0.5,30.4-1.6
		c24.5-2.7,47.6-8.6,70.4-15.9c9.9-3.1,19.9-6.9,29.4-10.7c5.8-2.3,11.5-4.6,17.1-7.2c4.7-2.1,10.9-6.5,16.1-6.8
		c-2.5-2.8-2.7-6.4-2.1-9.9C310.8,74.2,309.7,74.4,308.6,74.7C304.3,75,309.8,74.6,308.6,74.7z M89.3,111.9c0-0.5,0.3-0.9,0.7-1.1
		C89.6,111.1,89.3,111.5,89.3,111.9z"/>
</g>
</svg>
