<?xml version="1.0" encoding="utf-8"?>
<!-- Generator: Adobe Illustrator 19.0.0, SVG Export Plug-In . SVG Version: 6.00 Build 0)  -->
<svg version="1.1"
	 id="svg2" sodipodi:docname="T84.svg" inkscape:version="0.91 r13725" xmlns:dc="http://purl.org/dc/elements/1.1/" xmlns:rdf="http://www.w3.org/1999/02/22-rdf-syntax-ns#" xmlns:svg="http://www.w3.org/2000/svg" xmlns:cc="http://creativecommons.org/ns#" xmlns:inkscape="http://www.inkscape.org/namespaces/inkscape" xmlns:sodipodi="http://sodipodi.sourceforge.net/DTD/sodipodi-0.dtd"
	 xmlns="http://www.w3.org/2000/svg" xmlns:xlink="http://www.w3.org/1999/xlink" x="0px" y="0px" viewBox="321 216.3 1253.5 361.7"
	 style="enable-background:new 321 216.3 1253.5 361.7;" xml:space="preserve">
<style type="text/css">
	.st0{fill:#333333;stroke:#000000;stroke-width:0.6;stroke-linecap:round;stroke-linejoin:round;}
	.st1{fill:#1A1A1A;stroke:#000000;stroke-linecap:round;stroke-linejoin:round;}
	.st2{fill:url(#path5543_1_);}
	.st3{fill:url(#path5563_1_);}
	.st4{fill:url(#path5448_1_);}
	.st5{fill:url(#path5450_1_);}
	.st6{fill:url(#path5452_1_);}
	.st7{opacity:0.8;fill:#333333;enable-background:new    ;}
	.st8{fill:url(#path5466_1_);}
	.st9{fill:url(#path5468_1_);}
	.st10{filter:url(#filter4361);}
	.st11{opacity:0.8;enable-background:new    ;}
	.st12{fill:url(#path5366_1_);}
	.st13{fill:url(#path5368_1_);}
	.st14{fill:url(#path5370_1_);}
	.st15{fill:url(#path5384_1_);}
	.st16{fill:url(#path5386_1_);}
	.st17{fill:url(#path5284_1_);}
	.st18{fill:url(#path5286_1_);}
	.st19{fill:url(#path5288_1_);}
	.st20{fill:url(#path5302_1_);}
	.st21{fill:url(#path5304_1_);}
	.st22{fill:url(#path5202_1_);}
	.st23{fill:url(#path5204_1_);}
	.st24{fill:url(#path5206_1_);}
	.st25{fill:url(#path5220_1_);}
	.st26{fill:url(#path5222_1_);}
	.st27{fill:url(#path5120_1_);}
	.st28{fill:url(#path5122_1_);}
	.st29{fill:url(#path5124_1_);}
	.st30{fill:url(#path5138_1_);}
	.st31{fill:url(#path5140_1_);}
	.st32{fill:url(#path3329_1_);}
	.st33{fill:url(#path3339-1_1_);}
	.st34{fill:url(#path3343_1_);}
	.st35{fill:url(#path3379_1_);}
	.st36{fill:url(#path3383_1_);}
	.st37{fill:#4D4D4D;stroke:#000000;stroke-linecap:round;stroke-linejoin:round;}
	.st38{fill:#22241C;stroke:#000000;stroke-width:1.5;stroke-linecap:round;stroke-linejoin:round;}
	.st39{fill:#454837;stroke:#000000;stroke-width:1.5;stroke-linecap:round;stroke-linejoin:round;}
	.st40{fill:#0D0D0D;stroke:#000000;stroke-width:1.5;stroke-linecap:round;stroke-linejoin:round;}
	.st41{fill:#1A1A1A;stroke:#000000;stroke-width:1.5;stroke-linecap:round;stroke-linejoin:round;}
	.st42{fill:#4D4D4D;stroke:#000000;stroke-width:1.5;stroke-linecap:round;stroke-linejoin:round;}
	.st43{fill:none;stroke:#000000;stroke-width:1.5;stroke-linecap:round;stroke-linejoin:round;}
	.st44{fill:#808080;stroke:#000000;stroke-linecap:round;stroke-linejoin:round;}
	.st45{fill:#666666;stroke:#000000;stroke-linecap:round;stroke-linejoin:round;}
	.st46{fill:#333333;stroke:#000000;stroke-linecap:round;stroke-linejoin:round;}
	.st47{fill:#CCCCCC;stroke:#000000;stroke-width:0.5;stroke-linecap:round;stroke-linejoin:round;}
	.st48{fill:#666666;stroke:#000000;stroke-width:1;stroke-linecap:round;stroke-linejoin:round;}
	.st49{fill:#CCCCCC;stroke:#000000;stroke-linecap:round;stroke-linejoin:round;}
	.st50{fill:none;stroke:#000000;stroke-linecap:round;stroke-linejoin:round;}
</style>
<filter  style="color-interpolation-filters:sRGB" inkscape:collect="always" id="filter4361">
	<feGaussianBlur  inkscape:collect="always" stdDeviation="0.16920084" id="feGaussianBlur4363"></feGaussianBlur>
</filter>
<sodipodi:namedview  fit-margin-right="0" inkscape:guide-bbox="true" inkscape:window-maximized="1" inkscape:window-height="705" inkscape:document-units="px" inkscape:pageopacity="0.0" inkscape:window-x="-8" inkscape:window-y="-8" inkscape:window-width="1366" inkscape:pageshadow="2" inkscape:current-layer="layer1" fit-margin-bottom="0" fit-margin-left="0" borderopacity="1.0" showguides="true" inkscape:cx="578.07903" inkscape:zoom="0.49497475" bordercolor="#666666" showgrid="false" pagecolor="#ffffff" fit-margin-top="0" id="base" inkscape:cy="290.66994">
	</sodipodi:namedview>
<g id="layer1" transform="translate(-62.64613,101.37329)" inkscape:label="Layer 1" inkscape:groupmode="layer">
	<g id="g5662">
		<path id="path5539" inkscape:connector-curvature="0" sodipodi:nodetypes="ccccc" class="st0" d="M1550.8,202l2.1,17.2
			c0,0-1.5,1-3.3,1l-1.7-17.9L1550.8,202z"/>
		<path id="path4871" inkscape:connector-curvature="0" sodipodi:nodetypes="cccccccccccccccccc" class="st1" d="M1538.8,231
			c0,0,3-5,2.6-10.5c-0.9-13.8-4-17.6-4-17.6s-9.2-13.3-24.6-25l-52.2-34.4l-19.7-10.9c0,0-10.6-5.6-28.7-5.4l-30.4,0l-440-0.1
			l-45.7-0.3c0,0-2.8-0.1-9.1,0.4c0,0-11.9,1.5-24.8,10.4l-8.1,5.8l-48.7,32.8c0,0-17.1,10.6-24.3,16.7c0,0-5.2,4-7.5,9.1
			c0,0-4,8-2.5,20.7L1538.8,231z"/>
		<g id="g5658" transform="matrix(0.61904762,0,0,0.61904762,564.01623,88.701317)">
			
				<radialGradient id="path5543_1_" cx="825.8256" cy="-2296.605" r="185.9029" gradientTransform="matrix(-7.000571e-002 -0.179 0.196 -7.664594e-002 2034.6346 166.3538)" gradientUnits="userSpaceOnUse">
				<stop  offset="0" style="stop-color:#666666"/>
				<stop  offset="0.5" style="stop-color:#4D4D4D"/>
				<stop  offset="1" style="stop-color:#000000"/>
			</radialGradient>
			<path id="path5543" inkscape:connector-curvature="0" class="st2" d="M1526.8,236.6c-23.2,0-42-18.8-42-42s18.8-42,42-42
				s42,18.8,42,42C1568.8,217.8,1550,236.6,1526.8,236.6z"/>
			
				<radialGradient id="path5563_1_" cx="7257.4653" cy="-15478.4307" r="185.87" gradientTransform="matrix(2.425319e-004 -3.791521e-002 3.496998e-002 2.236861e-004 2066.2349 474.0839)" gradientUnits="userSpaceOnUse">
				<stop  offset="0" style="stop-color:#CCCCCC"/>
				<stop  offset="1" style="stop-color:#1A1A1A"/>
			</radialGradient>
			<path id="path5563" inkscape:connector-curvature="0" class="st3" d="M1526.8,205.1c-5.8,0-10.5-4.7-10.5-10.5
				c0-5.8,4.7-10.5,10.5-10.5c5.8,0,10.5,4.7,10.5,10.5C1537.3,200.4,1532.6,205.1,1526.8,205.1z"/>
		</g>
		<g id="g5446" transform="matrix(0.30935718,0,0,0.30935718,1442.1075,32.226891)">
			
				<radialGradient id="path5448_1_" cx="-3212.1279" cy="-3119.8103" r="185.9028" gradientTransform="matrix(-0.1131 -0.2891 0.3166 -0.1238 588.0828 -857.1813)" gradientUnits="userSpaceOnUse">
				<stop  offset="0" style="stop-color:#666666"/>
				<stop  offset="0.5" style="stop-color:#4D4D4D"/>
				<stop  offset="1" style="stop-color:#000000"/>
			</radialGradient>
			<path id="path5448" inkscape:connector-curvature="0" class="st4" d="M-36.3,593.6c-75,0-135.8-60.8-135.8-135.8
				S-111.2,322-36.3,322S99.5,382.8,99.5,457.8C99.5,532.8,38.7,593.6-36.3,593.6z"/>
			
				<radialGradient id="path5450_1_" cx="-2175.4363" cy="-7388.5571" r="185.87" gradientTransform="matrix(-2.298375e-003 -0.1682 0.1614 -2.205568e-003 1152.6179 79.7116)" gradientUnits="userSpaceOnUse">
				<stop  offset="0" style="stop-color:#000000"/>
				<stop  offset="1" style="stop-color:#999999"/>
			</radialGradient>
			<path id="path5450" inkscape:connector-curvature="0" class="st5" d="M-36.2,554.8c-53.6,0-97-43.4-97-97s43.4-97,97-97
				s97,43.4,97,97C60.8,511.4,17.3,554.8-36.2,554.8z"/>
			
				<radialGradient id="path5452_1_" cx="-1734.5977" cy="-8161.3066" r="185.87" gradientTransform="matrix(-2.807676e-004 -0.1493 0.1453 -2.733010e-004 1148.9849 198.9266)" gradientUnits="userSpaceOnUse">
				<stop  offset="0" style="stop-color:#4D4D4D"/>
				<stop  offset="1" style="stop-color:#4D4D4D;stop-opacity:0"/>
			</radialGradient>
			<path id="path5452" inkscape:connector-curvature="0" class="st6" d="M-36.3,545c-48.2,0-87.3-39.1-87.3-87.3
				s39.1-87.3,87.3-87.3S51,409.5,51,457.7C51,506,11.9,545-36.3,545z"/>
			<path id="path5454" inkscape:connector-curvature="0" class="st7" d="M-36.2,545c7,0,13.8-0.9,20.3-2.4c-1.7-7.4-10.1-13-20.3-13
				c-10.1,0-18.6,5.6-20.3,13C-50,544.2-43.2,545-36.2,545L-36.2,545z"/>
			<path id="path5456" inkscape:connector-curvature="0" class="st7" d="M-98.5,493.7c-5.1-8.8-14.2-13.3-21.4-11.1
				c4,13.3,11,25.3,20.3,35.1C-94.1,512.5-93.4,502.5-98.5,493.7z"/>
			<path id="path5458" inkscape:connector-curvature="0" class="st7" d="M-116.3,433.4c6.5,0.1,13.6-4.2,17.8-11.6
				c5.1-8.8,4.4-18.8-1.1-24c-9.3,9.8-16.3,21.8-20.3,35.1C-118.7,433.2-117.6,433.4-116.3,433.4L-116.3,433.4z"/>
			<path id="path5460" inkscape:connector-curvature="0" class="st7" d="M-36.2,385.8c10.1,0,18.5-5.6,20.3-13
				c-6.5-1.5-13.3-2.4-20.3-2.4c-7,0-13.8,0.8-20.3,2.4C-54.8,380.2-46.4,385.8-36.2,385.8L-36.2,385.8z"/>
			<path id="path5462" inkscape:connector-curvature="0" class="st7" d="M43.1,433.4c1.5,0.1,3-0.1,4.4-0.5
				c-4-13.3-11-25.3-20.3-35.1c-5.5,5.2-6.1,15.3-1.1,24C30.2,428.9,36.8,433.2,43.1,433.4L43.1,433.4z"/>
			<path id="path5464" inkscape:connector-curvature="0" class="st7" d="M27.2,517.7c9.3-9.8,16.3-21.8,20.3-35.1
				c-7.2-2.2-16.3,2.3-21.4,11.1C21,502.5,21.7,512.5,27.2,517.7L27.2,517.7z"/>
			
				<radialGradient id="path5466_1_" cx="8.1274" cy="-10710.4639" r="185.8118" gradientTransform="matrix(3.917897e-004 -0.1077 0.1076 3.909829e-004 1116.0205 462.8074)" gradientUnits="userSpaceOnUse">
				<stop  offset="0" style="stop-color:#FFFFFF"/>
				<stop  offset="1" style="stop-color:#4D4D4D"/>
			</radialGradient>
			<path id="path5466" inkscape:connector-curvature="0" class="st8" d="M-36.2,522.4c-35.7,0-64.7-28.9-64.7-64.7
				s28.9-64.7,64.7-64.7s64.7,28.9,64.7,64.7C28.4,493.5-0.5,522.4-36.2,522.4z"/>
			
				<radialGradient id="path5468_1_" cx="4800.877" cy="-19439.5879" r="185.87" gradientTransform="matrix(3.917823e-004 -6.124764e-002 5.648996e-002 3.613391e-004 1059.8069 761.6976)" gradientUnits="userSpaceOnUse">
				<stop  offset="0" style="stop-color:#CCCCCC"/>
				<stop  offset="1" style="stop-color:#1A1A1A"/>
			</radialGradient>
			<path id="path5468" inkscape:connector-curvature="0" class="st9" d="M-36.2,491.7c-18.7,0-33.9-15.2-33.9-33.9
				c0-18.7,15.2-33.9,33.9-33.9S-2.3,439-2.3,457.8C-2.3,476.5-17.5,491.7-36.2,491.7z"/>
			<g id="g5470" transform="translate(1015.3617,-203.0207)" inkscape:transform-center-y="-53.790562" class="st10">
				<path id="path5472_3_" inkscape:connector-curvature="0" class="st11" d="M-1057.5,707.2c-2.1,0-3.8-1.7-3.8-3.8
					c0-2.1,1.7-3.8,3.8-3.8c2.1,0,3.8,1.7,3.8,3.8C-1053.7,705.5-1055.4,707.2-1057.5,707.2z"/>
				<path id="path5474_3_" inkscape:connector-curvature="0" class="st11" d="M-1045.8,707.2c-2.1,0-3.8-1.7-3.8-3.8
					c0-2.1,1.7-3.8,3.8-3.8c2.1,0,3.8,1.7,3.8,3.8C-1042,705.5-1043.7,707.2-1045.8,707.2z"/>
			</g>
			
				<g id="g5476" transform="matrix(0.70711,-0.70711,0.70711,0.70711,-52.82826,-790.2907)" inkscape:transform-center-x="38.035671" inkscape:transform-center-y="-38.035676" class="st10">
				<path id="path5478_3_" inkscape:connector-curvature="0" class="st11" d="M-917.4,888c0-2.1,1.7-3.8,3.8-3.8s3.8,1.7,3.8,3.8
					s-1.7,3.8-3.8,3.8S-917.4,890.2-917.4,888z"/>
				<path id="path5480_3_" inkscape:connector-curvature="0" class="st11" d="M-917.4,899.8c0-2.1,1.7-3.8,3.8-3.8s3.8,1.7,3.8,3.8
					s-1.7,3.8-3.8,3.8S-917.4,901.9-917.4,899.8z"/>
			</g>
			<g id="g5482" transform="matrix(0,-1,1,0,-1223.4183,-450.2207)" inkscape:transform-center-x="53.790566" class="st10">
				<path id="path5484_3_" inkscape:connector-curvature="0" class="st11" d="M-901.7,1140.3c2.1,0,3.8,1.7,3.8,3.8
					c0,2.1-1.7,3.8-3.8,3.8s-3.8-1.7-3.8-3.8C-905.5,1142-903.8,1140.3-901.7,1140.3z"/>
				<path id="path5486_3_" inkscape:connector-curvature="0" class="st11" d="M-913.4,1140.3c2.1,0,3.8,1.7,3.8,3.8
					c0,2.1-1.7,3.8-3.8,3.8s-3.8-1.7-3.8-3.8C-917.3,1142-915.5,1140.3-913.4,1140.3z"/>
			</g>
			
				<g id="g5488" transform="matrix(-0.70711,-0.70711,0.70711,-0.70711,-1810.6883,617.9793)" inkscape:transform-center-x="38.03568" inkscape:transform-center-y="38.035651" class="st10">
				<path id="path5490_3_" inkscape:connector-curvature="0" class="st11" d="M-1094.2,1374.1c0,2.1-1.7,3.8-3.8,3.8
					c-2.1,0-3.8-1.7-3.8-3.8c0-2.1,1.7-3.8,3.8-3.8C-1095.9,1370.3-1094.2,1372-1094.2,1374.1z"/>
				<path id="path5492_3_" inkscape:connector-curvature="0" class="st11" d="M-1094.2,1362.4c0,2.1-1.7,3.8-3.8,3.8
					c-2.1,0-3.8-1.7-3.8-3.8c0-2.1,1.7-3.8,3.8-3.8C-1095.9,1358.6-1094.2,1360.3-1094.2,1362.4z"/>
			</g>
			
				<g id="g5494" transform="matrix(-1,0,0,-1,-1470.6183,1788.5793)" inkscape:transform-center-x="1.614671e-005" inkscape:transform-center-y="53.790566" class="st10">
				<path id="path5496_3_" inkscape:connector-curvature="0" class="st11" d="M-1440.2,1378.1c-2.1,0-3.8-1.7-3.8-3.8
					s1.7-3.8,3.8-3.8c2.1,0,3.8,1.7,3.8,3.8S-1438.1,1378.1-1440.2,1378.1z"/>
				<path id="path5498_3_" inkscape:connector-curvature="0" class="st11" d="M-1428.5,1378.1c-2.1,0-3.8-1.7-3.8-3.8
					s1.7-3.8,3.8-3.8c2.1,0,3.8,1.7,3.8,3.8S-1426.3,1378.1-1428.5,1378.1z"/>
			</g>
			
				<g id="g5500" transform="matrix(-0.70711,0.70711,-0.70711,-0.70711,-402.41826,2375.8793)" inkscape:transform-center-x="-38.035665" inkscape:transform-center-y="38.03571" class="st10">
				<path id="path5502_3_" inkscape:connector-curvature="0" class="st11" d="M-1662.4,1091.9c0-2.1,1.7-3.8,3.8-3.8
					c2.1,0,3.8,1.7,3.8,3.8c0,2.1-1.7,3.8-3.8,3.8C-1660.7,1095.7-1662.4,1094-1662.4,1091.9z"/>
				<path id="path5504_3_" inkscape:connector-curvature="0" class="st11" d="M-1662.4,1103.6c0-2.1,1.7-3.8,3.8-3.8
					c2.1,0,3.8,1.7,3.8,3.8c0,2.1-1.7,3.8-3.8,3.8C-1660.7,1107.4-1662.4,1105.7-1662.4,1103.6z"/>
			</g>
			
				<g id="g5506" transform="matrix(0,1,-1,0,768.16174,2035.7793)" inkscape:transform-center-x="-53.79063" inkscape:transform-center-y="3.6146709e-005" class="st10">
				<path id="path5508_3_" inkscape:connector-curvature="0" class="st11" d="M-1572.6,757.6c2.1,0,3.8,1.7,3.8,3.8
					s-1.7,3.8-3.8,3.8c-2.1,0-3.8-1.7-3.8-3.8S-1574.7,757.6-1572.6,757.6z"/>
				<path id="path5510_3_" inkscape:connector-curvature="0" class="st11" d="M-1584.3,757.6c2.1,0,3.8,1.7,3.8,3.8
					s-1.7,3.8-3.8,3.8c-2.1,0-3.8-1.7-3.8-3.8S-1586.4,757.6-1584.3,757.6z"/>
			</g>
			
				<g id="g5512" transform="matrix(0.70711,0.70711,-0.70711,0.70711,1355.4617,967.5793)" inkscape:transform-center-x="-38.035774" inkscape:transform-center-y="-38.035665" class="st10">
				<path id="path5514_3_" inkscape:connector-curvature="0" class="st11" d="M-1298,629.2c0,2.1-1.7,3.8-3.8,3.8
					c-2.1,0-3.8-1.7-3.8-3.8s1.7-3.8,3.8-3.8C-1299.7,625.3-1298,627-1298,629.2z"/>
				<path id="path5516_3_" inkscape:connector-curvature="0" class="st11" d="M-1298,617.4c0,2.1-1.7,3.8-3.8,3.8
					c-2.1,0-3.8-1.7-3.8-3.8s1.7-3.8,3.8-3.8C-1299.7,613.6-1298,615.3-1298,617.4z"/>
			</g>
		</g>
		<g id="g5364" transform="matrix(0.30935718,0,0,0.30935718,1308.1075,38.226891)">
			
				<radialGradient id="path5366_1_" cx="-2778.9714" cy="-3139.2053" r="185.9028" gradientTransform="matrix(-0.1131 -0.2891 0.3166 -0.1238 729.8376 -769.259)" gradientUnits="userSpaceOnUse">
				<stop  offset="0" style="stop-color:#666666"/>
				<stop  offset="0.5" style="stop-color:#4D4D4D"/>
				<stop  offset="1" style="stop-color:#000000"/>
			</radialGradient>
			<path id="path5366" inkscape:connector-curvature="0" class="st12" d="M50.4,558.6c-75,0-135.8-60.8-135.8-135.8
				s60.8-135.8,135.8-135.8s135.8,60.8,135.8,135.8C186.1,497.9,125.4,558.6,50.4,558.6z"/>
			
				<radialGradient id="path5368_1_" cx="-1742.2799" cy="-7407.9521" r="185.87" gradientTransform="matrix(-2.298375e-003 -0.1682 0.1614 -2.205568e-003 1243.3749 117.6067)" gradientUnits="userSpaceOnUse">
				<stop  offset="0" style="stop-color:#000000"/>
				<stop  offset="1" style="stop-color:#999999"/>
			</radialGradient>
			<path id="path5368" inkscape:connector-curvature="0" class="st13" d="M50.4,519.9c-53.6,0-97-43.4-97-97s43.4-97,97-97
				s97,43.4,97,97C147.4,476.4,104,519.9,50.4,519.9z"/>
			
				<radialGradient id="path5370_1_" cx="-1301.4412" cy="-8180.7017" r="185.87" gradientTransform="matrix(-2.807676e-004 -0.1493 0.1453 -2.733010e-004 1238.5552 228.7004)" gradientUnits="userSpaceOnUse">
				<stop  offset="0" style="stop-color:#4D4D4D"/>
				<stop  offset="1" style="stop-color:#4D4D4D;stop-opacity:0"/>
			</radialGradient>
			<path id="path5370" inkscape:connector-curvature="0" class="st14" d="M50.4,510.1c-48.2,0-87.3-39.1-87.3-87.3
				s39.1-87.3,87.3-87.3s87.3,39.1,87.3,87.3C137.6,471,98.6,510.1,50.4,510.1z"/>
			<path id="path5372" inkscape:connector-curvature="0" class="st7" d="M50.4,510.1c7,0,13.8-0.9,20.3-2.4
				c-1.7-7.4-10.1-13-20.3-13c-10.1,0-18.6,5.6-20.3,13C36.6,509.3,43.4,510.1,50.4,510.1L50.4,510.1z"/>
			<path id="path5374" inkscape:connector-curvature="0" class="st7" d="M-11.9,458.8c-5.1-8.8-14.2-13.3-21.4-11.1
				c4,13.3,11,25.3,20.3,35.1C-7.5,477.6-6.8,467.6-11.9,458.8z"/>
			<path id="path5376" inkscape:connector-curvature="0" class="st7" d="M-29.7,398.5c6.5,0.1,13.6-4.2,17.8-11.6
				c5.1-8.8,4.4-18.8-1.1-24c-9.3,9.8-16.3,21.8-20.3,35.1C-32.1,398.3-30.9,398.5-29.7,398.5L-29.7,398.5z"/>
			<path id="path5378" inkscape:connector-curvature="0" class="st7" d="M50.4,350.9c10.1,0,18.5-5.6,20.3-13
				c-6.5-1.5-13.3-2.4-20.3-2.4c-7,0-13.8,0.8-20.3,2.4C31.9,345.3,40.3,350.9,50.4,350.9L50.4,350.9z"/>
			<path id="path5380" inkscape:connector-curvature="0" class="st7" d="M129.7,398.5c1.5,0.1,3-0.1,4.4-0.5
				c-4-13.3-11-25.3-20.3-35.1c-5.5,5.2-6.1,15.3-1.1,24C116.8,394,123.5,398.3,129.7,398.5L129.7,398.5z"/>
			<path id="path5382" inkscape:connector-curvature="0" class="st7" d="M113.8,482.8c9.3-9.8,16.3-21.8,20.3-35.1
				c-7.2-2.2-16.3,2.3-21.4,11.1C107.7,467.6,108.3,477.6,113.8,482.8L113.8,482.8z"/>
			
				<radialGradient id="path5384_1_" cx="441.2839" cy="-10729.8584" r="185.8118" gradientTransform="matrix(3.917897e-004 -0.1077 0.1076 3.909829e-004 1204.569 474.5356)" gradientUnits="userSpaceOnUse">
				<stop  offset="0" style="stop-color:#FFFFFF"/>
				<stop  offset="1" style="stop-color:#4D4D4D"/>
			</radialGradient>
			<path id="path5384" inkscape:connector-curvature="0" class="st15" d="M50.4,487.5c-35.7,0-64.7-28.9-64.7-64.7
				s28.9-64.7,64.7-64.7s64.7,28.9,64.7,64.7C115.1,458.5,86.1,487.5,50.4,487.5z"/>
			
				<radialGradient id="path5386_1_" cx="5234.0332" cy="-19458.9824" r="185.87" gradientTransform="matrix(3.917823e-004 -6.124764e-002 5.648996e-002 3.613391e-004 1147.3641 753.3233)" gradientUnits="userSpaceOnUse">
				<stop  offset="0" style="stop-color:#CCCCCC"/>
				<stop  offset="1" style="stop-color:#1A1A1A"/>
			</radialGradient>
			<path id="path5386" inkscape:connector-curvature="0" class="st16" d="M50.4,456.8c-18.7,0-33.9-15.2-33.9-33.9
				s15.2-33.9,33.9-33.9s33.9,15.2,33.9,33.9C84.3,441.6,69.2,456.8,50.4,456.8z"/>
			<g id="g5388" transform="translate(1015.3617,-203.0207)" inkscape:transform-center-y="-53.790562" class="st10">
				<path id="path5390_3_" inkscape:connector-curvature="0" class="st11" d="M-970.9,672.3c-2.1,0-3.8-1.7-3.8-3.8s1.7-3.8,3.8-3.8
					s3.8,1.7,3.8,3.8S-968.8,672.3-970.9,672.3z"/>
				<path id="path5392_3_" inkscape:connector-curvature="0" class="st11" d="M-959.2,672.3c-2.1,0-3.8-1.7-3.8-3.8s1.7-3.8,3.8-3.8
					s3.8,1.7,3.8,3.8S-957,672.3-959.2,672.3z"/>
			</g>
			
				<g id="g5394" transform="matrix(0.70711,-0.70711,0.70711,0.70711,-52.82826,-790.2907)" inkscape:transform-center-x="38.035671" inkscape:transform-center-y="-38.035676" class="st10">
				<path id="path5396_3_" inkscape:connector-curvature="0" class="st11" d="M-831.4,924.6c0-2.1,1.7-3.8,3.8-3.8s3.8,1.7,3.8,3.8
					s-1.7,3.8-3.8,3.8S-831.4,926.7-831.4,924.6z"/>
				<path id="path5398_3_" inkscape:connector-curvature="0" class="st11" d="M-831.4,936.3c0-2.1,1.7-3.8,3.8-3.8s3.8,1.7,3.8,3.8
					s-1.7,3.8-3.8,3.8S-831.4,938.4-831.4,936.3z"/>
			</g>
			<g id="g5400" transform="matrix(0,-1,1,0,-1223.4183,-450.2207)" inkscape:transform-center-x="53.790566" class="st10">
				<path id="path5402_3_" inkscape:connector-curvature="0" class="st11" d="M-866.8,1226.9c2.1,0,3.8,1.7,3.8,3.8
					c0,2.1-1.7,3.8-3.8,3.8s-3.8-1.7-3.8-3.8C-870.6,1228.6-868.9,1226.9-866.8,1226.9z"/>
				<path id="path5404_3_" inkscape:connector-curvature="0" class="st11" d="M-878.5,1226.9c2.1,0,3.8,1.7,3.8,3.8
					c0,2.1-1.7,3.8-3.8,3.8c-2.1,0-3.8-1.7-3.8-3.8C-882.3,1228.6-880.6,1226.9-878.5,1226.9z"/>
			</g>
			
				<g id="g5406" transform="matrix(-0.70711,-0.70711,0.70711,-0.70711,-1810.6883,617.9793)" inkscape:transform-center-x="38.03568" inkscape:transform-center-y="38.035651" class="st10">
				<path id="path5408_3_" inkscape:connector-curvature="0" class="st11" d="M-1130.8,1460.1c0,2.1-1.7,3.8-3.8,3.8
					c-2.1,0-3.8-1.7-3.8-3.8c0-2.1,1.7-3.8,3.8-3.8C-1132.5,1456.2-1130.8,1458-1130.8,1460.1z"/>
				<path id="path5410_3_" inkscape:connector-curvature="0" class="st11" d="M-1130.8,1448.4c0,2.1-1.7,3.8-3.8,3.8
					c-2.1,0-3.8-1.7-3.8-3.8c0-2.1,1.7-3.8,3.8-3.8C-1132.5,1444.5-1130.8,1446.2-1130.8,1448.4z"/>
			</g>
			
				<g id="g5412" transform="matrix(-1,0,0,-1,-1470.6183,1788.5793)" inkscape:transform-center-x="1.614671e-005" inkscape:transform-center-y="53.790566" class="st10">
				<path id="path5414_3_" inkscape:connector-curvature="0" class="st11" d="M-1526.8,1413c-2.1,0-3.8-1.7-3.8-3.8
					c0-2.1,1.7-3.8,3.8-3.8c2.1,0,3.8,1.7,3.8,3.8C-1523,1411.3-1524.7,1413-1526.8,1413z"/>
				<path id="path5416_3_" inkscape:connector-curvature="0" class="st11" d="M-1515.1,1413c-2.1,0-3.8-1.7-3.8-3.8
					c0-2.1,1.7-3.8,3.8-3.8s3.8,1.7,3.8,3.8C-1511.3,1411.3-1513,1413-1515.1,1413z"/>
			</g>
			
				<g id="g5418" transform="matrix(-0.70711,0.70711,-0.70711,-0.70711,-402.41826,2375.8793)" inkscape:transform-center-x="-38.035665" inkscape:transform-center-y="38.03571" class="st10">
				<path id="path5420_3_" inkscape:connector-curvature="0" class="st11" d="M-1748.3,1055.3c0-2.1,1.7-3.8,3.8-3.8
					c2.1,0,3.8,1.7,3.8,3.8c0,2.1-1.7,3.8-3.8,3.8C-1746.6,1059.1-1748.3,1057.4-1748.3,1055.3z"/>
				<path id="path5422_3_" inkscape:connector-curvature="0" class="st11" d="M-1748.3,1067c0-2.1,1.7-3.8,3.8-3.8
					c2.1,0,3.8,1.7,3.8,3.8c0,2.1-1.7,3.8-3.8,3.8C-1746.6,1070.9-1748.3,1069.1-1748.3,1067z"/>
			</g>
			
				<g id="g5424" transform="matrix(0,1,-1,0,768.16174,2035.7793)" inkscape:transform-center-x="-53.79063" inkscape:transform-center-y="3.6146709e-005" class="st10">
				<path id="path5426_3_" inkscape:connector-curvature="0" class="st11" d="M-1607.5,670.9c2.1,0,3.8,1.7,3.8,3.8
					s-1.7,3.8-3.8,3.8c-2.1,0-3.8-1.7-3.8-3.8S-1609.6,670.9-1607.5,670.9z"/>
				<path id="path5428_3_" inkscape:connector-curvature="0" class="st11" d="M-1619.2,670.9c2.1,0,3.8,1.7,3.8,3.8
					s-1.7,3.8-3.8,3.8c-2.1,0-3.8-1.7-3.8-3.8S-1621.3,670.9-1619.2,670.9z"/>
			</g>
			
				<g id="g5430" transform="matrix(0.70711,0.70711,-0.70711,0.70711,1355.4617,967.5793)" inkscape:transform-center-x="-38.035774" inkscape:transform-center-y="-38.035665" class="st10">
				<path id="path5432_3_" inkscape:connector-curvature="0" class="st11" d="M-1261.5,543.2c0,2.1-1.7,3.8-3.8,3.8
					c-2.1,0-3.8-1.7-3.8-3.8c0-2.1,1.7-3.8,3.8-3.8C-1263.2,539.4-1261.5,541.1-1261.5,543.2z"/>
				<path id="path5434_3_" inkscape:connector-curvature="0" class="st11" d="M-1261.5,531.5c0,2.1-1.7,3.8-3.8,3.8
					c-2.1,0-3.8-1.7-3.8-3.8s1.7-3.8,3.8-3.8C-1263.2,527.7-1261.5,529.4-1261.5,531.5z"/>
			</g>
		</g>
		<g id="g5282" transform="matrix(0.30935718,0,0,0.30935718,1164.1075,38.226891)">
			
				<radialGradient id="path5284_1_" cx="-2313.4897" cy="-3139.2053" r="185.9028" gradientTransform="matrix(-0.1131 -0.2891 0.3166 -0.1238 875.5735 -634.6783)" gradientUnits="userSpaceOnUse">
				<stop  offset="0" style="stop-color:#666666"/>
				<stop  offset="0.5" style="stop-color:#4D4D4D"/>
				<stop  offset="1" style="stop-color:#000000"/>
			</radialGradient>
			<path id="path5284" inkscape:connector-curvature="0" class="st17" d="M143.5,558.6c-75,0-135.8-60.8-135.8-135.8
				s60.8-135.8,135.8-135.8s135.8,60.8,135.8,135.8C279.2,497.9,218.5,558.6,143.5,558.6z"/>
			
				<radialGradient id="path5286_1_" cx="-1276.7982" cy="-7407.9521" r="185.87" gradientTransform="matrix(-2.298375e-003 -0.1682 0.1614 -2.205568e-003 1337.541 195.8922)" gradientUnits="userSpaceOnUse">
				<stop  offset="0" style="stop-color:#000000"/>
				<stop  offset="1" style="stop-color:#999999"/>
			</radialGradient>
			<path id="path5286" inkscape:connector-curvature="0" class="st18" d="M143.5,519.9c-53.6,0-97-43.4-97-97s43.4-97,97-97
				s97,43.4,97,97C240.5,476.4,197.1,519.9,143.5,519.9z"/>
			
				<radialGradient id="path5288_1_" cx="-835.9595" cy="-8180.7017" r="185.87" gradientTransform="matrix(-2.807676e-004 -0.1493 0.1453 -2.733010e-004 1331.7822 298.2183)" gradientUnits="userSpaceOnUse">
				<stop  offset="0" style="stop-color:#4D4D4D"/>
				<stop  offset="1" style="stop-color:#4D4D4D;stop-opacity:0"/>
			</radialGradient>
			<path id="path5288" inkscape:connector-curvature="0" class="st19" d="M143.5,510.1c-48.2,0-87.3-39.1-87.3-87.3
				s39.1-87.3,87.3-87.3s87.3,39.1,87.3,87.3C230.7,471,191.7,510.1,143.5,510.1z"/>
			<path id="path5290" inkscape:connector-curvature="0" class="st7" d="M143.5,510.1c7,0,13.8-0.9,20.3-2.4
				c-1.7-7.4-10.1-13-20.3-13c-10.1,0-18.6,5.6-20.3,13C129.7,509.3,136.5,510.1,143.5,510.1L143.5,510.1z"/>
			<path id="path5292" inkscape:connector-curvature="0" class="st7" d="M81.2,458.8c-5.1-8.8-14.2-13.3-21.4-11.1
				c4,13.3,11,25.3,20.3,35.1C85.6,477.6,86.3,467.6,81.2,458.8z"/>
			<path id="path5294" inkscape:connector-curvature="0" class="st7" d="M63.4,398.5c6.5,0.1,13.6-4.2,17.8-11.6
				c5.1-8.8,4.4-18.8-1.1-24c-9.3,9.8-16.3,21.8-20.3,35.1C61,398.3,62.2,398.5,63.4,398.5L63.4,398.5z"/>
			<path id="path5296" inkscape:connector-curvature="0" class="st7" d="M143.5,350.9c10.1,0,18.5-5.6,20.3-13
				c-6.5-1.5-13.3-2.4-20.3-2.4c-7,0-13.8,0.8-20.3,2.4C124.9,345.3,133.4,350.9,143.5,350.9L143.5,350.9z"/>
			<path id="path5298" inkscape:connector-curvature="0" class="st7" d="M222.8,398.5c1.5,0.1,3-0.1,4.4-0.5
				c-4-13.3-11-25.3-20.3-35.1c-5.5,5.2-6.1,15.3-1.1,24C209.9,394,216.6,398.3,222.8,398.5L222.8,398.5z"/>
			<path id="path5300" inkscape:connector-curvature="0" class="st7" d="M206.9,482.8c9.3-9.8,16.3-21.8,20.3-35.1
				c-7.2-2.2-16.3,2.3-21.4,11.1C200.7,467.6,201.4,477.6,206.9,482.8L206.9,482.8z"/>
			
				<radialGradient id="path5302_1_" cx="906.7655" cy="-10729.8584" r="185.8118" gradientTransform="matrix(3.917897e-004 -0.1077 0.1076 3.909829e-004 1297.4829 524.6473)" gradientUnits="userSpaceOnUse">
				<stop  offset="0" style="stop-color:#FFFFFF"/>
				<stop  offset="1" style="stop-color:#4D4D4D"/>
			</radialGradient>
			<path id="path5302" inkscape:connector-curvature="0" class="st20" d="M143.5,487.5c-35.7,0-64.7-28.9-64.7-64.7
				s28.9-64.7,64.7-64.7s64.7,28.9,64.7,64.7C208.2,458.5,179.2,487.5,143.5,487.5z"/>
			
				<radialGradient id="path5304_1_" cx="5699.5151" cy="-19458.9824" r="185.87" gradientTransform="matrix(3.917823e-004 -6.124764e-002 5.648996e-002 3.613391e-004 1240.2781 781.8329)" gradientUnits="userSpaceOnUse">
				<stop  offset="0" style="stop-color:#CCCCCC"/>
				<stop  offset="1" style="stop-color:#1A1A1A"/>
			</radialGradient>
			<path id="path5304" inkscape:connector-curvature="0" class="st21" d="M143.5,456.8c-18.7,0-33.9-15.2-33.9-33.9
				s15.2-33.9,33.9-33.9s33.9,15.2,33.9,33.9C177.4,441.6,162.2,456.8,143.5,456.8z"/>
			<g id="g5306" transform="translate(1015.3617,-203.0207)" inkscape:transform-center-y="-53.790562" class="st10">
				<path id="path5308_3_" inkscape:connector-curvature="0" class="st11" d="M-877.8,672.3c-2.1,0-3.8-1.7-3.8-3.8s1.7-3.8,3.8-3.8
					s3.8,1.7,3.8,3.8S-875.7,672.3-877.8,672.3z"/>
				<path id="path5310_3_" inkscape:connector-curvature="0" class="st11" d="M-866.1,672.3c-2.1,0-3.8-1.7-3.8-3.8s1.7-3.8,3.8-3.8
					s3.8,1.7,3.8,3.8S-863.9,672.3-866.1,672.3z"/>
			</g>
			
				<g id="g5312" transform="matrix(0.70711,-0.70711,0.70711,0.70711,-52.82826,-790.2907)" inkscape:transform-center-x="38.035671" inkscape:transform-center-y="-38.035676" class="st10">
				<path id="path5314_3_" inkscape:connector-curvature="0" class="st11" d="M-765.6,990.4c0-2.1,1.7-3.8,3.8-3.8s3.8,1.7,3.8,3.8
					s-1.7,3.8-3.8,3.8S-765.6,992.6-765.6,990.4z"/>
				<path id="path5316_3_" inkscape:connector-curvature="0" class="st11" d="M-765.6,1002.2c0-2.1,1.7-3.8,3.8-3.8s3.8,1.7,3.8,3.8
					c0,2.1-1.7,3.8-3.8,3.8S-765.6,1004.3-765.6,1002.2z"/>
			</g>
			<g id="g5318" transform="matrix(0,-1,1,0,-1223.4183,-450.2207)" inkscape:transform-center-x="53.790566" class="st10">
				<path id="path5320_3_" inkscape:connector-curvature="0" class="st11" d="M-866.8,1320c2.1,0,3.8,1.7,3.8,3.8
					c0,2.1-1.7,3.8-3.8,3.8s-3.8-1.7-3.8-3.8C-870.6,1321.7-868.9,1320-866.8,1320z"/>
				<path id="path5322_3_" inkscape:connector-curvature="0" class="st11" d="M-878.5,1320c2.1,0,3.8,1.7,3.8,3.8
					c0,2.1-1.7,3.8-3.8,3.8c-2.1,0-3.8-1.7-3.8-3.8C-882.3,1321.7-880.6,1320-878.5,1320z"/>
			</g>
			
				<g id="g5324" transform="matrix(-0.70711,-0.70711,0.70711,-0.70711,-1810.6883,617.9793)" inkscape:transform-center-x="38.03568" inkscape:transform-center-y="38.035651" class="st10">
				<path id="path5326_3_" inkscape:connector-curvature="0" class="st11" d="M-1196.6,1525.9c0,2.1-1.7,3.8-3.8,3.8
					c-2.1,0-3.8-1.7-3.8-3.8c0-2.1,1.7-3.8,3.8-3.8C-1198.3,1522.1-1196.6,1523.8-1196.6,1525.9z"/>
				<path id="path5328_3_" inkscape:connector-curvature="0" class="st11" d="M-1196.6,1514.2c0,2.1-1.7,3.8-3.8,3.8
					c-2.1,0-3.8-1.7-3.8-3.8c0-2.1,1.7-3.8,3.8-3.8C-1198.3,1510.4-1196.6,1512.1-1196.6,1514.2z"/>
			</g>
			
				<g id="g5330" transform="matrix(-1,0,0,-1,-1470.6183,1788.5793)" inkscape:transform-center-x="1.614671e-005" inkscape:transform-center-y="53.790566" class="st10">
				<path id="path5332_3_" inkscape:connector-curvature="0" class="st11" d="M-1619.9,1413c-2.1,0-3.8-1.7-3.8-3.8
					c0-2.1,1.7-3.8,3.8-3.8c2.1,0,3.8,1.7,3.8,3.8C-1616.1,1411.3-1617.8,1413-1619.9,1413z"/>
				<path id="path5334_3_" inkscape:connector-curvature="0" class="st11" d="M-1608.2,1413c-2.1,0-3.8-1.7-3.8-3.8
					c0-2.1,1.7-3.8,3.8-3.8c2.1,0,3.8,1.7,3.8,3.8C-1604.4,1411.3-1606.1,1413-1608.2,1413z"/>
			</g>
			
				<g id="g5336" transform="matrix(-0.70711,0.70711,-0.70711,-0.70711,-402.41826,2375.8793)" inkscape:transform-center-x="-38.035665" inkscape:transform-center-y="38.03571" class="st10">
				<path id="path5338_3_" inkscape:connector-curvature="0" class="st11" d="M-1814.2,989.5c0-2.1,1.7-3.8,3.8-3.8
					c2.1,0,3.8,1.7,3.8,3.8s-1.7,3.8-3.8,3.8C-1812.5,993.3-1814.2,991.6-1814.2,989.5z"/>
				<path id="path5340_3_" inkscape:connector-curvature="0" class="st11" d="M-1814.2,1001.2c0-2.1,1.7-3.8,3.8-3.8
					c2.1,0,3.8,1.7,3.8,3.8s-1.7,3.8-3.8,3.8C-1812.5,1005-1814.2,1003.3-1814.2,1001.2z"/>
			</g>
			
				<g id="g5342" transform="matrix(0,1,-1,0,768.16174,2035.7793)" inkscape:transform-center-x="-53.79063" inkscape:transform-center-y="3.6146709e-005" class="st10">
				<path id="path5344_3_" inkscape:connector-curvature="0" class="st11" d="M-1607.5,577.9c2.1,0,3.8,1.7,3.8,3.8
					s-1.7,3.8-3.8,3.8c-2.1,0-3.8-1.7-3.8-3.8S-1609.6,577.9-1607.5,577.9z"/>
				<path id="path5346_3_" inkscape:connector-curvature="0" class="st11" d="M-1619.2,577.9c2.1,0,3.8,1.7,3.8,3.8
					s-1.7,3.8-3.8,3.8c-2.1,0-3.8-1.7-3.8-3.8S-1621.3,577.9-1619.2,577.9z"/>
			</g>
			
				<g id="g5348" transform="matrix(0.70711,0.70711,-0.70711,0.70711,1355.4617,967.5793)" inkscape:transform-center-x="-38.035774" inkscape:transform-center-y="-38.035665" class="st10">
				<path id="path5350_3_" inkscape:connector-curvature="0" class="st11" d="M-1195.6,477.4c0,2.1-1.7,3.8-3.8,3.8
					c-2.1,0-3.8-1.7-3.8-3.8s1.7-3.8,3.8-3.8C-1197.3,473.6-1195.6,475.3-1195.6,477.4z"/>
				<path id="path5352_3_" inkscape:connector-curvature="0" class="st11" d="M-1195.6,465.7c0,2.1-1.7,3.8-3.8,3.8
					c-2.1,0-3.8-1.7-3.8-3.8c0-2.1,1.7-3.8,3.8-3.8C-1197.3,461.8-1195.6,463.5-1195.6,465.7z"/>
			</g>
		</g>
		<g id="g5200" transform="matrix(0.30935718,0,0,0.30935718,1042.1075,38.226891)">
			
				<radialGradient id="path5202_1_" cx="-1919.1234" cy="-3139.2053" r="185.9028" gradientTransform="matrix(-0.1131 -0.2891 0.3166 -0.1238 999.0441 -520.6585)" gradientUnits="userSpaceOnUse">
				<stop  offset="0" style="stop-color:#666666"/>
				<stop  offset="0.5" style="stop-color:#4D4D4D"/>
				<stop  offset="1" style="stop-color:#000000"/>
			</radialGradient>
			<path id="path5202" inkscape:connector-curvature="0" class="st22" d="M222.3,558.6c-75,0-135.8-60.8-135.8-135.8
				s60.8-135.8,135.8-135.8s135.8,60.8,135.8,135.8C358.1,497.9,297.3,558.6,222.3,558.6z"/>
			
				<radialGradient id="path5204_1_" cx="-882.4319" cy="-7407.9521" r="185.87" gradientTransform="matrix(-2.298375e-003 -0.1682 0.1614 -2.205568e-003 1417.3207 262.2174)" gradientUnits="userSpaceOnUse">
				<stop  offset="0" style="stop-color:#000000"/>
				<stop  offset="1" style="stop-color:#999999"/>
			</radialGradient>
			<path id="path5204" inkscape:connector-curvature="0" class="st23" d="M222.4,519.9c-53.6,0-97-43.4-97-97s43.4-97,97-97
				s97,43.4,97,97C319.4,476.4,275.9,519.9,222.4,519.9z"/>
			
				<radialGradient id="path5206_1_" cx="-441.5931" cy="-8180.7017" r="185.87" gradientTransform="matrix(-2.807676e-004 -0.1493 0.1453 -2.733010e-004 1410.7662 357.1154)" gradientUnits="userSpaceOnUse">
				<stop  offset="0" style="stop-color:#4D4D4D"/>
				<stop  offset="1" style="stop-color:#4D4D4D;stop-opacity:0"/>
			</radialGradient>
			<path id="path5206" inkscape:connector-curvature="0" class="st24" d="M222.3,510.1c-48.2,0-87.3-39.1-87.3-87.3
				s39.1-87.3,87.3-87.3s87.3,39.1,87.3,87.3C309.6,471,270.5,510.1,222.3,510.1z"/>
			<path id="path5208" inkscape:connector-curvature="0" class="st7" d="M222.4,510.1c7,0,13.8-0.9,20.3-2.4
				c-1.7-7.4-10.1-13-20.3-13c-10.1,0-18.6,5.6-20.3,13C208.6,509.3,215.4,510.1,222.4,510.1L222.4,510.1z"/>
			<path id="path5210" inkscape:connector-curvature="0" class="st7" d="M160.1,458.8c-5.1-8.8-14.2-13.3-21.4-11.1
				c4,13.3,11,25.3,20.3,35.1C164.5,477.6,165.2,467.6,160.1,458.8z"/>
			<path id="path5212" inkscape:connector-curvature="0" class="st7" d="M142.3,398.5c6.5,0.1,13.6-4.2,17.8-11.6
				c5.1-8.8,4.4-18.8-1.1-24c-9.3,9.8-16.3,21.8-20.3,35.1C139.9,398.3,141,398.5,142.3,398.5L142.3,398.5z"/>
			<path id="path5214" inkscape:connector-curvature="0" class="st7" d="M222.4,350.9c10.1,0,18.5-5.6,20.3-13
				c-6.5-1.5-13.3-2.4-20.3-2.4c-7,0-13.8,0.8-20.3,2.4C203.8,345.3,212.2,350.9,222.4,350.9L222.4,350.9z"/>
			<path id="path5216" inkscape:connector-curvature="0" class="st7" d="M301.7,398.5c1.5,0.1,3-0.1,4.4-0.5
				c-4-13.3-11-25.3-20.3-35.1c-5.5,5.2-6.1,15.3-1.1,24C288.8,394,295.4,398.3,301.7,398.5L301.7,398.5z"/>
			<path id="path5218" inkscape:connector-curvature="0" class="st7" d="M285.8,482.8c9.3-9.8,16.3-21.8,20.3-35.1
				c-7.2-2.2-16.3,2.3-21.4,11.1C279.6,467.6,280.3,477.6,285.8,482.8L285.8,482.8z"/>
			
				<radialGradient id="path5220_1_" cx="1301.1318" cy="-10729.8584" r="185.8118" gradientTransform="matrix(3.917897e-004 -0.1077 0.1076 3.909829e-004 1376.2017 567.1031)" gradientUnits="userSpaceOnUse">
				<stop  offset="0" style="stop-color:#FFFFFF"/>
				<stop  offset="1" style="stop-color:#4D4D4D"/>
			</radialGradient>
			<path id="path5220" inkscape:connector-curvature="0" class="st25" d="M222.4,487.5c-35.7,0-64.7-28.9-64.7-64.7
				s28.9-64.7,64.7-64.7s64.7,28.9,64.7,64.7C287,458.5,258.1,487.5,222.4,487.5z"/>
			
				<radialGradient id="path5222_1_" cx="6093.8813" cy="-19458.9824" r="185.87" gradientTransform="matrix(3.917823e-004 -6.124764e-002 5.648996e-002 3.613391e-004 1318.9968 805.9869)" gradientUnits="userSpaceOnUse">
				<stop  offset="0" style="stop-color:#CCCCCC"/>
				<stop  offset="1" style="stop-color:#1A1A1A"/>
			</radialGradient>
			<path id="path5222" inkscape:connector-curvature="0" class="st26" d="M222.4,456.8c-18.7,0-33.9-15.2-33.9-33.9
				s15.2-33.9,33.9-33.9s33.9,15.2,33.9,33.9C256.3,441.6,241.1,456.8,222.4,456.8z"/>
			<g id="g5224" transform="translate(1015.3617,-203.0207)" inkscape:transform-center-y="-53.790562" class="st10">
				<path id="path5226_3_" inkscape:connector-curvature="0" class="st11" d="M-798.9,672.3c-2.1,0-3.8-1.7-3.8-3.8s1.7-3.8,3.8-3.8
					s3.8,1.7,3.8,3.8S-796.8,672.3-798.9,672.3z"/>
				<path id="path5228_3_" inkscape:connector-curvature="0" class="st11" d="M-787.2,672.3c-2.1,0-3.8-1.7-3.8-3.8s1.7-3.8,3.8-3.8
					s3.8,1.7,3.8,3.8S-785.1,672.3-787.2,672.3z"/>
			</g>
			
				<g id="g5230" transform="matrix(0.70711,-0.70711,0.70711,0.70711,-52.82826,-790.2907)" inkscape:transform-center-x="38.035671" inkscape:transform-center-y="-38.035676" class="st10">
				<path id="path5232_3_" inkscape:connector-curvature="0" class="st11" d="M-709.8,1046.2c0-2.1,1.7-3.8,3.8-3.8s3.8,1.7,3.8,3.8
					c0,2.1-1.7,3.8-3.8,3.8S-709.8,1048.3-709.8,1046.2z"/>
				<path id="path5234_3_" inkscape:connector-curvature="0" class="st11" d="M-709.8,1057.9c0-2.1,1.7-3.8,3.8-3.8s3.8,1.7,3.8,3.8
					c0,2.1-1.7,3.8-3.8,3.8S-709.8,1060-709.8,1057.9z"/>
			</g>
			<g id="g5236" transform="matrix(0,-1,1,0,-1223.4183,-450.2207)" inkscape:transform-center-x="53.790566" class="st10">
				<path id="path5238_3_" inkscape:connector-curvature="0" class="st11" d="M-866.8,1398.9c2.1,0,3.8,1.7,3.8,3.8
					c0,2.1-1.7,3.8-3.8,3.8s-3.8-1.7-3.8-3.8C-870.6,1400.6-868.9,1398.9-866.8,1398.9z"/>
				<path id="path5240_3_" inkscape:connector-curvature="0" class="st11" d="M-878.5,1398.9c2.1,0,3.8,1.7,3.8,3.8
					c0,2.1-1.7,3.8-3.8,3.8c-2.1,0-3.8-1.7-3.8-3.8C-882.3,1400.6-880.6,1398.9-878.5,1398.9z"/>
			</g>
			
				<g id="g5242" transform="matrix(-0.70711,-0.70711,0.70711,-0.70711,-1810.6883,617.9793)" inkscape:transform-center-x="38.03568" inkscape:transform-center-y="38.035651" class="st10">
				<path id="path5244_3_" inkscape:connector-curvature="0" class="st11" d="M-1252.4,1581.7c0,2.1-1.7,3.8-3.8,3.8
					c-2.1,0-3.8-1.7-3.8-3.8c0-2.1,1.7-3.8,3.8-3.8C-1254.1,1577.8-1252.4,1579.6-1252.4,1581.7z"/>
				<path id="path5246_3_" inkscape:connector-curvature="0" class="st11" d="M-1252.4,1570c0,2.1-1.7,3.8-3.8,3.8
					c-2.1,0-3.8-1.7-3.8-3.8c0-2.1,1.7-3.8,3.8-3.8C-1254.1,1566.1-1252.4,1567.8-1252.4,1570z"/>
			</g>
			
				<g id="g5248" transform="matrix(-1,0,0,-1,-1470.6183,1788.5793)" inkscape:transform-center-x="1.614671e-005" inkscape:transform-center-y="53.790566" class="st10">
				<path id="path5250_3_" inkscape:connector-curvature="0" class="st11" d="M-1698.8,1413c-2.1,0-3.8-1.7-3.8-3.8
					c0-2.1,1.7-3.8,3.8-3.8c2.1,0,3.8,1.7,3.8,3.8C-1695,1411.3-1696.7,1413-1698.8,1413z"/>
				<path id="path5252_3_" inkscape:connector-curvature="0" class="st11" d="M-1687.1,1413c-2.1,0-3.8-1.7-3.8-3.8
					c0-2.1,1.7-3.8,3.8-3.8c2.1,0,3.8,1.7,3.8,3.8C-1683.2,1411.3-1685,1413-1687.1,1413z"/>
			</g>
			
				<g id="g5254" transform="matrix(-0.70711,0.70711,-0.70711,-0.70711,-402.41826,2375.8793)" inkscape:transform-center-x="-38.035665" inkscape:transform-center-y="38.03571" class="st10">
				<path id="path5256_3_" inkscape:connector-curvature="0" class="st11" d="M-1869.9,933.7c0-2.1,1.7-3.8,3.8-3.8
					c2.1,0,3.8,1.7,3.8,3.8s-1.7,3.8-3.8,3.8C-1868.2,937.5-1869.9,935.8-1869.9,933.7z"/>
				<path id="path5258_3_" inkscape:connector-curvature="0" class="st11" d="M-1869.9,945.4c0-2.1,1.7-3.8,3.8-3.8
					c2.1,0,3.8,1.7,3.8,3.8s-1.7,3.8-3.8,3.8C-1868.2,949.3-1869.9,947.5-1869.9,945.4z"/>
			</g>
			
				<g id="g5260" transform="matrix(0,1,-1,0,768.16174,2035.7793)" inkscape:transform-center-x="-53.79063" inkscape:transform-center-y="3.6146709e-005" class="st10">
				<path id="path5262_3_" inkscape:connector-curvature="0" class="st11" d="M-1607.5,499c2.1,0,3.8,1.7,3.8,3.8s-1.7,3.8-3.8,3.8
					c-2.1,0-3.8-1.7-3.8-3.8S-1609.6,499-1607.5,499z"/>
				<path id="path5264_3_" inkscape:connector-curvature="0" class="st11" d="M-1619.2,499c2.1,0,3.8,1.7,3.8,3.8s-1.7,3.8-3.8,3.8
					c-2.1,0-3.8-1.7-3.8-3.8S-1621.3,499-1619.2,499z"/>
			</g>
			
				<g id="g5266" transform="matrix(0.70711,0.70711,-0.70711,0.70711,1355.4617,967.5793)" inkscape:transform-center-x="-38.035774" inkscape:transform-center-y="-38.035665" class="st10">
				<path id="path5268_3_" inkscape:connector-curvature="0" class="st11" d="M-1139.9,421.6c0,2.1-1.7,3.8-3.8,3.8
					c-2.1,0-3.8-1.7-3.8-3.8s1.7-3.8,3.8-3.8C-1141.6,417.8-1139.9,419.5-1139.9,421.6z"/>
				<path id="path5270_3_" inkscape:connector-curvature="0" class="st11" d="M-1139.9,409.9c0,2.1-1.7,3.8-3.8,3.8
					c-2.1,0-3.8-1.7-3.8-3.8s1.7-3.8,3.8-3.8C-1141.6,406.1-1139.9,407.8-1139.9,409.9z"/>
			</g>
		</g>
		<g id="g5118" transform="matrix(0.30935718,0,0,0.30935718,904.10751,38.226891)">
			
				<radialGradient id="path5120_1_" cx="-1473.0366" cy="-3139.2053" r="185.9028" gradientTransform="matrix(-0.1131 -0.2891 0.3166 -0.1238 1138.7076 -391.6852)" gradientUnits="userSpaceOnUse">
				<stop  offset="0" style="stop-color:#666666"/>
				<stop  offset="0.5" style="stop-color:#4D4D4D"/>
				<stop  offset="1" style="stop-color:#000000"/>
			</radialGradient>
			<path id="path5120" inkscape:connector-curvature="0" class="st27" d="M311.6,558.6c-75,0-135.8-60.8-135.8-135.8
				s60.8-135.8,135.8-135.8s135.8,60.8,135.8,135.8C447.3,497.9,386.5,558.6,311.6,558.6z"/>
			
				<radialGradient id="path5122_1_" cx="-436.3451" cy="-7407.9521" r="185.87" gradientTransform="matrix(-2.298375e-003 -0.1682 0.1614 -2.205568e-003 1507.5634 337.241)" gradientUnits="userSpaceOnUse">
				<stop  offset="0" style="stop-color:#000000"/>
				<stop  offset="1" style="stop-color:#999999"/>
			</radialGradient>
			<path id="path5122" inkscape:connector-curvature="0" class="st28" d="M311.6,519.9c-53.6,0-97-43.4-97-97s43.4-97,97-97
				s97,43.4,97,97C408.6,476.4,365.2,519.9,311.6,519.9z"/>
			
				<radialGradient id="path5124_1_" cx="4.4936" cy="-8180.7017" r="185.87" gradientTransform="matrix(-2.807676e-004 -0.1493 0.1453 -2.733010e-004 1500.1088 423.7368)" gradientUnits="userSpaceOnUse">
				<stop  offset="0" style="stop-color:#4D4D4D"/>
				<stop  offset="1" style="stop-color:#4D4D4D;stop-opacity:0"/>
			</radialGradient>
			<path id="path5124" inkscape:connector-curvature="0" class="st29" d="M311.6,510.1c-48.2,0-87.3-39.1-87.3-87.3
				s39.1-87.3,87.3-87.3s87.3,39.1,87.3,87.3C398.8,471,359.8,510.1,311.6,510.1z"/>
			<path id="path5126" inkscape:connector-curvature="0" class="st7" d="M311.6,510.1c7,0,13.8-0.9,20.3-2.4
				c-1.7-7.4-10.1-13-20.3-13c-10.1,0-18.6,5.6-20.3,13C297.8,509.3,304.6,510.1,311.6,510.1L311.6,510.1z"/>
			<path id="path5128" inkscape:connector-curvature="0" class="st7" d="M249.3,458.8c-5.1-8.8-14.2-13.3-21.4-11.1
				c4,13.3,11,25.3,20.3,35.1C253.7,477.6,254.4,467.6,249.3,458.8z"/>
			<path id="path5130" inkscape:connector-curvature="0" class="st7" d="M231.5,398.5c6.5,0.1,13.6-4.2,17.8-11.6
				c5.1-8.8,4.4-18.8-1.1-24c-9.3,9.8-16.3,21.8-20.3,35.1C229.1,398.3,230.3,398.5,231.5,398.5L231.5,398.5z"/>
			<path id="path5132" inkscape:connector-curvature="0" class="st7" d="M311.6,350.9c10.1,0,18.5-5.6,20.3-13
				c-6.5-1.5-13.3-2.4-20.3-2.4c-7,0-13.8,0.8-20.3,2.4C293,345.3,301.5,350.9,311.6,350.9L311.6,350.9z"/>
			<path id="path5134" inkscape:connector-curvature="0" class="st7" d="M390.9,398.5c1.5,0.1,3-0.1,4.4-0.5
				c-4-13.3-11-25.3-20.3-35.1c-5.5,5.2-6.1,15.3-1.1,24C378,394,384.7,398.3,390.9,398.5L390.9,398.5z"/>
			<path id="path5136" inkscape:connector-curvature="0" class="st7" d="M375,482.8c9.3-9.8,16.3-21.8,20.3-35.1
				c-7.2-2.2-16.3,2.3-21.4,11.1C368.8,467.6,369.5,477.6,375,482.8L375,482.8z"/>
			
				<radialGradient id="path5138_1_" cx="1747.2186" cy="-10729.8584" r="185.8118" gradientTransform="matrix(3.917897e-004 -0.1077 0.1076 3.909829e-004 1465.2443 615.1268)" gradientUnits="userSpaceOnUse">
				<stop  offset="0" style="stop-color:#FFFFFF"/>
				<stop  offset="1" style="stop-color:#4D4D4D"/>
			</radialGradient>
			<path id="path5138" inkscape:connector-curvature="0" class="st30" d="M311.6,487.5c-35.7,0-64.7-28.9-64.7-64.7
				s28.9-64.7,64.7-64.7s64.7,28.9,64.7,64.7C376.3,458.5,347.3,487.5,311.6,487.5z"/>
			
				<radialGradient id="path5140_1_" cx="6539.9683" cy="-19458.9824" r="185.87" gradientTransform="matrix(3.917823e-004 -6.124764e-002 5.648996e-002 3.613391e-004 1408.0394 833.3087)" gradientUnits="userSpaceOnUse">
				<stop  offset="0" style="stop-color:#CCCCCC"/>
				<stop  offset="1" style="stop-color:#1A1A1A"/>
			</radialGradient>
			<path id="path5140" inkscape:connector-curvature="0" class="st31" d="M311.6,456.8c-18.7,0-33.9-15.2-33.9-33.9
				s15.2-33.9,33.9-33.9s33.9,15.2,33.9,33.9C345.5,441.6,330.3,456.8,311.6,456.8z"/>
			<g id="g5142" transform="translate(1015.3617,-203.0207)" inkscape:transform-center-y="-53.790562" class="st10">
				<path id="path5144_3_" inkscape:connector-curvature="0" class="st11" d="M-709.7,672.3c-2.1,0-3.8-1.7-3.8-3.8s1.7-3.8,3.8-3.8
					s3.8,1.7,3.8,3.8S-707.6,672.3-709.7,672.3z"/>
				<path id="path5146_3_" inkscape:connector-curvature="0" class="st11" d="M-698,672.3c-2.1,0-3.8-1.7-3.8-3.8s1.7-3.8,3.8-3.8
					s3.8,1.7,3.8,3.8S-695.9,672.3-698,672.3z"/>
			</g>
			
				<g id="g5148" transform="matrix(0.70711,-0.70711,0.70711,0.70711,-52.82826,-790.2907)" inkscape:transform-center-x="38.035671" inkscape:transform-center-y="-38.035676" class="st10">
				<path id="path5150_3_" inkscape:connector-curvature="0" class="st11" d="M-646.8,1109.3c0-2.1,1.7-3.8,3.8-3.8
					c2.1,0,3.8,1.7,3.8,3.8c0,2.1-1.7,3.8-3.8,3.8C-645,1113.1-646.8,1111.4-646.8,1109.3z"/>
				<path id="path5152_3_" inkscape:connector-curvature="0" class="st11" d="M-646.8,1121c0-2.1,1.7-3.8,3.8-3.8
					c2.1,0,3.8,1.7,3.8,3.8c0,2.1-1.7,3.8-3.8,3.8C-645,1124.8-646.8,1123.1-646.8,1121z"/>
			</g>
			<g id="g5154" transform="matrix(0,-1,1,0,-1223.4183,-450.2207)" inkscape:transform-center-x="53.790566" class="st10">
				<path id="path5156_3_" inkscape:connector-curvature="0" class="st11" d="M-866.8,1488.1c2.1,0,3.8,1.7,3.8,3.8
					c0,2.1-1.7,3.8-3.8,3.8s-3.8-1.7-3.8-3.8C-870.6,1489.8-868.9,1488.1-866.8,1488.1z"/>
				<path id="path5158_3_" inkscape:connector-curvature="0" class="st11" d="M-878.5,1488.1c2.1,0,3.8,1.7,3.8,3.8
					c0,2.1-1.7,3.8-3.8,3.8c-2.1,0-3.8-1.7-3.8-3.8C-882.3,1489.8-880.6,1488.1-878.5,1488.1z"/>
			</g>
			
				<g id="g5160" transform="matrix(-0.70711,-0.70711,0.70711,-0.70711,-1810.6883,617.9793)" inkscape:transform-center-x="38.03568" inkscape:transform-center-y="38.035651" class="st10">
				<path id="path5162_3_" inkscape:connector-curvature="0" class="st11" d="M-1315.5,1644.8c0,2.1-1.7,3.8-3.8,3.8
					c-2.1,0-3.8-1.7-3.8-3.8c0-2.1,1.7-3.8,3.8-3.8C-1317.2,1640.9-1315.5,1642.7-1315.5,1644.8z"/>
				<path id="path5164_3_" inkscape:connector-curvature="0" class="st11" d="M-1315.5,1633.1c0,2.1-1.7,3.8-3.8,3.8
					c-2.1,0-3.8-1.7-3.8-3.8c0-2.1,1.7-3.8,3.8-3.8C-1317.2,1629.2-1315.5,1630.9-1315.5,1633.1z"/>
			</g>
			
				<g id="g5166" transform="matrix(-1,0,0,-1,-1470.6183,1788.5793)" inkscape:transform-center-x="1.614671e-005" inkscape:transform-center-y="53.790566" class="st10">
				<path id="path5168_3_" inkscape:connector-curvature="0" class="st11" d="M-1788,1413c-2.1,0-3.8-1.7-3.8-3.8
					c0-2.1,1.7-3.8,3.8-3.8c2.1,0,3.8,1.7,3.8,3.8C-1784.2,1411.3-1785.9,1413-1788,1413z"/>
				<path id="path5170_3_" inkscape:connector-curvature="0" class="st11" d="M-1776.3,1413c-2.1,0-3.8-1.7-3.8-3.8
					c0-2.1,1.7-3.8,3.8-3.8c2.1,0,3.8,1.7,3.8,3.8C-1772.4,1411.3-1774.2,1413-1776.3,1413z"/>
			</g>
			
				<g id="g5172" transform="matrix(-0.70711,0.70711,-0.70711,-0.70711,-402.41826,2375.8793)" inkscape:transform-center-x="-38.035665" inkscape:transform-center-y="38.03571" class="st10">
				<path id="path5174_3_" inkscape:connector-curvature="0" class="st11" d="M-1933,870.6c0-2.1,1.7-3.8,3.8-3.8
					c2.1,0,3.8,1.7,3.8,3.8s-1.7,3.8-3.8,3.8C-1931.3,874.5-1933,872.7-1933,870.6z"/>
				<path id="path5176_3_" inkscape:connector-curvature="0" class="st11" d="M-1933,882.3c0-2.1,1.7-3.8,3.8-3.8
					c2.1,0,3.8,1.7,3.8,3.8s-1.7,3.8-3.8,3.8C-1931.3,886.2-1933,884.5-1933,882.3z"/>
			</g>
			
				<g id="g5178" transform="matrix(0,1,-1,0,768.16174,2035.7793)" inkscape:transform-center-x="-53.79063" inkscape:transform-center-y="3.6146709e-005" class="st10">
				<path id="path5180_3_" inkscape:connector-curvature="0" class="st11" d="M-1607.5,409.8c2.1,0,3.8,1.7,3.8,3.8
					s-1.7,3.8-3.8,3.8c-2.1,0-3.8-1.7-3.8-3.8S-1609.6,409.8-1607.5,409.8z"/>
				<path id="path5182_3_" inkscape:connector-curvature="0" class="st11" d="M-1619.2,409.8c2.1,0,3.8,1.7,3.8,3.8
					s-1.7,3.8-3.8,3.8c-2.1,0-3.8-1.7-3.8-3.8S-1621.3,409.8-1619.2,409.8z"/>
			</g>
			
				<g id="g5184" transform="matrix(0.70711,0.70711,-0.70711,0.70711,1355.4617,967.5793)" inkscape:transform-center-x="-38.035774" inkscape:transform-center-y="-38.035665" class="st10">
				<path id="path5186_3_" inkscape:connector-curvature="0" class="st11" d="M-1076.8,358.5c0,2.1-1.7,3.8-3.8,3.8
					c-2.1,0-3.8-1.7-3.8-3.8s1.7-3.8,3.8-3.8C-1078.5,354.7-1076.8,356.4-1076.8,358.5z"/>
				<path id="path5188_3_" inkscape:connector-curvature="0" class="st11" d="M-1076.8,346.8c0,2.1-1.7,3.8-3.8,3.8
					c-2.1,0-3.8-1.7-3.8-3.8s1.7-3.8,3.8-3.8C-1078.5,343-1076.8,344.7-1076.8,346.8z"/>
			</g>
		</g>
		<g id="g5417" transform="matrix(0.30935718,0,0,0.30935718,774.10751,38.226891)">
			
				<radialGradient id="path3329_1_" cx="-1052.8102" cy="-3139.2053" r="185.9028" gradientTransform="matrix(-0.1131 -0.2891 0.3166 -0.1238 1270.2748 -270.1888)" gradientUnits="userSpaceOnUse">
				<stop  offset="0" style="stop-color:#666666"/>
				<stop  offset="0.5" style="stop-color:#4D4D4D"/>
				<stop  offset="1" style="stop-color:#000000"/>
			</radialGradient>
			<path id="path3329" inkscape:connector-curvature="0" class="st32" d="M395.6,558.6c-75,0-135.8-60.8-135.8-135.8
				s60.8-135.8,135.8-135.8s135.8,60.8,135.8,135.8C531.4,497.9,470.6,558.6,395.6,558.6z"/>
			
				<radialGradient id="path3339-1_1_" cx="-16.1187" cy="-7407.9521" r="185.87" gradientTransform="matrix(-2.298375e-003 -0.1682 0.1614 -2.205568e-003 1592.5745 407.9154)" gradientUnits="userSpaceOnUse">
				<stop  offset="0" style="stop-color:#000000"/>
				<stop  offset="1" style="stop-color:#999999"/>
			</radialGradient>
			<path id="path3339-1" inkscape:connector-curvature="0" class="st33" d="M395.7,519.9c-53.6,0-97-43.4-97-97s43.4-97,97-97
				s97,43.4,97,97C492.6,476.4,449.2,519.9,395.7,519.9z"/>
			
				<radialGradient id="path3343_1_" cx="424.7201" cy="-8180.7017" r="185.87" gradientTransform="matrix(-2.807676e-004 -0.1493 0.1453 -2.733010e-004 1584.2721 486.496)" gradientUnits="userSpaceOnUse">
				<stop  offset="0" style="stop-color:#4D4D4D"/>
				<stop  offset="1" style="stop-color:#4D4D4D;stop-opacity:0"/>
			</radialGradient>
			<path id="path3343" inkscape:connector-curvature="0" class="st34" d="M395.6,510.1c-48.2,0-87.3-39.1-87.3-87.3
				s39.1-87.3,87.3-87.3s87.3,39.1,87.3,87.3C482.9,471,443.8,510.1,395.6,510.1z"/>
			<path id="path3345-1" inkscape:connector-curvature="0" class="st7" d="M395.6,510.1c7,0,13.8-0.9,20.3-2.4
				c-1.7-7.4-10.1-13-20.3-13c-10.1,0-18.6,5.6-20.3,13C381.9,509.3,388.7,510.1,395.6,510.1L395.6,510.1z"/>
			<path id="path3351" inkscape:connector-curvature="0" class="st7" d="M333.4,458.8c-5.1-8.8-14.2-13.3-21.4-11.1
				c4,13.3,11,25.3,20.3,35.1C337.8,477.6,338.4,467.6,333.4,458.8z"/>
			<path id="path3353" inkscape:connector-curvature="0" class="st7" d="M315.5,398.5c6.5,0.1,13.6-4.2,17.8-11.6
				c5.1-8.8,4.4-18.8-1.1-24c-9.3,9.8-16.3,21.8-20.3,35.1C313.1,398.3,314.3,398.5,315.5,398.5L315.5,398.5z"/>
			<path id="path3355-8" inkscape:connector-curvature="0" class="st7" d="M395.6,350.9c10.1,0,18.5-5.6,20.3-13
				c-6.5-1.5-13.3-2.4-20.3-2.4c-7,0-13.8,0.8-20.3,2.4C377.1,345.3,385.5,350.9,395.6,350.9L395.6,350.9z"/>
			<path id="path3357-6" inkscape:connector-curvature="0" class="st7" d="M474.9,398.5c1.5,0.1,3-0.1,4.4-0.5
				c-4-13.3-11-25.3-20.3-35.1c-5.5,5.2-6.1,15.3-1.1,24C462,394,468.7,398.3,474.9,398.5L474.9,398.5z"/>
			<path id="path3359-7" inkscape:connector-curvature="0" class="st7" d="M459,482.8c9.3-9.8,16.3-21.8,20.3-35.1
				c-7.2-2.2-16.3,2.3-21.4,11.1C452.9,467.6,453.5,477.6,459,482.8L459,482.8z"/>
			
				<radialGradient id="path3379_1_" cx="2167.4451" cy="-10729.8584" r="185.8118" gradientTransform="matrix(3.917897e-004 -0.1077 0.1076 3.909829e-004 1549.1249 660.3666)" gradientUnits="userSpaceOnUse">
				<stop  offset="0" style="stop-color:#FFFFFF"/>
				<stop  offset="1" style="stop-color:#4D4D4D"/>
			</radialGradient>
			<path id="path3379" inkscape:connector-curvature="0" class="st35" d="M395.7,487.5c-35.7,0-64.7-28.9-64.7-64.7
				s28.9-64.7,64.7-64.7s64.7,28.9,64.7,64.7C460.3,458.5,431.4,487.5,395.7,487.5z"/>
			
				<radialGradient id="path3383_1_" cx="6960.1943" cy="-19458.9824" r="185.87" gradientTransform="matrix(3.917823e-004 -6.124764e-002 5.648996e-002 3.613391e-004 1491.92 859.0466)" gradientUnits="userSpaceOnUse">
				<stop  offset="0" style="stop-color:#CCCCCC"/>
				<stop  offset="1" style="stop-color:#1A1A1A"/>
			</radialGradient>
			<path id="path3383" inkscape:connector-curvature="0" class="st36" d="M395.6,456.8c-18.7,0-33.9-15.2-33.9-33.9
				s15.2-33.9,33.9-33.9s33.9,15.2,33.9,33.9C429.6,441.6,414.4,456.8,395.6,456.8z"/>
			<g id="g3579" transform="translate(1015.3617,-203.0207)" inkscape:transform-center-y="-53.790562" class="st10">
				<path id="path3581_3_" inkscape:connector-curvature="0" class="st11" d="M-625.7,672.3c-2.1,0-3.8-1.7-3.8-3.8s1.7-3.8,3.8-3.8
					s3.8,1.7,3.8,3.8S-623.5,672.3-625.7,672.3z"/>
				<path id="path3583_3_" inkscape:connector-curvature="0" class="st11" d="M-613.9,672.3c-2.1,0-3.8-1.7-3.8-3.8s1.7-3.8,3.8-3.8
					s3.8,1.7,3.8,3.8S-611.8,672.3-613.9,672.3z"/>
			</g>
			
				<g id="g4365" transform="matrix(0.70711,-0.70711,0.70711,0.70711,-52.82826,-790.2907)" inkscape:transform-center-x="38.035671" inkscape:transform-center-y="-38.035676" class="st10">
				<path id="path4367_3_" inkscape:connector-curvature="0" class="st11" d="M-587.3,1168.7c0-2.1,1.7-3.8,3.8-3.8s3.8,1.7,3.8,3.8
					c0,2.1-1.7,3.8-3.8,3.8S-587.3,1170.8-587.3,1168.7z"/>
				<path id="path4369-5_3_" inkscape:connector-curvature="0" class="st11" d="M-587.3,1180.4c0-2.1,1.7-3.8,3.8-3.8
					s3.8,1.7,3.8,3.8c0,2.1-1.7,3.8-3.8,3.8S-587.3,1182.6-587.3,1180.4z"/>
			</g>
			<g id="g4371" transform="matrix(0,-1,1,0,-1223.4183,-450.2207)" inkscape:transform-center-x="53.790566" class="st10">
				<path id="path4373_3_" inkscape:connector-curvature="0" class="st11" d="M-866.8,1572.1c2.1,0,3.8,1.7,3.8,3.8
					c0,2.1-1.7,3.8-3.8,3.8s-3.8-1.7-3.8-3.8C-870.6,1573.8-868.9,1572.1-866.8,1572.1z"/>
				<path id="path4375-0_3_" inkscape:connector-curvature="0" class="st11" d="M-878.5,1572.1c2.1,0,3.8,1.7,3.8,3.8
					c0,2.1-1.7,3.8-3.8,3.8c-2.1,0-3.8-1.7-3.8-3.8C-882.3,1573.8-880.6,1572.1-878.5,1572.1z"/>
			</g>
			
				<g id="g4377" transform="matrix(-0.70711,-0.70711,0.70711,-0.70711,-1810.6883,617.9793)" inkscape:transform-center-x="38.03568" inkscape:transform-center-y="38.035651" class="st10">
				<path id="path4379_3_" inkscape:connector-curvature="0" class="st11" d="M-1374.9,1704.2c0,2.1-1.7,3.8-3.8,3.8
					c-2.1,0-3.8-1.7-3.8-3.8c0-2.1,1.7-3.8,3.8-3.8C-1376.6,1700.4-1374.9,1702.1-1374.9,1704.2z"/>
				<path id="path4381_3_" inkscape:connector-curvature="0" class="st11" d="M-1374.9,1692.5c0,2.1-1.7,3.8-3.8,3.8
					c-2.1,0-3.8-1.7-3.8-3.8c0-2.1,1.7-3.8,3.8-3.8C-1376.6,1688.6-1374.9,1690.4-1374.9,1692.5z"/>
			</g>
			
				<g id="g4383" transform="matrix(-1,0,0,-1,-1470.6183,1788.5793)" inkscape:transform-center-x="1.614671e-005" inkscape:transform-center-y="53.790566" class="st10">
				<path id="path4385_3_" inkscape:connector-curvature="0" class="st11" d="M-1872.1,1413c-2.1,0-3.8-1.7-3.8-3.8
					c0-2.1,1.7-3.8,3.8-3.8c2.1,0,3.8,1.7,3.8,3.8C-1868.2,1411.3-1869.9,1413-1872.1,1413z"/>
				<path id="path4387_3_" inkscape:connector-curvature="0" class="st11" d="M-1860.3,1413c-2.1,0-3.8-1.7-3.8-3.8
					c0-2.1,1.7-3.8,3.8-3.8c2.1,0,3.8,1.7,3.8,3.8C-1856.5,1411.3-1858.2,1413-1860.3,1413z"/>
			</g>
			
				<g id="g4389" transform="matrix(-0.70711,0.70711,-0.70711,-0.70711,-402.41826,2375.8793)" inkscape:transform-center-x="-38.035665" inkscape:transform-center-y="38.03571" class="st10">
				<path id="path4391_3_" inkscape:connector-curvature="0" class="st11" d="M-1992.5,811.2c0-2.1,1.7-3.8,3.8-3.8
					c2.1,0,3.8,1.7,3.8,3.8s-1.7,3.8-3.8,3.8C-1990.7,815-1992.5,813.3-1992.5,811.2z"/>
				<path id="path4393_3_" inkscape:connector-curvature="0" class="st11" d="M-1992.5,822.9c0-2.1,1.7-3.8,3.8-3.8
					c2.1,0,3.8,1.7,3.8,3.8s-1.7,3.8-3.8,3.8C-1990.7,826.7-1992.5,825-1992.5,822.9z"/>
			</g>
			
				<g id="g4395" transform="matrix(0,1,-1,0,768.16174,2035.7793)" inkscape:transform-center-x="-53.79063" inkscape:transform-center-y="3.6146709e-005" class="st10">
				<path id="path4397_3_" inkscape:connector-curvature="0" class="st11" d="M-1607.5,325.7c2.1,0,3.8,1.7,3.8,3.8
					s-1.7,3.8-3.8,3.8c-2.1,0-3.8-1.7-3.8-3.8S-1609.6,325.7-1607.5,325.7z"/>
				<path id="path4399_3_" inkscape:connector-curvature="0" class="st11" d="M-1619.2,325.7c2.1,0,3.8,1.7,3.8,3.8
					s-1.7,3.8-3.8,3.8c-2.1,0-3.8-1.7-3.8-3.8S-1621.3,325.7-1619.2,325.7z"/>
			</g>
			
				<g id="g4401" transform="matrix(0.70711,0.70711,-0.70711,0.70711,1355.4617,967.5793)" inkscape:transform-center-x="-38.035774" inkscape:transform-center-y="-38.035665" class="st10">
				<path id="path4403_3_" inkscape:connector-curvature="0" class="st11" d="M-1017.3,299.1c0,2.1-1.7,3.8-3.8,3.8
					s-3.8-1.7-3.8-3.8s1.7-3.8,3.8-3.8S-1017.3,297-1017.3,299.1z"/>
				<path id="path4405_3_" inkscape:connector-curvature="0" class="st11" d="M-1017.3,287.4c0,2.1-1.7,3.8-3.8,3.8
					s-3.8-1.7-3.8-3.8s1.7-3.8,3.8-3.8S-1017.3,285.3-1017.3,287.4z"/>
			</g>
		</g>
		
			<path id="path4865" inkscape:connector-curvature="0" sodipodi:nodetypes="ccccccccccccccccccccccccccccccccccccccccccccccccccccccccccccccccccccccccccccccccccccccccccccccccccccccccccccccccccccccccccccccccccccccccccccccccccccccccccccccccccccccccccccccccccccccccccccccccccccccccccc" class="st37" d="
			M1409.1,118.1l0,3.3h1.8l0.1-3.2l1.7,0l17.9,0.1v4.2c0,0,1.5,0.3,1.7,0.4l2.3-3.5l15.5,8.2l-1.8,3.5l1.1,0.6l2.2-3l14.5,10.1
			l-1.7,3l1.2,0.9l2.1-2.8l14.3,10.3l-1.5,2.7l0.9,0.8l2.2-2.9l14.3,9.7l-1.8,2.9l1.3,1l1.8-2.9l14.8,9.8l-1.7,2.9l1.1,0.7l1.9-2.9
			l14.7,9.7l-1.7,3.1l1.3,0.9l2.8-2.7l13.1,12.7l-2.7,3.5l1,1.6l4-0.6l2.3,22.1l-2.9,0.3l-0.4,2.8l2.6,1.5l-2.8,7.6l-7.9-3.6
			c0,0,3-5,2.6-10.5c-0.9-13.8-4-17.6-4-17.6s-9.2-13.3-24.6-25l-52.2-34.4l-19.7-10.9c0,0-10.6-5.6-28.7-5.4l-30.4,0l-440-0.1
			l-45.7-0.3c0,0-2.8-0.1-9.1,0.4c0,0-11.9,1.5-24.8,10.4l-8.1,5.8l-48.7,32.8c0,0-17.1,10.6-24.3,16.7c0,0-5.2,4-7.5,9.1
			c0,0-4,8-2.5,20.7l-9.5,0l0.2-3.7l1.3-16.2l0.1-1.4l4.2-0.2l1.1-1.9l-2.7-3.5l13.1-12.7l2.8,2.7l1.3-0.9l-1.7-3.1l14.7-9.7
			l1.9,2.9l1.1-0.7l-1.7-2.9l14.8-9.8l1.8,2.9l1.3-1l-1.8-2.9l14.3-9.7l2.2,2.9l0.9-0.8l-1.5-2.7l14.3-10.3l2.1,2.8l1.2-0.9l-1.7-3
			l14.5-10.1l2.2,3l1.1-0.6l-1.8-3.5l15.5-8.2l2.3,3.5c0.2-0.1,1.7-0.4,1.7-0.4v-4.2l17.9-0.1l0.1,3.3l0.9,0l0.3-3.4h17.9l0.1,3.4
			h1.4v-3.4l17.6,0.1v3.2l1.6,0l0-3.3l17.6,0v3.2l1.6,0l0.2-3.3l17.8,0v3.2l1.6,0l0-3.3l17.6,0v3.2l1.6,0l0-3.3l17.6,0v3.2l1.6,0
			l0-3.3l17.6,0v3.2l1.6,0l0-3.3l17.6,0v3.2l1.6,0l0-3.3l17.6,0v3.2l1.6,0l0-3.3l17.6,0v3.2l1.6,0l0.1-3.3l17.7,0v3.2l1.6,0l0-3.3
			l17.6,0v3.2l1.6,0l0-3.3l17.6,0v3.2l1.6,0l0.1-3.3l17.7,0v3.2l1.6,0l0-3.3l17.6,0v3.2l1.6,0l0-3.3l17.6,0v3.2l1.6,0v-3.3l17.6,0
			v3.2l1.6,0l0-3.3l17.6,0v3.2l1.6,0l0.2-3.2l17.1-0.1l0,3.3l1.6,0v-3.2l17.6,0l0,3.3l1.6,0v-3.2l17.6,0l0,3.3l1.6,0v-3.2l17.8,0
			l0.2,3.3l1.6,0v-3.2l17.6,0l0,3.3l1.6,0v-3.2l17.6-0.1v3.4h1.4l0.1-3.4l16.4,0l0.1,3.3l1.6,0v-3.2l16.2,0l0.2,3.3l1.6,0v-3.2
			L1409.1,118.1z"/>
		<path id="path4220" inkscape:connector-curvature="0" sodipodi:nodetypes="cccccccccccccc" class="st38" d="M1352.6,257.9v52.5
			l2.3,3.6h21.6l2,2.6h160.4l57.9-10.4l13.7-2.5l17.8-3.2l8.3-10.3l-10.3-26l-34.9,0.9l-23,0.6L1352.6,257.9z"/>
		<path id="path4222" inkscape:connector-curvature="0" sodipodi:nodetypes="ccccccccccc" class="st39" d="M1626.2,264.4l-34.9,0.9
			l-23,0.6l-215.8-8v52.5l2.3,3.6h21.6l2,2.6h160.4l57.9-10.4l13.7-2.5L1626.2,264.4z"/>
		<path id="path3418" inkscape:connector-curvature="0" sodipodi:nodetypes="ccccccc" class="st40" d="M989.4,318.4h217.9V280
			h-166.6h-35.3h-16V318.4z"/>
		<path id="path4960" inkscape:connector-curvature="0" sodipodi:nodetypes="cccccccccc" class="st41" d="M1503.1,247.2H782.3v29.6
			l121.7,14.4l116.4,11.2l120,4.8h122.4H1383l120.2-6.4L1503.1,247.2z"/>
		<path id="path3416" inkscape:connector-curvature="0" sodipodi:nodetypes="ccccc" class="st39" d="M1336.8,310.4H1207V272h129.9
			V310.4z"/>
		<path id="path4198" inkscape:connector-curvature="0" sodipodi:nodetypes="cccccc" class="st38" d="M1199.2,384.7l-130.5,11.3
			v-85.2l203.7,0.1v73.8H1199.2z"/>
		<path id="path11899" inkscape:connector-curvature="0" sodipodi:nodetypes="ccccc" class="st39" d="M576.2,326.2V347h-192v-20.8
			H576.2z"/>
		<path id="path3355" inkscape:connector-curvature="0" sodipodi:nodetypes="ccccc" class="st39" d="M581,327.8v17.6h-4.8v-17.6H581
			z"/>
		<path id="path3357" inkscape:connector-curvature="0" sodipodi:nodetypes="ccccc" class="st39" d="M683.4,323v25.6H581V323H683.4z
			"/>
		<path id="path3359" inkscape:connector-curvature="0" sodipodi:nodetypes="ccccc" class="st39" d="M688.2,324.6V347h-4.8v-22.4
			H688.2z"/>
		<path id="path3361" inkscape:connector-curvature="0" sodipodi:nodetypes="ccccc" class="st39" d="M905.8,321.4v28.8L688.2,347
			v-22.4L905.8,321.4z"/>
		<path id="path3339" inkscape:connector-curvature="0" sodipodi:nodetypes="ccccc" class="st39" d="M916.7,320.9l-10.9,0.5v28.8
			l3,7.5h7.9V320.9z"/>
		<path id="path3341" inkscape:connector-curvature="0" sodipodi:nodetypes="cccc" class="st39" d="M931.1,320.9v36.7l-14.4,0v-36.7
			H931.1z"/>
		<path id="path3345" inkscape:connector-curvature="0" sodipodi:nodetypes="ccccc" class="st39" d="M1068.7,320.9v38.3l-137.6-1.6
			v-36.7H1068.7z"/>
		<path id="path4204" inkscape:connector-curvature="0" sodipodi:nodetypes="ccccc" class="st41" d="M976.5,309.7l92.7,1.6
			l109.3,5.7l-0.1,0.5l-49.7-1.2l-13.3,7.1l-22.1-0.4c0.3-0.6-51.4-9.9-118.1-8.1C975.4,311.9,976.5,309.7,976.5,309.7z"/>
		<path id="path3346" inkscape:connector-curvature="0" sodipodi:nodetypes="cccccc" class="st39" d="M1064.1,355.2
			c0,0,0.4,6,24.8,27.3l-97.4-12.9l-26.5-26.7l99,5.5C1064.1,348.4,1063.1,352.9,1064.1,355.2z"/>
		<path id="path4200" inkscape:connector-curvature="0" sodipodi:nodetypes="ccc" class="st39" d="M1178.4,384.7l-85.4-11.4l-4,9.3
			L1178.4,384.7z"/>
		<path id="path4148" inkscape:connector-curvature="0" sodipodi:nodetypes="cccccccccc" class="st39" d="M1115.4,323.4l13.3-7.1
			l49.7,1.2v67.2l-85.4-11.4l-4,9.3c-24.4-21.3-24.8-27.3-24.8-27.3c-1-2.3,0-6.8,0-6.8c11-14.7,29.2-25.4,29.2-25.4L1115.4,323.4z"
			/>
		<path id="path4194" inkscape:connector-curvature="0" sodipodi:nodetypes="cccc" class="st38" d="M1128.7,316.2l49.7,1.2v67.2
			l-55.8-7.5L1128.7,316.2z"/>
		<path id="path4162" inkscape:connector-curvature="0" sodipodi:nodetypes="cccccc" class="st39" d="M975.2,314.8
			c0,0-9.2,8-10.1,28.1l79.9,4.4l19.1,1.1c11-14.7,29.2-25.4,29.2-25.4C1093.6,322.3,1041.8,313,975.2,314.8z"/>
		<path id="path4168" inkscape:connector-curvature="0" sodipodi:nodetypes="ccccc" class="st38" d="M1080.8,320.6l-11-1.9
			l-26.4,18.8c0,0-3,5.8,1.6,9.8L1080.8,320.6z"/>
		<path id="path4170" inkscape:connector-curvature="0" sodipodi:nodetypes="ccc" class="st39" d="M959.9,333.4c0,0-0.3,5.8,2.9,9.4
			l2.3,0.1l79.9,4.4c-4.6-4-1.6-9.8-1.6-9.8L959.9,333.4z"/>
		<path id="path3414" inkscape:connector-curvature="0" sodipodi:nodetypes="ccccccc" class="st39" d="M989.4,299.2l201.9,11.2V272
			h-150.6h-35.3h-16L989.4,299.2z"/>
		<path id="path4174" inkscape:connector-curvature="0" sodipodi:nodetypes="cc" class="st42" d="M1005.4,308.1l29.9,0.3l8.1,29.2
			l-28.8-1.5L1005.4,308.1z"/>
		<path id="path4176" inkscape:connector-curvature="0" sodipodi:nodetypes="ccccc" class="st42" d="M977,308.1l-26.1-0.3l9,25.6
			l26.4,1.3L977,308.1z"/>
		<path id="path4178" inkscape:connector-curvature="0" sodipodi:nodetypes="ccccccccccc" class="st39" d="M1199,326.5l-35.5-0.2
			l-5.7,1.5v6.5l-43.4,52.9l76.9-11.5l4.6-0.8h76.5v-47.7h-8.3L1199,326.5z"/>
		<path id="path4180" inkscape:connector-curvature="0" sodipodi:nodetypes="ccccccccccccccc" class="st38" d="M1415.6,326.2v-7.3
			h40.8v9.3l22.5,1.8v13.2v25.1l-2.6,19.6h-204v-13v-39.7v-8l0,0v-13.4L1415.6,326.2z"/>
		<path id="path4186" inkscape:connector-curvature="0" sodipodi:nodetypes="cccccc" class="st39" d="M1479,343.2v25.1l-2.6,19.6
			h-204v-13v-39.7L1479,343.2z"/>
		<path id="path4188" inkscape:connector-curvature="0" sodipodi:nodetypes="ccccc" class="st43" d="M1479,368.4l-2.6,19.6H1282v-13
			v-6.6H1479z"/>
		<path id="path4416" inkscape:connector-curvature="0" sodipodi:nodetypes="ccccc" class="st44" d="M1257,445.3l2.4-55.6h-9.9
			l-1.7,55.3L1257,445.3z"/>
		<path id="rect4322" inkscape:connector-curvature="0" class="st45" d="M1171.5,407h9.1v30.9h-9.1V407z"/>
		<path id="path4310" inkscape:connector-curvature="0" sodipodi:nodetypes="ccccc" class="st45" d="M1207.8,405.4l-8.3,0l-1,39.8
			h8.3L1207.8,405.4z"/>
		<path id="path4206" inkscape:connector-curvature="0" sodipodi:nodetypes="cccccccc" class="st39" d="M1167.3,397.7v19.4h53.7
			l38-19v-4l13.4-9.3h-73.2L1167.3,397.7z"/>
		<path id="path4210" inkscape:connector-curvature="0" class="st39" d="M1259,398.1v-4v0l-82.7,0l-9,3.6v0.4
			C1167.3,398.1,1259,398.1,1259,398.1z"/>
		<path id="path4418" inkscape:connector-curvature="0" sodipodi:nodetypes="cccc" class="st44" d="M1252.4,449.5
			c0,0-3.6,0.1-4.5-4.5l9.1,0.3C1257.1,449.4,1252.4,449.5,1252.4,449.5z"/>
		
			<path id="path4428" sodipodi:rx="18.471653" sodipodi:cy="1177.672" sodipodi:ry="23.842552" sodipodi:end="0" sodipodi:type="arc" sodipodi:start="3.1415927" sodipodi:cx="43.486538" class="st44" d="
			M1275.7,430.5v14.8h0c-10.5,0-19.1-6.6-19.1-14.8c0,0,0,0,0,0c0-8.2,8.5-14.8,19.1-14.8V430.5z"/>
		<rect id="rect4420" x="1253.2" y="434.4" class="st44" width="4.8" height="21.3"/>
		<path id="path4422" inkscape:connector-curvature="0" class="st44" d="M1255.6,455.7h6l0,0c0,3.3-2.7,5.9-6,5.9l0,0
			c-3.3,0-6-2.6-6-5.9H1255.6z"/>
		<path id="rect4425" inkscape:connector-curvature="0" sodipodi:nodetypes="cc" class="st44" d="M1258,427.9c0,0,0-0.6-0.3-1
			c0,0-2.2-3.2-4-2.1c0,0-2.7,1.1-2,3.7c0.7,0.2,1.4,0.9,1.4,0.9l0,4.9h4.8L1258,427.9z"/>
		<path id="path4824" inkscape:connector-curvature="0" sodipodi:nodetypes="cccc" class="st39" d="M1470,387.9h-21v28.8h21V387.9z"
			/>
		<path id="path4826" inkscape:connector-curvature="0" sodipodi:nodetypes="cccc" class="st39" d="M1447.3,400.7l1.6,16h21l1.6-16
			H1447.3z"/>
		<path id="path4333" inkscape:connector-curvature="0" sodipodi:nodetypes="cccc" class="st45" d="M1199,448.8v-2.9l-29.9,0v2
			L1199,448.8z"/>
		<path id="path4312" inkscape:connector-curvature="0" sodipodi:nodetypes="cccc" class="st46" d="M1208.4,446.8l-11.5,0v-1.6h11.5
			V446.8z"/>
		<path id="path4316" inkscape:connector-curvature="0" sodipodi:nodetypes="cccc" class="st46" d="M1208.4,440.4l-11.5,0v-1.6h11.5
			V440.4z"/>
		<path id="path4325" inkscape:connector-curvature="0" sodipodi:nodetypes="cccc" class="st45" d="M1181.4,444.3l-10.7,0v-6.4h10.7
			V444.3z"/>
		<path id="path4331" inkscape:connector-curvature="0" sodipodi:nodetypes="ccccc" class="st46" d="M1183,445.9l-13.9,0v-1.6h13.9
			V445.9z"/>
		<path id="path4354" inkscape:connector-curvature="0" sodipodi:nodetypes="ccccccccccccccc" class="st37" d="M1131.3,460.5v-2
			l0.7-0.1l0.5,0.8l29.1,0.9l1.3-1.3l5.9,0l0.8,0.7l1.6-0.1l15.4-1.1v4l15.9,0.3l-0.1,12.2l-70.9-1.9L1131.3,460.5z"/>
		<path id="rect4408" inkscape:connector-curvature="0" sodipodi:nodetypes="cccccccccc" class="st47" d="M1164.5,449.7v-16.3h-32.8
			v16.3H1164.5z M1132.5,434.2h31.2v14.7h-31.2L1132.5,434.2z"/>
		<path id="rect4360" inkscape:connector-curvature="0" sodipodi:nodetypes="ccccc" class="st37" d="M1135.1,449.6h40.9v5.3h-40.9
			L1135.1,449.6z"/>
		<path id="path4335" inkscape:connector-curvature="0" sodipodi:nodetypes="cccccccc" class="st45" d="M1199,448.8
			c0,0,0.2,3.6-0.3,9.1c0,0-0.9,5.3-4,12.6c0,0-1.1,2.9-2.9,2.8c0,0-1.2-0.3-2.5-1.6c0,0-4.6-3.3-8-3.9c0,0-3.6-0.1-3.7-2.3
			c0,0-0.4-3.8,2.3-3.9c0,0,2.5-0.1,5.3-0.1c0,0,1.1-1.2,1.2-2.3c0,0,0.4-2.2-1.8-3.2l-15.4-8L1199,448.8L1199,448.8z"/>
		<circle id="path4337" class="st48" cx="1181" cy="464.5" r="2"/>
		<circle id="path4337-4" class="st48" cx="1191.7" cy="469.6" r="2"/>
		<path id="path4356" inkscape:connector-curvature="0" sodipodi:nodetypes="cccc" class="st46" d="M1199.1,476.4l0.1-13.8l3.2,0
			l-0.1,13.8H1199.1z"/>
		<path id="path4363" inkscape:connector-curvature="0" sodipodi:nodetypes="ccccc" class="st37" d="M1158.6,470.3l0.6-25.8
			l-23.4-0.4l-0.6,25.7L1158.6,470.3z"/>
		<path id="path4365" inkscape:connector-curvature="0" sodipodi:nodetypes="cccc" class="st46" d="M1160.2,473.5l-26.6-0.5l0-3.2
			l26.6,0.5V473.5z"/>
		<path id="path4369" inkscape:connector-curvature="0" sodipodi:nodetypes="ccccc" class="st37" d="M1129.3,461.2l2-0.7l0.1,10.8
			l-2.1-2.1V461.2z"/>
		<path id="path4371" inkscape:connector-curvature="0" sodipodi:nodetypes="cccc" class="st49" d="M1102.1,461.2v8h27.2v-8H1102.1z
			"/>
		<circle id="path4375" class="st50" cx="1106.3" cy="465.2" r="1.4"/>
		<circle id="circle4392" class="st50" cx="1111.1" cy="465.2" r="1.4"/>
		<circle id="circle4394" class="st50" cx="1115.9" cy="465.2" r="1.4"/>
		<circle id="circle4396" class="st50" cx="1120.7" cy="465.2" r="1.4"/>
		<path id="path4398" inkscape:connector-curvature="0" sodipodi:nodetypes="ccccc" class="st49" d="M1097.3,462v6.4h4.8V462H1097.3
			z"/>
		<path id="path4400" inkscape:connector-curvature="0" sodipodi:nodetypes="ccccc" class="st49" d="M1094.1,462.8v4.8h3.2v-4.8
			H1094.1z"/>
		<path id="path4402" inkscape:connector-curvature="0" sodipodi:nodetypes="ccccc" class="st49" d="M1030.2,463.6l64-0.8l0,4.8
			l-64-0.8L1030.2,463.6z"/>
		<path id="path3408" inkscape:connector-curvature="0" sodipodi:nodetypes="ccccccc" class="st39" d="M1554.4,299.2l-201.9,11.2
			V272h150.6h35.3h16V299.2z"/>
		<path id="path4923" inkscape:connector-curvature="0" sodipodi:nodetypes="ccccccccccccccccc" class="st38" d="M1503.1,215.8
			l-64.9-44.4H1383h-120.1h-122.4h-120H904.1h-69.3l-52.4,36.2V280h121.7h116.4h120h122.4H1383h120.2V215.8z"/>
		<path id="path4950" inkscape:connector-curvature="0" sodipodi:nodetypes="cccc" class="st43" d="M904.1,280V171.4 M1020.4,171.4
			V280"/>
		<path id="path4956" inkscape:connector-curvature="0" sodipodi:nodetypes="ccccccc" class="st43" d="M783.9,241.6h120.1h116.4h120
			h122.4H1383h118.6"/>
		<path id="path4936" inkscape:connector-curvature="0" sodipodi:nodetypes="cccccccccccc" class="st39" d="M1140.4,261.4v-29.6
			h-120H904.1H782.3v29.6V280l44.9,6.4l76.9,6.4l116.4,8h120V261.4z"/>
		<path id="path4938" inkscape:connector-curvature="0" sodipodi:nodetypes="cccc" class="st43" d="M1020.4,300.8v-69 M904.1,231.8
			v61"/>
		<path id="path4940" inkscape:connector-curvature="0" sodipodi:nodetypes="cc" class="st43" d="M1140.4,261.4H782.3"/>
		<path id="path4942" inkscape:connector-curvature="0" sodipodi:nodetypes="ccccccccc" class="st39" d="M1513.2,215.8l65.1,26.9
			l-8.6,16.5l-2.5,4.9l-28.9,15.9h-35.3v-39.9v-24.3L1513.2,215.8z"/>
		<path id="path4944" inkscape:connector-curvature="0" sodipodi:nodetypes="ccccc" class="st39" d="M1503.1,240.1v-24.3h10.1
			l65.1,26.9l-8.6,16.5L1503.1,240.1z"/>
		<path id="path4946" inkscape:connector-curvature="0" sodipodi:nodetypes="cccccc" class="st39" d="M1002.5,301.6h-91.3l-13.8-9.4
			l6.7,0.6l98.8,6.8L1002.5,301.6z"/>
		<path id="path4948" inkscape:connector-curvature="0" sodipodi:nodetypes="cccccccccc" class="st41" d="M926,305.5h2.8l1-1.4h20.5
			l1.2,2.6h42.4l1.8-1.9v-3.3H926L926,305.5z"/>
		<path id="path4952" inkscape:connector-curvature="0" sodipodi:nodetypes="cccc" class="st43" d="M1140.4,280V171.4 M1262.9,171.4
			V280"/>
		<path id="path4954" inkscape:connector-curvature="0" sodipodi:nodetypes="cc" class="st43" d="M1382.9,171.4V280"/>
		<path id="path4958" inkscape:connector-curvature="0" sodipodi:nodetypes="ccccccc" class="st43" d="M783.9,216h120.1l116.4,0h120
			h122.4H1383h118.6"/>
		<path id="path4224" inkscape:connector-curvature="0" sodipodi:nodetypes="cc" class="st43" d="M1591.4,265.3l5.3,41"/>
		<path id="path4936-2" inkscape:connector-curvature="0" sodipodi:nodetypes="cc" class="st0" d="M1517.8,170l13.2,8.2
			c0,0-0.2,1.8-1.3,3.2l-13.5-9L1517.8,170z"/>
		<path id="path4849" inkscape:connector-curvature="0" sodipodi:nodetypes="cc" class="st0" d="M760.5,202.5l-1.7,15.5
			c0,0,1.5,1,3.3,0.9l1.3-16.2L760.5,202.5z"/>
		<path id="path4849-2" inkscape:connector-curvature="0" sodipodi:nodetypes="cc" class="st0" d="M776.1,181.9l-11.5,10.4
			c0,0,0.5,1.7,1.9,2.9l11.7-11.3L776.1,181.9z"/>
		<path id="path4849-2-1" inkscape:connector-curvature="0" sodipodi:nodetypes="cc" class="st0" d="M793.8,170l-13.2,8.2
			c0,0,0.2,1.8,1.3,3.2l13.5-9L793.8,170z"/>
		<path id="rect4881" inkscape:connector-curvature="0" sodipodi:nodetypes="ccccc" class="st0" d="M797.2,168.1l11.5-7.6l1.7,2.4
			l-11.5,7.6L797.2,168.1z"/>
		<path id="rect4881-0" inkscape:connector-curvature="0" sodipodi:nodetypes="ccccc" class="st0" d="M812.9,157.6l11.3-7.8l1.7,2.4
			l-11.3,7.8L812.9,157.6z"/>
		<path id="rect4881-0-1" inkscape:connector-curvature="0" sodipodi:nodetypes="ccccc" class="st0" d="M828.7,147.1l11.2-8l1.8,2.4
			l-11.2,8L828.7,147.1z"/>
		<path id="rect4881-0-5" inkscape:connector-curvature="0" sodipodi:nodetypes="ccccc" class="st0" d="M844.7,135.7l11.3-7.8
			l1.7,2.4l-11.3,7.8L844.7,135.7z"/>
		<path id="rect4881-0-1-0" inkscape:connector-curvature="0" sodipodi:nodetypes="ccccc" class="st0" d="M861.9,124.2l12.2-6.5
			l1.5,2.6l-12.2,6.5L861.9,124.2z"/>
		<path id="path4938-5" inkscape:connector-curvature="0" sodipodi:nodetypes="ccccc" class="st0" d="M1514.4,168.1l-11.5-7.6
			l-1.7,2.4l11.5,7.6L1514.4,168.1z"/>
		<path id="path4940-0" inkscape:connector-curvature="0" sodipodi:nodetypes="ccccc" class="st0" d="M1498.7,157.6l-11.3-7.8
			l-1.7,2.4l11.3,7.8L1498.7,157.6z"/>
		<path id="path4942-3" inkscape:connector-curvature="0" sodipodi:nodetypes="ccccc" class="st0" d="M1482.9,147.1l-11.2-8
			l-1.8,2.4l11.2,8L1482.9,147.1z"/>
		<path id="path4944-9" inkscape:connector-curvature="0" sodipodi:nodetypes="ccccc" class="st0" d="M1466.9,135.7l-11.3-7.8
			l-1.7,2.4l11.3,7.8L1466.9,135.7z"/>
		<path id="path4946-5" inkscape:connector-curvature="0" sodipodi:nodetypes="ccccc" class="st0" d="M1449.7,124.2l-12.2-6.5
			l-1.5,2.6l12.2,6.5L1449.7,124.2z"/>
		<path id="rect4881-0-1-0-8" inkscape:connector-curvature="0" sodipodi:nodetypes="ccccc" class="st0" d="M883.2,115.4l13.8-0.1
			l0.1,2.9l-13.8,0.1L883.2,115.4z"/>
		<path id="path4963" inkscape:connector-curvature="0" sodipodi:nodetypes="ccccc" class="st0" d="M902.7,115.4l13.8-0.1l0.1,2.9
			l-13.8,0.1L902.7,115.4z"/>
		<path id="path4965" inkscape:connector-curvature="0" sodipodi:nodetypes="ccccc" class="st0" d="M922.2,115.4l13.8-0.1l0.1,2.9
			l-13.8,0.1L922.2,115.4z"/>
		<path id="path4967" inkscape:connector-curvature="0" sodipodi:nodetypes="ccccc" class="st0" d="M941.8,115.4l13.8-0.1l0.1,2.9
			l-13.8,0.1L941.8,115.4z"/>
		<path id="path4969" inkscape:connector-curvature="0" sodipodi:nodetypes="ccccc" class="st0" d="M960.8,115.4l13.8-0.1l0.1,2.9
			l-13.8,0.1L960.8,115.4z"/>
		<path id="path4971" inkscape:connector-curvature="0" sodipodi:nodetypes="ccccc" class="st0" d="M980.4,115.4l13.8-0.1l0.1,2.9
			l-13.8,0.1L980.4,115.4z"/>
		<path id="path4973" inkscape:connector-curvature="0" sodipodi:nodetypes="ccccc" class="st0" d="M999.9,115.4l13.8-0.1l0.1,2.9
			l-13.8,0.1L999.9,115.4z"/>
		<path id="path4975" inkscape:connector-curvature="0" sodipodi:nodetypes="ccccc" class="st0" d="M1019.4,115.4l13.8-0.1l0.1,2.9
			l-13.8,0.1L1019.4,115.4z"/>
		<path id="path4977" inkscape:connector-curvature="0" sodipodi:nodetypes="ccccc" class="st0" d="M1035.9,115.4l13.8-0.1l0.1,2.9
			l-13.8,0.1L1035.9,115.4z"/>
		<path id="path4979" inkscape:connector-curvature="0" sodipodi:nodetypes="ccccc" class="st0" d="M1055.4,115.4l13.8-0.1l0.1,2.9
			l-13.8,0.1L1055.4,115.4z"/>
		<path id="path4981" inkscape:connector-curvature="0" sodipodi:nodetypes="ccccc" class="st0" d="M1074.9,115.4l13.8-0.1l0.1,2.9
			l-13.8,0.1L1074.9,115.4z"/>
		<path id="path4983" inkscape:connector-curvature="0" sodipodi:nodetypes="ccccc" class="st0" d="M1094.5,115.4l13.8-0.1l0.1,2.9
			l-13.8,0.1L1094.5,115.4z"/>
		<path id="path4985" inkscape:connector-curvature="0" sodipodi:nodetypes="ccccc" class="st0" d="M1113.5,115.4l13.8-0.1l0.1,2.9
			l-13.8,0.1L1113.5,115.4z"/>
		<path id="path4987" inkscape:connector-curvature="0" sodipodi:nodetypes="ccccc" class="st0" d="M1133.1,115.4l13.8-0.1l0.1,2.9
			l-13.8,0.1L1133.1,115.4z"/>
		<path id="path4989" inkscape:connector-curvature="0" sodipodi:nodetypes="ccccc" class="st0" d="M1152.6,115.4l13.8-0.1l0.1,2.9
			l-13.8,0.1L1152.6,115.4z"/>
		<path id="path4991" inkscape:connector-curvature="0" sodipodi:nodetypes="ccccc" class="st0" d="M1172.1,115.4l13.8-0.1l0.1,2.9
			l-13.8,0.1L1172.1,115.4z"/>
		<path id="path4993" inkscape:connector-curvature="0" sodipodi:nodetypes="ccccc" class="st0" d="M1191.4,115.4l13.8-0.1l0.1,2.9
			l-13.8,0.1L1191.4,115.4z"/>
		<path id="path4995" inkscape:connector-curvature="0" sodipodi:nodetypes="ccccc" class="st0" d="M1210.9,115.4l13.8-0.1l0.1,2.9
			l-13.8,0.1L1210.9,115.4z"/>
		<path id="path4997" inkscape:connector-curvature="0" sodipodi:nodetypes="ccccc" class="st0" d="M1229.8,115.4l13.8-0.1l0.1,2.9
			l-13.8,0.1L1229.8,115.4z"/>
		<path id="path4999" inkscape:connector-curvature="0" sodipodi:nodetypes="ccccc" class="st0" d="M1249.3,115.4l13.8-0.1l0.1,2.9
			l-13.8,0.1L1249.3,115.4z"/>
		<path id="path5001" inkscape:connector-curvature="0" sodipodi:nodetypes="ccccc" class="st0" d="M1268.4,115.4l13.8-0.1l0.1,2.9
			l-13.8,0.1L1268.4,115.4z"/>
		<path id="path5003" inkscape:connector-curvature="0" sodipodi:nodetypes="ccccc" class="st0" d="M1287.7,115.4l13.8-0.1l0.1,2.9
			l-13.8,0.1L1287.7,115.4z"/>
		<path id="path5005" inkscape:connector-curvature="0" sodipodi:nodetypes="ccccc" class="st0" d="M1306.7,115.4l13.8-0.1l0.1,2.9
			l-13.8,0.1L1306.7,115.4z"/>
		<path id="path5007" inkscape:connector-curvature="0" sodipodi:nodetypes="ccccc" class="st0" d="M1325.5,115.4l13.8-0.1l0.1,2.9
			l-13.8,0.1L1325.5,115.4z"/>
		<path id="path5009" inkscape:connector-curvature="0" sodipodi:nodetypes="ccccc" class="st0" d="M1345.3,115.4l13.8-0.1l0.1,2.9
			l-13.8,0.1L1345.3,115.4z"/>
		<path id="path5011" inkscape:connector-curvature="0" sodipodi:nodetypes="ccccc" class="st0" d="M1364.2,115.4l13.8-0.1l0.1,2.9
			l-13.8,0.1L1364.2,115.4z"/>
		<path id="path5013" inkscape:connector-curvature="0" sodipodi:nodetypes="ccccc" class="st0" d="M1415.4,115.4l13.8-0.1l0.1,2.9
			l-13.8,0.1L1415.4,115.4z"/>
		<path id="path4867" inkscape:connector-curvature="0" sodipodi:nodetypes="ccccc" class="st0" d="M1382.3,115.4l13.8-0.1l0.1,2.9
			l-13.8,0.1L1382.3,115.4z"/>
		<path id="path4869" inkscape:connector-curvature="0" sodipodi:nodetypes="ccccc" class="st0" d="M1399.5,115.4l9.2-0.1l0.1,2.9
			l-9.2,0.1L1399.5,115.4z"/>
		<path id="path5528" inkscape:connector-curvature="0" sodipodi:nodetypes="cc" class="st0" d="M1535.3,181.9l11.5,10.4
			c0,0-0.5,1.7-1.9,2.9l-11.7-11.3L1535.3,181.9z"/>
		<path id="path4921" inkscape:connector-curvature="0" sodipodi:nodetypes="ccccccc" class="st39" d="M782.3,217.2l-27.4-0.1
			l-13.7,14.9l-0.1,4l23.1,35.6l18.1,5.3V217.2z"/>
	</g>
</g>
</svg>
