<svg xmlns="http://www.w3.org/2000/svg" xmlns:xlink="http://www.w3.org/1999/xlink" viewBox="0 0 564.56 572.22"><defs><style>.cls-1{mask:url(#mask);}.cls-10,.cls-12,.cls-2,.cls-4{mix-blend-mode:multiply;}.cls-2{fill:url(#radial-gradient);}.cls-3{mask:url(#mask-2);}.cls-4{fill:url(#radial-gradient-2);}.cls-5{isolation:isolate;}.cls-6{fill:#fdd100;}.cls-6,.cls-7,.cls-8{fill-rule:evenodd;}.cls-7{fill:#dfbb08;}.cls-8{fill:#332c2b;}.cls-9{mask:url(#mask-3);}.cls-10{fill:url(#radial-gradient-3);}.cls-11{mask:url(#mask-4);}.cls-12{fill:url(#radial-gradient-4);}.cls-13{fill:#f8cc00;}.cls-14,.cls-17{mix-blend-mode:color-dodge;}.cls-15{fill:url(#radial-gradient-5);}.cls-16{fill:#010002;}.cls-17{fill:url(#radial-gradient-6);}.cls-18{fill:url(#linear-gradient);}.cls-19{font-size:22.51px;font-family:PTSans-Bold, PT Sans;font-weight:700;}.cls-20{font-size:6px;font-family:PTSans-Regular, PT Sans;}.cls-21{letter-spacing:-0.03em;}.cls-22{letter-spacing:-0.03em;}.cls-23{filter:url(#luminosity-noclip-4);}.cls-24{filter:url(#luminosity-noclip-3);}.cls-25{filter:url(#luminosity-noclip-2);}.cls-26{filter:url(#luminosity-noclip);}</style><filter id="luminosity-noclip" x="146.33" y="-8683.86" width="65.91" height="32766" filterUnits="userSpaceOnUse" color-interpolation-filters="sRGB"><feFlood flood-color="#fff" result="bg"/><feBlend in="SourceGraphic" in2="bg"/></filter><mask id="mask" x="146.33" y="-8683.86" width="65.91" height="32766" maskUnits="userSpaceOnUse"><g class="cls-26"/></mask><radialGradient id="radial-gradient" cx="2062.09" cy="8368.2" r="40.59" gradientTransform="matrix(0.81, -0.8, 0.1, 0.11, -2358.73, 891.87)" gradientUnits="userSpaceOnUse"><stop offset="0" stop-color="#fff"/><stop offset="0.11" stop-color="#e9e9e9"/><stop offset="0.35" stop-color="#b2b2b2"/><stop offset="0.69" stop-color="#595959"/><stop offset="1"/></radialGradient><filter id="luminosity-noclip-2" x="82.12" y="-8683.86" width="65.91" height="32766" filterUnits="userSpaceOnUse" color-interpolation-filters="sRGB"><feFlood flood-color="#fff" result="bg"/><feBlend in="SourceGraphic" in2="bg"/></filter><mask id="mask-2" x="82.12" y="-8683.86" width="65.91" height="32766" maskUnits="userSpaceOnUse"><g class="cls-25"/></mask><radialGradient id="radial-gradient-2" cx="2061.63" cy="7759.61" r="40.59" xlink:href="#radial-gradient"/><filter id="luminosity-noclip-3" x="146.33" y="104.46" width="65.91" height="65.24" filterUnits="userSpaceOnUse" color-interpolation-filters="sRGB"><feFlood flood-color="#fff" result="bg"/><feBlend in="SourceGraphic" in2="bg"/></filter><mask id="mask-3" x="301.16" y="266.46" width="65.91" height="65.24" maskUnits="userSpaceOnUse"><g class="cls-24"><g transform="translate(154.83 161.99)"><g class="cls-1"><path class="cls-2" d="M212,104.75c-2.35-2.38-18.89,10.17-36.94,28S144.26,167,146.61,169.41s18.89-10.17,36.93-28S214.31,107.13,212,104.75Z"/></g></g></g></mask><radialGradient id="radial-gradient-3" cx="2062.09" cy="8368.2" r="40.59" gradientTransform="matrix(0.81, -0.8, 0.1, 0.11, -2358.73, 891.87)" gradientUnits="userSpaceOnUse"><stop offset="0" stop-color="#666"/><stop offset="0.19" stop-color="#7c7c7c"/><stop offset="0.59" stop-color="#b3b3b3"/><stop offset="1" stop-color="#f2f2f2"/></radialGradient><filter id="luminosity-noclip-4" x="82.12" y="40.25" width="65.91" height="65.24" filterUnits="userSpaceOnUse" color-interpolation-filters="sRGB"><feFlood flood-color="#fff" result="bg"/><feBlend in="SourceGraphic" in2="bg"/></filter><mask id="mask-4" x="236.95" y="202.25" width="65.91" height="65.24" maskUnits="userSpaceOnUse"><g class="cls-23"><g transform="translate(154.83 161.99)"><g class="cls-3"><path class="cls-4" d="M147.75,40.54c-2.35-2.37-18.89,10.17-36.93,28S80.05,102.83,82.4,105.2s18.89-10.17,36.93-28S150.1,42.92,147.75,40.54Z"/></g></g></g></mask><radialGradient id="radial-gradient-4" cx="2061.63" cy="7759.61" r="40.59" xlink:href="#radial-gradient-3"/><radialGradient id="radial-gradient-5" cx="147.15" cy="71.67" r="52.4" gradientUnits="userSpaceOnUse"><stop offset="0" stop-color="#f0f1f1"/><stop offset="1" stop-color="#fff" stop-opacity="0"/></radialGradient><radialGradient id="radial-gradient-6" cx="147.15" cy="104.12" r="59.25" xlink:href="#radial-gradient-5"/><linearGradient id="linear-gradient" x1="16.48" y1="-32.53" x2="198.15" y2="149.14" gradientUnits="userSpaceOnUse"><stop offset="0" stop-color="#fff"/><stop offset="1" stop-color="#fff" stop-opacity="0"/></linearGradient></defs><title>under-construction</title><g class="cls-5"><g id="Layer_1" data-name="Layer 1"><g id="_366792456" data-name=" 366792456"><polygon class="cls-6" points="518.15 0 564.56 45.67 46.41 572.22 0 526.55 518.15 0"/><polygon class="cls-7" points="541.69 23.17 564.56 45.67 46.41 572.22 23.54 549.72 541.69 23.17"/><polygon class="cls-8" points="55.03 563.46 46.41 572.22 31.1 557.16 31.02 541.45 15.27 541.58 0 526.55 8.62 517.79 54.07 517.42 54.11 517.98 54.63 517.98 55.03 563.46"/><path class="cls-8" d="M363.32-162l20.53,20.2-40.74.33Zm25.84,25.42,20.57,20.25L389.52-95.79Z" transform="translate(154.83 161.99)"/><polygon class="cls-8" points="101.67 516.07 78.02 540.11 77.65 494.06 31.61 494.43 55.26 470.4 100.7 470.04 100.74 470.59 101.27 470.59 101.67 516.07"/><polygon class="cls-8" points="148.3 468.68 124.65 492.71 124.28 446.67 78.24 447.04 101.89 423.01 147.33 422.64 147.38 423.2 147.9 423.2 148.3 468.68"/><polygon class="cls-8" points="194.94 421.29 171.28 445.32 170.91 399.28 124.87 399.65 148.52 375.62 193.97 375.25 194.01 375.81 194.53 375.81 194.94 421.29"/><polygon class="cls-8" points="241.57 373.9 217.92 397.94 217.55 351.89 171.51 352.26 195.16 328.23 240.6 327.87 240.64 328.43 241.16 328.42 241.57 373.9"/><polygon class="cls-8" points="288.2 326.51 264.55 350.55 264.18 304.5 218.14 304.87 241.79 280.84 287.23 280.48 287.28 281.04 287.8 281.03 288.2 326.51"/><polygon class="cls-8" points="334.83 279.12 311.19 303.16 310.81 257.11 264.77 257.49 288.42 233.45 333.87 233.09 333.91 233.65 334.43 233.64 334.83 279.12"/><polygon class="cls-8" points="381.47 231.73 357.82 255.77 357.45 209.72 311.41 210.09 335.06 186.06 380.5 185.7 380.54 186.25 381.06 186.25 381.47 231.73"/><polygon class="cls-8" points="428.1 184.34 404.45 208.38 404.08 162.34 358.04 162.71 381.69 138.67 427.13 138.31 427.18 138.87 427.7 138.86 428.1 184.34"/><polygon class="cls-8" points="474.73 136.95 451.08 160.99 450.71 114.94 404.67 115.31 428.32 91.28 473.77 90.92 473.81 91.47 474.33 91.47 474.73 136.95"/><polygon class="cls-8" points="521.37 89.56 497.72 113.6 497.35 67.56 451.31 67.92 474.95 43.89 520.4 43.53 520.44 44.09 520.96 44.08 521.37 89.56"/></g><g class="cls-9"><path class="cls-10" d="M212,104.75c-2.35-2.38-18.89,10.17-36.94,28S144.26,167,146.61,169.41s18.89-10.17,36.93-28S214.31,107.13,212,104.75Z" transform="translate(154.83 161.99)"/></g><g class="cls-11"><path class="cls-12" d="M147.75,40.54c-2.35-2.37-18.89,10.17-36.93,28S80.05,102.83,82.4,105.2s18.89-10.17,36.93-28S150.1,42.92,147.75,40.54Z" transform="translate(154.83 161.99)"/></g><rect class="cls-13" x="99.77" y="56.74" width="94.76" height="94.76" rx="2.31" transform="translate(124.3 296.54) rotate(-45)"/><g class="cls-14"><path class="cls-15" d="M145.51,41.06a2.32,2.32,0,0,1,3.27,0l63.74,63.74a2.12,2.12,0,0,1,.37.48,2.31,2.31,0,0,0-.37-2.79L148.78,38.75a2.32,2.32,0,0,0-3.27,0L81.78,102.49a2.31,2.31,0,0,0-.37,2.79,2.12,2.12,0,0,1,.37-.48Z" transform="translate(154.83 161.99)"/></g><path class="cls-16" d="M147.15,163.37a4.27,4.27,0,0,1-3-1.26l-55-55a4.3,4.3,0,0,1,0-6.08l55-54.95a4.3,4.3,0,0,1,6.08,0l54.95,55a4.3,4.3,0,0,1,0,6.08l-54.95,55A4.27,4.27,0,0,1,147.15,163.37ZM92.66,104.12l54.49,54.5,54.49-54.5L147.15,49.63Z" transform="translate(154.83 161.99)"/><path class="cls-17" d="M147.15,163.37a4.27,4.27,0,0,1-3-1.26l-55-55a4.3,4.3,0,0,1,0-6.08l55-54.95a4.3,4.3,0,0,1,6.08,0l54.95,55a4.3,4.3,0,0,1,0,6.08l-54.95,55A4.27,4.27,0,0,1,147.15,163.37ZM92.66,104.12l54.49,54.5,54.49-54.5L147.15,49.63Z" transform="translate(154.83 161.99)"/><path class="cls-18" d="M209.26,99.22,148.78,38.75a2.32,2.32,0,0,0-3.27,0L86.12,98.14a90.14,90.14,0,0,0,123.14,1.08Z" transform="translate(154.83 161.99)"/><text class="cls-19" transform="translate(267.6 282)">UNDER</text><text class="cls-20" transform="translate(281.02 289.47)"><tspan class="cls-21">C</tspan><tspan x="3.27" y="0">ONSTRU</tspan><tspan class="cls-22" x="25.43" y="0">C</tspan><tspan x="28.69" y="0">TION</tspan></text><rect x="307.32" y="250.14" width="6.45" height="11.57"/><rect x="291.59" y="253.56" width="6.45" height="8.15"/><rect x="275.68" y="257.67" width="15" height="4.04"/><rect x="314.44" y="242.29" width="6.66" height="19.36"/><rect x="321.77" y="253.76" width="5.53" height="8"/><path d="M163.23,71.05H149.16V69.19h-3.41v1.86H139.4V72h6.35v.24h-1.86v6.19h.85V99.56h.93v-.31h3.57v.31h.92V78.41H151V72.22h-1.86V72h13v4.24h-2.53v2.94h6.66V76.22h-3.05ZM145.67,93h3.57V95h-3.57Zm0-1.08v-2h3.57v2Zm0-3.14v-2h3.57v2Zm0-3.13V83.56h3.57v2.06Zm0-3.14v-2h3.57v2Zm0,15.68v-2h3.57v2Zm3.57-19.75v.93h-3.57v-.93h3.57Z" transform="translate(154.83 161.99)"/><rect x="268.47" y="260.93" width="67.01" height="1.66"/><polygon points="300.93 294.71 302.12 294.71 302.13 294.71 300.93 293.06 302.13 291.41 302.12 291.41 300.93 291.41 299.73 293.06 300.93 294.71"/><polygon points="299.03 294.71 300.22 294.71 300.22 294.71 299.03 293.06 300.22 291.41 300.22 291.41 299.03 291.41 297.83 293.06 299.03 294.71"/><polygon points="297.12 294.71 298.31 294.71 298.32 294.71 297.12 293.06 298.32 291.41 298.31 291.41 297.12 291.41 295.92 293.06 297.12 294.71"/><polygon points="295.22 294.71 296.41 294.71 296.41 294.71 295.22 293.06 296.41 291.41 296.41 291.41 295.22 291.41 294.02 293.06 295.22 294.71"/><polygon points="293.31 294.71 294.5 294.71 294.51 294.71 293.31 293.06 294.51 291.41 294.5 291.41 293.31 291.41 292.11 293.06 293.31 294.71"/><polygon points="291.41 294.71 292.6 294.71 292.6 294.71 291.41 293.06 292.6 291.41 292.6 291.41 291.41 291.41 290.21 293.06 291.41 294.71"/><polygon points="289.5 294.71 290.69 294.71 290.7 294.71 289.5 293.06 290.7 291.41 290.69 291.41 289.5 291.41 288.3 293.06 289.5 294.71"/><polygon points="287.6 294.71 288.79 294.71 288.79 294.71 287.6 293.06 288.79 291.41 288.79 291.41 287.6 291.41 286.4 293.06 287.6 294.71"/><polygon points="285.69 294.71 286.88 294.71 286.89 294.71 285.69 293.06 286.89 291.41 286.88 291.41 285.69 291.41 284.49 293.06 285.69 294.71"/><polygon points="283.79 294.71 284.98 294.71 284.98 294.71 283.79 293.06 284.98 291.41 284.98 291.41 283.79 291.41 282.59 293.06 283.79 294.71"/><polygon points="281.88 294.71 283.07 294.71 283.08 294.71 281.88 293.06 283.08 291.41 283.07 291.41 281.88 291.41 280.68 293.06 281.88 294.71"/><polygon points="322.07 294.71 323.27 294.71 323.27 294.71 322.07 293.06 323.27 291.41 323.27 291.41 322.07 291.41 320.87 293.06 322.07 294.71"/><polygon points="320.17 294.71 321.36 294.71 321.37 294.71 320.17 293.06 321.37 291.41 321.36 291.41 320.17 291.41 318.97 293.06 320.17 294.71"/><polygon points="318.26 294.71 319.46 294.71 319.46 294.71 318.26 293.06 319.46 291.41 319.46 291.41 318.26 291.41 317.06 293.06 318.26 294.71"/><polygon points="316.36 294.71 317.55 294.71 317.56 294.71 316.36 293.06 317.56 291.41 317.55 291.41 316.36 291.41 315.16 293.06 316.36 294.71"/><polygon points="314.45 294.71 315.65 294.71 315.65 294.71 314.45 293.06 315.65 291.41 315.65 291.41 314.45 291.41 313.25 293.06 314.45 294.71"/><polygon points="312.55 294.71 313.74 294.71 313.75 294.71 312.55 293.06 313.75 291.41 313.74 291.41 312.55 291.41 311.35 293.06 312.55 294.71"/><polygon points="310.64 294.71 311.84 294.71 311.84 294.71 310.64 293.06 311.84 291.41 311.84 291.41 310.64 291.41 309.44 293.06 310.64 294.71"/><polygon points="308.74 294.71 309.93 294.71 309.94 294.71 308.74 293.06 309.94 291.41 309.93 291.41 308.74 291.41 307.54 293.06 308.74 294.71"/><polygon points="306.83 294.71 308.03 294.71 308.03 294.71 306.83 293.06 308.03 291.41 308.03 291.41 306.83 291.41 305.64 293.06 306.83 294.71"/><polygon points="304.93 294.71 306.12 294.71 306.13 294.71 304.93 293.06 306.13 291.41 306.12 291.41 304.93 291.41 303.73 293.06 304.93 294.71"/><polygon points="303.03 294.71 304.22 294.71 304.22 294.71 303.03 293.06 304.22 291.41 304.22 291.41 303.03 291.41 301.83 293.06 303.03 294.71"/><path d="M153.52,139.67l-.67-.67.38-.38-1-1.06-.39.39-.66-.67a1.27,1.27,0,0,0-1.79,0l-.56.56a1.26,1.26,0,0,0,0,1.78l.67.67-2,2-1.62-1.62.63-.63a3.56,3.56,0,0,1,.47-2.78l-.33-.33-2.26,2.25-.4-.4-.82.82.55.54-.34.34.3.29-.26.26a.49.49,0,0,0-.58,0l-.77.77c-.16.16-.08.5.18.76l.29.29c.26.26.6.34.76.18l.77-.77c.13-.13.1-.36,0-.58l.25-.25.3.29.33-.33,1.77,1.76L143,146.73l1.05,1.06,3.36-3.35,3.45,3.45,1.4-1.39L148.81,143l1.7-1.69.67.66a1.26,1.26,0,0,0,1.78,0l.56-.56A1.26,1.26,0,0,0,153.52,139.67Z" transform="translate(154.83 161.99)"/></g></g></svg>