<?xml version="1.0" encoding="utf-8"?>
<!-- Generator: Adobe Illustrator 19.0.0, SVG Export Plug-In . SVG Version: 6.00 Build 0)  -->
<svg version="1.1" id="Layer_1" xmlns="http://www.w3.org/2000/svg" xmlns:xlink="http://www.w3.org/1999/xlink" x="0px" y="0px"
	 viewBox="0 0 425.9 1008.8" style="enable-background:new 0 0 425.9 1008.8;" xml:space="preserve">
<style type="text/css">
	.st0{fill:#57595B;stroke:#000000;stroke-width:5;stroke-miterlimit:10;}
	.st1{fill:#57595B;}
	.st2{fill:#282B2E;}
	.st3{fill:#292D2F;}
	.st4{fill:#282C2E;}
	.st5{fill:#2B2E31;}
	.st6{fill:#C0BDC4;}
	.st7{fill:#C0BCC4;}
	.st8{fill:#7F8084;}
	.st9{fill:#627772;}
</style>
<g>
	<path class="st0" d="M84.6,351.4c0-102.3,0-204.6,0-306.8c0-4-0.1-8,0.8-11.9c2.5-10.8,9.1-17.9,19.3-21.9c1.5-0.6,3.4-0.3,4.3-2.1
		c4.7,0,9.3,0,14,0c0.1,0.1,0.2,0.4,0.3,0.4c19.2,4.6,25.9,18.5,25.9,36.6c-0.4,100.1-0.2,200.2-0.2,300.4c0,1.8,0.1,3.7,0.2,5.5
		C127.7,351.5,106.2,351.5,84.6,351.4z"/>
	<path class="st1" d="M0,455.7c2.7-3.7,5.9-6.2,10.8-5.3c0.1,32.7,0.1,65.5,0.2,98.2c-5.1,0.6-8.6-1.7-11-6C0,513.7,0,484.7,0,455.7
		z"/>
	<path class="st1" d="M10.9,620.9c-5.2,0.8-8.7-1.5-10.9-6.2c0-12,0-24,0-36c2.5-4.2,6.2-6.2,11-5.9C11,588.8,10.9,604.8,10.9,620.9
		z"/>
	<path class="st0" d="M22.9,834.1c-0.1-1-0.3-2-0.3-3c0-54.2,0-108.4,0-162.7c0-1.2,0.2-2.3,0.3-3.5c0-82,0-164,0-246.1
		c-1-24.8,18.9-48.5,44-52.3c3-0.4,6-0.7,8.9-1c27.3,0,54.6,0.1,82,0.1c5.1,0,10.3,0,15.4,0c30.8,0,61.7,0,92.5,0
		c9.7,0,19.3-0.1,29-0.1c22.8,0,45.6,0,68.4,0c17.9,1,32.8,8,43.4,22.8c5.7,8,9.5,17,9.5,26.9c0.2,37.4,0,74.8,0,112.2
		c0,52.5,0,105,0,157.5c0,49.8,0,99.5,0,149.3c0,33.2,0,66.3-0.1,99.5c0.2,10,1.1,20-0.5,29.9c-3.5,22.5-19.8,39.1-42.2,44
		c-0.8,0.2-1.5,0.6-2.2,0.9c-3.7,0-7.3,0.1-11,0.1c-96.5,0-192.9,0.1-289.4,0.1c-1.7,0-3.3-0.1-5-0.2c-1-1.7-2.8-1.4-4.3-1.8
		c-22.1-6.2-37.9-25.9-38.7-48.9c-0.3-7.9,0.1-15.9,0.1-23.9C22.9,900.7,22.9,867.4,22.9,834.1z M218.8,602.7
		c43.7,0,87.3-0.1,131,0.1c16.2,0.1,24.6-12.1,24.4-24.2c-0.4-40.2-0.5-80.3,0-120.5c0.2-13.5-11.4-23.5-23.6-23.5
		c-87.3,0.2-174.6,0.2-261.9,0c-13.3,0-24,9.8-23.8,23.6c0.4,40,0.4,80,0,120c-0.2,15.5,10.7,24.6,24.5,24.5
		C132.5,602.5,175.7,602.7,218.8,602.7z M256.1,746.7c6,0,12,0,18,0c27.3,0,54.6-0.1,81.9,0.1c4,0,6.5-1.8,7.7-5.1
		c1.3-3.5-0.7-6-3.4-8.1c-1.9-1.4-4.2-0.8-6.3-0.8c-65.4,0-130.9,0-196.3,0c-1.5,0-3-0.1-4.5,0.1c-5.3,1-7.6,7.2-4.2,11.2
		c2,2.4,4.8,2.6,7.7,2.6C189.8,746.6,223,746.7,256.1,746.7z M255.5,677.7c-33,0-65.9,0-98.9,0c-6.4,0-8.7,1.9-8.7,6.9
		c0,5.1,2.3,7,8.6,7c12.2,0,24.3,0,36.5,0c53.8,0,107.6,0,161.3,0c2.1,0,4.4,0.6,6.2-1c2.4-2.1,4.3-4.4,3-7.8
		c-1.3-3.4-3.7-5.1-7.6-5.1C322.4,677.8,289,677.7,255.5,677.7z M256,705.7c-33.5,0-66.9,0-100.4,0c-3.8,0-7,0.6-7.6,5.2
		c-0.7,5.3,1.9,7.9,8,7.9c66.4,0,132.9,0,199.3,0c5.9,0,8.7-2.1,8.7-6.5c0-4.4-2.8-6.5-8.6-6.5C322.3,705.6,289.1,705.7,256,705.7z
		 M256,663.7c33.5,0,66.9,0,100.4,0.1c3.7,0,6.2-1.1,7.2-4.7c0.8-2.8,0.1-5.3-2.2-7.1c-2-1.6-4.4-1.3-6.7-1.3
		c-66.1,0-132.2,0-198.3,0c-1,0-2-0.1-3,0c-3.2,0.4-5.1,2.2-5.5,5.4c-0.6,5.3,1.7,7.6,7.7,7.6C189.1,663.7,222.6,663.7,256,663.7z
		 M105.1,703.9c14.9,0.1,26.8-11.5,26.9-26.3c0.2-14.8-11.6-26.9-26.3-27c-15-0.1-26.9,11.3-27.1,26.2
		C78.5,692.1,89.9,703.8,105.1,703.9z M285.7,773.7c23.5,0,47-0.1,70.5,0.1c3.6,0,6.2-0.9,7.4-4.4c1.7-5-1.8-8.7-8.2-8.7
		c-46.3,0-92.6,0-138.9,0c-5.9,0-8.6,2.3-8.5,6.7c0.1,4.3,2.7,6.3,8.3,6.3C239.4,773.7,262.6,773.7,285.7,773.7z M158.7,857.8
		c5.2,0,10.3,0.1,15.5,0c5.3-0.1,8.3-2.6,8.4-7.9c0.2-7.6,0.1-15.3-0.3-23c-0.3-5.4-2.8-7.8-8.3-7.9c-10-0.2-20-0.2-30,0
		c-5.5,0.1-8.4,2.9-8.6,8.3c-0.2,7.5-0.2,15,0,22.5c0.2,5.3,2.9,7.8,8.3,7.9C148.7,857.9,153.7,857.8,158.7,857.8z M99,762.8
		C99,762.8,99,762.7,99,762.8c-5.2,0-10.3-0.1-15.5,0c-5.5,0.1-8.4,2.8-8.5,8.2c-0.1,7.5-0.1,15,0,22.4c0.1,5.2,2.9,8.1,8,8.2
		c10.3,0.1,20.6,0.1,30.9,0c5.1-0.1,8-3,8.1-8.2c0.1-7.5,0.1-15,0-22.4c-0.1-5.4-3-8.1-8.5-8.2C108.7,762.7,103.8,762.8,99,762.8z
		 M158.9,904.8c5,0,10,0.1,15,0c5.8-0.1,8.6-3,8.6-8.6c0-7.2-0.1-14.3-0.2-21.5c-0.1-5.7-2.5-8.5-8-8.6c-10.2-0.2-20.3-0.2-30.5,0
		c-5.3,0.1-8.1,2.9-8.3,8.1c-0.3,7.7-0.3,15.3,0,23c0.2,5.2,3.1,7.6,8.5,7.7C148.9,904.9,153.9,904.8,158.9,904.8z M98.2,857.8
		c5,0,10,0,15,0c5.9-0.1,8.7-2.7,8.7-8.4c0.1-7.3,0.1-14.7,0-22c-0.1-5-2.5-8.1-7.5-8.3c-10.5-0.3-21-0.3-31.5,0
		c-5.6,0.2-7.9,3.1-8,8.8c-0.1,7,0,14,0,21c0,6.3,2.6,8.8,8.7,8.9C88.6,857.9,93.4,857.8,98.2,857.8z M219.4,857.8c5,0,10,0.1,15,0
		c5.9-0.1,8.5-2.7,8.6-8.5c0.1-7.3,0.1-14.6,0-21.9c-0.1-5-2.9-8.2-7.9-8.3c-10.3-0.2-20.6-0.2-30.9,0c-5.4,0.1-8,3.2-8.1,8.7
		c-0.1,7.1-0.1,14.3,0,21.4c0.1,6.1,2.6,8.6,8.9,8.7C209.7,857.9,214.5,857.8,219.4,857.8z M279.8,904.8c5.2,0,10.3,0.1,15.5,0
		c5.4-0.1,7.9-2.6,8-8c0.1-7.5,0.1-15,0-22.5c-0.1-5.3-2.6-8.1-8-8.2c-10.2-0.2-20.3-0.2-30.5,0c-5.2,0.1-8.2,2.9-8.4,8
		c-0.3,7.7-0.3,15.3,0,23c0.2,5.3,3,7.7,8.4,7.7C269.8,904.9,274.8,904.8,279.8,904.8z M279.5,857.8c5.2,0,10.3,0.1,15.5,0
		c5.7-0.1,8.1-2.5,8.2-8.3c0.1-7.3,0.1-14.7,0-22c-0.1-5.4-2.4-8.3-7.7-8.5c-10.3-0.3-20.7-0.2-31,0c-5.2,0.1-8.1,3.2-8.2,8.2
		c-0.2,7.5-0.2,15,0,22.5c0.2,5.5,3.1,8,8.7,8.1C269.9,857.9,274.7,857.8,279.5,857.8z M340.2,857.8c4.8,0,9.7,0,14.5,0
		c0.2,0,0.3,0,0.5,0c5.9-0.1,8.6-2.7,8.7-8.5c0.1-7.3,0-14.7,0-22c0-4.8-2.5-7.9-7.1-8.1c-11-0.4-22-0.3-32.9,0
		c-4.8,0.1-7,3.4-6.9,8.1c0,7.3-0.1,14.7,0,22c0.1,5.8,2.7,8.3,8.7,8.4C330.5,857.9,335.4,857.8,340.2,857.8z M158.9,762.7
		c-5,0-10-0.1-15,0c-5.4,0.1-8.1,2.5-8.2,7.8c-0.1,7.6-0.1,15.3,0,22.9c0.1,5.4,2.6,8,8,8c10.1,0.2,20.3,0.1,30.4,0
		c5.2-0.1,8-2.9,8-8.1c0.1-7.5,0.1-15,0-22.4c-0.1-5.6-2.6-8.1-8.3-8.2C168.9,762.7,163.9,762.7,158.9,762.7z M340.5,904.9
		c4.8,0,9.7,0,14.5,0c6.2-0.1,8.8-2.6,8.9-8.7c0.1-7,0.1-14,0-21c-0.1-5.9-2.6-8.6-8.4-8.7c-10.1-0.2-20.3-0.3-30.4-0.3
		c-5,0-8,3-8.1,8.2c-0.1,7.5-0.1,15,0,22.5c0.1,5.2,2.8,7.9,8.1,8C330.2,904.9,335.4,904.8,340.5,904.9z M98.7,904.8
		c4.8,0,9.7,0,14.5,0c0.2,0,0.3,0,0.5,0c5.5-0.2,8.2-2.8,8.3-8.4c0.1-7.3,0.1-14.6,0-22c-0.1-5.4-2.6-8-8-8.1
		c-10.3-0.1-20.6-0.1-31,0c-5.4,0.1-7.9,2.6-8,8c-0.1,7.5-0.1,15,0,22.5c0.1,5.1,2.9,7.8,8.2,7.9C88.4,904.9,93.5,904.8,98.7,904.8z
		 M279.8,951.9c5.2,0,10.3,0.1,15.5,0c5.5-0.1,7.9-2.5,8-7.9c0.1-7.5,0.1-15,0-22.5c-0.1-5.6-2.4-8-7.9-8c-10.2-0.1-20.3-0.1-30.5,0
		c-5.6,0-8.4,2.6-8.5,8.2c-0.2,7.3-0.2,14.6,0,22c0.2,5.8,3,8.2,8.9,8.3C270.1,951.9,274.9,951.9,279.8,951.9z M159.3,913.4
		c-5.2,0-10.3-0.1-15.5,0c-5.4,0.1-8.2,2.5-8.4,7.8c-0.3,7.6-0.3,15.3,0,23c0.2,5.2,3.1,7.7,8.5,7.7c10.1,0.1,20.3,0.1,30.4,0
		c5.2-0.1,7.8-2.5,7.9-7.6c0.2-7.8,0.1-15.6,0-23.5c-0.1-4.9-2.5-7.2-7.5-7.4C169.6,913.3,164.4,913.4,159.3,913.4z M98.6,951.9
		C98.6,951.9,98.6,951.9,98.6,951.9c5,0,10,0.1,15,0c5.5-0.1,8.3-2.7,8.4-8.3c0.1-7.3,0.1-14.6,0-22c-0.1-5.4-2.6-8.1-7.9-8.2
		c-10.3-0.1-20.6-0.1-30.9,0c-5.4,0.1-8,2.7-8.1,8c-0.1,7.5-0.1,15,0,22.5c0.1,5.2,2.9,7.9,8.1,8C88.3,952,93.5,951.9,98.6,951.9z
		 M219,904.8c5.3,0,10.6,0.1,16,0c4.9-0.1,7.8-2.8,7.9-7.7c0.2-7.6,0.2-15.3,0-23c-0.1-4.9-3-7.7-7.9-7.8c-10.5-0.1-21-0.1-31.4,0
		c-5,0.1-7.5,2.7-7.6,7.9c-0.1,7.5-0.1,15,0,22.5c0.1,5.2,2.8,7.9,8.1,8C209.1,904.9,214,904.9,219,904.8z M340.8,913.4
		c-5.2,0-10.3-0.1-15.5,0c-5.7,0.1-8.2,2.6-8.3,8.3c-0.1,7.3-0.1,14.6,0,22c0.1,5.3,2.7,8.1,7.9,8.2c10.3,0.1,20.6,0.1,30.9,0
		c5.2,0,8-2.8,8.1-8c0.1-7.5,0.1-15,0-22.5c-0.1-5.3-2.8-7.8-8.2-7.9C350.7,913.3,345.8,913.4,340.8,913.4z M219.3,913.4
		c-5.2,0-10.3-0.1-15.5,0c-5.1,0.1-7.7,2.7-7.8,7.7c-0.1,7.6-0.2,15.3,0,22.9c0.1,5.1,2.8,7.7,7.8,7.8c10.3,0.1,20.6,0.1,30.9,0
		c5.3,0,8.1-2.7,8.2-7.9c0.2-7.5,0.1-15,0-22.4c-0.1-5.3-2.8-7.9-8.1-8C229.7,913.3,224.5,913.4,219.3,913.4z M98,723.7
		c-4.8,0-9.6,0.1-14.5,0c-2.9,0-5.2,0.9-7,3.1c-2.8,3.6-2.1,15.5,0.9,18.9c1.8,2,3.7,3,6.5,2.9c7.5-0.2,15-0.3,22.4,0
		c13.2,0.4,16.4-1.7,15.6-15.5c-0.3-6.3-2.8-9.2-9.1-9.4C108,723.6,103,723.7,98,723.7z"/>
	<path class="st0" d="M294.8,302.7c-1.8-0.2-3.6-0.3-5.4-0.5c-5.1-0.6-8.2-3.8-8.3-8.9c-0.1-12.3-0.4-24.7,0.2-37
		c0.9-19,16.8-34.9,36.3-36.3c8.8-0.7,17.7-1,26.4,0.4c19.1,3.2,32.8,19.4,33,38.8c0.1,10.3,0,20.7,0,31c0,9-2.5,11.6-11.3,12
		c-0.8,0-1.6,0.2-2.5,0.4C340.3,302.7,317.5,302.7,294.8,302.7z M307,273.1c0,5.7,0,11.3,0,17c0,3.1,0,6.5,4.2,6.5
		c3.8,0,4.7-2.9,4.8-6.3c0.5-18.6-1.6-37.2,2-55.7c0.3-1.7,0.4-3.9-1.9-4.6c-2.2-0.6-3.3,1.2-4.1,2.9c-0.5,0.9-0.7,1.8-1.1,2.8
		C306.6,247.8,306.9,260.4,307,273.1z M351,273.6c0-3.3,0-6.7,0-10c0-10.5-1-20.9-5-30.7c-0.7-1.8-1.8-3.4-4-2.9
		c-2.1,0.5-2,2.4-2,4.1c0,1.3,0.1,2.7,0.3,4c1,5.2,1.8,10.4,1.7,15.8c-0.1,12,0,24,0,36c0,3.3,0,6.8,4.5,6.8
		c4.5-0.1,4.4-3.7,4.5-6.9C351,284.3,351,279,351,273.6z M325,264.2C325,264.2,325,264.2,325,264.2c-0.1,8.8-0.1,17.6-0.1,26.4
		c0,3.1,0.4,6.1,4.2,6c3.5-0.1,3.9-2.9,3.9-5.8c-0.1-6,0.1-12,0-17.9c-0.3-12.4,1-24.9-0.9-37.3c-0.4-2.5,1.3-6.7-3.1-6.6
		c-4.6,0-2.9,4.7-4,7.4c-0.3,0.7-0.1,1.6-0.1,2.5C325,247.2,325,255.7,325,264.2z M368,274.1c0-5.3,0-10.7,0-16
		c-0.1-6-2.3-11.3-5.5-16.3c-0.8-1.3-1.9-2.4-3.7-1.6c-1.8,0.8-1.7,2-1.3,3.7c2.2,9.3,2.6,18.7,2.4,28.2c-0.1,6.3,0,12.7,0,19
		c0,2.8,0.7,5.2,3.9,5.4c3.5,0.1,4.3-2.4,4.3-5.4C368,285.5,368,279.8,368,274.1z M298,273.2c0.2-9.4-0.7-18.9,1.9-28.2
		c0.4-1.7,0.8-4-1.4-4.8c-1.9-0.7-3,1.3-3.8,2.6c-2.6,4.1-4.6,8.5-4.6,13.5c-0.1,11.7,0,23.3-0.1,35c0,2.8,0.7,5.2,3.8,5.4
		c3.5,0.2,4.3-2.4,4.3-5.4C298,285.2,298,279.2,298,273.2z"/>
	<path class="st2" d="M265.7,365.7c-30.8,0-61.7,0-92.5,0c0-5.8-0.1-11.5,0-17.3c0.1-10.4,6.1-16.8,16.5-17.9
		c19.9,0,39.7,0,59.6,0.1c9.8,0.9,15.9,7,16.3,16.8C265.8,353.4,265.7,359.6,265.7,365.7z"/>
	<path class="st0" d="M294.6,352.8c-1.7,0-3.3,0.1-5,0c-5.1-0.3-8.5-3.4-8.6-8.4c-0.2-7.8-0.2-15.6,0-23.4c0.1-5.3,3.4-8.6,8.7-9.1
		c1.6-0.2,3.3-0.1,5-0.2c22.8,0,45.6,0,68.4,0c1.7,0,3.3,0,5,0.2c5,0.4,8.6,3.6,8.7,8.5c0.3,8,0.2,15.9,0,23.9
		c-0.1,5-3.6,8.2-8.6,8.5c-1.7,0.1-3.3,0-5,0C340.4,352.7,317.5,352.8,294.6,352.8z M342,332C342,332,342,332,342,332
		c0,3.7-0.1,7.3,0.1,11c0.1,2.4,1.4,4.4,3.9,4.3c2.4-0.1,4.7-1.5,4.8-4.2c0.2-7,0.2-14,0-20.9c-0.1-2.4-1.3-4.6-4.4-4.5
		c-3.1,0.1-4.4,1.9-4.4,4.9C342,325.7,342,328.8,342,332z M307,332.1c0,3.5-0.1,7,0,10.5c0.1,2.6,1.8,4.5,4.3,4.8
		c2.4,0.2,4.3-1.8,4.4-3.9c0.3-7.3,0.2-14.6-0.1-21.9c-0.1-2.2-1.6-4-4.3-3.9c-2.8,0.2-4.2,1.8-4.3,4.5
		C307,325.5,307,328.8,307,332.1z M359.9,332.1C359.9,332.1,360,332.1,359.9,332.1c0,3.8,0,7.6,0,11.5c0,2.5,1.9,3.6,4,3.6
		c2.1,0,4-1.1,4-3.6c0.1-7.5,0.1-15-0.1-22.4c-0.1-2.5-2-3.7-4.6-3.6c-2.6,0.1-3.4,1.7-3.4,4C359.9,325.2,359.9,328.7,359.9,332.1z
		 M290,332c0,3.7,0,7.3,0,11c0,2.7,1.5,4.2,3.9,4.3c2.3,0.1,4.2-1.2,4.2-3.9c0-7.2,0.1-14.3,0-21.5c0-2.5-1.5-4.2-4.1-4.1
		c-2.6,0.1-3.9,1.7-4,4.2C289.9,325.3,290,328.6,290,332z M333,332.7c0-3.7,0.1-7.3,0-11c-0.1-2.3-1.5-3.8-3.8-3.9
		c-2.6-0.1-4.2,1.5-4.2,4c-0.1,7.2-0.1,14.3,0,21.5c0,2.5,1.4,3.5,3.8,3.6c2.5,0,4.3-0.8,4.3-3.6C333,339.7,333,336.2,333,332.7z"/>
	<path class="st3" d="M416.1,685c0-52.5,0-105,0-157.5c4.9,0.5,10.1,0.6,11.1,7.1c-0.7,0.3-1.3,0.5-1.3,1.7
		c0.1,48.2,0.2,96.4,0.2,144.6C424,685.2,419.8,684.6,416.1,685z"/>
	<path class="st4" d="M157.8,365.7c-27.3,0-54.6-0.1-82-0.1c0.1-10.7,1.3-12.5,8.8-14.2c21.5,0,43,0.1,64.6,0.1
		C156.5,353.1,157.7,355.1,157.8,365.7z"/>
	<path class="st0" d="M249.3,330.5c-19.9,0-39.7,0-59.6-0.1c0.1-2.6,0.3-5.3,0.4-7.9c0.2-6.4,3.5-9.7,10-9.8
		c12.9-0.1,25.9-0.1,38.8,0c6.4,0,9.8,3.5,10,9.8C248.9,325.2,249.1,327.9,249.3,330.5z"/>
	<path class="st3" d="M416,933.8c0-33.2,0-66.3,0.1-99.5c4.7,0.3,9.6,0.4,11,6.4c-1.2,1.3-0.8,2.8-0.8,4.3c0,25.8,0,51.7,0,77.5
		c0,1.5-0.3,3,0.9,4.3C425.9,932.9,420.9,933.2,416,933.8z"/>
	<path class="st2" d="M294.6,352.8c22.9,0,45.7,0,68.6,0c0,4.3-0.1,8.6-0.1,12.9c-22.8,0-45.6,0-68.4,0
		C294.7,361.3,294.7,357,294.6,352.8z"/>
	<path class="st2" d="M363.1,311.7c-22.8,0-45.6,0-68.4,0c0-3,0-5.9,0.1-8.9c22.8,0,45.6,0,68.3,0
		C363.1,305.7,363.1,308.7,363.1,311.7z"/>
	<path class="st1" d="M426.1,680.9c-0.1-48.2-0.1-96.4-0.2-144.6c0-1.2,0.6-1.3,1.3-1.7c1.1,1.5,0.6,3.2,0.6,4.8
		c0,44.3,0,88.6,0,132.9C427.8,675.3,428.4,678.4,426.1,680.9z"/>
	<path class="st1" d="M427.1,877c-1.2-1.2-0.9-2.8-0.9-4.3c0-25.8,0-51.7,0-77.5c0-1.5-0.3-3,0.8-4.3c1,1.3,0.7,2.9,0.7,4.3
		c0,26,0,51.9,0,77.9C427.8,874.5,428.1,875.9,427.1,877z"/>
	<path class="st5" d="M22.9,419c0,82,0,164,0,246.1c-9.9-1.5-11.7-3.7-11.7-14c-0.1-10.1-0.2-20.1-0.3-30.2c0-16,0.1-32.1,0.1-48.1
		c0-8,0-16.1,0-24.1c-0.1-32.7-0.1-65.5-0.2-98.2c0.1-6.1,0.3-12.3,0.3-18.4C11.3,422.5,13.5,420,22.9,419z"/>
	<path class="st5" d="M22.9,834.1c0,33.3,0,66.6,0,99.9c-10.6-2-11.7-3.4-11.7-14.6c0-23.8,0-47.7,0-71.5
		C11.2,837.1,12.5,835.6,22.9,834.1z"/>
	<path class="st4" d="M218.8,602.7c-43.2,0-86.3-0.2-129.5,0.1c-13.8,0.1-24.7-9-24.5-24.5c0.4-40,0.4-80,0-120
		c-0.1-13.8,10.5-23.7,23.8-23.6c87.3,0.2,174.6,0.2,261.9,0c12.2,0,23.8,10,23.6,23.5c-0.5,40.1-0.4,80.3,0,120.5
		c0.1,12.1-8.2,24.3-24.4,24.2C306.1,602.5,262.5,602.7,218.8,602.7z M220,458.8c-42,0-83.9,0.1-125.9-0.1c-4.2,0-5.3,1.2-5.3,5.3
		c0.1,36.3,0.2,72.6,0,108.9c0,4.5,1.1,5.9,5.8,5.9c83.4-0.1,166.9-0.1,250.3,0c4.2,0,5.3-1.2,5.2-5.3c-0.2-36.5-0.2-73,0-109.4
		c0-4.7-1.6-5.4-5.7-5.4C302.9,458.8,261.5,458.7,220,458.8z"/>
	<path class="st3" d="M256.1,746.7c-33.1,0-66.3,0-99.4,0c-2.9,0-5.7-0.2-7.7-2.6c-3.3-4-1-10.2,4.2-11.2c1.4-0.3,3-0.1,4.5-0.1
		c65.4,0,130.9,0,196.3,0c2.1,0,4.4-0.6,6.3,0.8c2.8,2,4.8,4.6,3.4,8.1c-1.3,3.3-3.8,5.1-7.7,5.1c-27.3-0.1-54.6-0.1-81.9-0.1
		C268.1,746.7,262.1,746.7,256.1,746.7z"/>
	<path class="st3" d="M255.5,677.7c33.5,0,66.9,0,100.4-0.1c4,0,6.3,1.7,7.6,5.1c1.3,3.4-0.6,5.7-3,7.8c-1.9,1.6-4.1,1-6.2,1
		c-53.8,0-107.6,0-161.3,0c-12.2,0-24.3,0-36.5,0c-6.3,0-8.6-1.9-8.6-7c0-5,2.3-6.9,8.7-6.9C189.6,677.7,222.5,677.7,255.5,677.7z"
		/>
	<path class="st2" d="M256,705.7c33.1,0,66.3,0,99.4,0c5.8,0,8.6,2.1,8.6,6.5c0,4.4-2.8,6.5-8.7,6.5c-66.4,0-132.9,0-199.3,0
		c-6.1,0-8.7-2.6-8-7.9c0.6-4.6,3.8-5.2,7.6-5.2C189.1,705.7,222.5,705.7,256,705.7z"/>
	<path class="st2" d="M256,663.7c-33.5,0-66.9,0-100.4,0c-6,0-8.3-2.4-7.7-7.6c0.4-3.2,2.3-5.1,5.5-5.4c1-0.1,2,0,3,0
		c66.1,0,132.2,0,198.3,0c2.3,0,4.7-0.3,6.7,1.3c2.3,1.9,3.1,4.3,2.2,7.1c-1.1,3.6-3.6,4.7-7.2,4.7C323,663.7,289.5,663.7,256,663.7
		z"/>
	<path class="st6" d="M105.1,703.9c-15.2-0.1-26.6-11.8-26.4-27.2c0.2-14.8,12.1-26.3,27.1-26.2c14.7,0.1,26.4,12.2,26.3,27
		C131.9,692.4,120,704,105.1,703.9z"/>
	<path class="st2" d="M285.7,773.7c-23.2,0-46.3,0-69.5,0c-5.5,0-8.1-2-8.3-6.3c-0.1-4.5,2.7-6.7,8.5-6.7c46.3,0,92.6,0,138.9,0
		c6.4,0,9.8,3.7,8.2,8.7c-1.2,3.6-3.8,4.5-7.4,4.4C332.7,773.7,309.2,773.7,285.7,773.7z"/>
	<path class="st7" d="M158.7,857.8c-5,0-10,0.1-15,0c-5.3-0.1-8.1-2.6-8.3-7.9c-0.2-7.5-0.2-15,0-22.5c0.2-5.4,3.1-8.2,8.6-8.3
		c10-0.2,20-0.2,30,0c5.4,0.1,8,2.5,8.3,7.9c0.4,7.6,0.5,15.3,0.3,23c-0.1,5.2-3.1,7.8-8.4,7.9C169,857.9,163.8,857.8,158.7,857.8z"
		/>
	<path class="st7" d="M99,762.8c4.8,0,9.6-0.1,14.5,0c5.5,0.1,8.4,2.8,8.5,8.2c0.1,7.5,0.1,15,0,22.4c-0.1,5.2-2.9,8.1-8.1,8.2
		c-10.3,0.1-20.6,0.2-30.9,0c-5.1-0.1-7.9-3-8-8.2c-0.1-7.5-0.1-15,0-22.4c0.1-5.4,3-8.1,8.5-8.2C88.7,762.7,93.9,762.7,99,762.8
		C99,762.7,99,762.8,99,762.8z"/>
	<path class="st6" d="M158.9,904.8c-5,0-10,0.1-15,0c-5.4-0.1-8.3-2.4-8.5-7.7c-0.3-7.7-0.3-15.3,0-23c0.2-5.2,3.1-8,8.3-8.1
		c10.2-0.2,20.3-0.2,30.5,0c5.6,0.1,8,3,8,8.6c0.1,7.2,0.2,14.3,0.2,21.5c0,5.6-2.8,8.5-8.6,8.6
		C168.9,904.9,163.9,904.8,158.9,904.8z"/>
	<path class="st7" d="M98.2,857.8c-4.8,0-9.7,0-14.5,0c-6.1-0.1-8.7-2.7-8.7-8.9c-0.1-7-0.1-14,0-21c0.1-5.7,2.4-8.6,8-8.8
		c10.5-0.3,21-0.3,31.5,0c4.9,0.1,7.4,3.2,7.5,8.3c0.1,7.3,0.1,14.7,0,22c-0.1,5.7-2.9,8.4-8.7,8.4
		C108.2,857.9,103.2,857.8,98.2,857.8z"/>
	<path class="st7" d="M219.4,857.8c-4.8,0-9.6,0-14.5,0c-6.3-0.1-8.9-2.6-8.9-8.7c-0.1-7.1-0.1-14.3,0-21.4c0.1-5.5,2.7-8.6,8.1-8.7
		c10.3-0.2,20.6-0.2,30.9,0c5,0.1,7.9,3.3,7.9,8.3c0.1,7.3,0.1,14.6,0,21.9c-0.1,5.9-2.7,8.4-8.6,8.5
		C229.3,857.9,224.4,857.8,219.4,857.8z"/>
	<path class="st6" d="M279.8,904.8c-5,0-10,0.1-15,0c-5.4-0.1-8.2-2.5-8.4-7.7c-0.3-7.7-0.3-15.3,0-23c0.2-5.1,3.2-7.9,8.4-8
		c10.2-0.2,20.3-0.2,30.5,0c5.4,0.1,7.9,2.9,8,8.2c0.1,7.5,0.1,15,0,22.5c-0.1,5.5-2.6,7.9-8,8C290.1,904.9,284.9,904.8,279.8,904.8
		z"/>
	<path class="st7" d="M279.5,857.8c-4.8,0-9.7,0.1-14.5,0c-5.6-0.1-8.5-2.6-8.7-8.1c-0.2-7.5-0.2-15,0-22.5c0.1-5,3-8.1,8.2-8.2
		c10.3-0.2,20.7-0.2,31,0c5.2,0.1,7.6,3,7.7,8.5c0.1,7.3,0.1,14.7,0,22c-0.1,5.8-2.5,8.2-8.2,8.3
		C289.8,857.9,284.7,857.8,279.5,857.8z"/>
	<path class="st7" d="M340.2,857.8c-4.8,0-9.7,0.1-14.5,0c-6-0.1-8.6-2.6-8.7-8.4c-0.1-7.3,0-14.7,0-22c0-4.7,2.2-8,6.9-8.1
		c11-0.3,22-0.4,32.9,0c4.6,0.1,7.1,3.3,7.1,8.1c0,7.3,0.1,14.7,0,22c-0.1,5.8-2.8,8.3-8.7,8.5c-0.2,0-0.3,0-0.5,0
		C349.9,857.8,345,857.8,340.2,857.8z"/>
	<path class="st6" d="M158.9,762.7c5,0,10-0.1,15,0c5.7,0.1,8.2,2.6,8.3,8.2c0.1,7.5,0.1,15,0,22.4c-0.1,5.2-2.8,8-8,8.1
		c-10.1,0.1-20.3,0.1-30.4,0c-5.4-0.1-7.9-2.7-8-8c-0.1-7.6-0.1-15.3,0-22.9c0.1-5.3,2.8-7.7,8.2-7.8
		C149,762.7,154,762.7,158.9,762.7z"/>
	<path class="st6" d="M340.5,904.8c-5.2,0-10.3,0.1-15.5,0c-5.3-0.1-8-2.8-8.1-8c-0.1-7.5-0.1-15,0-22.5c0.1-5.1,3-8.2,8.1-8.2
		c10.1,0,20.3,0.1,30.4,0.3c5.8,0.1,8.4,2.8,8.4,8.7c0.1,7,0.1,14,0,21c-0.1,6.1-2.7,8.7-8.9,8.7
		C350.2,904.9,345.3,904.9,340.5,904.8z"/>
	<path class="st6" d="M98.7,904.8c-5.2,0-10.3,0.1-15.5,0c-5.3-0.1-8.1-2.8-8.2-7.9c-0.1-7.5-0.1-15,0-22.5c0.1-5.4,2.6-8,8-8
		c10.3-0.1,20.6-0.1,31,0c5.3,0.1,7.9,2.7,8,8.1c0.1,7.3,0.1,14.6,0,22c-0.1,5.6-2.8,8.2-8.3,8.4c-0.2,0-0.3,0-0.5,0
		C108.3,904.8,103.5,904.8,98.7,904.8z"/>
	<path class="st6" d="M279.8,951.9c-4.8,0-9.7,0.1-14.5,0c-6-0.1-8.8-2.5-8.9-8.3c-0.2-7.3-0.2-14.6,0-22c0.2-5.6,3-8.1,8.5-8.2
		c10.2-0.1,20.3-0.1,30.5,0c5.5,0.1,7.8,2.4,7.9,8c0.1,7.5,0.1,15,0,22.5c-0.1,5.5-2.5,7.8-8,7.9C290.1,952,284.9,951.9,279.8,951.9
		z"/>
	<path class="st6" d="M159.3,913.4c5.2,0,10.3-0.1,15.5,0c5,0.1,7.4,2.5,7.5,7.4c0.2,7.8,0.2,15.6,0,23.5c-0.1,5.1-2.7,7.5-7.9,7.6
		c-10.1,0.1-20.3,0.1-30.4,0c-5.4,0-8.3-2.5-8.5-7.7c-0.3-7.6-0.3-15.3,0-23c0.2-5.3,3-7.7,8.4-7.8
		C148.9,913.3,154.1,913.4,159.3,913.4z"/>
	<path class="st6" d="M98.6,951.9c-5.2,0-10.3,0.1-15.5,0c-5.2-0.1-8-2.8-8.1-8c-0.1-7.5-0.1-15,0-22.5c0.1-5.3,2.7-7.9,8.1-8
		c10.3-0.1,20.6-0.1,30.9,0c5.3,0.1,7.8,2.7,7.9,8.2c0.1,7.3,0.1,14.6,0,22c-0.1,5.5-2.8,8.2-8.4,8.3
		C108.6,951.9,103.6,951.9,98.6,951.9C98.6,951.9,98.6,951.9,98.6,951.9z"/>
	<path class="st6" d="M219,904.8c-5,0-10,0.1-15,0c-5.3-0.1-8-2.8-8.1-8c-0.1-7.5-0.1-15,0-22.5c0.1-5.2,2.6-7.8,7.6-7.9
		c10.5-0.1,21-0.1,31.4,0c4.9,0,7.8,2.8,7.9,7.8c0.2,7.6,0.2,15.3,0,23c-0.1,4.9-3,7.6-7.9,7.7C229.7,904.9,224.4,904.8,219,904.8z"
		/>
	<path class="st6" d="M340.8,913.4c5,0,10-0.1,15,0c5.4,0.1,8,2.6,8.2,7.9c0.2,7.5,0.1,15,0,22.5c-0.1,5.2-2.9,8-8.1,8
		c-10.3,0.1-20.6,0.1-30.9,0c-5.2-0.1-7.8-2.9-7.9-8.2c-0.1-7.3-0.1-14.6,0-22c0.1-5.6,2.6-8.2,8.3-8.3
		C330.4,913.3,335.6,913.4,340.8,913.4z"/>
	<path class="st6" d="M219.3,913.4c5.2,0,10.3-0.1,15.5,0c5.3,0.1,8,2.8,8.1,8c0.1,7.5,0.2,15,0,22.4c-0.1,5.2-2.9,7.9-8.2,7.9
		c-10.3,0.1-20.6,0.1-30.9,0c-5-0.1-7.7-2.7-7.8-7.8c-0.2-7.6-0.1-15.3,0-22.9c0.1-5,2.8-7.6,7.8-7.7
		C209,913.3,214.2,913.4,219.3,913.4z"/>
	<path class="st8" d="M98,723.7c5,0,10-0.1,15,0c6.3,0.2,8.7,3.1,9.1,9.4c0.8,13.8-2.4,16-15.6,15.5c-7.5-0.2-15-0.2-22.4,0
		c-2.8,0.1-4.8-1-6.5-2.9c-3-3.4-3.7-15.3-0.9-18.9c1.7-2.3,4.1-3.2,7-3.1C88.4,723.8,93.2,723.7,98,723.7z"/>
	<path class="st3" d="M307,273.1c-0.1-12.6-0.4-25.3,3.9-37.4c0.3-0.9,0.6-1.9,1.1-2.8c0.9-1.7,1.9-3.4,4.1-2.9
		c2.3,0.6,2.3,2.8,1.9,4.6c-3.6,18.5-1.5,37.1-2,55.7c-0.1,3.4-1,6.3-4.8,6.3c-4.2,0-4.2-3.4-4.2-6.5C307,284.4,307,278.7,307,273.1
		z"/>
	<path class="st3" d="M351,273.6c0,5.3,0,10.7,0,16c0,3.2,0,6.9-4.5,6.9c-4.5,0.1-4.5-3.4-4.5-6.8c0-12-0.1-24,0-36
		c0-5.3-0.8-10.6-1.7-15.8c-0.2-1.3-0.3-2.6-0.3-4c-0.1-1.7-0.1-3.6,2-4.1c2.2-0.5,3.3,1.1,4,2.9c4,9.9,5,20.2,5,30.7
		C351,267,351,270.3,351,273.6z"/>
	<path class="st2" d="M325,264.2c0-8.5,0-17,0-25.4c0-0.8-0.2-1.8,0.1-2.5c1-2.6-0.6-7.3,4-7.4c4.4,0,2.7,4.2,3.1,6.6
		c1.9,12.4,0.5,24.9,0.9,37.3c0.2,6,0,12,0,17.9c0,2.9-0.4,5.7-3.9,5.8c-3.9,0.1-4.2-2.9-4.2-6C325,281.8,324.9,273,325,264.2
		C325,264.2,325,264.2,325,264.2z"/>
	<path class="st4" d="M368,274.1c0,5.7,0,11.3,0,17c0,3-0.8,5.6-4.3,5.4c-3.2-0.1-3.9-2.6-3.9-5.4c0-6.3-0.1-12.7,0-19
		c0.2-9.5-0.3-18.9-2.4-28.2c-0.4-1.7-0.5-2.9,1.3-3.7c1.8-0.9,2.9,0.3,3.7,1.6c3.3,4.9,5.4,10.3,5.5,16.3
		C368.1,263.5,368,268.8,368,274.1z"/>
	<path class="st2" d="M298,273.2c0,6,0,12,0,18c0,3-0.8,5.5-4.3,5.4c-3.2-0.1-3.8-2.6-3.8-5.4c0.1-11.7,0-23.3,0.1-35
		c0-5,2-9.4,4.6-13.5c0.8-1.3,1.9-3.2,3.8-2.6c2.2,0.8,1.8,3.1,1.4,4.8C297.4,254.2,298.2,263.7,298,273.2z"/>
	<path class="st3" d="M342,332c0-3.2,0-6.3,0-9.5c0-2.9,1.3-4.7,4.4-4.9c3-0.1,4.3,2.1,4.4,4.5c0.2,7,0.2,14,0,20.9
		c-0.1,2.7-2.4,4.1-4.8,4.2c-2.5,0.1-3.8-1.9-3.9-4.3C341.9,339.3,342.1,335.7,342,332C342,332,342,332,342,332z"/>
	<path class="st3" d="M307,332.1c0-3.3-0.1-6.7,0-10c0.1-2.7,1.5-4.3,4.3-4.5c2.8-0.2,4.3,1.7,4.3,3.9c0.3,7.3,0.3,14.6,0.1,21.9
		c-0.1,2.1-2,4.2-4.4,3.9c-2.5-0.2-4.1-2.2-4.3-4.8C306.9,339.1,307,335.6,307,332.1z"/>
	<path class="st2" d="M359.9,332.1c0-3.5,0-7,0-10.5c0-2.3,0.8-3.9,3.4-4c2.5-0.1,4.5,1.1,4.6,3.6c0.2,7.5,0.2,15,0.1,22.4
		c0,2.5-2,3.6-4,3.6c-2.1,0-3.9-1.2-4-3.6C359.9,339.8,360,336,359.9,332.1C360,332.1,359.9,332.1,359.9,332.1z"/>
	<path class="st4" d="M290,332c0-3.3-0.1-6.7,0-10c0.1-2.5,1.4-4.2,4-4.2c2.6-0.1,4,1.6,4.1,4.1c0.1,7.2,0.1,14.3,0,21.5
		c0,2.7-1.9,4-4.2,3.9c-2.3-0.1-3.9-1.6-3.9-4.3C290,339.3,290,335.6,290,332z"/>
	<path class="st4" d="M333,332.7c0,3.5,0,7,0,10.5c0,2.9-1.7,3.7-4.3,3.6c-2.4,0-3.8-1.1-3.8-3.6c0-7.2-0.1-14.3,0-21.5
		c0-2.5,1.6-4.1,4.2-4c2.3,0.1,3.7,1.6,3.8,3.9C333.1,325.3,333,329,333,332.7z"/>
	<path class="st9" d="M220,458.7c41.5,0,82.9,0.1,124.4-0.1c4.1,0,5.8,0.6,5.7,5.4c-0.2,36.5-0.2,73,0,109.4c0,4.1-1,5.3-5.2,5.3
		c-83.4-0.1-166.9-0.1-250.3,0c-4.7,0-5.8-1.4-5.8-5.9c0.2-36.3,0.2-72.6,0-108.9c0-4.1,1.1-5.4,5.3-5.3
		C136.1,458.8,178,458.8,220,458.7z M121.1,532.3c0-2.6,0-5.3,0-7.9c0-1.5-0.4-2.7-2.2-2.6c-1.5,0.1-1.9,1.2-1.9,2.4
		c0,5.3,0,10.6,0,15.8c0,1.5,0.5,2.7,2.2,2.6c1.5-0.1,1.9-1.2,1.9-2.4C121.1,537.6,121.1,534.9,121.1,532.3z M121.1,505.4
		c0-2.8,0-5.6,0-8.4c0-1.3-0.6-2.2-2.1-2.2c-1.5,0-2,1-2,2.3c0,5.4,0,10.9,0,16.3c0,1.3,0.5,2.2,2,2.2c1.5,0,2-1,2-2.3
		C121.1,510.7,121.1,508.1,121.1,505.4z M181.2,521.4c0,0,0,0.1,0,0.1c1.5,0,3,0,4.5,0c1.9,0,3.4-0.7,3.3-2.9
		c-0.1-2.2-1.8-2.5-3.6-2.5c-3.1,0.1-6.3,0.3-9.4,0.4c-1.4,0.1-2.7,0.2-2.9,2c-0.1,1.6,0.7,2.7,2.2,2.8
		C177.2,521.6,179.2,521.4,181.2,521.4z M284,507.7c-0.1,0-0.1,0-0.2,0c0-1.8,0.1-3.7,0-5.5c-0.1-1.5-1-2.5-2.6-2.5
		c-1.8,0-2.2,1.2-2.2,2.7c0,3.7,0,7.3,0,11c0,1.3,0.6,2.2,2.1,2.3c1.4,0,2.3-0.7,2.5-1.9C283.9,511.7,283.9,509.7,284,507.7z
		 M322.1,529.9c0-1.7,0-3.3,0-5c0-1.6-0.1-3.2-2.3-3.1c-1.9,0-2.6,1.3-2.6,3c-0.1,3.3-0.1,6.7,0,10c0,1.7,0.9,2.9,2.7,2.9
		c2.1,0,2.1-1.7,2.1-3.2C322.1,532.9,322.1,531.4,322.1,529.9z M322.1,508.1C322.1,508.1,322.1,508.1,322.1,508.1c0-1.8,0-3.6,0-5.4
		c0-1.4-0.2-2.7-2-2.9c-1.8-0.2-2.8,0.9-2.9,2.6c-0.1,3.6-0.1,7.2,0,10.8c0.1,1.5,1,2.4,2.6,2.4c1.7,0,2.2-1.2,2.2-2.7
		C322.1,511.3,322.1,509.7,322.1,508.1z M261.8,529.6C261.8,529.6,261.9,529.6,261.8,529.6c0.1-1.7,0.2-3.3,0.1-5
		c-0.1-1.7-0.8-2.9-2.7-2.8c-1.6,0.1-2.1,1.5-2.1,2.9c0,3.5,0,6.9,0,10.4c0,1.3,0.4,2.3,1.8,2.5c1.6,0.2,2.7-0.6,2.9-2.1
		C262,533.6,261.8,531.6,261.8,529.6z M147.5,521.7c1.9-0.1,3.9-0.1,5.8-0.4c1.3-0.2,2.4-1.2,2.2-2.8c-0.2-1.4-1.4-1.8-2.6-1.8
		c-2-0.1-4-0.3-5.9,0c-2.6,0.5-7.4-1.9-7.3,2.2C139.7,523.1,144.6,520.9,147.5,521.7z M160.9,508.4c0-2.1,0-3.7,0-5.4
		c0-1.6-0.4-3.1-2.3-3.2c-2.3-0.1-2.5,1.7-2.6,3.4c0,1.6-0.3,3.3,0,4.9c0.5,2.6-1.8,7.3,2.5,7.2
		C162.7,515.2,160.1,510.5,160.9,508.4z M261.9,508.2c0-2.1,0-3.7,0-5.4c0-1.6-0.7-3.1-2.5-3c-1.9,0-2.3,1.5-2.4,3.1
		c0,1.6-0.3,3.3,0,4.9c0.5,2.6-1.8,7.4,2.2,7.4C264,515.4,261,510.4,261.9,508.2z M283.9,529.8c0-1.7,0-3.3,0-5
		c-0.1-1.6-0.6-3.1-2.5-3c-1.7,0-2.2,1.3-2.3,2.8c0,3.5,0,7,0,10.5c0,1.5,0.8,2.6,2.5,2.5c1.6-0.1,2.2-1.3,2.3-2.8
		C283.9,533.2,283.8,531.5,283.9,529.8z M134.1,529.4c0,1.8,0,3.6,0,5.4c0,1.4,0.6,2.7,2.2,2.8c1.9,0.1,2.6-1.2,2.7-2.8
		c0-3.5,0-6.9,0-10.4c0-1.5-0.8-2.6-2.4-2.6c-1.6,0-2.3,1.1-2.4,2.6C134,526.1,134.1,527.7,134.1,529.4z M146.4,542.8
		c2.1,0,3.7,0,5.4,0c1.6,0,3.8,0.1,3.7-2.2c-0.1-2.3-2.3-1.9-3.9-2c-1.7-0.1-3.4-0.3-5,0c-2.5,0.5-7-1.8-6.9,2.1
		C139.8,544.6,144.4,541.9,146.4,542.8z M300,529.7c0-1.8,0-3.7,0-5.5c0-1.3-0.4-2.3-1.9-2.4c-1.5-0.1-2.1,0.9-2.1,2.2
		c-0.1,3.8-0.1,7.7,0,11.5c0,1.3,0.7,2.2,2.2,2.1c1.5-0.1,1.9-1.1,1.9-2.4C300,533.4,300,531.5,300,529.7z M244,529.7
		c0-1.8,0-3.7,0-5.5c0-1.3-0.4-2.3-1.9-2.4c-1.5-0.1-2.1,0.9-2.1,2.2c-0.1,3.8-0.1,7.7,0,11.5c0,1.3,0.7,2.3,2.1,2.2
		c1.5-0.1,1.9-1.1,1.9-2.4C244,533.4,244,531.6,244,529.7z M222.1,530.5c0-2.3,0-4.1,0-5.9c0-1.4-0.2-2.8-2.1-2.8
		c-1.8,0-2.1,1.3-2.1,2.8c0,1.8-0.4,3.7,0.1,5.5c0.6,2.5-2.1,7.3,2.2,7.2C224,537.2,221.1,532.5,222.1,530.5z M194,529.9
		c0-1.7,0-3.3,0-5c0-1.5,0-3.2-2.2-3.1c-1.9,0.1-1.9,1.5-1.9,2.9c0,3.3,0,6.7,0,10c0,1.4,0.2,2.8,2,2.9c2.2,0.1,2.2-1.6,2.2-3.2
		C194.1,532.9,194.1,531.4,194,529.9z M300,507.6c0-1.6,0-3.3,0-4.9c0-1.4-0.1-2.8-1.9-2.9c-1.8-0.1-2.2,1.1-2.2,2.6
		c0,3.6,0,7.2,0,10.9c0,1.3,0.4,2.3,1.9,2.4c1.8,0.1,2.2-1.1,2.2-2.6C300,511.2,300,509.4,300,507.6z M309.1,494.7
		C309.1,494.6,309.1,494.6,309.1,494.7c-1.8,0-3.6-0.1-5.4,0c-1.4,0-2.7,0.3-2.6,2.1c0,1.5,1,2,2.3,2c3.8,0,7.6,0,11.3,0
		c1.3,0,2.2-0.6,2.2-2.1c-0.1-1.5-1-2-2.3-2C312.8,494.6,310.9,494.7,309.1,494.7z M230.3,498.8c1.7,0,3.1,0.1,4.4,0
		c1.7-0.2,4.2,0.7,4.1-2.2c-0.1-2.5-2.3-1.9-3.8-2c-1.5-0.1-3.1-0.3-4.5,0c-2.5,0.6-7.1-1.8-7.1,1.9
		C223.4,500.9,228.3,497.8,230.3,498.8z M180,498.8c2.5,0,4.5,0,6.5,0c1.3,0,2.3-0.5,2.3-2c0-1.5-0.9-2.1-2.2-2.1
		c-2-0.1-4.1-0.4-6,0c-2.6,0.6-7.3-2.1-7.3,2.2C173.4,500.7,178.1,497.8,180,498.8z M146.2,498.8c2.7,0,4.8,0.1,6.9,0
		c1.3,0,2.3-0.6,2.3-2c0-1.5-1.1-2-2.3-2c-2.1-0.1-4.3-0.3-6.4,0c-2.5,0.4-7-1.8-7,2C139.8,500.7,144.4,497.9,146.2,498.8z
		 M308.9,542.8c1.8,0,3.7,0,5.5,0c1.3,0,2.4-0.4,2.5-1.9c0.1-1.8-1.1-2.2-2.6-2.2c-3.7,0-7.3,0-11,0c-1.3,0-2.3,0.6-2.2,2.1
		c0,1.5,1,2,2.3,2C305.2,542.8,307.1,542.8,308.9,542.8z M244,507.4C244,507.4,244,507.4,244,507.4c0-1.6,0-3.3,0-4.9
		c0-1.4-0.3-2.7-2.1-2.7c-1.8,0-2,1.4-2.1,2.7c0,3.6,0,7.2,0,10.9c0,1.3,0.6,2.2,2,2.2c1.5,0,2-1,2-2.2
		C244,511.4,244,509.4,244,507.4z M218,507.5c0,2,0,4,0,5.9c0,1.3,0.6,2.2,2.1,2.2c1.5,0,2-1,2-2.3c0-3.8,0-7.6,0-11.4
		c0-1.3-0.6-2.2-2.1-2.2c-1.5,0-2,1-2,2.3C217.9,503.9,218,505.7,218,507.5z M194,507.8C194,507.8,194,507.8,194,507.8
		c0-1.8,0.1-3.6,0-5.4c0-1.5-0.5-2.6-2.3-2.5c-1.5,0.1-1.8,1.2-1.9,2.4c0,3.8,0,7.6,0,11.3c0,1.3,0.8,2.2,2.2,2
		c1.1-0.1,1.8-0.8,1.8-1.9C194,511.7,194,509.7,194,507.8z M180.9,542.8c1.8,0,3.6,0,5.5,0c1.2,0,2.4-0.3,2.5-1.8
		c0.1-1.4-0.9-2.2-2.2-2.2c-3.8-0.1-7.6-0.1-11.4-0.1c-1.3,0-2.2,0.6-2.2,2.1c0.1,1.5,1.1,2,2.3,2
		C177.2,542.8,179,542.8,180.9,542.8z M231.1,542.8C231.1,542.8,231.1,542.8,231.1,542.8c1.7,0,3.3,0.1,5,0c1.4,0,2.8-0.2,2.7-2
		c-0.1-1.7-1.4-2.1-2.8-2.1c-3.5,0-6.9,0-10.4,0c-1.3,0-2.3,0.4-2.4,1.9c-0.1,1.8,1.1,2.2,2.6,2.3
		C227.5,542.8,229.3,542.8,231.1,542.8z M269.5,542.8c2.3,0,4.1,0,5.9,0c1.5,0,2.7-0.5,2.5-2.3c-0.1-1.5-1.2-1.8-2.5-1.8
		c-1.8,0-3.7-0.3-5.5,0c-2.6,0.5-7.3-2-7.3,2.2C262.8,544.5,267.5,542,269.5,542.8z M271,494.6c-2.1,0-3.7,0-5.4,0
		c-1.5,0-3.3,0.1-3.2,2.2c0.1,2,1.9,2,3.4,2c1.7,0,3.4,0.3,5,0c2.4-0.5,6.9,1.8,6.8-2.1C277.6,492.6,273,495.7,271,494.6z
		 M207.9,540.7c0-1.1-0.5-1.9-1.7-2c-1.3-0.1-2.2,0.5-2.3,1.9c0,1.1,0.5,1.9,1.7,2C207,542.8,207.8,542.2,207.9,540.7z"/>
	<path class="st2" d="M121.1,532.3c0,2.6,0,5.3,0,7.9c0,1.3-0.4,2.3-1.9,2.4c-1.8,0.1-2.2-1.1-2.2-2.6c0-5.3,0-10.6,0-15.8
		c0-1.3,0.4-2.3,1.9-2.4c1.8-0.1,2.2,1.1,2.2,2.6C121.1,527,121.1,529.6,121.1,532.3z"/>
	<path class="st2" d="M121.1,505.4c0,2.6,0,5.3,0,7.9c0,1.3-0.6,2.2-2,2.3c-1.5,0-2-0.9-2-2.2c0-5.4,0-10.9,0-16.3
		c0-1.3,0.5-2.3,2-2.3c1.5,0,2,0.9,2.1,2.2C121.1,499.8,121.1,502.6,121.1,505.4z"/>
	<path class="st5" d="M181.2,521.4c-2,0-4,0.2-5.9,0c-1.5-0.2-2.3-1.2-2.2-2.8c0.1-1.8,1.5-1.9,2.9-2c3.1-0.1,6.3-0.3,9.4-0.4
		c1.8-0.1,3.5,0.3,3.6,2.5c0.1,2.1-1.4,2.8-3.3,2.9c-1.5,0-3,0-4.5,0C181.2,521.5,181.2,521.5,181.2,521.4z"/>
	<path class="st5" d="M284,507.7c-0.1,2-0.1,4-0.3,6c-0.2,1.3-1.2,2-2.5,1.9c-1.5,0-2.1-0.9-2.1-2.3c0-3.7,0-7.3,0-11
		c0-1.5,0.4-2.7,2.2-2.7c1.6,0,2.5,1,2.6,2.5c0.1,1.8,0,3.7,0,5.5C283.9,507.7,283.9,507.7,284,507.7z"/>
	<path class="st5" d="M322.1,529.9c0,1.5,0,3,0,4.5c0,1.5,0,3.2-2.1,3.2c-1.8,0-2.7-1.2-2.7-2.9c-0.1-3.3-0.1-6.7,0-10
		c0-1.7,0.8-2.9,2.6-3c2.1,0,2.3,1.5,2.3,3.1C322.1,526.6,322.1,528.2,322.1,529.9z"/>
	<path class="st5" d="M322.1,508.1c0,1.6,0,3.3,0,4.9c0,1.5-0.4,2.6-2.2,2.7c-1.6,0-2.5-1-2.6-2.4c-0.1-3.6-0.1-7.2,0-10.8
		c0-1.7,1-2.8,2.9-2.6c1.7,0.1,2,1.5,2,2.9C322.1,504.4,322.1,506.2,322.1,508.1C322.1,508.1,322.1,508.1,322.1,508.1z"/>
	<path class="st5" d="M261.8,529.6c0,2,0.2,4-0.1,5.9c-0.2,1.5-1.3,2.3-2.9,2.1c-1.5-0.2-1.8-1.2-1.8-2.5c0-3.5,0-7,0-10.4
		c0-1.4,0.5-2.7,2.1-2.9c1.9-0.2,2.6,1.1,2.7,2.8C262,526.3,261.9,527.9,261.8,529.6C261.9,529.6,261.8,529.6,261.8,529.6z"/>
	<path class="st5" d="M147.5,521.7c-2.8-0.7-7.8,1.4-7.8-2.8c0-4.1,4.7-1.7,7.3-2.2c1.9-0.4,3.9-0.1,5.9,0c1.2,0,2.4,0.4,2.6,1.8
		c0.2,1.6-0.9,2.6-2.2,2.8C151.4,521.6,149.4,521.5,147.5,521.7z"/>
	<path class="st5" d="M160.9,508.4c-0.8,2.1,1.8,6.8-2.4,6.9c-4.3,0.1-2-4.6-2.5-7.2c-0.3-1.6-0.1-3.3,0-4.9c0-1.7,0.3-3.5,2.6-3.4
		c1.9,0.1,2.3,1.6,2.3,3.2C161,504.7,160.9,506.3,160.9,508.4z"/>
	<path class="st5" d="M261.9,508.2c-0.9,2.2,2.1,7.2-2.7,7.1c-4-0.1-1.7-4.8-2.2-7.4c-0.3-1.6-0.1-3.3,0-4.9c0-1.6,0.5-3.1,2.4-3.1
		c1.8,0,2.5,1.4,2.5,3C262,504.5,261.9,506.1,261.9,508.2z"/>
	<path class="st5" d="M283.8,529.8c0,1.7,0,3.3,0,5c0,1.5-0.7,2.7-2.3,2.8c-1.6,0.1-2.4-1-2.5-2.5c-0.1-3.5-0.1-7,0-10.5
		c0-1.5,0.6-2.7,2.3-2.8c1.9,0,2.5,1.4,2.5,3C283.9,526.5,283.9,528.2,283.8,529.8z"/>
	<path class="st5" d="M134.1,529.4c0-1.6-0.1-3.3,0-4.9c0.1-1.5,0.8-2.6,2.4-2.6c1.6,0,2.4,1.1,2.4,2.6c0.1,3.5,0.1,6.9,0,10.4
		c0,1.7-0.8,2.9-2.7,2.8c-1.6-0.1-2.2-1.3-2.2-2.8C134,533,134.1,531.2,134.1,529.4z"/>
	<path class="st2" d="M146.4,542.8c-2-0.9-6.6,1.8-6.7-2c-0.1-3.9,4.4-1.7,6.9-2.1c1.6-0.3,3.3-0.1,5,0c1.6,0.1,3.8-0.3,3.9,2
		c0.1,2.3-2,2.2-3.7,2.2C150.2,542.8,148.5,542.8,146.4,542.8z"/>
	<path class="st4" d="M300,529.7c0,1.8,0,3.7,0,5.5c0,1.3-0.4,2.3-1.9,2.4c-1.5,0.1-2.1-0.8-2.2-2.1c0-3.8,0-7.7,0-11.5
		c0-1.3,0.6-2.3,2.1-2.2c1.5,0.1,1.9,1.1,1.9,2.4C300,526,300,527.9,300,529.7z"/>
	<path class="st2" d="M244,529.7c0,1.8,0,3.7,0,5.5c0,1.3-0.5,2.3-1.9,2.4c-1.5,0.1-2.1-0.8-2.1-2.2c0-3.8,0-7.7,0-11.5
		c0-1.3,0.6-2.3,2.1-2.2c1.5,0.1,1.9,1.1,1.9,2.4C244,526.1,244,527.9,244,529.7z"/>
	<path class="st4" d="M222.1,530.5c-1,2,1.9,6.7-1.9,6.7c-4.4,0.1-1.6-4.7-2.2-7.2c-0.4-1.7-0.1-3.6-0.1-5.5c0-1.4,0.3-2.8,2.1-2.8
		c1.8,0,2,1.4,2.1,2.8C222.1,526.4,222.1,528.3,222.1,530.5z"/>
	<path class="st4" d="M194.1,529.9c0,1.5,0,3,0,4.5c0,1.5,0,3.2-2.2,3.2c-1.8-0.1-2-1.5-2-2.9c0-3.3,0-6.7,0-10
		c0-1.4,0.1-2.8,1.9-2.9c2.2-0.1,2.2,1.6,2.2,3.1C194.1,526.6,194,528.3,194.1,529.9z"/>
	<path class="st2" d="M300,507.6c0,1.8,0,3.6,0,5.4c0,1.5-0.4,2.7-2.2,2.6c-1.5-0.1-1.9-1.1-1.9-2.4c0-3.6,0-7.2,0-10.9
		c0-1.5,0.4-2.7,2.2-2.6c1.8,0.1,1.9,1.5,1.9,2.9C300.1,504.3,300,506,300,507.6z"/>
	<path class="st4" d="M309.1,494.7c1.8,0,3.6,0,5.4,0c1.3,0,2.2,0.5,2.3,2c0.1,1.5-0.9,2.1-2.2,2.1c-3.8,0-7.6,0-11.3,0
		c-1.3,0-2.3-0.5-2.3-2c0-1.8,1.2-2.1,2.6-2.1C305.5,494.6,307.3,494.6,309.1,494.7C309.1,494.6,309.1,494.6,309.1,494.7z"/>
	<path class="st4" d="M230.3,498.8c-2.1-1-6.9,2.1-6.9-2.2c0-3.7,4.6-1.3,7.1-1.9c1.4-0.3,3-0.1,4.5,0c1.5,0.1,3.8-0.5,3.8,2
		c0.1,2.9-2.4,2-4.1,2.2C233.4,498.9,232.1,498.8,230.3,498.8z"/>
	<path class="st4" d="M180,498.8c-1.9-0.9-6.6,1.9-6.6-1.9c0-4.3,4.7-1.6,7.3-2.2c1.9-0.4,4-0.1,6,0c1.3,0,2.3,0.6,2.2,2.1
		c0,1.5-1,2-2.3,2C184.5,498.8,182.5,498.8,180,498.8z"/>
	<path class="st4" d="M146.2,498.8c-1.9-0.9-6.5,1.9-6.5-2c0-3.8,4.5-1.6,7-2c2.1-0.3,4.3-0.1,6.4,0c1.2,0,2.3,0.6,2.3,2
		c0,1.4-1.1,2-2.3,2C151,498.8,148.9,498.8,146.2,498.8z"/>
	<path class="st2" d="M308.9,542.8c-1.8,0-3.7,0-5.5,0c-1.3,0-2.3-0.5-2.3-2c0-1.5,0.9-2.1,2.2-2.1c3.7,0,7.3,0,11,0
		c1.5,0,2.7,0.4,2.6,2.2c-0.1,1.5-1.2,1.9-2.5,1.9C312.5,542.8,310.7,542.8,308.9,542.8z"/>
	<path class="st4" d="M244,507.4c0,2,0,4,0,5.9c0,1.3-0.5,2.2-2,2.2c-1.5,0-2-0.9-2-2.2c-0.1-3.6-0.1-7.2,0-10.9
		c0-1.4,0.2-2.7,2.1-2.7c1.8,0,2.1,1.3,2.1,2.7C244.1,504.1,244,505.8,244,507.4C244,507.4,244,507.4,244,507.4z"/>
	<path class="st2" d="M218,507.5c0-1.8,0-3.6,0-5.4c0-1.3,0.5-2.3,2-2.3c1.5,0,2.1,0.9,2.1,2.2c0,3.8,0,7.6,0,11.4
		c0,1.3-0.5,2.3-2,2.3c-1.5,0-2.1-0.9-2.1-2.2C217.9,511.5,218,509.5,218,507.5z"/>
	<path class="st4" d="M194,507.8c0,2,0,3.9,0,5.9c0,1.1-0.7,1.8-1.8,1.9c-1.4,0.1-2.2-0.7-2.2-2c-0.1-3.8,0-7.6,0-11.3
		c0-1.2,0.4-2.3,1.9-2.4c1.8-0.1,2.2,1,2.3,2.5C194,504.1,194,505.9,194,507.8C194,507.8,194,507.8,194,507.8z"/>
	<path class="st2" d="M180.9,542.8c-1.8,0-3.6,0-5.5,0c-1.3,0-2.3-0.5-2.3-2c-0.1-1.5,0.9-2.1,2.2-2.1c3.8,0,7.6,0,11.4,0.1
		c1.3,0,2.2,0.8,2.2,2.2c-0.1,1.5-1.3,1.8-2.5,1.8C184.5,542.8,182.7,542.8,180.9,542.8z"/>
	<path class="st2" d="M231.1,542.8c-1.8,0-3.6,0-5.5,0c-1.5,0-2.7-0.5-2.6-2.3c0.1-1.5,1.2-1.9,2.4-1.9c3.5,0,6.9,0,10.4,0
		c1.4,0,2.7,0.4,2.8,2.1c0.1,1.9-1.4,2-2.7,2C234.4,542.9,232.7,542.8,231.1,542.8C231.1,542.8,231.1,542.8,231.1,542.8z"/>
	<path class="st2" d="M269.5,542.8c-2-0.8-6.7,1.7-6.8-1.9c-0.1-4.2,4.7-1.7,7.3-2.2c1.8-0.4,3.6-0.1,5.5,0c1.3,0,2.4,0.3,2.5,1.8
		c0.1,1.8-1,2.3-2.5,2.3C273.6,542.8,271.8,542.8,269.5,542.8z"/>
	<path class="st2" d="M271,494.6c1.9,1,6.5-2,6.6,2c0.1,3.9-4.4,1.6-6.8,2.1c-1.6,0.3-3.3,0.1-5,0c-1.5,0-3.3,0-3.4-2
		c-0.1-2.1,1.7-2.1,3.2-2.2C267.3,494.6,269,494.6,271,494.6z"/>
	<path class="st5" d="M207.9,540.8c-0.1,1.4-0.9,2.1-2.3,1.9c-1.1-0.1-1.7-0.9-1.7-2c0-1.4,0.9-2,2.3-1.9
		C207.4,538.9,207.9,539.6,207.9,540.8z"/>
</g>
</svg>
