<?xml version="1.0" encoding="utf-8"?>
<!-- Generator: Adobe Illustrator 19.0.0, SVG Export Plug-In . SVG Version: 6.00 Build 0)  -->
<svg version="1.1" id="container" xmlns="http://www.w3.org/2000/svg" xmlns:xlink="http://www.w3.org/1999/xlink" x="0px" y="0px"
	 viewBox="0 0 841.9 15.2" style="enable-background:new 0 0 841.9 15.2;" xml:space="preserve">
<style type="text/css">
	.st0{fill:none;stroke:#000000;stroke-miterlimit:10;}
</style>
<path id="ground_1_" class="st0" d="M841.9,9.5c-15.4-0.3-31.3-2.2-46.4-3.4c-16.8,0-39.7-4.5-56.5-4.5c-16.8-1.5-33.6,6-51.9,6
	c-30.5,1.5-64.1,6-96.1,4.5c-67.2-6-137.4-7.5-204.5-7.5c-15.3,0-27.5-3-44.3-4.5c-18.3-1.5-32,7.5-48.8,9
	c-39.7,4.5-76.3-1.5-112.9,0c-19.8,0-42.7,6-61,6c-7.6-1.5-13.7-9-22.9-9c-10.7,0-18.3,7.5-27.5,7.5c-9.2-1.5-16.8-9-25.9-9
	c-10.7,0-18.3,7.5-29,9C9.5,14.4,4.8,13.3,0,12.3"/>
</svg>
