<svg xmlns="http://www.w3.org/2000/svg" xmlns:xlink="http://www.w3.org/1999/xlink" viewBox="0 0 558.52 566.23"><defs><style>.cls-1{mask:url(#mask);}.cls-117,.cls-119,.cls-2,.cls-4{mix-blend-mode:multiply;}.cls-2{fill:url(#radial-gradient);}.cls-3{mask:url(#mask-2);}.cls-4{fill:url(#radial-gradient-2);}.cls-5{fill:none;}.cls-6{isolation:isolate;}.cls-7{clip-path:url(#clip-path);}.cls-8{fill:#b8982b;}.cls-10,.cls-100,.cls-101,.cls-102,.cls-103,.cls-104,.cls-105,.cls-106,.cls-107,.cls-108,.cls-109,.cls-11,.cls-110,.cls-111,.cls-112,.cls-113,.cls-114,.cls-115,.cls-12,.cls-13,.cls-14,.cls-15,.cls-16,.cls-17,.cls-18,.cls-19,.cls-20,.cls-21,.cls-22,.cls-23,.cls-24,.cls-25,.cls-26,.cls-27,.cls-28,.cls-29,.cls-30,.cls-31,.cls-32,.cls-33,.cls-34,.cls-35,.cls-36,.cls-37,.cls-38,.cls-39,.cls-40,.cls-41,.cls-42,.cls-43,.cls-44,.cls-45,.cls-46,.cls-47,.cls-48,.cls-49,.cls-50,.cls-51,.cls-52,.cls-53,.cls-54,.cls-55,.cls-56,.cls-57,.cls-58,.cls-59,.cls-60,.cls-61,.cls-62,.cls-63,.cls-64,.cls-65,.cls-66,.cls-67,.cls-68,.cls-69,.cls-70,.cls-71,.cls-72,.cls-73,.cls-74,.cls-75,.cls-76,.cls-77,.cls-78,.cls-79,.cls-8,.cls-80,.cls-81,.cls-82,.cls-83,.cls-84,.cls-85,.cls-86,.cls-87,.cls-88,.cls-89,.cls-9,.cls-90,.cls-91,.cls-92,.cls-93,.cls-94,.cls-95,.cls-96,.cls-97,.cls-98,.cls-99{fill-rule:evenodd;}.cls-9{fill:#b9982a;}.cls-10{fill:#b9992a;}.cls-11{fill:#ba992a;}.cls-12{fill:#bb9a2a;}.cls-13{fill:#bc9a29;}.cls-14{fill:#bc9b29;}.cls-15{fill:#bd9c28;}.cls-16{fill:#be9c28;}.cls-17{fill:#bf9d28;}.cls-18{fill:#c09d27;}.cls-19{fill:#c09e27;}.cls-20{fill:#c19f26;}.cls-21{fill:#c29f26;}.cls-22{fill:#c3a026;}.cls-23{fill:#c4a125;}.cls-24{fill:#c5a125;}.cls-25{fill:#c5a224;}.cls-26{fill:#c6a324;}.cls-27{fill:#c7a323;}.cls-28{fill:#c8a423;}.cls-29{fill:#c8a522;}.cls-30{fill:#c9a522;}.cls-31{fill:#c9a521;}.cls-32{fill:#caa621;}.cls-33{fill:#cba621;}.cls-34{fill:#cba720;}.cls-35{fill:#cca720;}.cls-36{fill:#cca81f;}.cls-37{fill:#cda81f;}.cls-38{fill:#cda91f;}.cls-39{fill:#cea91e;}.cls-40{fill:#cfa91e;}.cls-41{fill:#cfaa1e;}.cls-42{fill:#d0aa1d;}.cls-43{fill:#d0ab1d;}.cls-44{fill:#d1ab1c;}.cls-45{fill:#d1ac1c;}.cls-46{fill:#d2ac1c;}.cls-47{fill:#d3ad1b;}.cls-48{fill:#d4ad1a;}.cls-49{fill:#d4ae1a;}.cls-50{fill:#d4ae19;}.cls-51{fill:#d5af18;}.cls-52{fill:#d6af18;}.cls-53{fill:#d6b017;}.cls-54{fill:#d7b017;}.cls-55{fill:#d8b016;}.cls-56{fill:#d8b116;}.cls-57{fill:#d8b115;}.cls-58{fill:#d9b214;}.cls-59{fill:#dab214;}.cls-60{fill:#dab313;}.cls-61{fill:#dbb313;}.cls-62{fill:#dcb411;}.cls-63{fill:#dcb510;}.cls-64{fill:#ddb50f;}.cls-65{fill:#deb60e;}.cls-66{fill:#dfb60d;}.cls-67{fill:#dfb70d;}.cls-68{fill:#e0b70c;}.cls-69{fill:#e0b80c;}.cls-70{fill:#e0b80b;}.cls-71{fill:#e1b90b;}.cls-72{fill:#e2b90a;}.cls-73{fill:#e3ba0a;}.cls-74{fill:#e3ba09;}.cls-75{fill:#e4bb09;}.cls-76{fill:#e4bc08;}.cls-77{fill:#e5bc08;}.cls-78{fill:#e5bd07;}.cls-79{fill:#e6bd07;}.cls-80{fill:#e7bd07;}.cls-81{fill:#e7be06;}.cls-82{fill:#e8be06;}.cls-83{fill:#e8bf06;}.cls-84{fill:#e8bf05;}.cls-85{fill:#e9bf05;}.cls-86{fill:#e9c005;}.cls-87{fill:#eac004;}.cls-88{fill:#ebc103;}.cls-89{fill:#ecc102;}.cls-90{fill:#ecc202;}.cls-91{fill:#ecc201;}.cls-92{fill:#edc201;}.cls-93{fill:#edc301;}.cls-94{fill:#eec300;}.cls-95{fill:#efc400;}.cls-96{fill:#f0c500;}.cls-97{fill:#f1c600;}.cls-98{fill:#f2c700;}.cls-99{fill:#f3c700;}.cls-100{fill:#f3c800;}.cls-101{fill:#f4c900;}.cls-102{fill:#f5ca00;}.cls-103{fill:#f6ca00;}.cls-104{fill:#f7cb00;}.cls-105{fill:#f7cc00;}.cls-106,.cls-120{fill:#f8cc00;}.cls-107{fill:#f8cd00;}.cls-108{fill:#f9cd00;}.cls-109{fill:#face00;}.cls-110{fill:#fbcf00;}.cls-111{fill:#fccf00;}.cls-112{fill:#fcd000;}.cls-113{fill:#fcd100;}.cls-114{fill:#fdd100;}.cls-115{fill:#332c2b;}.cls-116{mask:url(#mask-3);}.cls-117{fill:url(#radial-gradient-3);}.cls-118{mask:url(#mask-4);}.cls-119{fill:url(#radial-gradient-4);}.cls-121,.cls-124{mix-blend-mode:color-dodge;}.cls-122{fill:url(#radial-gradient-5);}.cls-123{fill:#010002;}.cls-124{fill:url(#radial-gradient-6);}.cls-125{fill:url(#linear-gradient);}.cls-126{font-size:22.51px;font-family:PTSans-Bold, PT Sans;font-weight:700;}.cls-127{font-size:6px;font-family:PTSans-Regular, PT Sans;}.cls-128{letter-spacing:-0.03em;}.cls-129{letter-spacing:-0.03em;}.cls-130{filter:url(#luminosity-noclip-4);}.cls-131{filter:url(#luminosity-noclip-3);}.cls-132{filter:url(#luminosity-noclip-2);}.cls-133{filter:url(#luminosity-noclip);}</style><filter id="luminosity-noclip" x="102.79" y="-8683.86" width="65.91" height="32766" filterUnits="userSpaceOnUse" color-interpolation-filters="sRGB"><feFlood flood-color="#fff" result="bg"/><feBlend in="SourceGraphic" in2="bg"/></filter><mask id="mask" x="102.79" y="-8683.86" width="65.91" height="32766" maskUnits="userSpaceOnUse"><g class="cls-133"/></mask><radialGradient id="radial-gradient" cx="2024.02" cy="8367.1" r="40.59" gradientTransform="matrix(0.81, -0.8, 0.1, 0.11, -2371.5, 839.66)" gradientUnits="userSpaceOnUse"><stop offset="0" stop-color="#fff"/><stop offset="0.11" stop-color="#e9e9e9"/><stop offset="0.35" stop-color="#b2b2b2"/><stop offset="0.69" stop-color="#595959"/><stop offset="1"/></radialGradient><filter id="luminosity-noclip-2" x="38.58" y="-8683.86" width="65.91" height="32766" filterUnits="userSpaceOnUse" color-interpolation-filters="sRGB"><feFlood flood-color="#fff" result="bg"/><feBlend in="SourceGraphic" in2="bg"/></filter><mask id="mask-2" x="38.58" y="-8683.86" width="65.91" height="32766" maskUnits="userSpaceOnUse"><g class="cls-132"/></mask><radialGradient id="radial-gradient-2" cx="2023.56" cy="7758.51" r="40.59" xlink:href="#radial-gradient"/><clipPath id="clip-path" transform="translate(217.91 174.35)"><rect class="cls-5" x="-131.1" y="106.49" width="396.85" height="28.09" transform="translate(-65.8 83.96) rotate(-45.45)"/></clipPath><filter id="luminosity-noclip-3" x="102.79" y="82.46" width="65.91" height="65.24" filterUnits="userSpaceOnUse" color-interpolation-filters="sRGB"><feFlood flood-color="#fff" result="bg"/><feBlend in="SourceGraphic" in2="bg"/></filter><mask id="mask-3" x="320.7" y="256.81" width="65.91" height="65.24" maskUnits="userSpaceOnUse"><g class="cls-131"><g transform="translate(217.91 174.35)"><g class="cls-1"><path class="cls-2" d="M168.42,82.75c-2.36-2.38-18.89,10.17-36.94,28S100.72,145,103.07,147.41s18.89-10.17,36.93-28S170.77,85.13,168.42,82.75Z"/></g></g></g></mask><radialGradient id="radial-gradient-3" cx="2024.02" cy="8367.1" r="40.59" gradientTransform="matrix(0.81, -0.8, 0.1, 0.11, -2371.5, 839.66)" gradientUnits="userSpaceOnUse"><stop offset="0" stop-color="#666"/><stop offset="0.19" stop-color="#7c7c7c"/><stop offset="0.59" stop-color="#b3b3b3"/><stop offset="1" stop-color="#f2f2f2"/></radialGradient><filter id="luminosity-noclip-4" x="38.58" y="18.25" width="65.91" height="65.24" filterUnits="userSpaceOnUse" color-interpolation-filters="sRGB"><feFlood flood-color="#fff" result="bg"/><feBlend in="SourceGraphic" in2="bg"/></filter><mask id="mask-4" x="256.49" y="192.6" width="65.91" height="65.24" maskUnits="userSpaceOnUse"><g class="cls-130"><g transform="translate(217.91 174.35)"><g class="cls-3"><path class="cls-4" d="M104.21,18.54c-2.35-2.37-18.89,10.17-36.94,28S36.51,80.83,38.86,83.2,57.75,73,75.79,55.18,106.56,20.92,104.21,18.54Z"/></g></g></g></mask><radialGradient id="radial-gradient-4" cx="2023.56" cy="7758.51" r="40.59" xlink:href="#radial-gradient-3"/><radialGradient id="radial-gradient-5" cx="103.61" cy="49.67" r="52.4" gradientUnits="userSpaceOnUse"><stop offset="0" stop-color="#f0f1f1"/><stop offset="1" stop-color="#fff" stop-opacity="0"/></radialGradient><radialGradient id="radial-gradient-6" cx="103.61" cy="82.12" r="59.25" xlink:href="#radial-gradient-5"/><linearGradient id="linear-gradient" x1="-27.06" y1="-54.53" x2="154.61" y2="127.14" gradientUnits="userSpaceOnUse"><stop offset="0" stop-color="#fff"/><stop offset="1" stop-color="#fff" stop-opacity="0"/></linearGradient></defs><title>under-construction</title><g class="cls-6"><g id="Layer_1" data-name="Layer 1"><g class="cls-7"><polygon class="cls-8" points="280.57 281.94 278.11 284.45 277.93 284.27 280.39 281.76 280.57 281.94"/><path class="cls-8" d="M62.23,108l-1.65,1.67-.12-.12,1.65-1.67Zm1.31-1.18L59.43,111l-.31-.29,4.12-4.19Z" transform="translate(217.91 174.35)"/><path class="cls-9" d="M63.12,107.21l-3.3,3.35-.24-.24,3.3-3.35ZM64.44,106l-5.77,5.86-.42-.42L64,105.62Z" transform="translate(217.91 174.35)"/><path class="cls-10" d="M64,106.44l-5,5-.37-.36,5-5Zm1.31-1.17L57.9,112.8l-.55-.54,7.42-7.53Z" transform="translate(217.91 174.35)"/><path class="cls-10" d="M64.88,105.67l-6.59,6.69-.48-.48,6.58-6.69Zm1.33-1.19-9.07,9.21-.66-.66,9.06-9.21Z" transform="translate(217.91 174.35)"/><path class="cls-11" d="M65.77,104.88l-8.23,8.36-.61-.59,8.24-8.37Zm1.32-1.17-10.7,10.87-.79-.78,10.7-10.87Z" transform="translate(217.91 174.35)"/><path class="cls-11" d="M66.65,104.11l-9.89,10-.72-.71,9.88-10ZM68,102.94,55.61,115.48l-.91-.89L67.05,102Z" transform="translate(217.91 174.35)"/><path class="cls-11" d="M67.54,103.32,56,115l-.85-.83,11.53-11.72Zm1.32-1.17-14,14.22-1-1,14-14.22Z" transform="translate(217.91 174.35)"/><path class="cls-12" d="M68.42,102.55,55.24,116l-1-1L67.45,101.6Zm1.31-1.17-15.65,15.9-1.15-1.13,15.65-15.9Z" transform="translate(217.91 174.35)"/><path class="cls-12" d="M69.27,101.77,54.48,116.84l-1.09-1.08L68.2,100.71Zm1.36-1.18-17.3,17.58-1.27-1.25,17.3-17.58Z" transform="translate(217.91 174.35)"/><path class="cls-12" d="M70.17,101,53.71,117.7l-1.2-1.17L69,99.8Zm1.33-1.16-19,19.26-1.39-1.38,19-19.25Z" transform="translate(217.91 174.35)"/><path class="cls-13" d="M71.05,100.21l-18.12,18.4-1.31-1.29,18.11-18.4Zm1.33-1.15L51.8,120l-1.52-1.49L70.87,97.56Z" transform="translate(217.91 174.35)"/><path class="cls-14" d="M71.94,99.42,52.18,119.5l-1.44-1.41L70.51,98Zm1.34-1.15L51,120.85l-1.63-1.61L71.64,96.66Z" transform="translate(217.91 174.35)"/><path class="cls-14" d="M72.82,98.65,51.4,120.41l-1.55-1.53L71.26,97.12Zm1.33-1.15L50.27,121.76,48.51,120,72.39,95.77Z" transform="translate(217.91 174.35)"/><path class="cls-14" d="M73.71,97.86,50.65,121.3,49,119.65,72,96.21Zm1.34-1.15L49.52,122.65l-1.88-1.85L73.17,94.86Z" transform="translate(217.91 174.35)"/><path class="cls-14" d="M74.59,97.09l-24.7,25.09-1.8-1.77,24.7-25.09Zm1.33-1.15L48.74,123.56l-2-2L73.92,94Z" transform="translate(217.91 174.35)"/><path class="cls-14" d="M75.47,96.33,49.12,123.09,47.2,121.2,73.55,94.44Zm1.33-1.16L48,124.44l-2.12-2.08L74.68,93.08Z" transform="translate(217.91 174.35)"/><path class="cls-15" d="M76.36,95.54,48.36,124l-2-2,28-28.44Zm1.34-1.16-30.47,31L45,123.15,75.47,92.2Z" transform="translate(217.91 174.35)"/><path class="cls-15" d="M77.24,94.77,47.59,124.89l-2.16-2.13L75.08,92.64Zm1.33-1.16L46.46,126.24l-2.35-2.31L76.23,91.31Z" transform="translate(217.91 174.35)"/><path class="cls-15" d="M78.13,94l-31.3,31.8-2.28-2.25,31.3-31.8Zm1.34-1.15L45.7,127.13l-2.46-2.43L77,90.4Z" transform="translate(217.91 174.35)"/><path class="cls-16" d="M79,93.21,46.06,126.68l-2.4-2.36L76.6,90.84Zm1.33-1.15L44.93,128l-2.59-2.55,35.42-36Z" transform="translate(217.91 174.35)"/><path class="cls-16" d="M79.88,92.44,45.31,127.57l-2.53-2.48L77.36,90Zm1.36-1.17L44.17,128.92l-2.7-2.66L78.53,88.6Z" transform="translate(217.91 174.35)"/><path class="cls-17" d="M80.78,91.65,44.55,128.46l-2.65-2.6L78.13,89.05Zm1.33-1.15L43.4,129.83l-2.83-2.78L79.29,87.72Z" transform="translate(217.91 174.35)"/><path class="cls-17" d="M81.66,90.88,43.78,129.37,41,126.64,78.89,88.16ZM83,89.73l-40.35,41-3-2.9L80,86.83Z" transform="translate(217.91 174.35)"/><path class="cls-17" d="M82.55,90.1,43,130.26l-2.89-2.85L79.66,87.25Zm1.34-1.16-42,42.67-3.07-3,42-42.67Z" transform="translate(217.91 174.35)"/><path class="cls-18" d="M83.43,89.33,42.25,131.17l-3-3L80.42,86.36Zm1.33-1.16L41.11,132.52l-3.19-3.14L81.57,85Z" transform="translate(217.91 174.35)"/><path class="cls-19" d="M84.32,88.54,41.49,132.05,38.36,129,81.19,85.46Zm1.34-1.16-45.3,46-3.31-3.26,45.29-46Z" transform="translate(217.91 174.35)"/><path class="cls-19" d="M85.2,87.77,40.74,132.94l-3.26-3.2L82,84.57Zm1.33-1.15L39.59,134.31l-3.44-3.38L83.1,83.24Z" transform="translate(217.91 174.35)"/><path class="cls-19" d="M86.08,87,40,133.85l-3.37-3.32L82.7,83.68Zm1.33-1.15L38.83,135.2l-3.55-3.5L83.85,82.35Z" transform="translate(217.91 174.35)"/><path class="cls-19" d="M87,86.21,39.21,134.74l-3.5-3.44L83.48,82.77Zm1.34-1.15-50.23,51-3.68-3.62,50.23-51Z" transform="translate(217.91 174.35)"/><path class="cls-19" d="M87.85,85.44,38.43,135.65l-3.61-3.56L84.23,81.88Zm1.33-1.15L37.3,137l-3.8-3.74L85.38,80.55Z" transform="translate(217.91 174.35)"/><path class="cls-20" d="M88.74,84.65,37.68,136.53l-3.74-3.68L85,81Zm1.34-1.15L36.55,137.88,32.63,134,86.16,79.64Z" transform="translate(217.91 174.35)"/><path class="cls-20" d="M89.62,83.89,36.9,137.44l-3.85-3.8L85.76,80.09ZM91,82.73,35.77,138.79l-4-4L86.91,78.76Z" transform="translate(217.91 174.35)"/><path class="cls-20" d="M90.49,83.12,36.15,138.33l-4-3.92L86.51,79.2Zm1.36-1.18L35,139.68l-4.16-4.1L87.69,77.85Z" transform="translate(217.91 174.35)"/><path class="cls-21" d="M91.39,82.33l-56,56.89-4.11-4,56-56.89Zm1.33-1.15L34.24,140.59,30,136.37,88.44,77Z" transform="translate(217.91 174.35)"/><path class="cls-21" d="M92.27,81.56,34.62,140.13,30.4,136,88,77.4Zm1.31-1.17L33.47,141.46l-4.39-4.32L89.2,76.07Z" transform="translate(217.91 174.35)"/><path class="cls-21" d="M93.16,80.77,33.87,141l-4.35-4.27L88.82,76.5Zm1.32-1.17L32.71,142.35l-4.5-4.44L90,75.16Z" transform="translate(217.91 174.35)"/><path class="cls-22" d="M94,80,33.09,141.92l-4.46-4.39L89.57,75.61Zm1.31-1.17L31.94,143.25l-4.63-4.55L90.73,74.28Z" transform="translate(217.91 174.35)"/><path class="cls-22" d="M94.91,79.23,32.34,142.81l-4.59-4.51L90.33,74.72ZM96.25,78l-65.07,66.1-4.74-4.67L91.5,73.37Z" transform="translate(217.91 174.35)"/><path class="cls-22" d="M95.81,78.44,31.58,143.7l-4.71-4.64L91.1,73.81Zm1.31-1.17L30.41,145.05l-4.87-4.79L92.25,72.48Z" transform="translate(217.91 174.35)"/><path class="cls-23" d="M96.69,77.68,30.81,144.61,26,139.85,91.86,72.92ZM98,76.5,29.66,145.94l-5-4.91L93,71.59Z" transform="translate(217.91 174.35)"/><path class="cls-23" d="M97.58,76.89l-67.53,68.6-4.95-4.87L92.63,72Zm1.31-1.18-70,71.12-5.11-5,70-71.11Z" transform="translate(217.91 174.35)"/><path class="cls-23" d="M98.46,76.12,29.28,146.4l-5.07-5L93.39,71.13ZM99.77,75,28.13,147.73l-5.24-5.15L94.54,69.8Z" transform="translate(217.91 174.35)"/><path class="cls-23" d="M99.35,75.33l-70.83,72-5.19-5.11,70.83-72Zm1.32-1.17-73.3,74.46L22,143.35,95.31,68.89Z" transform="translate(217.91 174.35)"/><path class="cls-23" d="M100.23,74.56,27.75,148.2,22.44,143,94.92,69.33Zm1.31-1.17L26.6,149.53l-5.48-5.39L96.07,68Z" transform="translate(217.91 174.35)"/><path class="cls-24" d="M101.1,73.79,27,149.09l-5.41-5.33L95.67,68.44Zm1.34-1.19-76.6,77.82-5.59-5.51L96.84,67.09Z" transform="translate(217.91 174.35)"/><path class="cls-25" d="M102,73,26.24,150l-5.54-5.45,75.77-77Zm1.31-1.17L25.09,151.31l-5.72-5.63L97.6,66.2Z" transform="translate(217.91 174.35)"/><path class="cls-25" d="M102.88,72.24,25.47,150.88l-5.66-5.57L97.22,66.67Zm1.31-1.18L24.31,152.21l-5.84-5.74L98.35,65.32Z" transform="translate(217.91 174.35)"/><path class="cls-25" d="M103.77,71.45,24.71,151.77l-5.78-5.69L98,65.76Zm1.32-1.18L23.56,153.1l-6-5.86L99.13,64.41Z" transform="translate(217.91 174.35)"/><path class="cls-26" d="M104.65,70.68l-80.71,82L18,146.87l80.71-82ZM106,69.5,22.78,154l-6.08-6,83.18-84.5Z" transform="translate(217.91 174.35)"/><path class="cls-26" d="M105.52,69.91,23.18,153.57l-6-5.93L99.5,64Zm1.34-1.19L22,154.9l-6.2-6.11,84.83-86.18Z" transform="translate(217.91 174.35)"/><path class="cls-26" d="M106.42,69.12l-84,85.33-6.14-6,84-85.33ZM107.73,68,21.25,155.81l-6.32-6.23,86.48-87.86Z" transform="translate(217.91 174.35)"/><path class="cls-27" d="M107.3,68.35l-85.65,87-6.26-6.16,85.64-87Zm1.31-1.17L20.5,156.69l-6.44-6.34,88.1-89.51Z" transform="translate(217.91 174.35)"/><path class="cls-27" d="M108.19,67.56,20.9,156.25,14.51,150l87.3-88.69Zm1.31-1.17L19.75,157.58l-6.57-6.46,89.76-91.19Z" transform="translate(217.91 174.35)"/><path class="cls-27" d="M109.07,66.79,20.12,157.16l-6.5-6.41,88.94-90.36Zm1.31-1.17L19,158.49l-6.69-6.58L103.69,59Z" transform="translate(217.91 174.35)"/><path class="cls-28" d="M110,66l-90.59,92-6.63-6.53,90.6-92Zm1.32-1.18L18.22,159.38l-6.81-6.7,93.06-94.55Z" transform="translate(217.91 174.35)"/><path class="cls-28" d="M110.84,65.24,18.59,159l-6.74-6.64L104.09,58.6Zm1.31-1.18L17.44,160.29l-6.93-6.82,94.71-96.23Z" transform="translate(217.91 174.35)"/><path class="cls-28" d="M111.71,64.47,17.84,159.84,11,153.08l93.88-95.37ZM113,63.3,16.69,161.17l-7-6.94L106,56.36Z" transform="translate(217.91 174.35)"/><path class="cls-29" d="M112.61,63.68l-95.53,97-7-6.88,95.53-97Zm1.31-1.17-98,99.55L8.76,155l98-99.55Z" transform="translate(217.91 174.35)"/><path class="cls-29" d="M113.49,62.91,16.31,161.64l-7.11-7,97.18-98.73Zm1.31-1.17L15.16,163l-7.3-7.18L107.51,54.56Z" transform="translate(217.91 174.35)"/><path class="cls-29" d="M114.38,62.12,15.56,162.53l-7.24-7.12L107.15,55ZM115.7,61,14.4,163.86,7,156.56,108.28,53.65Z" transform="translate(217.91 174.35)"/><path class="cls-30" d="M115.26,61.35,14.78,163.43,7.43,156.2,107.9,54.12Zm1.31-1.17L13.63,164.77l-7.54-7.42L109,52.76Z" transform="translate(217.91 174.35)"/><path class="cls-30" d="M116.13,60.58,14,164.32,6.55,157,108.66,53.23Zm1.34-1.19L12.87,165.65l-7.65-7.53L109.81,51.86Z" transform="translate(217.91 174.35)"/><path class="cls-31" d="M117,59.78,13.27,165.21l-7.59-7.48L109.43,52.32Zm1.33-1.16L12.1,166.56l-7.78-7.65L110.57,51Z" transform="translate(217.91 174.35)"/><path class="cls-32" d="M117.89,59,12.48,166.1l-7.7-7.58L110.19,51.43Zm1.33-1.16L11.34,167.45l-7.89-7.78L111.32,50.08Z" transform="translate(217.91 174.35)"/><path class="cls-32" d="M118.78,58.22,11.72,167l-7.82-7.7L111,50.52Zm1.33-1.15L10.59,168.34l-8-7.9L112.09,49.17Z" transform="translate(217.91 174.35)"/><path class="cls-33" d="M119.66,57.45,11,167.89,3,160.08,111.72,49.64ZM121,56.3,9.82,169.25l-8.15-8L112.85,48.28Z" transform="translate(217.91 174.35)"/><path class="cls-33" d="M120.55,56.66,10.19,168.78l-8.06-7.93L112.49,48.73Zm1.34-1.15L9.06,170.13.8,162,113.62,47.37Z" transform="translate(217.91 174.35)"/><path class="cls-34" d="M121.43,55.89,9.44,169.67l-8.18-8,112-113.78Zm1.33-1.15L8.29,171-.1,162.79,114.38,46.49Z" transform="translate(217.91 174.35)"/><path class="cls-35" d="M122.3,55.12,8.66,170.58l-8.3-8.17L114,47ZM123.64,54,7.53,171.93-1,163.56l116.1-118Z" transform="translate(217.91 174.35)"/><path class="cls-35" d="M123.2,54.33,7.91,171.47l-8.43-8.3L114.78,46Zm1.33-1.15L6.78,172.82l-8.61-8.47L115.91,44.69Z" transform="translate(217.91 174.35)"/><path class="cls-35" d="M124.08,53.57,7.13,172.37-1.41,164,115.53,45.16Zm1.33-1.16L6,173.73l-8.73-8.59L116.68,43.82Z" transform="translate(217.91 174.35)"/><path class="cls-36" d="M125,52.78,6.38,173.26l-8.67-8.53L116.31,44.25Zm1.34-1.16L5.25,174.61-3.6,165.9l121.06-123Z" transform="translate(217.91 174.35)"/><path class="cls-36" d="M125.85,52,5.6,174.17l-8.78-8.65L117.06,43.36Zm1.33-1.15L4.47,175.52l-9-8.83L118.21,42Z" transform="translate(217.91 174.35)"/><path class="cls-36" d="M126.72,51.24,4.85,175.06l-8.91-8.77L117.81,42.47Zm1.36-1.17L3.72,176.41l-9.09-8.95L119,41.12Z" transform="translate(217.91 174.35)"/><path class="cls-37" d="M127.62,50.45,4.1,176l-9-8.89L118.59,41.56ZM129,49.3l-126,128-9.21-9.07,126-128Z" transform="translate(217.91 174.35)"/><path class="cls-37" d="M128.5,49.68,3.32,176.85l-9.15-9L119.34,40.67Zm1.33-1.15L2.19,178.21-7.14,169,120.5,39.34Z" transform="translate(217.91 174.35)"/><path class="cls-38" d="M129.39,48.89,2.57,177.74l-9.28-9.13L120.12,39.77Zm1.33-1.15L1.43,179.09-8,169.79,121.27,38.43Z" transform="translate(217.91 174.35)"/><path class="cls-39" d="M130.27,48.13,1.79,178.65-7.6,169.4,120.87,38.88ZM131.6,47,.66,180l-9.58-9.42,131-133Z" transform="translate(217.91 174.35)"/><path class="cls-39" d="M131.16,47.34,1,179.54l-9.52-9.37L121.63,38Zm1.34-1.16L-.09,180.89l-9.7-9.54L122.8,36.64Z" transform="translate(217.91 174.35)"/><path class="cls-39" d="M132,46.57.28,180.43l-9.63-9.49L122.4,37.08Zm1.33-1.16L-.87,181.8l-9.82-9.67L123.55,35.75Z" transform="translate(217.91 174.35)"/><path class="cls-40" d="M132.91,45.8-.49,181.33l-9.76-9.6L123.16,36.19Zm1.34-1.15-135.87,138-9.94-9.79,135.87-138Z" transform="translate(217.91 174.35)"/><path class="cls-41" d="M133.81,45-1.25,182.22l-9.88-9.72L123.93,35.29Zm1.33-1.15L-2.38,183.57l-10.06-9.9L125.08,34Z" transform="translate(217.91 174.35)"/><path class="cls-41" d="M134.69,44.24-2,183.13l-10-9.84L124.69,34.4ZM136,43.09-3.15,184.48l-10.19-10L125.84,33.07Z" transform="translate(217.91 174.35)"/><path class="cls-42" d="M135.58,43.45-2.78,184l-10.12-10L125.46,33.49Zm1.34-1.15L-3.91,185.37l-10.3-10.14L126.61,32.16Z" transform="translate(217.91 174.35)"/><path class="cls-42" d="M136.46,42.68l-140,142.25-10.24-10.09,140-142.24Zm1.33-1.15L-4.68,186.28-15.11,176,127.37,31.27Z" transform="translate(217.91 174.35)"/><path class="cls-43" d="M137.33,41.92-4.31,185.81l-10.36-10.2L127,31.71Zm1.36-1.18L-5.44,187.17-16,176.79,128.14,30.36Z" transform="translate(217.91 174.35)"/><path class="cls-43" d="M138.23,41.13-5.06,186.7l-10.48-10.32L127.74,30.81ZM139.56,40-6.19,188.05l-10.67-10.5L128.9,29.47Z" transform="translate(217.91 174.35)"/><path class="cls-43" d="M139.11,40.36-5.83,187.61l-10.61-10.44L128.5,29.92Zm1.31-1.17L-7,189l-10.78-10.62L129.65,28.59Z" transform="translate(217.91 174.35)"/><path class="cls-43" d="M140,39.57-6.59,188.5l-10.73-10.56L129.27,29Zm1.31-1.17-149,151.43-10.89-10.72L130.43,27.68Z" transform="translate(217.91 174.35)"/><path class="cls-44" d="M140.88,38.8-7.36,189.41l-10.85-10.68L130,28.12Zm1.31-1.17L-8.52,190.74l-11-10.84L131.18,26.79Z" transform="translate(217.91 174.35)"/><path class="cls-45" d="M141.75,38-8.12,190.29l-11-10.79L130.78,27.23Zm1.34-1.19L-9.27,191.63l-11.13-11L132,25.88Z" transform="translate(217.91 174.35)"/><path class="cls-45" d="M142.65,37.24-8.87,191.18-20,180.27,131.56,26.33ZM144,36.07-10,192.53-21.3,181.46,132.71,25Z" transform="translate(217.91 174.35)"/><path class="cls-46" d="M143.52,36.47-9.65,192.09l-11.21-11L132.31,25.44Zm1.32-1.17L-10.8,193.42l-11.37-11.19L133.46,24.11Z" transform="translate(217.91 174.35)"/><path class="cls-46" d="M144.42,35.69-10.4,193l-11.34-11.16L133.09,24.53Zm1.31-1.18L-11.55,194.31-23,183,134.24,23.2Z" transform="translate(217.91 174.35)"/><path class="cls-46" d="M145.3,34.92l-156.48,159-11.45-11.28,156.47-159Zm1.31-1.18L-12.33,195.22l-11.62-11.44L135,22.31Z" transform="translate(217.91 174.35)"/><path class="cls-47" d="M146.19,34.13-11.93,194.77l-11.58-11.39L134.62,22.73ZM147.51,33-13.08,196.11l-11.74-11.56L135.77,21.4Z" transform="translate(217.91 174.35)"/><path class="cls-47" d="M147.07,33.36-12.71,195.68-24.4,184.17,135.37,21.85Zm1.31-1.17L-13.86,197l-11.86-11.67L136.52,20.51Z" transform="translate(217.91 174.35)"/><path class="cls-47" d="M147.94,32.59l-161.4,164-11.82-11.63L136.13,21Zm1.34-1.19L-14.61,197.9l-12-11.79L137.28,19.63Z" transform="translate(217.91 174.35)"/><path class="cls-48" d="M148.84,31.8-14.22,197.46l-11.91-11.73,163-165.68Zm1.31-1.17L-15.37,198.79l-12.1-11.91L138.05,18.72Z" transform="translate(217.91 174.35)"/><path class="cls-49" d="M149.72,31-15,198.37l-12-11.85L137.67,19.18ZM151,29.86-16.14,199.7l-12.22-12L138.81,17.83Z" transform="translate(217.91 174.35)"/><path class="cls-49" d="M150.61,30.24l-166.35,169-12.17-12,166.36-169Zm1.31-1.17L-16.9,200.59l-12.34-12.15L139.58,16.92Z" transform="translate(217.91 174.35)"/><path class="cls-50" d="M151.49,29.48l-168,170.68L-28.8,188.07l168-170.68Zm1.31-1.18L-17.67,201.49l-12.47-12.26L140.34,16Z" transform="translate(217.91 174.35)"/><path class="cls-50" d="M152.36,28.71-17.27,201.05l-12.41-12.21L140,16.5Zm1.34-1.2L-18.43,202.38-31,190,141.11,15.13Z" transform="translate(217.91 174.35)"/><path class="cls-50" d="M153.26,27.92-18,201.94l-12.52-12.33,171.28-174Zm1.31-1.17L-19.2,203.29l-12.71-12.51L141.87,14.24Z" transform="translate(217.91 174.35)"/><path class="cls-51" d="M154.13,27.15-18.8,202.85-31.45,190.4,141.49,14.7ZM155.45,26-20,204.18l-12.82-12.63,175.4-178.2Z" transform="translate(217.91 174.35)"/><path class="cls-51" d="M155,26.36-19.56,203.73l-12.77-12.56L142.26,13.79Zm1.31-1.17-177,179.88-12.95-12.75,177-179.88Z" transform="translate(217.91 174.35)"/><path class="cls-52" d="M155.91,25.59l-176.24,179L-33.22,192,143,12.91Zm1.31-1.17L-21.48,206l-13.07-12.86L144.15,11.55Z" transform="translate(217.91 174.35)"/><path class="cls-52" d="M156.8,24.8-21.09,205.53l-13-12.81L143.79,12Zm1.32-1.17L-22.24,206.86l-13.19-13L144.92,10.65Z" transform="translate(217.91 174.35)"/><path class="cls-53" d="M157.68,24-21.84,206.42-35,193.49,144.55,11.11ZM159,22.86-23,207.77l-13.32-13.1,182-184.91Z" transform="translate(217.91 174.35)"/><path class="cls-54" d="M158.55,23.27-22.62,207.33l-13.25-13.05L145.3,10.22Zm1.32-1.18L-23.77,208.66-37.2,195.44,146.43,8.87Z" transform="translate(217.91 174.35)"/><path class="cls-54" d="M159.45,22.48-23.37,208.21l-13.37-13.16L146.08,9.31Zm1.31-1.18L-24.52,209.55-38.08,196.2,147.21,8Z" transform="translate(217.91 174.35)"/><path class="cls-54" d="M160.33,21.71-24.15,209.12l-13.49-13.28L146.83,8.43Zm1.31-1.17L-25.3,210.45-39,197,148,7.07Z" transform="translate(217.91 174.35)"/><path class="cls-55" d="M161.22,20.92-24.9,210l-13.62-13.4L147.6,7.52Zm1.31-1.17L-26,211.34l-13.8-13.58L148.74,6.17Z" transform="translate(217.91 174.35)"/><path class="cls-56" d="M162.1,20.15-25.67,210.92-39.41,197.4,148.36,6.63ZM163.41,19-26.83,212.25l-13.92-13.7L149.49,5.28Z" transform="translate(217.91 174.35)"/><path class="cls-56" d="M163,19.38-26.43,211.81l-13.86-13.64L149.11,5.74Zm1.34-1.19-191.89,195-14-13.82L150.27,4.37Z" transform="translate(217.91 174.35)"/><path class="cls-57" d="M163.87,18.59l-191,194.1-14-13.76,191-194.1Zm1.31-1.17L-28.36,214.05l-14.16-13.94L151,3.48Z" transform="translate(217.91 174.35)"/><path class="cls-57" d="M164.72,17.81-28,213.6l-14.1-13.88L150.64,4Zm1.34-1.16L-29.11,214.93l-14.28-14.05L151.78,2.59Z" transform="translate(217.91 174.35)"/><path class="cls-57" d="M165.62,17-28.73,214.47l-14.21-14L151.42,3ZM167,15.86l-196.82,200-14.4-14.18L152.55,1.69Z" transform="translate(217.91 174.35)"/><path class="cls-58" d="M166.5,16.25l-196,199.13-14.32-14.1,196-199.13Zm1.33-1.15L-30.64,216.73l-14.52-14.3L153.3.8Z" transform="translate(217.91 174.35)"/><path class="cls-58" d="M167.39,15.46-30.26,216.27l-14.45-14.22L153,1.24Zm1.34-1.15L-31.39,217.62-46,203.2,154.08-.11Z" transform="translate(217.91 174.35)"/><path class="cls-58" d="M168.27,14.69-31,217.15l-14.56-14.33L153.7.35Zm1.33-1.15-201.77,205L-46.94,204,154.83-1Z" transform="translate(217.91 174.35)"/><path class="cls-59" d="M169.14,13.92-31.79,218.06l-14.69-14.45L154.46-.53Zm1.34-1.15L-32.92,219.41l-14.89-14.65L155.59-1.89Z" transform="translate(217.91 174.35)"/><path class="cls-60" d="M170,13.13-32.55,219l-14.8-14.57L155.23-1.44ZM171.37,12l-205,208.32-15-14.77L156.36-2.79Z" transform="translate(217.91 174.35)"/><path class="cls-60" d="M170.91,12.36-33.32,219.86l-14.93-14.7L156-2.33Zm1.34-1.15-206.7,210-15.11-14.87,206.68-210Z" transform="translate(217.91 174.35)"/><path class="cls-61" d="M171.81,11.58-34.08,220.75l-15.05-14.82L156.76-3.24Zm1.33-1.16L-35.21,222.1l-15.23-15L157.91-4.57Z" transform="translate(217.91 174.35)"/><path class="cls-61" d="M172.69,10.81-34.85,221.66-50,206.72,157.51-4.13ZM174,9.65-36,223l-15.36-15.12,210-213.35Z" transform="translate(217.91 174.35)"/><path class="cls-61" d="M173.56,10-35.6,222.54l-15.3-15L158.27-5Zm1.36-1.17-211.66,215-15.47-15.24,211.65-215Z" transform="translate(217.91 174.35)"/><path class="cls-62" d="M174.46,9.25-36.36,223.43l-15.41-15.17L159-5.92Zm1.33-1.15L-37.49,224.78l-15.62-15.33L160.2-7.25Z" transform="translate(217.91 174.35)"/><path class="cls-62" d="M175.33,8.48-37.13,224.34l-15.54-15.29L159.8-6.81Zm1.34-1.15L-38.27,225.69-54,210.22,161-8.14Z" transform="translate(217.91 174.35)"/><path class="cls-62" d="M176.23,7.69-37.89,225.23l-15.66-15.41L160.57-7.72Zm1.33-1.15L-39,226.58-54.86,211,161.73-9Z" transform="translate(217.91 174.35)"/><path class="cls-62" d="M177.11,6.92-38.66,226.14l-15.78-15.53L161.33-8.61Zm1.33-1.15L-39.8,227.49l-16-15.71L162.48-9.94Z" transform="translate(217.91 174.35)"/><path class="cls-62" d="M178,6.16-39.42,227l-15.9-15.65L162.08-9.49ZM179.34,5-40.55,228.38l-16.08-15.83L163.25-10.85Z" transform="translate(217.91 174.35)"/><path class="cls-63" d="M178.88,5.37l-219,222.54-16-15.77L162.86-10.4Zm1.33-1.16L-41.32,229.28l-16.21-15.94L164-11.73Z" transform="translate(217.91 174.35)"/><path class="cls-64" d="M179.75,4.6-40.95,228.82l-16.14-15.89L163.61-11.29Zm1.34-1.16L-42.08,230.17-58.4,214.1,164.76-12.62Z" transform="translate(217.91 174.35)"/><path class="cls-64" d="M180.65,3.81-41.7,229.71-58,213.7,164.39-12.2ZM182,2.66-42.83,231.06l-16.45-16.19L165.54-13.53Z" transform="translate(217.91 174.35)"/><path class="cls-64" d="M181.52,3l-224,227.58-16.38-16.13,224-227.58Zm1.34-1.15L-43.61,232l-16.56-16.31L166.29-14.42Z" transform="translate(217.91 174.35)"/><path class="cls-65" d="M182.42,2.25-43.23,231.5l-16.51-16.24L165.92-14Zm1.33-1.15L-44.36,232.86-61,216.43,167.07-15.33Z" transform="translate(217.91 174.35)"/><path class="cls-65" d="M183.3,1.48-44,232.41l-16.62-16.36L166.67-14.88ZM184.63.33-45.14,233.76l-16.81-16.54L167.82-16.21Z" transform="translate(217.91 174.35)"/><path class="cls-65" d="M184.17.71-44.76,233.3l-16.75-16.49L167.43-15.77Zm1.36-1.17L-45.89,234.65-62.82,218,168.6-17.12Z" transform="translate(217.91 174.35)"/><path class="cls-66" d="M185.07-.07-45.52,234.19l-16.86-16.61L168.2-16.68Zm1.33-1.16-233,236.77L-63.7,218.76,169.35-18Z" transform="translate(217.91 174.35)"/><path class="cls-66" d="M185.94-.84-46.29,235.1l-17-16.73L169-17.57ZM187.28-2-47.42,236.45l-17.17-16.9L170.11-18.9Z" transform="translate(217.91 174.35)"/><path class="cls-67" d="M186.84-1.63-47,236l-17.12-16.84L169.73-18.47Zm1.31-1.18L-48.18,237.34l-17.29-17L170.88-19.81Z" transform="translate(217.91 174.35)"/><path class="cls-68" d="M187.72-2.4-47.82,236.89l-17.23-17L170.48-19.36ZM189-3.57-49,238.22-66.36,221.1l238-241.79Z" transform="translate(217.91 174.35)"/><path class="cls-68" d="M188.59-3.17l-237.16,241L-65.93,220.7,171.24-20.25Zm1.34-1.19L-49.73,239.11l-17.51-17.24L172.41-21.6Z" transform="translate(217.91 174.35)"/><path class="cls-68" d="M189.49-4-49.33,238.67l-17.47-17.2L172-21.16Zm1.31-1.17L-50.5,240l-17.64-17.36L173.16-22.49Z" transform="translate(217.91 174.35)"/><path class="cls-69" d="M190.36-4.73-50.1,239.58l-17.6-17.32L172.77-22Zm1.32-1.17L-51.25,240.91-69,223.43,173.92-23.38Z" transform="translate(217.91 174.35)"/><path class="cls-70" d="M191.26-5.52l-242.12,246L-68.57,223l242.11-246Zm1.31-1.17L-52,241.8l-17.88-17.6L174.69-24.29Z" transform="translate(217.91 174.35)"/><path class="cls-70" d="M192.13-6.28-51.63,241.37l-17.84-17.56L174.3-23.84Zm1.32-1.18L-52.78,242.7l-18-17.71L175.45-25.17Z" transform="translate(217.91 174.35)"/><path class="cls-71" d="M193-7.07-52.39,242.26l-18-17.68L175.07-24.75Zm1.31-1.18L-53.54,243.59l-18.12-17.84L176.22-26.08Z" transform="translate(217.91 174.35)"/><path class="cls-71" d="M193.91-7.84l-247,251-18.1-17.78,247.07-251ZM195.22-9-54.31,244.5l-18.25-18L177-27Z" transform="translate(217.91 174.35)"/><path class="cls-72" d="M194.78-8.61-53.92,244.06l-18.2-17.92L176.58-26.53Zm1.32-1.17L-55.07,245.39l-18.36-18.08L177.73-27.86Z" transform="translate(217.91 174.35)"/><path class="cls-72" d="M195.68-9.4-54.67,244.94l-18.3-18L177.36-27.43ZM197-10.57-55.82,246.28l-18.49-18.2L178.51-28.77Z" transform="translate(217.91 174.35)"/><path class="cls-72" d="M196.55-10.17l-252,256-18.42-18.13,252-256Zm1.32-1.17L-56.6,247.18l-18.6-18.31L179.26-29.65Z" transform="translate(217.91 174.35)"/><path class="cls-73" d="M197.45-11-56.2,246.74l-18.55-18.25L178.9-29.21Zm1.31-1.17L-57.35,248.07l-18.73-18.43L180-30.56Z" transform="translate(217.91 174.35)"/><path class="cls-73" d="M198.33-11.73-57,247.65l-18.67-18.38L179.66-30.1Zm1.31-1.17L-58.13,249-77,230.43,180.79-31.45Z" transform="translate(217.91 174.35)"/><path class="cls-74" d="M199.2-12.49l-256.93,261L-76.52,230,180.41-31Zm1.34-1.2L-58.88,249.87l-19-18.67L181.57-32.36Z" transform="translate(217.91 174.35)"/><path class="cls-75" d="M200.1-13.28-58.48,249.42l-18.91-18.61L181.19-31.89Zm1.31-1.18L-59.66,250.78-78.75,232,182.32-33.25Z" transform="translate(217.91 174.35)"/><path class="cls-75" d="M201-14-59.26,250.33l-19-18.73L181.94-32.78Zm1.32-1.17L-60.41,251.66l-19.21-18.91L183.07-34.13Z" transform="translate(217.91 174.35)"/><path class="cls-75" d="M201.87-14.84-60,251.22l-19.15-18.85L182.72-33.69ZM203.18-16-61.16,252.55l-19.34-19L183.85-35Z" transform="translate(217.91 174.35)"/><path class="cls-76" d="M202.74-15.61-60.79,252.13l-19.27-19L183.47-34.58Zm1.32-1.17-266,270.24-19.45-19.15,266-270.24Z" transform="translate(217.91 174.35)"/><path class="cls-76" d="M203.64-16.4-61.54,253l-19.4-19.09L184.25-35.49ZM205-17.57-62.69,254.35l-19.58-19.27L185.38-36.84Z" transform="translate(217.91 174.35)"/><path class="cls-76" d="M204.52-17.17-62.3,253.9l-19.51-19.21L185-36.37Zm1.31-1.17-269.3,273.6-19.7-19.39,269.3-273.6Z" transform="translate(217.91 174.35)"/><path class="cls-77" d="M205.39-17.93-63.07,254.81l-19.64-19.33L185.76-37.26Zm1.32-1.18L-64.22,256.14-84,236.64,186.89-38.61Z" transform="translate(217.91 174.35)"/><path class="cls-77" d="M206.29-18.72-63.83,255.7l-19.75-19.45L186.53-38.17Zm1.31-1.18L-65,257l-19.94-19.62L187.66-39.52Z" transform="translate(217.91 174.35)"/><path class="cls-78" d="M207.16-19.49-64.6,256.61-84.48,237,187.29-39.06Zm1.32-1.18L-65.75,257.94l-20.06-19.75L188.42-40.41Z" transform="translate(217.91 174.35)"/><path class="cls-79" d="M208.06-20.28-65.36,257.5l-20-19.69L188.06-40Zm1.31-1.17L-66.51,258.83-86.69,239,189.19-41.32Z" transform="translate(217.91 174.35)"/><path class="cls-79" d="M208.94-21-66.13,258.4l-20.12-19.8L188.81-40.86Zm1.31-1.17-277.53,282-20.3-20L190-42.21Z" transform="translate(217.91 174.35)"/><path class="cls-79" d="M209.81-21.82-66.88,259.29l-20.25-19.92L189.57-41.74ZM211.15-23-68,260.62l-20.42-20.1L190.72-43.12Z" transform="translate(217.91 174.35)"/><path class="cls-80" d="M210.71-22.61-67.64,260.18l-20.36-20L190.34-42.65ZM212-23.78-68.79,261.51l-20.57-20.2L191.48-44Z" transform="translate(217.91 174.35)"/><path class="cls-81" d="M211.56-23.4l-280,284.49L-88.9,240.92l280-284.46Zm1.34-1.15-282.47,287-20.66-20.34,282.46-287Z" transform="translate(217.91 174.35)"/><path class="cls-81" d="M212.46-24.18-69.17,262l-20.6-20.29L191.87-44.45Zm1.33-1.16L-70.32,263.31l-20.79-20.46L193-45.8Z" transform="translate(217.91 174.35)"/><path class="cls-82" d="M213.33-24.95-70,262.86l-20.71-20.38L192.63-45.34Zm1.34-1.16L-71.09,264.22-92,243.64,193.76-46.69Z" transform="translate(217.91 174.35)"/><path class="cls-82" d="M214.21-25.72-70.72,263.75l-20.83-20.5L193.38-46.22Zm1.35-1.18-287.41,292-21-20.7,287.41-292Z" transform="translate(217.91 174.35)"/><path class="cls-83" d="M215.11-26.51-71.47,264.64l-21-20.62L194.16-47.13Zm1.33-1.15L-72.62,266l-21.16-20.82L195.29-48.48Z" transform="translate(217.91 174.35)"/><path class="cls-84" d="M216-27.28-72.25,265.55l-21.07-20.74L194.91-48Zm1.34-1.15L-73.38,266.9-94.65,246,196-49.37Z" transform="translate(217.91 174.35)"/><path class="cls-84" d="M216.88-28.07-73,266.44l-21.19-20.86L195.69-48.93Zm1.33-1.15-292.34,297-21.4-21.06,292.35-297Z" transform="translate(217.91 174.35)"/><path class="cls-84" d="M217.75-28.84-73.78,267.34l-21.31-21L196.44-49.82ZM219.09-30l-294,298.69-21.51-21.18,294-298.69Z" transform="translate(217.91 174.35)"/><path class="cls-85" d="M218.65-29.63-74.53,268.23-96,247.13,197.22-50.72ZM220-30.78-75.66,269.58l-21.62-21.27L198.35-52.08Z" transform="translate(217.91 174.35)"/><path class="cls-86" d="M219.53-30.39-75.31,269.14l-21.55-21.22L198-51.61Zm1.33-1.16-297.3,302L-98.17,249.1l297.29-302Z" transform="translate(217.91 174.35)"/><path class="cls-86" d="M220.4-31.16-76.06,270l-21.68-21.34L198.72-52.5Zm1.36-1.18L-77.19,271.38-99,249.86l299-303.71Z" transform="translate(217.91 174.35)"/><path class="cls-87" d="M221.3-31.95-76.81,270.92l-21.8-21.46L199.5-53.41Zm1.33-1.15L-77.95,272.27l-22-21.64L200.65-54.74Z" transform="translate(217.91 174.35)"/><path class="cls-87" d="M222.17-32.72-77.59,271.82l-21.92-21.57L200.25-54.3Zm1.34-1.15L-78.72,273.18l-22.1-21.76,302.23-307Z" transform="translate(217.91 174.35)"/><path class="cls-87" d="M223.07-33.51-78.34,272.71l-22-21.69L201-55.2Zm1.33-1.15L-79.48,274.06l-22.22-21.87L202.18-56.54Z" transform="translate(217.91 174.35)"/><path class="cls-88" d="M223.94-34.28-79.12,273.62l-22.16-21.81L201.78-56.09Zm1.34-1.15L-80.25,275l-22.34-22L202.94-57.42Z" transform="translate(217.91 174.35)"/><path class="cls-88" d="M224.82-35-79.87,274.51l-22.29-21.93L202.54-57Zm1.35-1.17L-81,275.86l-22.47-22.11L203.71-58.33Z" transform="translate(217.91 174.35)"/><path class="cls-88" d="M225.72-35.84-80.63,275.4-103,253.34,203.31-57.89ZM227.05-37-81.78,276.77l-22.59-22.23L204.46-59.22Z" transform="translate(217.91 174.35)"/><path class="cls-89" d="M226.59-36.6l-308,312.9-22.53-22.17,308-312.91Zm1.34-1.16L-82.53,277.66l-22.71-22.35L205.22-60.11Z" transform="translate(217.91 174.35)"/><path class="cls-90" d="M227.49-37.39-82.16,277.19-104.8,254.9,204.84-59.68Zm1.33-1.16L-83.29,278.54l-22.83-22.47L206-61Z" transform="translate(217.91 174.35)"/><path class="cls-90" d="M228.36-38.16-82.93,278.1l-22.77-22.41L205.6-60.57Zm1.34-1.15L-84.06,279.45l-23-22.59L206.75-61.9Z" transform="translate(217.91 174.35)"/><path class="cls-91" d="M229.26-38.95-83.69,279l-22.89-22.53,313-317.94Zm1.33-1.15L-84.82,280.34l-23.07-22.71L207.52-62.81Z" transform="translate(217.91 174.35)"/><path class="cls-91" d="M230.14-39.72-84.46,279.9l-23-22.65L207.13-62.37Zm1.33-1.15L-85.59,281.25l-23.19-22.83L208.28-63.7Z" transform="translate(217.91 174.35)"/><path class="cls-92" d="M231-40.49-85.22,280.78-108.35,258,207.88-63.26Zm1.36-1.17L-86.35,282.14l-23.31-22.95L209-64.59Z" transform="translate(217.91 174.35)"/><path class="cls-93" d="M231.91-41.28-86,281.67l-23.25-22.88,317.87-323Zm1.33-1.15L-87.1,283-110.54,260,209.81-65.5Z" transform="translate(217.91 174.35)"/><path class="cls-93" d="M232.78-42-86.74,282.58l-23.38-23L209.41-65Zm1.34-1.16-322,327.13-23.55-23.18,322-327.13Z" transform="translate(217.91 174.35)"/><path class="cls-94" d="M233.68-42.83-87.5,283.47-111,260.34,210.18-66ZM235-44-88.63,284.82l-23.68-23.3L211.34-67.29Z" transform="translate(217.91 174.35)"/><path class="cls-94" d="M234.55-43.6l-322.82,328-23.62-23.25,322.83-328Zm1.32-1.18L-89.41,285.73-113.2,262.3,212.09-68.18Z" transform="translate(217.91 174.35)"/><path class="cls-94" d="M235.43-44.37-89,285.26l-23.74-23.36L211.69-67.74Zm1.33-1.19L-90.18,286.6l-23.9-23.53,327-332.16Z" transform="translate(217.91 174.35)"/><path class="cls-95" d="M236.33-45.16-89.78,286.15l-23.86-23.48L212.47-68.64Zm1.31-1.17L-91,287.5l-24-23.64L213.62-70Z" transform="translate(217.91 174.35)"/><path class="cls-95" d="M237.2-45.93l-327.76,333-24-23.6,327.76-333Zm1.32-1.17L-91.71,288.39l-24.14-23.76L214.37-70.86Z" transform="translate(217.91 174.35)"/><path class="cls-95" d="M238.1-46.72-91.31,288l-24.1-23.72L214-70.44Zm1.31-1.17L-92.46,289.28l-24.27-23.88L215.15-71.77Z" transform="translate(217.91 174.35)"/><path class="cls-95" d="M239-47.49-92.09,288.86-116.31,265,214.75-71.33Zm1.32-1.17L-93.24,290.19l-24.38-24L215.9-72.66Z" transform="translate(217.91 174.35)"/><path class="cls-96" d="M239.87-48.27l-332.71,338-24.35-24,332.72-338Zm1.31-1.18L-94,291.08-118.5,267,216.68-73.57Z" transform="translate(217.91 174.35)"/><path class="cls-96" d="M240.75-49-93.6,290.63l-24.46-24.08L216.28-73.12Zm1.31-1.18L-94.77,292l-24.62-24.23L217.43-74.46Z" transform="translate(217.91 174.35)"/><path class="cls-96" d="M241.62-49.81l-336,341.35L-119,267.34,217-74ZM242.94-51-95.52,292.87l-24.75-24.36L218.19-75.34Z" transform="translate(217.91 174.35)"/><path class="cls-96" d="M242.52-50.6l-337.65,343-24.7-24.32,337.64-343Zm1.31-1.17L-96.28,293.76l-24.87-24.48L219-76.25Z" transform="translate(217.91 174.35)"/><path class="cls-96" d="M243.39-51.37-95.9,293.34l-24.81-24.42L218.56-75.81Zm1.32-1.17L-97,294.67l-25-24.6L219.72-77.14Z" transform="translate(217.91 174.35)"/><path class="cls-97" d="M244.29-52.16-96.65,294.22l-24.93-24.53L219.34-76.72Zm1.31-1.17L-97.81,295.56l-25.11-24.72L220.49-78Z" transform="translate(217.91 174.35)"/><path class="cls-97" d="M245.16-52.93-97.43,295.13l-25-24.65L220.11-77.58Zm1.32-1.17L-98.58,296.46l-25.23-24.83L221.25-78.94Z" transform="translate(217.91 174.35)"/><path class="cls-97" d="M246-53.7-98.18,296l-25.18-24.78L220.87-78.47Zm1.33-1.19L-99.34,297.35l-25.35-25L222-79.84Z" transform="translate(217.91 174.35)"/><path class="cls-98" d="M246.94-54.48-98.94,296.91-124.23,272,221.64-79.38Zm1.31-1.18L-100.11,298.26l-25.48-25.07L222.78-80.73Z" transform="translate(217.91 174.35)"/><path class="cls-98" d="M247.81-55.25-99.71,297.82l-25.42-25L222.4-80.27Zm1.32-1.18-350,355.58L-126.46,274l350-355.57Z" transform="translate(217.91 174.35)"/><path class="cls-98" d="M248.71-56-100.47,298.7-126,273.57,223.17-81.18ZM250-57.21-101.62,300l-25.72-25.32L224.3-82.53Z" transform="translate(217.91 174.35)"/><path class="cls-99" d="M249.58-56.81-101.24,299.61l-25.66-25.25L223.93-82.06ZM250.9-58-102.39,300.94l-25.84-25.43L225.06-83.42Z" transform="translate(217.91 174.35)"/><path class="cls-99" d="M250.48-57.6-102,300.5l-25.77-25.37L224.7-83Zm1.31-1.17-354.94,360.6-26-25.55L225.83-84.32Z" transform="translate(217.91 174.35)"/><path class="cls-99" d="M251.36-58.37-102.75,301.39l-25.9-25.49L225.46-83.86Zm1.31-1.17L-103.92,302.74-130,277.07,226.59-85.21Z" transform="translate(217.91 174.35)"/><path class="cls-100" d="M252.23-59.14-103.53,302.3l-26-25.61L226.21-84.75Zm1.31-1.17L-104.68,303.63l-26.2-25.79L227.34-86.1Z" transform="translate(217.91 174.35)"/><path class="cls-100" d="M253.13-59.93-104.28,303.18l-26.14-25.73L227-85.66Zm1.31-1.17L-105.43,304.52l-26.33-25.91L228.12-87Z" transform="translate(217.91 174.35)"/><path class="cls-100" d="M254-60.69-105.06,304.09l-26.26-25.85L227.74-86.54Zm1.32-1.18L-106.21,305.42l-26.44-26L228.87-87.9Z" transform="translate(217.91 174.35)"/><path class="cls-101" d="M254.9-61.48-105.81,305l-26.38-26L228.51-87.45Zm1.31-1.18L-107,306.31l-26.57-26.15,363.18-369Z" transform="translate(217.91 174.35)"/><path class="cls-101" d="M255.77-62.25-106.58,305.89l-26.51-26.09L229.27-88.34Zm1.32-1.17L-107.74,307.22-134.42,281,230.4-89.69Z" transform="translate(217.91 174.35)"/><path class="cls-101" d="M256.65-63l-364,369.8L-134,280.57,230-89.23ZM258-64.21-108.49,308.11l-26.81-26.39L231.18-90.6Z" transform="translate(217.91 174.35)"/><path class="cls-102" d="M257.55-63.81-108.09,307.66l-26.75-26.32L230.8-90.14ZM258.86-65-109.25,309l-26.95-26.49,368.13-374Z" transform="translate(217.91 174.35)"/><path class="cls-102" d="M258.42-64.58-108.87,308.57l-26.87-26.44L231.55-91Zm1.32-1.17L-110,309.91l-27-26.63L232.69-92.38Z" transform="translate(217.91 174.35)"/><path class="cls-102" d="M259.3-65.39-109.62,309.46l-27-26.57L232.33-91.93Zm1.33-1.15L-110.78,310.79l-27.17-26.74L233.46-93.28Z" transform="translate(217.91 174.35)"/><path class="cls-103" d="M260.17-66.15-110.4,310.37l-27.11-26.69L233.08-92.82Zm1.34-1.16-373.06,379-27.29-26.86,373.05-379Z" transform="translate(217.91 174.35)"/><path class="cls-103" d="M261.05-66.92-111.17,311.24l-27.21-26.79L233.84-93.71Zm1.35-1.18L-112.3,312.59l-27.42-27L235-95.08Z" transform="translate(217.91 174.35)"/><path class="cls-103" d="M262-67.71-111.93,312.13l-27.33-26.91L234.61-94.62Zm1.33-1.16L-113.08,313.5l-27.53-27.11L235.74-96Z" transform="translate(217.91 174.35)"/><path class="cls-104" d="M262.82-68.48-112.7,313l-27.46-27L235.37-95.5Zm1.33-1.15-378,384-27.66-27.23,378-384Z" transform="translate(217.91 174.35)"/><path class="cls-104" d="M263.72-69.27-113.46,313.92-141,286.78,236.14-96.41Zm1.33-1.15L-114.59,315.27l-27.78-27.34L237.27-97.76Z" transform="translate(217.91 174.35)"/><path class="cls-104" d="M264.59-70-114.23,314.83l-27.7-27.26L236.9-97.3Zm1.34-1.15L-115.36,316.18l-27.9-27.46L238-98.65Z" transform="translate(217.91 174.35)"/><path class="cls-105" d="M265.49-70.83-115,315.72l-27.81-27.38L237.67-98.21ZM266.82-72-116.12,317.07l-28-27.56L238.8-99.56Z" transform="translate(217.91 174.35)"/><path class="cls-105" d="M266.36-71.6-115.76,316.63l-27.94-27.51L238.43-99.1Zm1.34-1.15L-116.89,318-145,290.3,239.56-100.45Z" transform="translate(217.91 174.35)"/><path class="cls-105" d="M267.24-72.36-116.52,317.51l-28.06-27.62L239.18-100Zm1.35-1.18L-117.65,318.87l-28.24-27.8L240.33-101.36Z" transform="translate(217.91 174.35)"/><path class="cls-106" d="M268.14-73.15-117.27,318.4l-28.18-27.74L240-100.89Zm1.33-1.16L-118.4,319.75l-28.37-27.92,387.88-394Z" transform="translate(217.91 174.35)"/><path class="cls-107" d="M269-73.92-118,319.31l-28.31-27.86L240.71-101.78Zm1.34-1.15L-119.18,320.66l-28.48-28L241.86-103.11Z" transform="translate(217.91 174.35)"/><path class="cls-108" d="M269.91-74.71-118.8,320.2l-28.42-28,388.7-394.91Zm1.33-1.15L-119.93,321.55l-28.61-28.16L242.64-104Z" transform="translate(217.91 174.35)"/><path class="cls-108" d="M270.78-75.48-119.57,321.11-148.12,293,242.24-103.58Zm1.34-1.15L-120.71,322.46l-28.72-28.28L243.39-104.91Z" transform="translate(217.91 174.35)"/><path class="cls-108" d="M271.66-76.25-120.33,322-149,293.78,243-104.46ZM273-77.42-121.46,323.35-150.31,295,244.16-105.82Z" transform="translate(217.91 174.35)"/><path class="cls-109" d="M272.56-77-121.08,322.88l-28.79-28.33L243.77-105.37Zm1.33-1.15L-122.23,324.25l-29-28.51L244.92-106.7Z" transform="translate(217.91 174.35)"/><path class="cls-109" d="M273.43-77.81l-395.29,401.6-28.91-28.46L244.52-106.26ZM274.76-79-123,325.14l-29.09-28.63,397.75-404.1Z" transform="translate(217.91 174.35)"/><path class="cls-109" d="M274.33-78.59-122.61,324.68l-29-28.58L245.3-107.17Zm1.33-1.16L-123.74,326-153,297.28,246.45-108.5Z" transform="translate(217.91 174.35)"/><path class="cls-109" d="M275.2-79.36l-398.59,405-29.15-28.7L246.05-108.06Zm1.34-1.16L-124.52,326.94l-29.33-28.88,401-407.45Z" transform="translate(217.91 174.35)"/><path class="cls-109" d="M276.1-80.15-124.14,326.47l-29.27-28.81L246.83-109Zm1.33-1.15-402.7,409.13-29.46-29L248-110.3Z" transform="translate(217.91 174.35)"/><path class="cls-110" d="M277-80.92-124.9,327.36l-29.41-28.91,401.89-408.3Zm1.34-1.15L-126,328.73l-29.57-29.11,404.35-410.8Z" transform="translate(217.91 174.35)"/><path class="cls-110" d="M277.85-81.69l-403.52,410-29.52-29,403.53-410Zm1.35-1.17-406,412.48-29.7-29.23,406-412.46Z" transform="translate(217.91 174.35)"/><path class="cls-110" d="M278.75-82.48-126.43,329.16-156.06,300,249.11-111.65Zm1.33-1.15L-127.56,330.51l-29.82-29.35L250.26-113Z" transform="translate(217.91 174.35)"/><path class="cls-110" d="M279.62-83.25-127.2,330.07-157,300.78,249.86-112.54ZM281-84.4-128.33,331.42-158.27,302,251-113.87Z" transform="translate(217.91 174.35)"/><path class="cls-111" d="M280.52-84-127.95,331l-29.88-29.41,408.47-415Zm1.33-1.15-410.94,417.5-30.06-29.59,410.94-417.5Z" transform="translate(217.91 174.35)"/><path class="cls-112" d="M281.39-84.8-128.73,331.86l-30-29.53L251.39-114.33ZM282.71-86-129.86,333.21-160,303.51,252.55-115.66Z" transform="translate(217.91 174.35)"/><path class="cls-112" d="M282.27-85.57-129.48,332.75-159.6,303.1,252.15-115.22Zm1.33-1.2L-130.62,334.1l-30.3-29.83L253.32-116.57Z" transform="translate(217.91 174.35)"/><path class="cls-112" d="M283.17-86.36l-413.41,420-30.24-29.77,413.4-420Zm1.31-1.17L-131.39,335l-30.42-29.95L254.07-117.46Z" transform="translate(217.91 174.35)"/><path class="cls-112" d="M284-87.13-131,334.55l-30.37-29.89L253.68-117Zm1.31-1.17L-132.16,335.88l-30.53-30.05L254.83-118.35Z" transform="translate(217.91 174.35)"/><path class="cls-113" d="M284.94-87.92-131.77,335.43l-30.48-30,416.7-423.35Zm1.31-1.17L-132.92,336.77l-30.65-30.17L255.6-119.26Z" transform="translate(217.91 174.35)"/><path class="cls-114" d="M285.81-88.69l-418.35,425-30.61-30.12,418.36-425Zm1.32-1.17L-133.69,337.67l-30.77-30.28L256.36-120.14Z" transform="translate(217.91 174.35)"/><path class="cls-114" d="M286.71-89.48l-420,426.71L-164,307l420-426.7ZM288-90.65-134.45,338.56l-30.89-30.4L257.13-121Z" transform="translate(217.91 174.35)"/><path class="cls-114" d="M287.58-90.24-134,338.12l-30.85-30.37L256.74-120.61Zm1.32-1.18L-135.22,339.47l-31-30.52L257.89-121.94Z" transform="translate(217.91 174.35)"/><path class="cls-113" d="M288.46-91-134.83,339l-31-30.49,423.29-430Zm1.31-1.18L-136,340.36l-31.13-30.64L258.64-122.83Z" transform="translate(217.91 174.35)"/><path class="cls-112" d="M289.36-91.8-135.58,339.91l-31.09-30.6L258.27-122.4ZM290.67-93l-427.4,434.23L-168,310.48,259.42-123.74Z" transform="translate(217.91 174.35)"/><path class="cls-112" d="M290.23-92.57-136.36,340.82l-31.19-30.7L259-123.29Zm1.32-1.17L-137.51,342.15l-31.37-30.88L260.17-124.62Z" transform="translate(217.91 174.35)"/><path class="cls-112" d="M291.13-93.36-137.11,341.71l-31.31-30.82L259.79-124.2Zm1.31-1.17L-138.26,343l-31.5-31L261-125.53Z" transform="translate(217.91 174.35)"/><path class="cls-112" d="M292-94.13-137.88,342.62l-31.44-30.94L260.55-125.09Zm1.32-1.17L-139,344l-31.61-31.12L261.7-126.42Z" transform="translate(217.91 174.35)"/><path class="cls-111" d="M292.88-94.9-138.64,343.51l-31.55-31.06L261.32-126Zm1.33-1.19-434,440.93-31.74-31.24,434-440.93Z" transform="translate(217.91 174.35)"/><path class="cls-110" d="M293.78-95.69-139.39,344.39l-31.68-31.18L262.1-126.87Zm1.31-1.17L-140.55,345.73l-31.87-31.34L263.23-128.22Z" transform="translate(217.91 174.35)"/><path class="cls-110" d="M294.65-96.45-140.17,345.3-172,314,262.85-127.75ZM296-97.63-141.32,346.63l-32-31.47L264-129.1Z" transform="translate(217.91 174.35)"/><path class="cls-110" d="M295.55-97.24-140.92,346.19l-31.92-31.42L263.63-128.66Zm1.31-1.18L-142.07,347.52l-32.11-31.59L264.76-130Z" transform="translate(217.91 174.35)"/><path class="cls-110" d="M296.42-98-141.7,347.1l-32-31.54L264.38-129.55Zm1.32-1.17L-142.85,348.43l-32.22-31.72L265.51-130.9Z" transform="translate(217.91 174.35)"/><path class="cls-109" d="M297.32-98.8-142.45,348l-32.16-31.66L265.14-130.44Zm1.31-1.17L-143.6,349.32l-32.35-31.84L266.29-131.81Z" transform="translate(217.91 174.35)"/><path class="cls-109" d="M298.19-99.57l-441.4,448.44-32.28-31.77,441.4-448.45Zm1.32-1.17-443.89,451-32.46-32L267-132.7Z" transform="translate(217.91 174.35)"/><path class="cls-109" d="M299.07-100.34-144,349.78l-32.41-31.89L266.67-132.23Zm1.31-1.17L-145.13,351.11-177.72,319,267.8-133.59Z" transform="translate(217.91 174.35)"/><path class="cls-109" d="M300-101.13l-444.71,451.8-32.52-32,444.7-451.8Zm1.31-1.17L-145.89,352l-32.71-32.19,447.17-454.3Z" transform="translate(217.91 174.35)"/><path class="cls-109" d="M300.84-101.9-145.51,351.58l-32.65-32.14L268.2-134Zm1.32-1.17-448.82,456-32.83-32.31,448.82-456Z" transform="translate(217.91 174.35)"/><path class="cls-108" d="M301.74-102.68l-448,455.15L-179,320.21,269-134.94Zm1.31-1.18L-147.42,353.8l-33-32.43L270.1-136.29Z" transform="translate(217.91 174.35)"/><path class="cls-108" d="M302.61-103.45-147,353.37-179.93,321,269.72-135.83Zm1.32-1.18L-148.19,354.71l-33.07-32.56L270.86-137.18Z" transform="translate(217.91 174.35)"/><path class="cls-108" d="M303.49-104.22-147.79,354.26l-33-32.49L270.48-136.71Zm1.33-1.19-453.77,461-33.19-32.67,453.77-461Z" transform="translate(217.91 174.35)"/><path class="cls-107" d="M304.39-105-148.55,355.15l-33.13-32.61L271.25-137.62Zm1.31-1.17L-149.7,356.48-183,323.69,272.39-139Z" transform="translate(217.91 174.35)"/><path class="cls-106" d="M305.26-105.78-149.32,356.06l-33.26-32.73L272-138.51Zm1.31-1.17-457,464.34-33.43-32.91L273.14-139.86Z" transform="translate(217.91 174.35)"/><path class="cls-105" d="M306.14-106.59-150.08,357l-33.37-32.85L272.78-139.42Zm1.33-1.15-458.7,466-33.56-33,458.71-466Z" transform="translate(217.91 174.35)"/><path class="cls-105" d="M307-107.36-150.85,357.85l-33.5-33,457.89-465.2Zm1.34-1.15L-152,359.19-185.68,326l460.35-467.7Z" transform="translate(217.91 174.35)"/><path class="cls-105" d="M307.89-108.12l-459.5,466.86-33.61-33.09L274.29-141.19Zm1.35-1.18-462,469.37-33.8-33.26,462-469.38Z" transform="translate(217.91 174.35)"/><path class="cls-104" d="M308.78-108.91-152.38,359.61l-33.72-33.19L275.07-142.1Zm1.34-1.16L-153.53,361l-33.92-33.38,463.65-471Z" transform="translate(217.91 174.35)"/><path class="cls-104" d="M309.66-109.68l-462.82,470.2L-187,327.21,275.82-143Zm1.33-1.16L-154.29,361.87l-34-33.51L277-144.34Z" transform="translate(217.91 174.35)"/><path class="cls-104" d="M310.56-110.47-153.91,361.41l-34-33.43L276.6-143.9Zm1.33-1.15L-155,362.76l-34.17-33.63L277.73-145.25Z" transform="translate(217.91 174.35)"/><path class="cls-103" d="M311.43-111.24-154.69,362.31l-34.08-33.54L277.35-144.79Zm1.34-1.15L-155.82,363.67l-34.28-33.75L278.48-146.14Z" transform="translate(217.91 174.35)"/><path class="cls-103" d="M312.33-112-155.44,363.2l-34.2-33.66L278.13-145.69Zm1.33-1.15L-156.57,364.55-191,330.69,279.26-147Z" transform="translate(217.91 174.35)"/><path class="cls-103" d="M313.2-112.8-156.2,364.09l-34.34-33.76L278.88-146.58Zm1.34-1.15L-157.35,365.46l-34.5-34L280-147.93Z" transform="translate(217.91 174.35)"/><path class="cls-102" d="M314.08-113.57-157,365l-34.44-33.91,471-478.56Zm1.35-1.17L-158.1,366.35l-34.63-34.08,473.5-481.09Z" transform="translate(217.91 174.35)"/><path class="cls-102" d="M315-114.35-157.72,365.89l-34.57-34,472.7-480.24Zm1.34-1.16L-158.86,367.24-193.6,333,281.54-149.73Z" transform="translate(217.91 174.35)"/><path class="cls-102" d="M315.85-115.12-158.5,366.79l-34.69-34.14L281.16-149.27Zm1.33-1.16L-159.63,368.15l-34.87-34.32L282.32-150.6Z" transform="translate(217.91 174.35)"/><path class="cls-101" d="M316.75-115.91l-476,483.59-34.81-34.26,476-483.59Zm1.33-1.16L-160.39,369l-35-34.44,478.47-486.1Z" transform="translate(217.91 174.35)"/><path class="cls-101" d="M317.62-116.68-160,368.59-195,334.21,282.69-151.06Zm1.34-1.15L-161.16,369.94l-35.11-34.56L283.85-152.39Z" transform="translate(217.91 174.35)"/><path class="cls-101" d="M318.5-117.45-160.78,369.48-195.83,335,283.45-151.95Zm1.35-1.17L-161.92,370.83l-35.23-34.68L284.62-153.3Z" transform="translate(217.91 174.35)"/><path class="cls-100" d="M319.39-118.24-161.54,370.37l-35.17-34.62L284.22-152.86Zm1.34-1.15L-162.69,371.74-198,336.94,285.37-154.19Z" transform="translate(217.91 174.35)"/><path class="cls-100" d="M320.27-119-162.31,371.27l-35.3-34.73L285-153.75Zm1.33-1.15-485,492.79-35.48-34.92L286.13-155.08Z" transform="translate(217.91 174.35)"/><path class="cls-100" d="M321.17-119.8l-484.24,492-35.41-34.86L285.75-154.65Zm1.33-1.15L-164.2,373.51l-35.59-35L286.9-156Z" transform="translate(217.91 174.35)"/><path class="cls-99" d="M322-120.56-163.84,373.07l-35.54-35L286.51-155.54Zm1.34-1.16L-165,374.42l-35.72-35.15L287.66-156.87Z" transform="translate(217.91 174.35)"/><path class="cls-99" d="M322.94-121.35-164.6,374l-35.65-35.1L287.28-156.45Zm1.33-1.16-490,497.82L-201.57,340l490-497.81Z" transform="translate(217.91 174.35)"/><path class="cls-99" d="M323.81-122.12l-489.16,497-35.78-35.22L288-157.34Zm1.34-1.15L-166.5,376.22l-36-35.4L289.19-158.67Z" transform="translate(217.91 174.35)"/><path class="cls-98" d="M324.69-122.89-166.13,375.75-202,340.42,288.79-158.23ZM326-124-167.26,377.11l-36.08-35.52L289.94-159.56Z" transform="translate(217.91 174.35)"/><path class="cls-98" d="M325.58-123.68-166.88,376.64l-36-35.45L289.56-159.13Zm1.34-1.15L-168,378l-36.2-35.63L290.72-160.47Z" transform="translate(217.91 174.35)"/><path class="cls-98" d="M326.46-124.45l-494.11,502L-203.8,342,290.32-160Zm1.33-1.15L-168.79,378.9l-36.32-35.75,496.58-504.5Z" transform="translate(217.91 174.35)"/><path class="cls-97" d="M327.36-125.24-168.41,378.44l-36.26-35.69L291.09-160.93Zm1.33-1.15L-169.54,379.79-206,343.92,292.25-162.26Z" transform="translate(217.91 174.35)"/><path class="cls-97" d="M328.23-126-169.18,379.35l-36.39-35.82L291.85-161.82Zm1.32-1.17L-170.32,380.7l-36.56-36L293-163.15Z" transform="translate(217.91 174.35)"/><path class="cls-97" d="M329.11-126.77l-499,507-36.5-35.93,499-507Zm1.33-1.2L-171.07,381.59l-36.69-36.11L293.78-164.06Z" transform="translate(217.91 174.35)"/><path class="cls-96" d="M330-127.56-170.69,381.12l-36.63-36.05,500.7-508.68Zm1.32-1.18L-171.83,382.47l-36.82-36.21L294.53-164.95Z" transform="translate(217.91 174.35)"/><path class="cls-96" d="M330.88-128.33-171.47,382l-36.75-36.17L294.13-164.5Zm1.31-1.17L-172.6,383.38-209.53,347,295.28-165.83Z" transform="translate(217.91 174.35)"/><path class="cls-96" d="M331.78-129.12l-504,512-36.87-36.29,504-512Zm1.31-1.17L-173.37,384.25l-37-36.45L296.06-166.74Z" transform="translate(217.91 174.35)"/><path class="cls-96" d="M332.65-129.89-173,383.83l-37-36.41L295.66-166.3Zm1.32-1.17L-174.15,385.16l-37.15-36.57L296.81-167.63Z" transform="translate(217.91 174.35)"/><path class="cls-96" d="M333.55-130.68l-507.3,515.39-37.11-36.52L296.42-167.19Zm1.31-1.17L-174.9,386.05l-37.28-36.69,509.77-517.9Z" transform="translate(217.91 174.35)"/><path class="cls-95" d="M334.42-131.45-174.51,385.6-211.74,349l508.93-517Zm1.32-1.17L-175.68,387l-37.39-36.8L298.34-169.43Z" transform="translate(217.91 174.35)"/><path class="cls-95" d="M335.3-132.21-175.28,386.51l-37.35-36.77L298-169Zm1.31-1.18-513,521.23-37.52-36.92L299.1-170.31Z" transform="translate(217.91 174.35)"/><path class="cls-95" d="M336.19-133-176,387.4l-37.47-36.89,512.23-520.4Zm1.32-1.18-514.7,522.91-37.63-37L299.87-171.22Z" transform="translate(217.91 174.35)"/><path class="cls-95" d="M337.07-133.77-176.81,388.31l-37.6-37L299.47-170.78Zm1.31-1.18L-178,389.64l-37.76-37.17L300.63-172.11Z" transform="translate(217.91 174.35)"/><path class="cls-94" d="M338-134.56-177.56,389.19l-37.7-37.1L300.25-171.69Zm1.31-1.17-518,526.26-37.88-37.29L301.4-173Z" transform="translate(217.91 174.35)"/><path class="cls-94" d="M338.84-135.33-178.34,390.1l-37.82-37.22L301-172.57Zm1.32-1.17L-179.49,391.44l-38-37.41L302.16-173.91Z" transform="translate(217.91 174.35)"/><path class="cls-94" d="M339.72-136.1-179.09,391-217,353.65,301.76-173.46Zm.89-.79L-179.85,391.88l-38.06-37.46L302.55-174.35Z" transform="translate(217.91 174.35)"/></g><polygon class="cls-115" points="174.51 387.35 163.48 398.57 159.91 442.23 170.95 431.02 174.51 387.35"/><polygon class="cls-115" points="193 368.57 181.97 379.78 178.41 423.44 189.44 412.23 193 368.57"/><polygon class="cls-115" points="211.5 349.78 200.46 360.99 196.9 404.65 207.93 393.44 211.5 349.78"/><polygon class="cls-115" points="229.99 330.99 218.95 342.2 215.39 385.87 226.43 374.65 229.99 330.99"/><polygon class="cls-115" points="248.48 312.2 237.45 323.41 233.88 367.08 244.92 355.87 248.48 312.2"/><polygon class="cls-115" points="266.98 293.41 255.94 304.63 252.38 348.29 263.41 337.08 266.98 293.41"/><polygon class="cls-115" points="285.47 274.63 274.43 285.84 270.87 329.5 281.9 318.29 285.47 274.63"/><polygon class="cls-115" points="303.96 255.84 292.93 267.05 289.36 310.72 300.4 299.5 303.96 255.84"/><polygon class="cls-115" points="322.45 237.05 311.42 248.26 307.86 291.93 318.89 280.72 322.45 237.05"/><polygon class="cls-115" points="340.95 218.26 329.91 229.47 326.35 273.14 337.38 261.93 340.95 218.26"/><polygon class="cls-115" points="359.44 199.47 348.4 210.69 344.84 254.35 355.88 243.14 359.44 199.47"/><polygon class="cls-115" points="377.93 180.69 366.9 191.9 363.33 235.56 374.37 224.35 377.93 180.69"/><polygon class="cls-115" points="396.43 161.9 385.39 173.11 381.83 216.78 392.86 205.56 396.43 161.9"/><polygon class="cls-115" points="414.85 144.03 414.42 143.62 403.88 154.32 400.32 197.99 411.36 186.78 414.85 144.03"/><polygon class="cls-115" points="430.54 159.49 421.19 150.28 418.81 179.2 429.85 167.99 430.54 159.49"/><polygon class="cls-115" points="156.02 406.14 144.98 417.35 143.65 433.94 153 443.15 156.02 406.14"/><g class="cls-116"><path class="cls-117" d="M168.42,82.75c-2.36-2.38-18.89,10.17-36.94,28S100.72,145,103.07,147.41s18.89-10.17,36.93-28S170.77,85.13,168.42,82.75Z" transform="translate(217.91 174.35)"/></g><g class="cls-118"><path class="cls-119" d="M104.21,18.54c-2.35-2.37-18.89,10.17-36.94,28S36.51,80.83,38.86,83.2,57.75,73,75.79,55.18,106.56,20.92,104.21,18.54Z" transform="translate(217.91 174.35)"/></g><rect class="cls-120" x="56.23" y="34.74" width="94.76" height="94.76" rx="2.31" transform="translate(190.19 271.66) rotate(-45)"/><g class="cls-121"><path class="cls-122" d="M102,19.06a2.32,2.32,0,0,1,3.27,0L169,82.8a2.12,2.12,0,0,1,.37.48,2.31,2.31,0,0,0-.37-2.79L105.24,16.75a2.32,2.32,0,0,0-3.27,0L38.23,80.49a2.32,2.32,0,0,0-.36,2.79,2.41,2.41,0,0,1,.36-.48Z" transform="translate(217.91 174.35)"/></g><path class="cls-123" d="M103.61,141.37a4.31,4.31,0,0,1-3-1.26l-54.94-55a4.3,4.3,0,0,1,0-6.08l54.94-54.95a4.31,4.31,0,0,1,6.09,0l54.95,55a4.3,4.3,0,0,1,0,6.08l-54.95,55A4.27,4.27,0,0,1,103.61,141.37ZM49.11,82.12l54.5,54.5,54.49-54.5L103.61,27.63Z" transform="translate(217.91 174.35)"/><path class="cls-124" d="M103.61,141.37a4.31,4.31,0,0,1-3-1.26l-54.94-55a4.3,4.3,0,0,1,0-6.08l54.94-54.95a4.31,4.31,0,0,1,6.09,0l54.95,55a4.3,4.3,0,0,1,0,6.08l-54.95,55A4.27,4.27,0,0,1,103.61,141.37ZM49.11,82.12l54.5,54.5,54.49-54.5L103.61,27.63Z" transform="translate(217.91 174.35)"/><path class="cls-125" d="M165.72,77.22,105.24,16.75a2.32,2.32,0,0,0-3.27,0L42.58,76.14a90.14,90.14,0,0,0,123.14,1.08Z" transform="translate(217.91 174.35)"/><text class="cls-126" transform="translate(287.14 272.36)">UNDER</text><text class="cls-127" transform="translate(300.56 279.82)"><tspan class="cls-128">C</tspan><tspan x="3.27" y="0">ONSTRU</tspan><tspan class="cls-129" x="25.43" y="0">C</tspan><tspan x="28.69" y="0">TION</tspan></text><rect x="326.86" y="240.5" width="6.45" height="11.57"/><rect x="311.13" y="243.92" width="6.45" height="8.15"/><rect x="295.22" y="248.02" width="15" height="4.04"/><rect x="333.98" y="232.65" width="6.66" height="19.36"/><rect x="341.32" y="244.11" width="5.53" height="8"/><path d="M119.69,49.05H105.62V47.19h-3.41v1.86H95.86V50h6.35v.24h-1.86v6.19h.85V77.56h.93v-.31h3.56v.31h.93V56.41h.86V50.22h-1.86V50h13v4.24h-2.53v2.94h6.67V54.22h-3ZM102.13,71h3.56V73h-3.56Zm0-1.08v-2h3.56v2Zm0-3.14v-2h3.56v2Zm0-3.13V61.56h3.56v2.06Zm0-3.14v-2h3.56v2Zm0,15.68v-2h3.56v2Zm3.56-19.75v.93h-3.56v-.93h3.56Z" transform="translate(217.91 174.35)"/><rect x="288.01" y="251.28" width="67.01" height="1.66"/><polygon points="320.47 285.07 321.66 285.07 321.67 285.06 320.47 283.42 321.67 281.77 321.66 281.76 320.47 281.76 319.27 283.42 320.47 285.07"/><polygon points="318.57 285.07 319.76 285.07 319.76 285.06 318.57 283.42 319.76 281.77 319.76 281.76 318.57 281.76 317.37 283.42 318.57 285.07"/><polygon points="316.66 285.07 317.85 285.07 317.86 285.06 316.66 283.42 317.86 281.77 317.85 281.76 316.66 281.76 315.46 283.42 316.66 285.07"/><polygon points="314.76 285.07 315.95 285.07 315.95 285.06 314.76 283.42 315.95 281.77 315.95 281.76 314.76 281.76 313.56 283.42 314.76 285.07"/><polygon points="312.85 285.07 314.05 285.07 314.05 285.06 312.85 283.42 314.05 281.77 314.05 281.76 312.85 281.76 311.65 283.42 312.85 285.07"/><polygon points="310.95 285.07 312.14 285.07 312.14 285.06 310.95 283.42 312.14 281.77 312.14 281.76 310.95 281.76 309.75 283.42 310.95 285.07"/><polygon points="309.04 285.07 310.24 285.07 310.24 285.06 309.04 283.42 310.24 281.77 310.24 281.76 309.04 281.76 307.84 283.42 309.04 285.07"/><polygon points="307.14 285.07 308.33 285.07 308.33 285.06 307.14 283.42 308.33 281.77 308.33 281.76 307.14 281.76 305.94 283.42 307.14 285.07"/><polygon points="305.23 285.07 306.43 285.07 306.43 285.06 305.23 283.42 306.43 281.77 306.43 281.76 305.23 281.76 304.03 283.42 305.23 285.07"/><polygon points="303.33 285.07 304.52 285.07 304.52 285.06 303.33 283.42 304.52 281.77 304.52 281.76 303.33 281.76 302.13 283.42 303.33 285.07"/><polygon points="301.42 285.07 302.62 285.07 302.62 285.06 301.42 283.42 302.62 281.77 302.62 281.76 301.42 281.76 300.22 283.42 301.42 285.07"/><polygon points="341.61 285.07 342.81 285.07 342.81 285.06 341.61 283.42 342.81 281.77 342.81 281.76 341.61 281.76 340.42 283.42 341.61 285.07"/><polygon points="339.71 285.07 340.9 285.07 340.9 285.06 339.71 283.42 340.9 281.77 340.9 281.76 339.71 281.76 338.51 283.42 339.71 285.07"/><polygon points="337.8 285.07 339 285.07 339 285.06 337.8 283.42 339 281.77 339 281.76 337.8 281.76 336.61 283.42 337.8 285.07"/><polygon points="335.9 285.07 337.09 285.07 337.1 285.06 335.9 283.42 337.1 281.77 337.09 281.76 335.9 281.76 334.7 283.42 335.9 285.07"/><polygon points="333.99 285.07 335.19 285.07 335.19 285.06 333.99 283.42 335.19 281.77 335.19 281.76 333.99 281.76 332.8 283.42 333.99 285.07"/><polygon points="332.09 285.07 333.28 285.07 333.29 285.06 332.09 283.42 333.29 281.77 333.28 281.76 332.09 281.76 330.89 283.42 332.09 285.07"/><polygon points="330.19 285.07 331.38 285.07 331.38 285.06 330.19 283.42 331.38 281.77 331.38 281.76 330.19 281.76 328.99 283.42 330.19 285.07"/><polygon points="328.28 285.07 329.47 285.07 329.48 285.06 328.28 283.42 329.48 281.77 329.47 281.76 328.28 281.76 327.08 283.42 328.28 285.07"/><polygon points="326.38 285.07 327.57 285.07 327.57 285.06 326.38 283.42 327.57 281.77 327.57 281.76 326.38 281.76 325.18 283.42 326.38 285.07"/><polygon points="324.47 285.07 325.66 285.07 325.67 285.06 324.47 283.42 325.67 281.77 325.66 281.76 324.47 281.76 323.27 283.42 324.47 285.07"/><polygon points="322.57 285.07 323.76 285.07 323.76 285.06 322.57 283.42 323.76 281.77 323.76 281.76 322.57 281.76 321.37 283.42 322.57 285.07"/><path d="M110,117.67l-.67-.67.38-.38-1-1.06-.39.39-.67-.67a1.26,1.26,0,0,0-1.78,0l-.56.56a1.26,1.26,0,0,0,0,1.78l.67.67-2,2-1.62-1.62.63-.63a3.56,3.56,0,0,1,.47-2.78l-.33-.33-2.26,2.25-.4-.4-.82.82.55.54-.34.34.3.29-.26.26a.49.49,0,0,0-.58,0l-.77.77c-.16.16-.08.5.18.76l.29.29c.26.26.6.34.76.18l.77-.77c.13-.13.1-.36,0-.58l.25-.25.3.29.33-.33,1.77,1.76-3.64,3.64,1,1.06,3.36-3.35,3.45,3.45,1.4-1.39L105.27,121l1.7-1.69.66.66a1.27,1.27,0,0,0,1.79,0l.56-.56A1.26,1.26,0,0,0,110,117.67Z" transform="translate(217.91 174.35)"/></g></g></svg>