<svg xmlns="http://www.w3.org/2000/svg" xmlns:xlink="http://www.w3.org/1999/xlink" viewBox="0 0 1275.12 1292.72"><defs><style>.cls-1{mask:url(#mask);}.cls-117,.cls-119,.cls-2,.cls-4{mix-blend-mode:multiply;}.cls-2{fill:url(#radial-gradient);}.cls-3{mask:url(#mask-2);}.cls-4{fill:url(#radial-gradient-2);}.cls-5{fill:none;}.cls-6{isolation:isolate;}.cls-7{clip-path:url(#clip-path);}.cls-8{fill:#b8982b;}.cls-10,.cls-100,.cls-101,.cls-102,.cls-103,.cls-104,.cls-105,.cls-106,.cls-107,.cls-108,.cls-109,.cls-11,.cls-110,.cls-111,.cls-112,.cls-113,.cls-114,.cls-115,.cls-12,.cls-13,.cls-14,.cls-15,.cls-16,.cls-17,.cls-18,.cls-19,.cls-20,.cls-21,.cls-22,.cls-23,.cls-24,.cls-25,.cls-26,.cls-27,.cls-28,.cls-29,.cls-30,.cls-31,.cls-32,.cls-33,.cls-34,.cls-35,.cls-36,.cls-37,.cls-38,.cls-39,.cls-40,.cls-41,.cls-42,.cls-43,.cls-44,.cls-45,.cls-46,.cls-47,.cls-48,.cls-49,.cls-50,.cls-51,.cls-52,.cls-53,.cls-54,.cls-55,.cls-56,.cls-57,.cls-58,.cls-59,.cls-60,.cls-61,.cls-62,.cls-63,.cls-64,.cls-65,.cls-66,.cls-67,.cls-68,.cls-69,.cls-70,.cls-71,.cls-72,.cls-73,.cls-74,.cls-75,.cls-76,.cls-77,.cls-78,.cls-79,.cls-8,.cls-80,.cls-81,.cls-82,.cls-83,.cls-84,.cls-85,.cls-86,.cls-87,.cls-88,.cls-89,.cls-9,.cls-90,.cls-91,.cls-92,.cls-93,.cls-94,.cls-95,.cls-96,.cls-97,.cls-98,.cls-99{fill-rule:evenodd;}.cls-9{fill:#b9982a;}.cls-10{fill:#b9992a;}.cls-11{fill:#ba992a;}.cls-12{fill:#bb9a2a;}.cls-13{fill:#bc9a29;}.cls-14{fill:#bc9b29;}.cls-15{fill:#bd9c28;}.cls-16{fill:#be9c28;}.cls-17{fill:#bf9d28;}.cls-18{fill:#c09d27;}.cls-19{fill:#c09e27;}.cls-20{fill:#c19f26;}.cls-21{fill:#c29f26;}.cls-22{fill:#c3a026;}.cls-23{fill:#c4a125;}.cls-24{fill:#c5a125;}.cls-25{fill:#c5a224;}.cls-26{fill:#c6a324;}.cls-27{fill:#c7a323;}.cls-28{fill:#c8a423;}.cls-29{fill:#c8a522;}.cls-30{fill:#c9a522;}.cls-31{fill:#c9a521;}.cls-32{fill:#caa621;}.cls-33{fill:#cba621;}.cls-34{fill:#cba720;}.cls-35{fill:#cca720;}.cls-36{fill:#cca81f;}.cls-37{fill:#cda81f;}.cls-38{fill:#cda91f;}.cls-39{fill:#cea91e;}.cls-40{fill:#cfa91e;}.cls-41{fill:#cfaa1e;}.cls-42{fill:#d0aa1d;}.cls-43{fill:#d0ab1d;}.cls-44{fill:#d1ab1c;}.cls-45{fill:#d1ac1c;}.cls-46{fill:#d2ac1c;}.cls-47{fill:#d3ad1b;}.cls-48{fill:#d4ad1a;}.cls-49{fill:#d4ae1a;}.cls-50{fill:#d4ae19;}.cls-51{fill:#d5af18;}.cls-52{fill:#d6af18;}.cls-53{fill:#d6b017;}.cls-54{fill:#d7b017;}.cls-55{fill:#d8b016;}.cls-56{fill:#d8b116;}.cls-57{fill:#d8b115;}.cls-58{fill:#d9b214;}.cls-59{fill:#dab214;}.cls-60{fill:#dab313;}.cls-61{fill:#dbb313;}.cls-62{fill:#dcb411;}.cls-63{fill:#dcb510;}.cls-64{fill:#ddb50f;}.cls-65{fill:#deb60e;}.cls-66{fill:#dfb60d;}.cls-67{fill:#dfb70d;}.cls-68{fill:#e0b70c;}.cls-69{fill:#e0b80c;}.cls-70{fill:#e0b80b;}.cls-71{fill:#e1b90b;}.cls-72{fill:#e2b90a;}.cls-73{fill:#e3ba0a;}.cls-74{fill:#e3ba09;}.cls-75{fill:#e4bb09;}.cls-76{fill:#e4bc08;}.cls-77{fill:#e5bc08;}.cls-78{fill:#e5bd07;}.cls-79{fill:#e6bd07;}.cls-80{fill:#e7bd07;}.cls-81{fill:#e7be06;}.cls-82{fill:#e8be06;}.cls-83{fill:#e8bf06;}.cls-84{fill:#e8bf05;}.cls-85{fill:#e9bf05;}.cls-86{fill:#e9c005;}.cls-87{fill:#eac004;}.cls-88{fill:#ebc103;}.cls-89{fill:#ecc102;}.cls-90{fill:#ecc202;}.cls-91{fill:#ecc201;}.cls-92{fill:#edc201;}.cls-93{fill:#edc301;}.cls-94{fill:#eec300;}.cls-95{fill:#efc400;}.cls-96{fill:#f0c500;}.cls-97{fill:#f1c600;}.cls-98{fill:#f2c700;}.cls-99{fill:#f3c700;}.cls-100{fill:#f3c800;}.cls-101{fill:#f4c900;}.cls-102{fill:#f5ca00;}.cls-103{fill:#f6ca00;}.cls-104{fill:#f7cb00;}.cls-105{fill:#f7cc00;}.cls-106,.cls-120{fill:#f8cc00;}.cls-107{fill:#f8cd00;}.cls-108{fill:#f9cd00;}.cls-109{fill:#face00;}.cls-110{fill:#fbcf00;}.cls-111{fill:#fccf00;}.cls-112{fill:#fcd000;}.cls-113{fill:#fcd100;}.cls-114{fill:#fdd100;}.cls-115{fill:#332c2b;}.cls-116{mask:url(#mask-3);}.cls-117{fill:url(#radial-gradient-3);}.cls-118{mask:url(#mask-4);}.cls-119{fill:url(#radial-gradient-4);}.cls-121,.cls-124{mix-blend-mode:color-dodge;}.cls-122{fill:url(#radial-gradient-5);}.cls-123{fill:#010002;}.cls-124{fill:url(#radial-gradient-6);}.cls-125{fill:url(#linear-gradient);}.cls-126{font-size:22.51px;font-family:PTSans-Bold, PT Sans;font-weight:700;}.cls-127{font-size:6px;font-family:PTSans-Regular, PT Sans;}.cls-128{letter-spacing:-0.03em;}.cls-129{letter-spacing:-0.03em;}.cls-130{filter:url(#luminosity-noclip-4);}.cls-131{filter:url(#luminosity-noclip-3);}.cls-132{filter:url(#luminosity-noclip-2);}.cls-133{filter:url(#luminosity-noclip);}</style><filter id="luminosity-noclip" x="147.33" y="-8683.86" width="65.91" height="32766" filterUnits="userSpaceOnUse" color-interpolation-filters="sRGB"><feFlood flood-color="#fff" result="bg"/><feBlend in="SourceGraphic" in2="bg"/></filter><mask id="mask" x="147.33" y="-8683.86" width="65.91" height="32766" maskUnits="userSpaceOnUse"><g class="cls-133"/></mask><radialGradient id="radial-gradient" cx="2062.72" cy="8372.92" r="40.59" gradientTransform="matrix(0.81, -0.8, 0.1, 0.11, -2358.73, 891.87)" gradientUnits="userSpaceOnUse"><stop offset="0" stop-color="#fff"/><stop offset="0.11" stop-color="#e9e9e9"/><stop offset="0.35" stop-color="#b2b2b2"/><stop offset="0.69" stop-color="#595959"/><stop offset="1"/></radialGradient><filter id="luminosity-noclip-2" x="83.12" y="-8683.86" width="65.91" height="32766" filterUnits="userSpaceOnUse" color-interpolation-filters="sRGB"><feFlood flood-color="#fff" result="bg"/><feBlend in="SourceGraphic" in2="bg"/></filter><mask id="mask-2" x="83.12" y="-8683.86" width="65.91" height="32766" maskUnits="userSpaceOnUse"><g class="cls-132"/></mask><radialGradient id="radial-gradient-2" cx="2062.26" cy="7764.33" r="40.59" xlink:href="#radial-gradient"/><clipPath id="clip-path" transform="translate(514.68 556.97)"><rect class="cls-5" x="-316.49" y="84.19" width="906.02" height="64.13" transform="translate(-42.1 132) rotate(-45.45)"/></clipPath><filter id="luminosity-noclip-3" x="147.33" y="104.46" width="65.91" height="65.24" filterUnits="userSpaceOnUse" color-interpolation-filters="sRGB"><feFlood flood-color="#fff" result="bg"/><feBlend in="SourceGraphic" in2="bg"/></filter><mask id="mask-3" x="662.01" y="661.43" width="65.91" height="65.24" maskUnits="userSpaceOnUse"><g class="cls-131"><g transform="translate(514.68 556.97)"><g class="cls-1"><path class="cls-2" d="M213,104.75c-2.35-2.38-18.89,10.17-36.94,28S145.26,167,147.61,169.41s18.89-10.17,36.93-28S215.31,107.13,213,104.75Z"/></g></g></g></mask><radialGradient id="radial-gradient-3" cx="2062.72" cy="8372.92" r="40.59" gradientTransform="matrix(0.81, -0.8, 0.1, 0.11, -2358.73, 891.87)" gradientUnits="userSpaceOnUse"><stop offset="0" stop-color="#666"/><stop offset="0.19" stop-color="#7c7c7c"/><stop offset="0.59" stop-color="#b3b3b3"/><stop offset="1" stop-color="#f2f2f2"/></radialGradient><filter id="luminosity-noclip-4" x="83.12" y="40.25" width="65.91" height="65.24" filterUnits="userSpaceOnUse" color-interpolation-filters="sRGB"><feFlood flood-color="#fff" result="bg"/><feBlend in="SourceGraphic" in2="bg"/></filter><mask id="mask-4" x="597.81" y="597.22" width="65.91" height="65.24" maskUnits="userSpaceOnUse"><g class="cls-130"><g transform="translate(514.68 556.97)"><g class="cls-3"><path class="cls-4" d="M148.75,40.54c-2.35-2.37-18.89,10.17-36.93,28S81.05,102.83,83.4,105.2s18.89-10.17,36.93-28S151.1,42.92,148.75,40.54Z"/></g></g></g></mask><radialGradient id="radial-gradient-4" cx="2062.26" cy="7764.33" r="40.59" xlink:href="#radial-gradient-3"/><radialGradient id="radial-gradient-5" cx="148.15" cy="71.67" r="52.4" gradientUnits="userSpaceOnUse"><stop offset="0" stop-color="#f0f1f1"/><stop offset="1" stop-color="#fff" stop-opacity="0"/></radialGradient><radialGradient id="radial-gradient-6" cx="148.15" cy="104.12" r="59.25" xlink:href="#radial-gradient-5"/><linearGradient id="linear-gradient" x1="17.48" y1="-32.53" x2="199.15" y2="149.14" gradientUnits="userSpaceOnUse"><stop offset="0" stop-color="#fff"/><stop offset="1" stop-color="#fff" stop-opacity="0"/></linearGradient></defs><title>under-construction</title><g class="cls-6"><g id="Layer_1" data-name="Layer 1"><g class="cls-7"><polygon class="cls-8" points="640.56 643.68 634.93 649.4 634.52 648.99 640.15 643.27 640.56 643.68"/><path class="cls-8" d="M124.88,87.63l-3.77,3.83-.28-.27,3.77-3.83Zm3-2.67-9.4,9.54-.69-.68,9.39-9.54Z" transform="translate(514.68 556.97)"/><path class="cls-9" d="M126.92,85.83l-7.53,7.66-.56-.55,7.54-7.65Zm3-2.67L116.76,96.53l-1-1L129,82.2Z" transform="translate(514.68 556.97)"/><path class="cls-10" d="M128.92,84.08l-11.3,11.48-.83-.81,11.3-11.49Zm3-2.68L115,98.6l-1.25-1.22,16.94-17.21Z" transform="translate(514.68 556.97)"/><path class="cls-10" d="M130.92,82.32l-15,15.27-1.1-1.09,15-15.27ZM134,79.6l-20.71,21-1.52-1.5,20.7-21Z" transform="translate(514.68 556.97)"/><path class="cls-11" d="M133,80.52l-18.8,19.1-1.38-1.36,18.79-19.1Zm3-2.68-24.43,24.82-1.8-1.77,24.43-24.82Z" transform="translate(514.68 556.97)"/><path class="cls-11" d="M135,78.77,112.4,101.69l-1.66-1.63,22.57-22.93Zm3-2.68-28.19,28.64-2.07-2,28.19-28.64Z" transform="translate(514.68 556.97)"/><path class="cls-11" d="M137,77l-26.33,26.75-1.94-1.91,26.33-26.75Zm3-2.68-32,32.47-2.35-2.32,32-32.47Z" transform="translate(514.68 556.97)"/><path class="cls-12" d="M139,75.21l-30.1,30.58-2.21-2.18L136.8,73Zm3-2.68-35.73,36.3-2.63-2.59L139.38,70Z" transform="translate(514.68 556.97)"/><path class="cls-12" d="M141,73.41l-33.77,34.41-2.49-2.45L138.52,71Zm3.09-2.68-39.49,40.13L101.65,108l39.5-40.13Z" transform="translate(514.68 556.97)"/><path class="cls-12" d="M143,71.61,105.42,109.8l-2.72-2.68,37.59-38.19Zm3-2.63-43.26,44-3.18-3.13,43.26-43.95Z" transform="translate(514.68 556.97)"/><path class="cls-13" d="M145,69.86l-41.36,42-3-3,41.36-42Zm3-2.64-47,47.74-3.46-3.41,47-47.73Z" transform="translate(514.68 556.97)"/><path class="cls-14" d="M147.05,68.06,101.93,113.9l-3.28-3.22,45.13-45.85Zm3-2.64L99.34,117l-3.73-3.68,50.75-51.56Z" transform="translate(514.68 556.97)"/><path class="cls-14" d="M149.05,66.3,100.16,116l-3.55-3.49L145.5,62.81Zm3-2.63L97.58,119.06l-4-4,54.53-55.39Z" transform="translate(514.68 556.97)"/><path class="cls-14" d="M151.1,64.5,98.44,118l-3.83-3.77,52.66-53.5Zm3-2.63L95.85,121.09l-4.29-4.22,58.29-59.22Z" transform="translate(514.68 556.97)"/><path class="cls-14" d="M153.1,62.74,96.71,120l-4.1-4L149,58.7Zm3-2.63-62,63.05-4.57-4.49,62.06-63Z" transform="translate(514.68 556.97)"/><path class="cls-14" d="M155.1,61,95,122.1l-4.39-4.31,60.16-61.11Zm3-2.63L92.36,125.19l-4.84-4.77L153.3,53.59Z" transform="translate(514.68 556.97)"/><path class="cls-15" d="M157.14,59.19,93.22,124.13l-4.65-4.59L152.48,54.6Zm3.05-2.63L90.64,127.21l-5.07-5,69.54-70.66Z" transform="translate(514.68 556.97)"/><path class="cls-15" d="M159.14,57.43,91.46,126.2l-4.94-4.86,67.69-68.76Zm3.05-2.63L88.87,129.29,83.52,124l73.32-74.48Z" transform="translate(514.68 556.97)"/><path class="cls-15" d="M161.19,55.63l-71.46,72.6-5.21-5.13L156,50.5Zm3-2.63L87.15,131.32l-5.63-5.54,77.09-78.32Z" transform="translate(514.68 556.97)"/><path class="cls-16" d="M163.19,53.88,88,130.3l-5.48-5.4L157.7,48.48Zm3-2.63L85.38,133.39l-5.9-5.81,80.85-82.14Z" transform="translate(514.68 556.97)"/><path class="cls-16" d="M165.19,52.12,86.24,132.33l-5.76-5.68,78.94-80.2Zm3.09-2.67-84.62,86-6.18-6.09,84.62-86Z" transform="translate(514.68 556.97)"/><path class="cls-17" d="M167.23,50.32l-82.71,84-6-6,82.71-84Zm3.05-2.63-88.39,89.8-6.46-6.36,88.39-89.8Z" transform="translate(514.68 556.97)"/><path class="cls-17" d="M169.23,48.57,82.75,136.43l-6.32-6.22,86.48-87.86Zm3.05-2.63L80.17,139.52l-6.74-6.63,92.11-93.58Z" transform="translate(514.68 556.97)"/><path class="cls-17" d="M171.28,46.77,81,138.46,74.43,132l90.25-91.69Zm3-2.64L78.44,141.54l-7-6.9,95.88-97.41Z" transform="translate(514.68 556.97)"/><path class="cls-18" d="M173.28,45l-94,95.52-6.87-6.76,94-95.52Zm3-2.63L76.67,143.62l-7.28-7.18L169,35.21Z" transform="translate(514.68 556.97)"/><path class="cls-19" d="M175.32,43.21,77.54,142.56l-7.15-7,97.78-99.35Zm3.05-2.63L75,145.64l-7.56-7.44L170.8,33.13Z" transform="translate(514.68 556.97)"/><path class="cls-19" d="M177.32,41.46,75.81,144.58l-7.42-7.3L169.9,34.15Zm3.05-2.64L73.18,147.72,65.34,140,172.53,31.11Z" transform="translate(514.68 556.97)"/><path class="cls-19" d="M179.32,39.7,74,146.66l-7.7-7.58,105.28-107Zm3.05-2.63L71.46,149.74l-8.12-8L174.25,29.08Z" transform="translate(514.68 556.97)"/><path class="cls-19" d="M181.37,37.9l-109,110.79-8-7.86,109-110.78Zm3-2.63L69.74,151.77l-8.4-8.26L176,27Z" transform="translate(514.68 556.97)"/><path class="cls-19" d="M183.37,36.15,70.55,150.76l-8.25-8.13L175.11,28Zm3-2.64L68,153.85l-8.67-8.54L177.74,25Z" transform="translate(514.68 556.97)"/><path class="cls-20" d="M185.41,34.35,68.83,152.79l-8.53-8.4L176.88,26Zm3.05-2.64L66.25,155.87l-9-8.8L179.51,22.91Z" transform="translate(514.68 556.97)"/><path class="cls-20" d="M187.41,32.59,67.06,154.86l-8.81-8.67L178.6,23.92ZM190.46,30l-126,128-9.23-9.08,126-128Z" transform="translate(514.68 556.97)"/><path class="cls-20" d="M189.41,30.84l-124.07,126-9.09-8.95,124.07-126Zm3.09-2.68L62.75,160l-9.5-9.35L183,18.81Z" transform="translate(514.68 556.97)"/><path class="cls-21" d="M191.45,29,63.62,158.91l-9.37-9.21L182.09,19.82Zm3.05-2.63L61,162.05l-9.78-9.63L184.72,16.78Z" transform="translate(514.68 556.97)"/><path class="cls-21" d="M193.45,27.28,61.85,161l-9.64-9.49L183.82,17.79Zm3-2.68L59.22,164l-10-9.85L186.45,14.75Z" transform="translate(514.68 556.97)"/><path class="cls-21" d="M195.5,25.48,60.12,163l-9.91-9.76L185.58,15.72Zm3-2.68-141,143.25L47.21,155.93l141-143.25Z" transform="translate(514.68 556.97)"/><path class="cls-22" d="M197.5,23.72,58.36,165.09l-10.2-10L187.31,13.69Zm3-2.67L55.73,168.13l-10.57-10.4L189.94,10.65Z" transform="translate(514.68 556.97)"/><path class="cls-22" d="M199.5,22,56.63,167.11l-10.47-10.3L189,11.66Zm3-2.72L54,170.16,43.16,159.49,191.7,8.58Z" transform="translate(514.68 556.97)"/><path class="cls-22" d="M201.54,20.17l-146.63,149L44.16,158.56,190.8,9.59Zm3-2.68L52.23,172.23,41.12,161.29,193.43,6.55Z" transform="translate(514.68 556.97)"/><path class="cls-23" d="M203.54,18.41,53.14,171.21l-11-10.85L192.52,7.56Zm3-2.67-156,158.52L39.12,163l156-158.52Z" transform="translate(514.68 556.97)"/><path class="cls-23" d="M205.59,16.61,51.42,173.24l-11.3-11.12L194.29,5.49Zm3-2.68L48.79,176.28,37.12,164.8,196.92,2.45Z" transform="translate(514.68 556.97)"/><path class="cls-23" d="M207.59,14.86,49.65,175.32l-11.58-11.4L196,3.46Zm3-2.68L47,178.36,35.08,166.6,198.64.42Z" transform="translate(514.68 556.97)"/><path class="cls-23" d="M209.63,13.06,47.93,177.34,36.07,165.68,197.78,1.39Zm3-2.68L45.3,180.38l-12.22-12,167.33-170Z" transform="translate(514.68 556.97)"/><path class="cls-23" d="M211.63,11.3,46.16,179.42,34,167.48,199.5-.64Zm3-2.68L43.53,182.46,31,170.15,202.13-3.68Z" transform="translate(514.68 556.97)"/><path class="cls-24" d="M213.63,9.55,44.44,181.44,32.08,169.28,201.23-2.66Zm3.05-2.73L41.81,184.48,29,171.91,203.9-5.75Z" transform="translate(514.68 556.97)"/><path class="cls-25" d="M215.68,7.75l-173,175.72L30.08,171,203-4.69Zm3-2.68L40.08,186.51,27,173.66,205.62-7.78Z" transform="translate(514.68 556.97)"/><path class="cls-25" d="M217.68,6,41,185.54,28,172.83,204.76-6.72Zm3-2.68L38.32,188.58,25,175.46,207.35-9.81Z" transform="translate(514.68 556.97)"/><path class="cls-25" d="M219.72,4.19,39.22,187.57,26,174.59,206.53-8.79Zm3-2.68L36.59,190.61,23,177.22,209.12-11.88Z" transform="translate(514.68 556.97)"/><path class="cls-26" d="M221.72,2.44,37.45,189.64,24,176.39,208.25-10.82Zm3-2.68L34.82,192.68,20.94,179,210.84-13.91Z" transform="translate(514.68 556.97)"/><path class="cls-26" d="M223.72.68l-188,191L22,178.14l188-191ZM226.77-2,33.1,194.71,18.94,180.78,212.61-16Z" transform="translate(514.68 556.97)"/><path class="cls-26" d="M225.77-1.12,34,193.7,20,179.9,211.75-14.92Zm3-2.68L31.33,196.79,16.9,182.58,214.33-18Z" transform="translate(514.68 556.97)"/><path class="cls-27" d="M227.77-2.87,32.24,195.77,17.94,181.7,213.47-16.95Zm3-2.68L29.61,198.81,14.9,184.33,216.05-20Z" transform="translate(514.68 556.97)"/><path class="cls-27" d="M229.81-4.68,30.52,197.8,15.94,183.45,215.24-19Zm3-2.67L27.89,200.84l-15-14.75L217.82-22.11Z" transform="translate(514.68 556.97)"/><path class="cls-27" d="M231.81-6.43,28.75,199.87,13.9,185.25,217-21Zm3-2.68-208.69,212-15.27-15,208.69-212Z" transform="translate(514.68 556.97)"/><path class="cls-28" d="M233.86-8.23,27,201.9,11.9,187,218.73-23.12Zm3-2.68L24.4,204.94,8.85,189.64,221.31-26.21Z" transform="translate(514.68 556.97)"/><path class="cls-28" d="M235.86-10,25.26,204,9.85,188.81l210.6-214Zm3-2.67L22.63,207,6.81,191.44,223-28.23Z" transform="translate(514.68 556.97)"/><path class="cls-28" d="M237.86-11.74,23.53,206,7.85,190.56,222.17-27.18Zm3-2.68L20.9,209,4.81,193.2l220-223.46Z" transform="translate(514.68 556.97)"/><path class="cls-29" d="M239.9-13.54,21.81,208l-16-15.71L223.94-29.25Zm3-2.68L19.18,211.07,2.81,195,226.53-32.34Z" transform="translate(514.68 556.97)"/><path class="cls-29" d="M241.9-15.3,20,210.1l-16.23-16L225.67-31.28Zm3-2.67L17.41,213.14.76,196.75,228.25-34.36Z" transform="translate(514.68 556.97)"/><path class="cls-29" d="M244-17.1,18.32,212.13,1.81,195.88,227.43-33.35Zm3-2.68-231.25,235L-1.24,198.51,230-36.44Z" transform="translate(514.68 556.97)"/><path class="cls-30" d="M245.94-18.85,16.55,214.2-.24,197.68,229.16-35.38Zm3-2.68-235,238.77-17.2-16.93,235-238.77Z" transform="translate(514.68 556.97)"/><path class="cls-30" d="M247.94-20.61,14.83,216.23l-17.07-16.8L230.88-37.4ZM251-23.33,12.2,219.27-5.28,202.06,233.51-40.54Z" transform="translate(514.68 556.97)"/><path class="cls-31" d="M249.94-22.45,13.11,218.25-4.24,201.19,232.65-39.48ZM253-25.09,10.43,221.34-7.33,203.86,235.23-42.56Z" transform="translate(514.68 556.97)"/><path class="cls-32" d="M251.94-24.21,11.29,220.28-6.28,203,234.37-41.5ZM255-26.84,8.71,223.37l-18-17.75L237-44.59Z" transform="translate(514.68 556.97)"/><path class="cls-32" d="M254-26,9.57,222.31-8.28,204.74,236.14-43.58Zm3-2.63L7,225.4l-18.31-18,250.05-254Z" transform="translate(514.68 556.97)"/><path class="cls-33" d="M256-27.76,7.8,224.38l-18.13-17.84L237.86-45.6Zm3-2.64L5.22,227.47l-18.59-18.3L240.45-48.69Z" transform="translate(514.68 556.97)"/><path class="cls-33" d="M258-29.56,6.08,226.41l-18.4-18.11,252-256Zm3.05-2.64L3.49,229.5l-18.86-18.57L242.21-50.76Z" transform="translate(514.68 556.97)"/><path class="cls-34" d="M260-31.32,4.35,228.44l-18.67-18.39L241.35-49.71Zm3.05-2.63L1.73,231.57l-19.15-18.84L243.94-52.79Z" transform="translate(514.68 556.97)"/><path class="cls-35" d="M262-33.07,2.59,230.51l-19-18.66L243.08-51.73Zm3.05-2.64L0,233.6l-19.41-19.11L245.66-54.82Z" transform="translate(514.68 556.97)"/><path class="cls-35" d="M264.08-34.87.86,232.54l-19.23-18.93L244.84-53.81Zm3-2.64L-1.72,235.62l-19.65-19.33L247.43-56.89Z" transform="translate(514.68 556.97)"/><path class="cls-35" d="M266.08-36.63-.9,234.61l-19.51-19.2,267-271.24Zm3-2.63L-3.49,237.7l-19.92-19.61,272.61-277Z" transform="translate(514.68 556.97)"/><path class="cls-36" d="M268.12-38.43-2.63,236.64l-19.78-19.48L248.34-57.91Zm3.05-2.63L-5.21,239.73l-20.2-19.89L251-60.95Z" transform="translate(514.68 556.97)"/><path class="cls-36" d="M270.12-40.19-4.4,238.71-24.46,219,250.06-59.93Zm3.05-2.63L-7,241.8l-20.48-20.16L252.69-63Z" transform="translate(514.68 556.97)"/><path class="cls-36" d="M272.12-41.94-6.12,240.74l-20.34-20L251.78-62Zm3.09-2.68L-8.7,243.83-29.46,223.4,254.46-65Z" transform="translate(514.68 556.97)"/><path class="cls-37" d="M274.17-43.74l-282,286.51-20.62-20.3L253.55-64Zm3-2.63L-10.47,245.9l-21-20.7L256.18-67.07Z" transform="translate(514.68 556.97)"/><path class="cls-37" d="M276.17-45.5-9.61,244.84-30.5,224.27,255.27-66.06Zm3-2.63L-12.19,247.93-33.5,227l291.4-296Z" transform="translate(514.68 556.97)"/><path class="cls-38" d="M278.21-47.3-11.33,246.87-32.5,226,257-68.13Zm3.05-2.63L-13.92,250-35.5,228.71,259.67-71.18Z" transform="translate(514.68 556.97)"/><path class="cls-39" d="M280.21-49l-293.31,298-21.45-21.11,293.31-298Zm3.05-2.63L-15.69,252l-21.86-21.52L261.39-73.2Z" transform="translate(514.68 556.97)"/><path class="cls-39" d="M282.26-50.85-14.82,251l-21.73-21.38,297-301.78Zm3-2.64L-17.41,254.05l-22.14-21.79L263.16-75.28Z" transform="translate(514.68 556.97)"/><path class="cls-39" d="M284.26-52.61-16.55,253l-22-21.65L262.26-74.26Zm3-2.63L-19.18,256.13l-22.41-22.07L264.89-77.3Z" transform="translate(514.68 556.97)"/><path class="cls-40" d="M286.26-54.36-18.32,255.07l-22.27-21.93L264-76.29Zm3-2.63L-20.9,258.15l-22.69-22.33L266.61-79.33Z" transform="translate(514.68 556.97)"/><path class="cls-41" d="M288.3-56.16-20,257.09-42.59,234.9,265.75-78.36Zm3.05-2.64-314,319-23-22.61,314-319Z" transform="translate(514.68 556.97)"/><path class="cls-41" d="M290.3-57.92-21.81,259.17-44.64,236.7,267.47-80.39Zm3.05-2.63L-24.39,262.25l-23.25-22.88L270.1-83.43Z" transform="translate(514.68 556.97)"/><path class="cls-42" d="M292.34-59.72-23.53,261.2l-23.11-22.75L269.24-82.46Zm3.05-2.63L-26.11,264.28l-23.53-23.15L271.87-85.5Z" transform="translate(514.68 556.97)"/><path class="cls-42" d="M294.34-61.47-25.3,263.27l-23.38-23L271-84.49Zm3.05-2.64L-27.88,266.36l-23.8-23.43L273.59-87.53Z" transform="translate(514.68 556.97)"/><path class="cls-43" d="M296.34-63.23-27,265.3-50.68,242,272.68-86.52Zm3.09-2.68-329,334.29-24.07-23.7,329-334.28Z" transform="translate(514.68 556.97)"/><path class="cls-43" d="M298.39-65-28.74,267.32l-23.94-23.56L274.45-88.59Zm3-2.63L-31.33,270.41l-24.35-24L277.08-91.63Z" transform="translate(514.68 556.97)"/><path class="cls-43" d="M300.39-66.78-30.51,269.4l-24.22-23.84L276.18-90.62Zm3-2.68L-33.1,272.48l-24.63-24.24L278.81-93.66Z" transform="translate(514.68 556.97)"/><path class="cls-43" d="M302.43-68.58l-334.67,340-24.49-24.1,334.67-340Zm3-2.68L-34.87,274.46-59.73,250,280.57-95.73Z" transform="translate(514.68 556.97)"/><path class="cls-44" d="M304.43-70.34-34,273.5l-24.77-24.38L279.67-94.72Zm3-2.68L-36.63,276.54-61.77,251.8,282.3-97.76Z" transform="translate(514.68 556.97)"/><path class="cls-45" d="M306.43-72.09-35.73,275.52l-25-24.65L281.39-96.75Zm3.05-2.73L-38.36,278.57l-25.41-25L284.06-99.83Z" transform="translate(514.68 556.97)"/><path class="cls-45" d="M308.48-73.9-37.45,277.55l-25.32-24.92L283.16-98.82Zm3-2.67L-40.13,280.64l-25.68-25.29,351.6-357.21Z" transform="translate(514.68 556.97)"/><path class="cls-46" d="M310.48-75.65-39.22,279.62l-25.6-25.19,349.7-355.28Zm3-2.68-355.33,361-26-25.56,355.32-361Z" transform="translate(514.68 556.97)"/><path class="cls-46" d="M312.52-77.45-40.94,281.65l-25.87-25.47,353.46-359.1Zm3-2.68L-43.57,284.69l-26.24-25.83L289.28-106Z" transform="translate(514.68 556.97)"/><path class="cls-46" d="M314.52-79.21-42.71,283.72-68.86,258,288.37-104.95Zm3-2.67L-45.34,286.77l-26.52-26.11L291-108Z" transform="translate(514.68 556.97)"/><path class="cls-47" d="M316.57-81l-361,366.76-26.43-26L290.14-107Zm3-2.67L-47.06,288.79l-26.8-26.37L292.77-110.06Z" transform="translate(514.68 556.97)"/><path class="cls-47" d="M318.57-82.76-46.2,287.83l-26.7-26.29L291.86-109Zm3-2.68L-48.83,290.87-75.9,264.22,294.49-112.09Z" transform="translate(514.68 556.97)"/><path class="cls-47" d="M320.57-84.52-47.92,289.85l-27-26.55L293.59-111.07Zm3-2.72L-50.55,292.89-77.9,266,296.22-114.12Z" transform="translate(514.68 556.97)"/><path class="cls-48" d="M322.61-86.32-49.65,291.88-76.86,265.1,295.35-113.15Zm3-2.68L-52.28,294.92-79.9,267.73,298-116.19Z" transform="translate(514.68 556.97)"/><path class="cls-49" d="M324.61-88.07l-376,382L-78.9,266.9l376-382Zm3-2.68L-54,297l-27.91-27.46L299.71-118.22Z" transform="translate(514.68 556.97)"/><path class="cls-49" d="M326.66-89.87-53.14,296-80.9,268.65,298.89-117.2Zm3-2.68L-55.77,299l-28.18-27.74L301.48-120.29Z" transform="translate(514.68 556.97)"/><path class="cls-50" d="M328.66-91.63-54.91,298.05l-28-27.6L300.61-119.23Zm3-2.68-389.2,395.4-28.45-28L303.2-122.32Z" transform="translate(514.68 556.97)"/><path class="cls-50" d="M330.66-93.38-56.63,300.08l-28.32-27.87L302.34-121.26Zm3-2.73-393,399.23L-88,274.84,305-124.39Z" transform="translate(514.68 556.97)"/><path class="cls-50" d="M332.7-95.18l-391,397.29L-86.95,274,304.11-123.33Zm3-2.68L-61,305.2l-29-28.56L306.69-126.42Z" transform="translate(514.68 556.97)"/><path class="cls-51" d="M334.7-96.94-60.12,304.18-89,275.76,305.83-125.36Zm3-2.68L-62.75,307.22-92,278.4,308.41-128.44Z" transform="translate(514.68 556.97)"/><path class="cls-51" d="M336.75-98.74l-398.59,405L-91,277.52,307.6-127.43Zm3-2.68L-64.47,309.25-94,280.15,310.18-130.52Z" transform="translate(514.68 556.97)"/><path class="cls-52" d="M338.75-100.49-63.61,308.28l-29.43-29L309.32-129.46Zm3-2.68-408,414.49L-96.08,282l408-414.49Z" transform="translate(514.68 556.97)"/><path class="cls-52" d="M340.79-102.3-65.33,310.31-95,281.07l406.13-412.6Zm3-2.67L-68,313.35l-30.12-29.64L313.67-134.62Z" transform="translate(514.68 556.97)"/><path class="cls-53" d="M342.79-104-67.06,312.34l-30-29.51L312.81-133.56Zm3-2.68L-69.73,315.42l-30.4-29.91L315.4-136.64Z" transform="translate(514.68 556.97)"/><path class="cls-54" d="M344.79-105.8-68.83,314.41l-30.25-29.78L314.53-135.59Zm3-2.68L-71.46,317.45l-30.67-30.19L317.12-138.67Z" transform="translate(514.68 556.97)"/><path class="cls-54" d="M346.83-107.61-70.55,316.44l-30.53-30.06,417.38-424Zm3-2.67-423,429.76L-104.13,289l423-429.77Z" transform="translate(514.68 556.97)"/><path class="cls-54" d="M348.83-109.36-72.32,318.51l-30.81-30.33L318-139.69Zm3-2.68L-74.95,321.55l-31.22-30.73L320.61-142.77Z" transform="translate(514.68 556.97)"/><path class="cls-55" d="M350.88-111.16-74,320.54l-31.09-30.6,424.92-431.7Zm3-2.68L-76.67,323.58l-31.5-31L322.38-144.85Z" transform="translate(514.68 556.97)"/><path class="cls-56" d="M352.88-112.92-75.81,322.61l-31.36-30.87L321.52-143.79Zm3-2.67L-78.44,325.65l-31.78-31.28L324.1-146.87Z" transform="translate(514.68 556.97)"/><path class="cls-56" d="M354.88-114.67-77.53,324.64l-31.64-31.15,432.41-439.3Zm3-2.72L-80.16,327.68l-32.06-31.55L325.87-148.95Z" transform="translate(514.68 556.97)"/><path class="cls-57" d="M356.92-116.47-79.25,326.66l-31.92-31.41L325-147.89Zm3-2.68L-81.93,329.75l-32.33-31.82L327.59-151Z" transform="translate(514.68 556.97)"/><path class="cls-57" d="M358.88-118.27-81,328.74l-32.19-31.69,439.94-447Zm3-2.63L-83.65,331.78l-32.61-32.1L329.31-153Z" transform="translate(514.68 556.97)"/><path class="cls-57" d="M360.92-120.07-82.79,330.72l-32.42-31.91L328.5-152Zm3.05-2.64L-85.38,333.81l-32.88-32.37L331.08-155.07Z" transform="translate(514.68 556.97)"/><path class="cls-58" d="M362.92-121.83-84.56,332.79l-32.7-32.18L330.22-154Zm3.05-2.63L-87.14,335.88l-33.16-32.64L332.81-157.1Z" transform="translate(514.68 556.97)"/><path class="cls-58" d="M365-123.63-86.28,334.82l-33-32.46L332-156.09Zm3-2.63L-88.87,337.91-122.3,305,334.57-159.17Z" transform="translate(514.68 556.97)"/><path class="cls-58" d="M367-125.38-88,336.85l-33.25-32.73,455-462.23Zm3-2.64L-90.63,340l-33.72-33.19,460.65-468Z" transform="translate(514.68 556.97)"/><path class="cls-59" d="M369-127.14-89.77,338.92l-33.53-33L335.44-160.14Zm3-2.63L-92.36,342l-34-33.46L338-163.23Z" transform="translate(514.68 556.97)"/><path class="cls-60" d="M371-128.94-91.5,341l-33.8-33.28L337.2-162.22Zm3.05-2.63L-94.08,344l-34.27-33.73L339.79-165.3Z" transform="translate(514.68 556.97)"/><path class="cls-60" d="M373-130.69-93.26,343l-34.09-33.55L338.93-164.24Zm3.05-2.64L-95.85,346.11l-34.5-34L341.51-167.33Z" transform="translate(514.68 556.97)"/><path class="cls-61" d="M375.06-132.49-95,345.05l-34.36-33.82L340.7-166.32Zm3-2.64L-97.57,348.13l-34.78-34.22L343.33-169.36Z" transform="translate(514.68 556.97)"/><path class="cls-61" d="M377.06-134.25-96.76,347.12-131.39,313,342.42-168.34Zm3-2.63L-99.34,350.21l-35-34.5L345.05-171.38Z" transform="translate(514.68 556.97)"/><path class="cls-61" d="M379.06-136-98.48,349.15l-34.91-34.37L344.14-170.37Zm3.09-2.68L-101.06,352.24l-35.33-34.78L346.82-173.46Z" transform="translate(514.68 556.97)"/><path class="cls-62" d="M381.1-137.81l-481.3,489-35.19-34.64,481.3-489Zm3-2.63-486.94,494.7-35.65-35,487-494.74Z" transform="translate(514.68 556.97)"/><path class="cls-62" d="M383.1-139.56-102,353.25l-35.47-34.91L347.63-174.47Zm3-2.63-490.7,498.53L-140.44,321l490.7-498.53Z" transform="translate(514.68 556.97)"/><path class="cls-62" d="M385.15-141.36-103.69,355.28l-35.75-35.19L349.4-176.54Zm3-2.63L-106.28,358.36l-36.16-35.59L352-179.59Z" transform="translate(514.68 556.97)"/><path class="cls-62" d="M387.15-143.12-105.46,357.35l-36-35.46,492.6-500.46Zm3-2.63L-108,360.44l-36.43-35.87L353.75-181.61Z" transform="translate(514.68 556.97)"/><path class="cls-62" d="M389.14-144.87-107.18,359.38l-36.3-35.73L352.85-180.6Zm3.1-2.68-502,510-36.71-36.13,502-510Z" transform="translate(514.68 556.97)"/><path class="cls-63" d="M391.19-146.67-108.91,361.4l-36.57-36,500.1-508.07Zm3.05-2.63L-111.54,364.54l-37-36.41L357.25-185.71Z" transform="translate(514.68 556.97)"/><path class="cls-64" d="M393.19-148.43-110.68,363.48l-36.85-36.28L356.34-184.7Zm3-2.63L-113.26,366.56l-37.27-36.68L359-187.74Z" transform="translate(514.68 556.97)"/><path class="cls-64" d="M395.23-150.23-112.4,365.5-149.53,329,358.11-186.77Zm3-2.63L-115,368.59l-37.55-36.95L360.74-189.81Z" transform="translate(514.68 556.97)"/><path class="cls-64" d="M397.23-152l-511.4,519.56-37.4-36.82L359.83-188.8Zm3-2.63-517,525.27-37.82-37.22,517-525.28Z" transform="translate(514.68 556.97)"/><path class="cls-65" d="M399.28-153.78-115.89,369.61l-37.68-37.09L361.6-190.87Zm3-2.64L-118.47,372.69l-38.1-37.5,520.8-529.1Z" transform="translate(514.68 556.97)"/><path class="cls-65" d="M401.28-155.54-117.66,371.68l-38-37.36L363.32-192.9Zm3-2.63L-120.24,374.76-158.62,337,366-195.94Z" transform="translate(514.68 556.97)"/><path class="cls-65" d="M403.28-157.29l-522.66,531-38.24-37.64L365-194.93Zm3.09-2.68L-122,376.79l-38.65-38L367.72-198Z" transform="translate(514.68 556.97)"/><path class="cls-66" d="M405.32-159.09-121.1,375.73l-38.52-37.9L366.81-197Zm3.05-2.64L-123.69,378.82l-38.92-38.32L369.44-200Z" transform="translate(514.68 556.97)"/><path class="cls-66" d="M407.32-160.85-122.87,377.81l-38.79-38.18L368.54-199Zm3.05-2.63L-125.46,380.89l-39.2-38.59L371.17-202.07Z" transform="translate(514.68 556.97)"/><path class="cls-67" d="M409.37-162.65l-534,542.48-39.06-38.45,534-542.48Zm3-2.68L-127.18,382.92l-39.48-38.86,539.59-548.2Z" transform="translate(514.68 556.97)"/><path class="cls-68" d="M411.37-164.4-126.36,381.91l-39.35-38.73L372-203.13Zm3-2.68L-129,385l-39.71-39.09,543.36-552Z" transform="translate(514.68 556.97)"/><path class="cls-68" d="M413.37-166.16-128.09,383.93l-39.62-39,541.46-550.1Zm3-2.72L-130.72,387l-40-39.35L376.42-208.24Z" transform="translate(514.68 556.97)"/><path class="cls-68" d="M415.41-168-129.81,386l-39.89-39.27L375.52-207.23Zm3-2.68-550.9,559.69-40.26-39.63,550.9-559.69Z" transform="translate(514.68 556.97)"/><path class="cls-69" d="M417.41-169.71-131.58,388l-40.17-39.54,549-557.75Zm3-2.68L-134.21,391.08l-40.54-39.91L379.87-212.3Z" transform="translate(514.68 556.97)"/><path class="cls-70" d="M419.46-171.52-133.3,390.06l-40.45-39.81L379-211.33Zm3-2.67L-135.93,393.1l-40.82-40.17,558.39-567.3Z" transform="translate(514.68 556.97)"/><path class="cls-70" d="M421.46-173.27l-556.53,565.4-40.72-40.08L380.73-213.36Zm3-2.68L-137.7,395.18l-41.09-40.45L383.36-216.4Z" transform="translate(514.68 556.97)"/><path class="cls-71" d="M423.5-175.07-136.79,394.16l-41-40.36L382.5-215.43Zm3-2.68-565.92,575-41.37-40.72L385.13-218.47Z" transform="translate(514.68 556.97)"/><path class="cls-71" d="M425.5-176.83l-564,573-41.33-40.59L384.22-217.46Zm3-2.67L-141.19,399.28l-41.65-41L386.85-220.5Z" transform="translate(514.68 556.97)"/><path class="cls-72" d="M427.5-178.58-140.28,398.26l-41.56-40.9L386-219.48Zm3-2.68L-142.91,401.3-184.84,360,388.58-222.52Z" transform="translate(514.68 556.97)"/><path class="cls-72" d="M429.55-180.38-142,400.29l-41.78-41.13,571.5-580.72Zm3-2.68L-144.64,403.33l-42.2-41.54L390.34-224.6Z" transform="translate(514.68 556.97)"/><path class="cls-72" d="M431.55-182.14l-575.32,584.5L-185.84,361,389.44-223.58Zm3-2.67L-146.4,405.4l-42.48-41.81,581-590.22Z" transform="translate(514.68 556.97)"/><path class="cls-73" d="M433.59-183.94-145.5,404.39l-42.34-41.67L391.25-225.61Zm3-2.68L-148.13,407.43l-42.75-42.08,584.72-594Z" transform="translate(514.68 556.97)"/><path class="cls-73" d="M435.59-185.69-147.27,406.46l-42.61-41.94L393-227.64Zm3-2.68L-149.9,409.5l-43-42.35L395.56-230.73Z" transform="translate(514.68 556.97)"/><path class="cls-74" d="M437.59-187.45-149,408.49l-42.89-42.22L394.7-229.67Zm3.05-2.72-592.26,601.7-43.31-42.63L397.33-232.8Z" transform="translate(514.68 556.97)"/><path class="cls-75" d="M439.64-189.25-150.71,410.52-193.88,368,396.47-231.74Zm3-2.68-596,605.53L-197,370.7l596-605.53Z" transform="translate(514.68 556.97)"/><path class="cls-75" d="M441.64-191-152.48,412.59l-43.45-42.76,594.12-603.6Zm3-2.68L-155.11,415.63-199,372.46,400.77-236.85Z" transform="translate(514.68 556.97)"/><path class="cls-75" d="M443.68-192.8-154.2,414.62l-43.73-43L400-235.84Zm3-2.68L-156.83,417.66-201,374.21,402.54-238.93Z" transform="translate(514.68 556.97)"/><path class="cls-76" d="M445.68-194.56-156,416.69l-44-43.31L401.68-237.87Zm3-2.68-607.28,617L-203,376l607.28-617Z" transform="translate(514.68 556.97)"/><path class="cls-76" d="M447.72-196.36-157.69,418.72-202,375.14,403.45-239.94Zm3-2.68-611,620.8-44.7-44L406-243Z" transform="translate(514.68 556.97)"/><path class="cls-76" d="M449.72-198.11-159.42,420.75-204,376.89,405.17-242Zm3-2.68L-162.09,423.83l-45-44.26L407.76-245Z" transform="translate(514.68 556.97)"/><path class="cls-77" d="M451.72-199.87-161.19,422.82-206,378.69,406.89-244Zm3-2.68L-163.82,425.86l-45.24-44.53L409.48-247.08Z" transform="translate(514.68 556.97)"/><path class="cls-77" d="M453.77-201.67-162.91,424.85-208,380.45,408.66-246.07Zm3-2.68L-165.54,427.89l-45.52-44.81L411.25-249.15Z" transform="translate(514.68 556.97)"/><path class="cls-78" d="M455.77-203.42-164.68,426.92l-45.38-44.67L410.39-248.1Zm3-2.68L-167.31,430l-45.8-45.08L413-251.18Z" transform="translate(514.68 556.97)"/><path class="cls-79" d="M457.81-205.23-166.4,429-212.06,384,412.15-250.17Zm3-2.67L-169,432l-46.08-45.35,629.85-639.9Z" transform="translate(514.68 556.97)"/><path class="cls-79" d="M459.81-207l-628,638L-214.1,385.8l628-638Zm3-2.68L-170.8,434.06l-46.35-45.62L416.46-255.28Z" transform="translate(514.68 556.97)"/><path class="cls-79" d="M461.81-208.73l-631.7,641.78-46.21-45.49L415.6-254.22Zm3.05-2.73L-172.52,436.09l-46.63-45.9L418.23-257.36Z" transform="translate(514.68 556.97)"/><path class="cls-80" d="M463.86-210.54-171.61,435.07l-46.49-45.76L417.37-256.3Zm3-2.67-641.1,651.33L-221.19,392,420-259.38Z" transform="translate(514.68 556.97)"/><path class="cls-81" d="M465.81-212.34-173.38,437.15l-46.77-46L419.09-258.32Zm3.05-2.63L-176,440.19l-47.18-46.44L421.67-261.41Z" transform="translate(514.68 556.97)"/><path class="cls-81" d="M467.86-214.14l-643,653.31-47.05-46.3,643-653.27Zm3-2.63-648.64,659-47.45-46.72,648.63-659Z" transform="translate(514.68 556.97)"/><path class="cls-82" d="M469.86-215.89-176.92,441.2l-47.27-46.53L422.58-262.42Zm3-2.63L-179.5,444.29l-47.74-47L425.17-265.51Z" transform="translate(514.68 556.97)"/><path class="cls-82" d="M471.86-217.65l-650.5,660.88-47.55-46.8L424.3-264.45Zm3.09-2.68L-181.23,446.32l-48-47.26L426.93-267.58Z" transform="translate(514.68 556.97)"/><path class="cls-83" d="M473.9-219.45-180.37,445.26l-47.82-47.08,654.26-664.7Zm3.05-2.63L-183,448.39l-48.29-47.53L428.66-269.61Z" transform="translate(514.68 556.97)"/><path class="cls-84" d="M475.9-221.2l-658,668.53L-230.24,400l658-668.53Zm3.05-2.63L-184.72,450.42l-48.56-47.81L430.38-271.64Z" transform="translate(514.68 556.97)"/><path class="cls-84" d="M478-223-183.86,449.36l-48.38-47.62,661.8-672.37Zm3-2.64L-186.44,452.44l-48.84-48.07L432.15-273.71Z" transform="translate(514.68 556.97)"/><path class="cls-84" d="M480-224.76-185.62,451.43l-48.66-47.89L431.29-272.65Zm3-2.63-671.2,681.91-49.12-48.35,671.2-681.91Z" transform="translate(514.68 556.97)"/><path class="cls-85" d="M482-226.56l-669.34,680-48.93-48.17,669.34-680Zm3.05-2.63-675,685.73L-239.28,408,435.64-277.81Z" transform="translate(514.68 556.97)"/><path class="cls-86" d="M484-228.31-189.12,455.53l-49.21-48.44L434.78-276.75Zm3.05-2.64L-191.7,458.62l-49.63-48.85L437.41-279.79Z" transform="translate(514.68 556.97)"/><path class="cls-86" d="M486-230.07-190.84,457.56l-49.49-48.71L436.5-278.78Zm3.09-2.68-682.5,693.4-49.91-49.12,682.51-693.4Z" transform="translate(514.68 556.97)"/><path class="cls-87" d="M488-231.87l-680.6,691.46-49.77-49,680.6-691.45Zm3-2.63L-195.15,462.67l-50.18-49.39L440.9-283.89Z" transform="translate(514.68 556.97)"/><path class="cls-87" d="M490-233.62-194.33,461.66l-50-49.26L440-282.88Zm3.05-2.64-690,701-50.46-49.67,690-701Z" transform="translate(514.68 556.97)"/><path class="cls-87" d="M492.08-235.43-196,463.69l-50.32-49.53L441.76-284.95Zm3.05-2.63L-198.64,466.77l-50.73-49.93L444.39-288Z" transform="translate(514.68 556.97)"/><path class="cls-88" d="M494.08-237.18l-691.9,702.94-50.6-49.8L443.48-287Zm3-2.63L-200.41,468.85l-51-50.21L446.11-290Z" transform="translate(514.68 556.97)"/><path class="cls-88" d="M496.08-238.93-199.54,467.79l-50.88-50.08L445.21-289Zm3.09-2.68-701.3,712.48-51.29-50.48L447.88-292.1Z" transform="translate(514.68 556.97)"/><path class="cls-88" d="M498.12-240.74-201.27,469.81l-51.15-50.34L447-291.08Zm3.05-2.63L-203.9,473l-51.56-50.76L449.61-294.12Z" transform="translate(514.68 556.97)"/><path class="cls-89" d="M500.12-242.49-203,471.89l-51.42-50.62L448.7-293.11Zm3.05-2.63L-205.62,475l-51.84-51,708.79-720.1Z" transform="translate(514.68 556.97)"/><path class="cls-90" d="M502.17-244.29l-706.93,718.2L-256.46,423l706.93-718.2Zm3-2.63L-207.34,477l-52.12-51.3L453.1-298.22Z" transform="translate(514.68 556.97)"/><path class="cls-90" d="M504.17-246l-710.7,722-52-51.17,710.7-722Zm3-2.63L-209.11,479.07l-52.4-51.57L454.82-300.25Z" transform="translate(514.68 556.97)"/><path class="cls-91" d="M506.21-247.85-208.25,478l-52.26-51.43L454-299.28Zm3.05-2.63L-210.83,481.1l-52.67-51.84L456.59-302.32Z" transform="translate(514.68 556.97)"/><path class="cls-91" d="M508.21-249.6-210,480.09l-52.53-51.71L455.68-301.31Zm3.05-2.63L-212.6,483.17l-53-52.11L458.31-304.35Z" transform="translate(514.68 556.97)"/><path class="cls-92" d="M510.21-251.36-211.74,482.12l-52.81-52,722-733.48ZM513.3-254-214.33,485.2l-53.22-52.39L460-306.38Z" transform="translate(514.68 556.97)"/><path class="cls-93" d="M512.26-253.16l-725.72,737.3-53.09-52.25,725.72-737.3Zm3-2.63L-216,487.23l-53.5-52.66,731.35-743Z" transform="translate(514.68 556.97)"/><path class="cls-93" d="M514.26-254.91-215.23,486.22l-53.37-52.53L460.89-307.44Zm3-2.63L-217.82,489.3l-53.77-52.93L463.53-310.48Z" transform="translate(514.68 556.97)"/><path class="cls-94" d="M516.3-256.71-217,488.24l-53.63-52.79,733.25-745Zm3-2.68L-219.54,491.33l-54-53.21L465.29-312.55Z" transform="translate(514.68 556.97)"/><path class="cls-94" d="M518.3-258.47l-737,748.79-53.92-53.07,737-748.79Zm3-2.68L-221.31,493.4l-54.33-53.48L467-314.58Z" transform="translate(514.68 556.97)"/><path class="cls-94" d="M520.3-260.22-220.45,492.34-274.64,439,466.11-313.56Zm3.05-2.73L-223.08,495.38l-54.56-53.7L468.78-316.65Z" transform="translate(514.68 556.97)"/><path class="cls-95" d="M522.35-262-222.17,494.37l-54.47-53.61,744.52-756.4Zm3-2.68L-224.84,497.46l-54.84-54L470.51-318.68Z" transform="translate(514.68 556.97)"/><path class="cls-95" d="M524.35-263.78-223.94,496.44l-54.74-53.88L469.6-317.67Zm3-2.68L-226.57,499.48l-55.11-54.24L472.23-320.71Z" transform="translate(514.68 556.97)"/><path class="cls-95" d="M526.39-265.58l-752,764.05-55-54.16,752.05-764Zm3-2.68L-228.29,501.51-283.68,447,474-322.78Z" transform="translate(514.68 556.97)"/><path class="cls-95" d="M528.39-267.33-227.43,500.54l-55.3-54.43L473.09-321.77Zm3-2.68-761.45,773.6-55.67-54.8,761.45-773.6Z" transform="translate(514.68 556.97)"/><path class="cls-96" d="M530.44-269.14-229.15,502.57l-55.58-54.7L474.86-323.84Zm3-2.67L-231.78,505.61l-56-55.06L477.49-326.88Z" transform="translate(514.68 556.97)"/><path class="cls-96" d="M532.44-270.89-230.87,504.6l-55.86-55L476.58-325.87Zm3-2.68-769,781.26-56.22-55.34,769-781.26Z" transform="translate(514.68 556.97)"/><path class="cls-96" d="M534.44-272.64-232.64,506.67l-56.13-55.25L478.31-327.89Zm3-2.68-772.7,785-56.5-55.61,772.71-785Z" transform="translate(514.68 556.97)"/><path class="cls-96" d="M536.48-274.45-234.37,508.7l-56.4-55.52L480.07-330Zm3-2.67L-237,511.74l-56.77-55.88L482.7-333Z" transform="translate(514.68 556.97)"/><path class="cls-96" d="M538.48-276.2l-774.61,787L-292.77,455,481.8-332Zm3-2.68L-238.76,513.81l-57.06-56.15L484.43-335Z" transform="translate(514.68 556.97)"/><path class="cls-97" d="M540.53-278-237.86,512.8l-56.91-56L483.57-334.07Zm3-2.68-784,796.52-57.33-56.43,784-796.52Z" transform="translate(514.68 556.97)"/><path class="cls-97" d="M542.53-279.76-239.63,514.87l-57.19-56.29L485.33-336Zm3-2.67L-242.26,517.91l-57.6-56.7L487.92-339.14Z" transform="translate(514.68 556.97)"/><path class="cls-97" d="M544.52-281.51-241.35,516.9l-57.47-56.56L487.06-338.08Zm3.05-2.73L-244,519.94l-57.88-57L489.69-341.21Z" transform="translate(514.68 556.97)"/><path class="cls-98" d="M546.57-283.31-243.07,518.93l-57.75-56.84L488.83-340.15Zm3-2.68L-245.75,522l-58.16-57.24,795.32-808Z" transform="translate(514.68 556.97)"/><path class="cls-98" d="M548.57-285.07-244.84,521l-58-57.11L490.55-342.18Zm3-2.67L-247.47,524l-58.44-57.52,799-811.78Z" transform="translate(514.68 556.97)"/><path class="cls-98" d="M550.61-286.87-246.56,523l-58.3-57.38,797.18-809.9Zm3-2.68-802.8,815.62-58.72-57.79L494.9-347.34Z" transform="translate(514.68 556.97)"/><path class="cls-99" d="M552.61-288.62-248.33,525.1l-58.58-57.65L494-346.28Zm3-2.68L-251,528.14l-59-58.06L496.62-349.36Z" transform="translate(514.68 556.97)"/><path class="cls-99" d="M554.66-290.42-250,527.13l-58.86-57.93L495.81-348.35Zm3-2.68L-252.68,530.17l-59.27-58.34L498.39-351.44Z" transform="translate(514.68 556.97)"/><path class="cls-99" d="M556.66-292.18-251.78,529.16-310.9,471,497.53-350.38Zm3-2.68-814.11,827.1L-314,473.63,500.12-353.46Z" transform="translate(514.68 556.97)"/><path class="cls-100" d="M558.66-293.93-253.55,531.23l-59.4-58.47L499.25-352.4Zm3-2.68L-256.18,534.27-316,475.39,501.84-355.49Z" transform="translate(514.68 556.97)"/><path class="cls-100" d="M560.7-295.73l-816,829-59.68-58.75,816-829Zm3-2.68L-257.9,536.3-318,477.14l821.6-834.7Z" transform="translate(514.68 556.97)"/><path class="cls-100" d="M562.7-297.49-257,535.33l-59.95-59L502.75-356.51Zm3-2.68L-259.67,538.37-320,479,505.33-359.59Z" transform="translate(514.68 556.97)"/><path class="cls-101" d="M564.75-299.29-258.76,537.36-319,478.07l823.5-836.65Zm3-2.68L-261.39,540.4-322,480.7,507.1-361.67Z" transform="translate(514.68 556.97)"/><path class="cls-101" d="M566.75-301-260.53,539.43-321,479.87,506.24-360.61Zm3-2.68L-263.16,542.47l-60.92-60,832.9-846.19Z" transform="translate(514.68 556.97)"/><path class="cls-101" d="M568.75-302.8l-831,844.26L-323,481.62,508-362.63Zm3-2.72-836.67,850-61.2-60.24,836.67-850Z" transform="translate(514.68 556.97)"/><path class="cls-102" d="M570.79-304.6-264,543.48-325,483.38,509.73-364.71Zm3-2.68L-266.6,546.53l-61.53-60.47L512.31-367.79Z" transform="translate(514.68 556.97)"/><path class="cls-102" d="M572.79-306.35-265.74,545.56l-61.34-60.38L511.45-366.73Zm3-2.68L-268.37,548.6l-61.76-60.79L514-369.82Z" transform="translate(514.68 556.97)"/><path class="cls-102" d="M574.79-308.2-267.46,547.58l-61.62-60.65,842.3-855.74Zm3.05-2.63L-270.1,550.63l-62-61.06L515.8-371.89Z" transform="translate(514.68 556.97)"/><path class="cls-103" d="M576.79-310l-846,859.62-61.9-60.93L514.94-370.83Zm3.05-2.63L-271.86,552.7l-62.31-61.33,851.7-865.29Z" transform="translate(514.68 556.97)"/><path class="cls-103" d="M578.79-311.71-271,551.64l-62.13-61.15L516.66-372.86Zm3.09-2.68L-273.59,554.73l-62.58-61.61L519.29-376Z" transform="translate(514.68 556.97)"/><path class="cls-103" d="M580.84-313.51-272.73,553.67l-62.4-61.43L518.43-374.93Zm3-2.63L-275.35,556.8l-62.87-61.88L521-378Z" transform="translate(514.68 556.97)"/><path class="cls-104" d="M582.84-315.27l-857.33,871-62.68-61.69L520.16-377Zm3-2.63-863,876.73-63.14-62.15L522.74-380Z" transform="translate(514.68 556.97)"/><path class="cls-104" d="M584.88-317.07l-861.1,874.84-62.95-62L521.92-379Zm3-2.63L-278.8,560.85l-63.42-62.42L524.51-382.12Z" transform="translate(514.68 556.97)"/><path class="cls-104" d="M586.88-318.82-278,559.84l-63.24-62.24L523.65-381.06Zm3-2.63-870.5,884.38-63.69-62.7L526.23-384.15Z" transform="translate(514.68 556.97)"/><path class="cls-105" d="M588.93-320.62-279.71,561.87l-63.51-62.51,868.64-882.5Zm3-2.64L-282.29,565-346.22,502,528-386.22Z" transform="translate(514.68 556.97)"/><path class="cls-105" d="M590.92-322.38l-872.4,886.32-63.78-62.78,872.4-886.32ZM594-325l-878,892-64.2-63.2,878-892.08Z" transform="translate(514.68 556.97)"/><path class="cls-105" d="M592.92-324.13-283.2,566l-64.06-63.06,876.12-890.1Zm3.1-2.68-881.8,895.86-64.48-63.46L531.49-390.32Z" transform="translate(514.68 556.97)"/><path class="cls-106" d="M595-325.93-284.92,568l-64.34-63.33L530.63-389.26Zm3-2.64L-287.51,571.08l-64.75-63.74L533.26-392.3Z" transform="translate(514.68 556.97)"/><path class="cls-107" d="M597-327.69-286.69,570.07l-64.62-63.6L532.35-391.29Zm3-2.63L-289.27,573.16l-65-64L535-394.33Z" transform="translate(514.68 556.97)"/><path class="cls-108" d="M599-329.49-288.41,572.1l-64.9-63.88L534.12-393.36Zm3-2.63L-291,575.18l-65.31-64.28L536.75-396.4Z" transform="translate(514.68 556.97)"/><path class="cls-108" d="M601-331.24-290.18,574.17-355.35,510,535.84-395.39Zm3-2.64L-292.77,577.26l-65.58-64.56L538.47-398.43Z" transform="translate(514.68 556.97)"/><path class="cls-108" d="M603-333-291.9,576.2l-65.45-64.42,894.92-909.2Zm3.09-2.68-900.59,915-65.86-64.82,900.59-915Z" transform="translate(514.68 556.97)"/><path class="cls-109" d="M605.06-334.8l-898.69,913-65.72-64.69,898.69-913Zm3-2.63L-296.26,581.36l-66.14-65.1L542-402.53Z" transform="translate(514.68 556.97)"/><path class="cls-109" d="M607.06-336.55-295.4,580.3l-66-65L541.06-401.52Zm3-2.64L-298,583.38-364.39,518,543.69-404.56Z" transform="translate(514.68 556.97)"/><path class="cls-109" d="M609.1-338.36-297.12,582.32l-66.28-65.23L542.83-403.59Zm3-2.63L-299.7,585.41l-66.69-65.64,911.85-926.4Z" transform="translate(514.68 556.97)"/><path class="cls-109" d="M611.1-340.11l-910,924.51-66.55-65.51,910-924.51Zm3-2.63L-301.47,587.48l-67-65.91L547.18-408.66Z" transform="translate(514.68 556.97)"/><path class="cls-109" d="M613.15-341.91-300.61,586.42l-66.83-65.78L546.32-407.69Zm3-2.63L-303.19,589.51l-67.25-66.19L549-410.73Z" transform="translate(514.68 556.97)"/><path class="cls-110" d="M615.15-343.67-302.33,588.45l-67.16-66L548-409.72Zm3-2.63L-305,591.58l-67.52-66.46L550.67-412.76Z" transform="translate(514.68 556.97)"/><path class="cls-110" d="M617.15-345.42-304.1,590.52l-67.38-66.32L549.76-411.75Zm3.09-2.68L-306.69,593.61l-67.79-66.73L552.39-414.79Z" transform="translate(514.68 556.97)"/><path class="cls-110" d="M619.19-347.22l-925,939.77L-373.48,526l925-939.77Zm3-2.63L-308.41,595.64l-68.07-67L554.16-416.86Z" transform="translate(514.68 556.97)"/><path class="cls-110" d="M621.19-349-307.59,594.63l-67.94-66.87L553.25-415.85Zm3-2.63L-310.18,597.71l-68.35-67.28L555.89-418.89Z" transform="translate(514.68 556.97)"/><path class="cls-111" d="M623.24-350.78-309.32,596.65l-68.21-67.14L555-417.92Zm3-2.63L-311.9,599.74l-68.63-67.55L557.65-421Z" transform="translate(514.68 556.97)"/><path class="cls-112" d="M625.24-352.53-311.08,598.73l-68.49-67.42L556.75-419.95Zm3-2.68-941.91,957L-382.57,534l942-957Z" transform="translate(514.68 556.97)"/><path class="cls-112" d="M627.24-354.29l-940,955-68.76-67.68,940-955Zm3-2.72L-315.39,603.84l-69.18-68.1,945.71-960.8Z" transform="translate(514.68 556.97)"/><path class="cls-112" d="M629.28-356.09-314.53,602.78l-69-68L560.24-424Zm3-2.68L-317.16,605.91l-69.46-68.37L562.87-427.09Z" transform="translate(514.68 556.97)"/><path class="cls-112" d="M631.28-357.84-316.3,604.85l-69.32-68.23L562-426.07Zm3-2.68L-318.93,607.89l-69.69-68.59L564.59-429.12Z" transform="translate(514.68 556.97)"/><path class="cls-113" d="M633.33-359.64-318,606.88l-69.6-68.5L563.73-428.15Zm3-2.68-957,972.24-70-68.87,957-972.24Z" transform="translate(514.68 556.97)"/><path class="cls-114" d="M635.33-361.4-319.79,609l-69.87-68.77L565.45-430.18Zm3-2.68L-322.42,612l-70.24-69.14L568.08-433.22Z" transform="translate(514.68 556.97)"/><path class="cls-114" d="M637.37-363.2-321.51,611l-70.15-69.05L567.22-432.25Zm3-2.68L-324.14,614l-70.52-69.41,964.51-979.9Z" transform="translate(514.68 556.97)"/><path class="cls-114" d="M639.37-364.95l-962.6,978-70.43-69.32,962.6-978Zm3-2.68L-325.91,616.1l-70.8-69.69L571.57-437.32Z" transform="translate(514.68 556.97)"/><path class="cls-113" d="M641.37-366.71-325,615.08l-70.71-69.59L570.67-436.3Zm3-2.68-972,987.51-71.08-70,972-987.51Z" transform="translate(514.68 556.97)"/><path class="cls-112" d="M643.42-368.51-326.73,617.11l-71-69.87L572.43-438.38Zm3-2.68L-329.36,620.15l-71.35-70.23L575.06-441.42Z" transform="translate(514.68 556.97)"/><path class="cls-112" d="M645.41-370.26l-973.9,989.44-71.22-70.09L574.16-440.4Zm3-2.68L-331.12,622.22l-71.63-70.5L576.79-443.44Z" transform="translate(514.68 556.97)"/><path class="cls-112" d="M647.46-372.07-330.22,621.21l-71.49-70.37L575.93-442.48Zm3-2.67-983.31,999-71.9-70.77,983.31-999Z" transform="translate(514.68 556.97)"/><path class="cls-112" d="M649.46-373.82-332,623.28l-71.76-70.64L577.65-444.5Zm3-2.68L-334.62,626.32l-72.18-71L580.28-447.55Z" transform="translate(514.68 556.97)"/><path class="cls-111" d="M651.46-375.58-333.71,625.31l-72-70.91L579.42-446.49Zm3-2.72L-336.34,628.35-408.8,557,582.05-449.62Z" transform="translate(514.68 556.97)"/><path class="cls-110" d="M653.5-377.38-335.43,627.34l-72.32-71.19L581.19-448.56Zm3-2.67L-338.06,630.38l-72.78-71.55L583.77-451.65Z" transform="translate(514.68 556.97)"/><path class="cls-110" d="M655.5-379.13-337.2,629.41-409.8,558,582.91-450.59Zm3-2.68L-339.83,632.45l-73-71.86L585.49-453.67Z" transform="translate(514.68 556.97)"/><path class="cls-110" d="M657.55-380.93-338.92,631.44l-72.87-71.73L584.68-452.66Zm3-2.68L-341.55,634.48l-73.29-72.14L587.26-455.75Z" transform="translate(514.68 556.97)"/><path class="cls-110" d="M659.55-382.69-340.69,633.51l-73.15-72L586.4-454.69Zm3-2.67L-343.32,636.55l-73.57-72.41L589-457.77Z" transform="translate(514.68 556.97)"/><path class="cls-109" d="M661.59-384.49l-1004,1020-73.43-72.27,1004-1020Zm3-2.68L-345,638.58l-73.84-72.68L590.75-459.85Z" transform="translate(514.68 556.97)"/><path class="cls-109" d="M663.59-386.24-344.14,637.57-417.84,565,589.89-458.79Zm3-2.68L-346.81,640.65l-74.12-72.95L592.48-461.87Z" transform="translate(514.68 556.97)"/><path class="cls-109" d="M665.59-388-345.91,639.64l-74-72.82L591.61-460.81Zm3-2.68L-348.54,642.68l-74.39-73.23L594.2-463.9Z" transform="translate(514.68 556.97)"/><path class="cls-109" d="M667.64-389.8-347.63,641.67l-74.25-73.09L593.38-462.89Zm3-2.68L-350.26,644.71l-74.67-73.5L596-466Z" transform="translate(514.68 556.97)"/><path class="cls-109" d="M669.64-391.55-349.4,643.74l-74.53-73.36,1019-1035.29Zm3-2.68L-352,646.78-427,573,597.69-468Z" transform="translate(514.68 556.97)"/><path class="cls-108" d="M671.68-393.35-351.12,645.77l-74.81-73.64L596.87-467Zm3-2.68L-353.75,648.81l-75.22-74L599.46-470.07Z" transform="translate(514.68 556.97)"/><path class="cls-108" d="M673.68-395.11l-1026.57,1043L-428,573.93,598.6-469Zm3-2.68L-355.52,650.88-431,576.57,601.18-472.1Z" transform="translate(514.68 556.97)"/><path class="cls-108" d="M675.68-396.86-354.61,649.87-430,575.69,600.32-471Zm3.05-2.73-1036,1052.5L-433,578.32,603-474.18Z" transform="translate(514.68 556.97)"/><path class="cls-107" d="M677.73-398.66-356.33,651.89-432,577.44,602.09-473.12Zm3-2.68L-359,654.93-435,580.07,604.67-476.2Z" transform="translate(514.68 556.97)"/><path class="cls-106" d="M679.73-400.42-358.1,654-434,579.24,603.81-475.14Zm3-2.68L-360.73,657l-76.33-75.13L606.39-478.23Z" transform="translate(514.68 556.97)"/><path class="cls-105" d="M681.73-402.27-359.82,656-436,581,605.58-477.22Zm3-2.63L-362.46,659l-76.6-75.41L608.16-480.3Z" transform="translate(514.68 556.97)"/><path class="cls-105" d="M683.73-404-361.59,658.07l-76.47-75.27L607.3-479.24Zm3-2.63-1051,1067.76-76.89-75.68,1051-1067.76Z" transform="translate(514.68 556.97)"/><path class="cls-105" d="M685.73-405.77l-1049,1065.86-76.74-75.54L609-481.27Zm3.09-2.68L-365.95,663.14l-77.16-75.95L611.65-484.4Z" transform="translate(514.68 556.97)"/><path class="cls-104" d="M687.77-407.58-365.09,662.08l-77-75.77L610.79-483.34Zm3.05-2.63L-367.71,665.21-445.15,589,613.38-486.43Z" transform="translate(514.68 556.97)"/><path class="cls-104" d="M689.77-409.33-366.85,664.15l-77.26-76L612.52-485.37Zm3.05-2.63L-369.44,667.24l-77.71-76.5L615.1-488.46Z" transform="translate(514.68 556.97)"/><path class="cls-104" d="M691.81-411.13-368.58,666.18l-77.53-76.32L614.28-487.44Zm3.05-2.63-1066,1083-78-76.76,1066-1083Z" transform="translate(514.68 556.97)"/><path class="cls-103" d="M693.81-412.89-370.34,668.25l-77.81-76.59L616-489.47Zm3.05-2.63L-372.93,671.34l-78.27-77L618.59-492.56Z" transform="translate(514.68 556.97)"/><path class="cls-103" d="M695.86-414.69l-1067.93,1085-78.08-76.86,1067.93-1085Zm3-2.63L-374.65,673.36l-78.55-77.31L620.36-494.63Z" transform="translate(514.68 556.97)"/><path class="cls-103" d="M697.86-416.44-373.79,672.3l-78.41-77.08L619.5-493.57Zm3-2.63L-376.42,675.44-455.2,597.9,622.08-496.66Z" transform="translate(514.68 556.97)"/><path class="cls-102" d="M699.86-418.2-375.56,674.38-454.2,597,621.22-495.6Zm3.09-2.68L-378.14,677.46l-79.06-77.81,1081-1098.34Z" transform="translate(514.68 556.97)"/><path class="cls-102" d="M701.9-420-377.28,676.41l-78.92-77.68L623-497.67Zm3.05-2.63L-379.87,679.49l-79.33-78.08L625.57-500.76Z" transform="translate(514.68 556.97)"/><path class="cls-102" d="M703.9-421.75-379,678.48l-79.19-78L624.71-499.7Zm3.05-2.64L-381.63,681.56l-79.61-78.35L627.34-502.74Z" transform="translate(514.68 556.97)"/><path class="cls-101" d="M706-423.55-380.77,680.51l-79.47-78.22L626.48-501.77Zm3-2.64L-383.36,683.59-463.24,605,629.11-504.81Z" transform="translate(514.68 556.97)"/><path class="cls-101" d="M708-425.31-382.54,682.58l-79.75-78.49L628.2-503.8Zm3-2.63L-385.13,685.67l-80.15-78.91L630.83-506.84Z" transform="translate(514.68 556.97)"/><path class="cls-101" d="M710-427.06-384.26,684.61l-80-78.77L629.93-505.83Zm3.09-2.68L-386.85,687.69l-80.43-79.17L632.6-508.91Z" transform="translate(514.68 556.97)"/><path class="cls-100" d="M712-428.86-386,686.63l-80.29-79L631.7-507.9Zm3-2.64L-388.62,689.77l-80.71-79.45L634.33-510.94Z" transform="translate(514.68 556.97)"/><path class="cls-100" d="M714-430.62-387.76,688.71l-80.57-79.31L633.42-509.93Zm3-2.63-1107.38,1125-81-79.71L636.05-513Z" transform="translate(514.68 556.97)"/><path class="cls-100" d="M716-432.42-389.48,690.73l-80.85-79.58L635.19-512Zm3-2.63L-392.06,693.82l-81.27-80L637.82-515Z" transform="translate(514.68 556.97)"/><path class="cls-99" d="M718-434.17l-1109.29,1127L-472.37,613,636.91-514Zm3-2.64L-393.83,695.89l-81.54-80.26L639.54-517.07Z" transform="translate(514.68 556.97)"/><path class="cls-99" d="M720.08-436-393,694.83l-81.4-80.12L638.68-516.1Zm3-2.63L-395.55,697.92l-81.82-80.53L641.31-519.14Z" transform="translate(514.68 556.97)"/><path class="cls-99" d="M722.08-437.73-394.69,696.86l-81.68-80.4L640.4-518.13Zm3-2.63L-397.32,700l-82.1-80.8L643-521.17Z" transform="translate(514.68 556.97)"/><path class="cls-98" d="M724.08-439.48-396.46,698.93l-82-80.67L642.12-520.16Zm3-2.64L-399,702l-82.37-81.08L644.75-523.2Z" transform="translate(514.68 556.97)"/><path class="cls-98" d="M726.13-441.29-398.18,701-480.42,620,643.89-522.23Zm3-2.63-1129.94,1148-82.65-81.35,1129.94-1148Z" transform="translate(514.68 556.97)"/><path class="cls-98" d="M728.13-443-399.95,703l-82.51-81.22L645.61-524.26Zm3-2.63L-402.54,706.12l-82.92-81.62L648.25-527.3Z" transform="translate(514.68 556.97)"/><path class="cls-97" d="M730.17-444.84-401.68,705.06l-82.78-81.49L647.38-526.33Zm3.05-2.63L-404.26,708.15l-83.2-81.9L650-529.37Z" transform="translate(514.68 556.97)"/><path class="cls-97" d="M732.17-446.6-403.44,707.14l-83.07-81.76L649.11-528.36Zm3-2.67L-406,710.22l-83.48-82.17L651.74-531.4Z" transform="translate(514.68 556.97)"/><path class="cls-97" d="M734.17-448.35-405.17,709.16l-83.34-82L650.83-530.38Zm3.05-2.73-1145,1163.33-83.76-82.44L653.5-533.47Z" transform="translate(514.68 556.97)"/><path class="cls-96" d="M736.22-450.15-406.89,711.19l-83.62-82.31L652.6-532.46Zm3-2.68L-409.47,714.28l-84.08-82.67L655.23-535.5Z" transform="translate(514.68 556.97)"/><path class="cls-96" d="M738.22-451.91-408.66,713.26l-83.89-82.57L654.32-534.48Zm3-2.67L-411.24,716.35l-84.31-83L657-537.53Z" transform="translate(514.68 556.97)"/><path class="cls-96" d="M740.26-453.71l-1150.64,1169-84.17-82.85,1150.64-1169Zm3-2.68L-413,718.33l-84.54-83.21L658.72-539.6Z" transform="translate(514.68 556.97)"/><path class="cls-96" d="M742.26-455.46-412.15,717.36l-84.45-83.12L657.81-538.59Zm3-2.68L-414.78,720.4l-84.82-83.48,1160-1178.55Z" transform="translate(514.68 556.97)"/><path class="cls-96" d="M744.31-457.26-413.87,719.39-498.6,636,659.53-540.61Zm3-2.68L-416.5,722.43l-85.1-83.76L662.21-543.7Z" transform="translate(514.68 556.97)"/><path class="cls-95" d="M746.3-459-415.59,721.42l-85-83.67L661.3-542.69Zm3-2.68L-418.27,724.51l-85.37-84L663.93-545.73Z" transform="translate(514.68 556.97)"/><path class="cls-95" d="M748.3-460.77-417.36,723.49l-85.28-83.94L663-544.71Zm3-2.68L-420,726.53l-85.65-84.3,1171.3-1190Z" transform="translate(514.68 556.97)"/><path class="cls-95" d="M750.35-462.57-419.09,725.52l-85.55-84.21L664.79-546.79Zm3-2.68L-421.72,728.56-507.64,644,667.42-549.83Z" transform="translate(514.68 556.97)"/><path class="cls-95" d="M752.35-464.33-420.85,727.59l-85.84-84.48L666.52-548.81Zm3-2.68L-423.48,730.63l-86.21-84.84L669.15-551.85Z" transform="translate(514.68 556.97)"/><path class="cls-94" d="M754.39-466.13l-1177,1195.75-86.06-84.71L668.29-550.89Zm3-2.68L-425.21,732.66l-86.48-85.12L670.92-553.93Z" transform="translate(514.68 556.97)"/><path class="cls-94" d="M756.39-467.88-424.35,731.69l-86.34-85L670-552.91Zm3-2.68L-427,734.73l-86.75-85.39L672.64-555.95Z" transform="translate(514.68 556.97)"/><path class="cls-94" d="M758.39-469.64-426.07,733.72l-86.61-85.26L671.73-554.94Zm2.05-1.8L-427.79,735.75l-86.89-85.53L673.55-557Z" transform="translate(514.68 556.97)"/></g><polygon class="cls-115" points="398.42 884.34 373.22 909.94 365.08 1009.63 390.28 984.03 398.42 884.34"/><polygon class="cls-115" points="440.63 841.45 415.44 867.04 407.3 966.73 432.5 941.13 440.63 841.45"/><polygon class="cls-115" points="482.85 798.55 457.66 824.15 449.52 923.84 474.72 898.24 482.85 798.55"/><polygon class="cls-115" points="525.07 755.66 499.88 781.26 491.74 880.95 516.94 855.35 525.07 755.66"/><polygon class="cls-115" points="567.29 712.77 542.1 738.36 533.96 838.05 559.16 812.46 567.29 712.77"/><polygon class="cls-115" points="609.51 669.87 584.32 695.47 576.18 795.16 601.38 769.56 609.51 669.87"/><polygon class="cls-115" points="651.73 626.98 626.54 652.58 618.4 752.27 643.6 726.67 651.73 626.98"/><polygon class="cls-115" points="693.95 584.09 668.76 609.68 660.62 709.37 685.82 683.78 693.95 584.09"/><polygon class="cls-115" points="736.17 541.19 710.98 566.79 702.84 666.48 728.04 640.88 736.17 541.19"/><polygon class="cls-115" points="778.39 498.3 753.2 523.9 745.06 623.59 770.26 597.99 778.39 498.3"/><polygon class="cls-115" points="820.61 455.41 795.41 481 787.28 580.69 812.48 555.1 820.61 455.41"/><polygon class="cls-115" points="862.83 412.51 837.63 438.11 829.5 537.8 854.7 512.2 862.83 412.51"/><polygon class="cls-115" points="905.05 369.62 879.85 395.22 871.72 494.91 896.91 469.31 905.05 369.62"/><polygon class="cls-115" points="947.1 328.83 946.13 327.88 922.07 352.33 913.94 452.01 939.13 426.42 947.1 328.83"/><polygon class="cls-115" points="982.94 364.11 961.58 343.09 956.16 409.12 981.35 383.52 982.94 364.11"/><polygon class="cls-115" points="356.19 927.23 331 952.83 327.96 990.7 349.31 1011.72 356.19 927.23"/><g class="cls-116"><path class="cls-117" d="M213,104.75c-2.35-2.38-18.89,10.17-36.94,28S145.26,167,147.61,169.41s18.89-10.17,36.93-28S215.31,107.13,213,104.75Z" transform="translate(514.68 556.97)"/></g><g class="cls-118"><path class="cls-119" d="M148.75,40.54c-2.35-2.37-18.89,10.17-36.93,28S81.05,102.83,83.4,105.2s18.89-10.17,36.93-28S151.1,42.92,148.75,40.54Z" transform="translate(514.68 556.97)"/></g><rect class="cls-120" x="100.77" y="56.74" width="94.76" height="94.76" rx="2.31" transform="translate(484.45 692.22) rotate(-45)"/><g class="cls-121"><path class="cls-122" d="M146.51,41.06a2.32,2.32,0,0,1,3.27,0l63.74,63.74a2.12,2.12,0,0,1,.37.48,2.31,2.31,0,0,0-.37-2.79L149.78,38.75a2.32,2.32,0,0,0-3.27,0L82.78,102.49a2.31,2.31,0,0,0-.37,2.79,2.12,2.12,0,0,1,.37-.48Z" transform="translate(514.68 556.97)"/></g><path class="cls-123" d="M148.15,163.37a4.27,4.27,0,0,1-3-1.26l-55-55a4.3,4.3,0,0,1,0-6.08l55-54.95a4.3,4.3,0,0,1,6.08,0l54.95,55a4.3,4.3,0,0,1,0,6.08l-54.95,55A4.27,4.27,0,0,1,148.15,163.37ZM93.66,104.12l54.49,54.5,54.49-54.5L148.15,49.63Z" transform="translate(514.68 556.97)"/><path class="cls-124" d="M148.15,163.37a4.27,4.27,0,0,1-3-1.26l-55-55a4.3,4.3,0,0,1,0-6.08l55-54.95a4.3,4.3,0,0,1,6.08,0l54.95,55a4.3,4.3,0,0,1,0,6.08l-54.95,55A4.27,4.27,0,0,1,148.15,163.37ZM93.66,104.12l54.49,54.5,54.49-54.5L148.15,49.63Z" transform="translate(514.68 556.97)"/><path class="cls-125" d="M210.26,99.22,149.78,38.75a2.32,2.32,0,0,0-3.27,0L87.12,98.14a90.14,90.14,0,0,0,123.14,1.08Z" transform="translate(514.68 556.97)"/><text class="cls-126" transform="translate(628.45 676.98)">UNDER</text><text class="cls-127" transform="translate(641.88 684.44)"><tspan class="cls-128">C</tspan><tspan x="3.27" y="0">ONSTRU</tspan><tspan class="cls-129" x="25.43" y="0">C</tspan><tspan x="28.69" y="0">TION</tspan></text><rect x="668.17" y="645.12" width="6.45" height="11.57"/><rect x="652.44" y="648.54" width="6.45" height="8.15"/><rect x="636.54" y="652.64" width="15" height="4.04"/><rect x="675.3" y="637.27" width="6.66" height="19.36"/><rect x="682.63" y="648.73" width="5.53" height="8"/><path d="M164.23,71.05H150.16V69.19h-3.41v1.86H140.4V72h6.35v.24h-1.86v6.19h.85V99.56h.93v-.31h3.57v.31h.92V78.41H152V72.22h-1.86V72h13v4.24h-2.53v2.94h6.66V76.22h-3.05ZM146.67,93h3.57V95h-3.57Zm0-1.08v-2h3.57v2Zm0-3.14v-2h3.57v2Zm0-3.13V83.56h3.57v2.06Zm0-3.14v-2h3.57v2Zm0,15.68v-2h3.57v2Zm3.57-19.75v.93h-3.57v-.93h3.57Z" transform="translate(514.68 556.97)"/><rect x="629.32" y="655.9" width="67.01" height="1.66"/><polygon points="661.79 689.69 662.98 689.69 662.98 689.68 661.79 688.04 662.98 686.39 662.98 686.38 661.79 686.38 660.59 688.04 661.79 689.69"/><polygon points="659.88 689.69 661.08 689.69 661.08 689.68 659.88 688.04 661.08 686.39 661.08 686.38 659.88 686.38 658.68 688.04 659.88 689.69"/><polygon points="657.98 689.69 659.17 689.69 659.17 689.68 657.98 688.04 659.17 686.39 659.17 686.38 657.98 686.38 656.78 688.04 657.98 689.69"/><polygon points="656.07 689.69 657.27 689.69 657.27 689.68 656.07 688.04 657.27 686.39 657.27 686.38 656.07 686.38 654.87 688.04 656.07 689.69"/><polygon points="654.17 689.69 655.36 689.69 655.36 689.68 654.17 688.04 655.36 686.39 655.36 686.38 654.17 686.38 652.97 688.04 654.17 689.69"/><polygon points="652.26 689.69 653.46 689.69 653.46 689.68 652.26 688.04 653.46 686.39 653.46 686.38 652.26 686.38 651.06 688.04 652.26 689.69"/><polygon points="650.36 689.69 651.55 689.69 651.55 689.68 650.36 688.04 651.55 686.39 651.55 686.38 650.36 686.38 649.16 688.04 650.36 689.69"/><polygon points="648.45 689.69 649.65 689.69 649.65 689.68 648.45 688.04 649.65 686.39 649.65 686.38 648.45 686.38 647.25 688.04 648.45 689.69"/><polygon points="646.55 689.69 647.74 689.69 647.75 689.68 646.55 688.04 647.75 686.39 647.74 686.38 646.55 686.38 645.35 688.04 646.55 689.69"/><polygon points="644.64 689.69 645.84 689.69 645.84 689.68 644.64 688.04 645.84 686.39 645.84 686.38 644.64 686.38 643.45 688.04 644.64 689.69"/><polygon points="642.74 689.69 643.93 689.69 643.93 689.68 642.74 688.04 643.93 686.39 643.93 686.38 642.74 686.38 641.54 688.04 642.74 689.69"/><polygon points="682.93 689.69 684.12 689.69 684.13 689.68 682.93 688.04 684.13 686.39 684.12 686.38 682.93 686.38 681.73 688.04 682.93 689.69"/><polygon points="681.03 689.69 682.22 689.69 682.22 689.68 681.03 688.04 682.22 686.39 682.22 686.38 681.03 686.38 679.83 688.04 681.03 689.69"/><polygon points="679.12 689.69 680.31 689.69 680.32 689.68 679.12 688.04 680.32 686.39 680.31 686.38 679.12 686.38 677.92 688.04 679.12 689.69"/><polygon points="677.22 689.69 678.41 689.69 678.41 689.68 677.22 688.04 678.41 686.39 678.41 686.38 677.22 686.38 676.02 688.04 677.22 689.69"/><polygon points="675.31 689.69 676.5 689.69 676.51 689.68 675.31 688.04 676.51 686.39 676.5 686.38 675.31 686.38 674.11 688.04 675.31 689.69"/><polygon points="673.41 689.69 674.6 689.69 674.6 689.68 673.41 688.04 674.6 686.39 674.6 686.38 673.41 686.38 672.21 688.04 673.41 689.69"/><polygon points="671.5 689.69 672.69 689.69 672.7 689.68 671.5 688.04 672.7 686.39 672.69 686.38 671.5 686.38 670.3 688.04 671.5 689.69"/><polygon points="669.6 689.69 670.79 689.69 670.79 689.68 669.6 688.04 670.79 686.39 670.79 686.38 669.6 686.38 668.4 688.04 669.6 689.69"/><polygon points="667.69 689.69 668.88 689.69 668.89 689.68 667.69 688.04 668.89 686.39 668.88 686.38 667.69 686.38 666.49 688.04 667.69 689.69"/><polygon points="665.79 689.69 666.98 689.69 666.98 689.68 665.79 688.04 666.98 686.39 666.98 686.38 665.79 686.38 664.59 688.04 665.79 689.69"/><polygon points="663.88 689.69 665.08 689.69 665.08 689.68 663.88 688.04 665.08 686.39 665.08 686.38 663.88 686.38 662.68 688.04 663.88 689.69"/><path d="M154.52,139.67l-.67-.67.38-.38-1-1.06-.39.39-.66-.67a1.27,1.27,0,0,0-1.79,0l-.56.56a1.26,1.26,0,0,0,0,1.78l.67.67-2,2-1.62-1.62.63-.63a3.56,3.56,0,0,1,.47-2.78l-.33-.33-2.26,2.25-.4-.4-.82.82.55.54-.34.34.3.29-.26.26a.49.49,0,0,0-.58,0l-.77.77c-.16.16-.08.5.18.76l.29.29c.26.26.6.34.76.18l.77-.77c.13-.13.1-.36,0-.58l.25-.25.3.29.33-.33,1.77,1.76L144,146.73l1.05,1.06,3.36-3.35,3.45,3.45,1.4-1.39L149.81,143l1.7-1.69.67.66a1.26,1.26,0,0,0,1.78,0l.56-.56A1.26,1.26,0,0,0,154.52,139.67Z" transform="translate(514.68 556.97)"/></g></g></svg>