<?xml version="1.0" encoding="utf-8"?>
<!-- Generator: Adobe Illustrator 19.0.0, SVG Export Plug-In . SVG Version: 6.00 Build 0)  -->
<svg version="1.1" id="Layer_1" xmlns="http://www.w3.org/2000/svg" xmlns:xlink="http://www.w3.org/1999/xlink" x="0px" y="0px"
	 viewBox="0 0 425.9 1000.1" style="enable-background:new 0 0 425.9 1000.1;" xml:space="preserve">
<style type="text/css">
	.st0{fill:#57595B;}
	.st1{fill:#282B2E;}
	.st2{fill:#292D2F;}
	.st3{fill:#282C2E;}
	.st4{fill:#2B2E31;}
	.st5{fill:#C0BDC4;}
	.st6{fill:#C0BCC4;}
	.st7{fill:#7F8084;}
	.st8{fill:#627772;}
</style>
<g>
	<path class="st0" d="M84.6,342.7c0-102.3,0-204.6,0-306.8c0-4-0.1-8,0.8-11.9c2.5-10.8,9.1-17.9,19.3-21.9c1.5-0.6,3.4-0.3,4.3-2.1
		c4.7,0,9.3,0,14,0c0.1,0.1,0.2,0.4,0.3,0.4C142.5,5,149.2,18.9,149.2,37c-0.4,100.1-0.2,200.2-0.2,300.4c0,1.8,0.1,3.7,0.2,5.5
		C127.7,342.8,106.2,342.8,84.6,342.7z"/>
	<path class="st0" d="M0,447c2.7-3.7,5.9-6.2,10.8-5.3c0.1,32.7,0.1,65.5,0.2,98.2c-5.1,0.6-8.6-1.7-11-6C0,505,0,476,0,447z"/>
	<path class="st0" d="M10.9,612.2C5.7,613,2.2,610.7,0,606c0-12,0-24,0-36c2.5-4.2,6.2-6.2,11-5.9C11,580.1,10.9,596.1,10.9,612.2z"
		/>
	<path class="st0" d="M22.9,825.4c-0.1-1-0.3-2-0.3-3c0-54.2,0-108.4,0-162.7c0-1.2,0.2-2.3,0.3-3.5c0-82,0-164,0-246.1
		c-1-24.8,18.9-48.5,44-52.3c3-0.4,6-0.7,8.9-1c27.3,0,54.6,0.1,82,0.1c5.1,0,10.3,0,15.4,0c30.8,0,61.7,0,92.5,0
		c9.7,0,19.3-0.1,29-0.1c22.8,0,45.6,0,68.4,0c17.9,1,32.8,8,43.4,22.8c5.7,8,9.5,17,9.5,26.9c0.2,37.4,0,74.8,0,112.2
		c0,52.5,0,105,0,157.5c0,49.8,0,99.5,0,149.3c0,33.2,0,66.3-0.1,99.5c0.2,10,1.1,20-0.5,29.9c-3.5,22.5-19.8,39.1-42.2,44
		c-0.8,0.2-1.5,0.6-2.2,0.9c-3.7,0-7.3,0.1-11,0.1c-96.5,0-192.9,0.1-289.4,0.1c-1.7,0-3.3-0.1-5-0.2c-1-1.7-2.8-1.4-4.3-1.8
		c-22.1-6.2-37.9-25.9-38.7-48.9c-0.3-7.9,0.1-15.9,0.1-23.9C22.9,892,22.9,858.7,22.9,825.4z M218.8,594c43.7,0,87.3-0.1,131,0.1
		c16.2,0.1,24.6-12.1,24.4-24.2c-0.4-40.2-0.5-80.3,0-120.5c0.2-13.5-11.4-23.5-23.6-23.5c-87.3,0.2-174.6,0.2-261.9,0
		c-13.3,0-24,9.8-23.8,23.6c0.4,40,0.4,80,0,120c-0.2,15.5,10.7,24.6,24.5,24.5C132.5,593.8,175.7,594,218.8,594z M256.1,738
		c6,0,12,0,18,0c27.3,0,54.6-0.1,81.9,0.1c4,0,6.5-1.8,7.7-5.1c1.3-3.5-0.7-6-3.4-8.1c-1.9-1.4-4.2-0.8-6.3-0.8
		c-65.4,0-130.9,0-196.3,0c-1.5,0-3-0.1-4.5,0.1c-5.3,1-7.6,7.2-4.2,11.2c2,2.4,4.8,2.6,7.7,2.6C189.8,738,223,738,256.1,738z
		 M255.5,669c-33,0-65.9,0-98.9,0c-6.4,0-8.7,1.9-8.7,6.9c0,5.1,2.3,7,8.6,7c12.2,0,24.3,0,36.5,0c53.8,0,107.6,0,161.3,0
		c2.1,0,4.4,0.6,6.2-1c2.4-2.1,4.3-4.4,3-7.8c-1.3-3.4-3.7-5.1-7.6-5.1C322.4,669.1,289,669,255.5,669z M256,697
		c-33.5,0-66.9,0-100.4,0c-3.8,0-7,0.6-7.6,5.2c-0.7,5.3,1.9,7.9,8,7.9c66.4,0,132.9,0,199.3,0c5.9,0,8.7-2.1,8.7-6.5
		c0-4.4-2.8-6.5-8.6-6.5C322.3,697,289.1,697,256,697z M256,655c33.5,0,66.9,0,100.4,0.1c3.7,0,6.2-1.1,7.2-4.7
		c0.8-2.8,0.1-5.3-2.2-7.1c-2-1.6-4.4-1.3-6.7-1.3c-66.1,0-132.2,0-198.3,0c-1,0-2-0.1-3,0c-3.2,0.4-5.1,2.2-5.5,5.4
		c-0.6,5.3,1.7,7.6,7.7,7.6C189.1,655,222.6,655,256,655z M105.1,695.3c14.9,0.1,26.8-11.5,26.9-26.3c0.2-14.8-11.6-26.9-26.3-27
		c-15-0.1-26.9,11.3-27.1,26.2C78.5,683.4,89.9,695.2,105.1,695.3z M285.7,765c23.5,0,47-0.1,70.5,0.1c3.6,0,6.2-0.9,7.4-4.4
		c1.7-5-1.8-8.7-8.2-8.7c-46.3,0-92.6,0-138.9,0c-5.9,0-8.6,2.3-8.5,6.7c0.1,4.3,2.7,6.3,8.3,6.3C239.4,765.1,262.6,765.1,285.7,765
		z M158.7,849.1c5.2,0,10.3,0.1,15.5,0c5.3-0.1,8.3-2.6,8.4-7.9c0.2-7.6,0.1-15.3-0.3-23c-0.3-5.4-2.8-7.8-8.3-7.9
		c-10-0.2-20-0.2-30,0c-5.5,0.1-8.4,2.9-8.6,8.3c-0.2,7.5-0.2,15,0,22.5c0.2,5.3,2.9,7.8,8.3,7.9
		C148.7,849.2,153.7,849.1,158.7,849.1z M99,754.1C99,754.1,99,754.1,99,754.1c-5.2,0-10.3-0.1-15.5,0c-5.5,0.1-8.4,2.8-8.5,8.2
		c-0.1,7.5-0.1,15,0,22.4c0.1,5.2,2.9,8.1,8,8.2c10.3,0.1,20.6,0.1,30.9,0c5.1-0.1,8-3,8.1-8.2c0.1-7.5,0.1-15,0-22.4
		c-0.1-5.4-3-8.1-8.5-8.2C108.7,754,103.8,754.1,99,754.1z M158.9,896.2c5,0,10,0.1,15,0c5.8-0.1,8.6-3,8.6-8.6
		c0-7.2-0.1-14.3-0.2-21.5c-0.1-5.7-2.5-8.5-8-8.6c-10.2-0.2-20.3-0.2-30.5,0c-5.3,0.1-8.1,2.9-8.3,8.1c-0.3,7.7-0.3,15.3,0,23
		c0.2,5.2,3.1,7.6,8.5,7.7C148.9,896.2,153.9,896.2,158.9,896.2z M98.2,849.2c5,0,10,0,15,0c5.9-0.1,8.7-2.7,8.7-8.4
		c0.1-7.3,0.1-14.7,0-22c-0.1-5-2.5-8.1-7.5-8.3c-10.5-0.3-21-0.3-31.5,0c-5.6,0.2-7.9,3.1-8,8.8c-0.1,7,0,14,0,21
		c0,6.3,2.6,8.8,8.7,8.9C88.6,849.2,93.4,849.1,98.2,849.2z M219.4,849.2c5,0,10,0.1,15,0c5.9-0.1,8.5-2.7,8.6-8.5
		c0.1-7.3,0.1-14.6,0-21.9c-0.1-5-2.9-8.2-7.9-8.3c-10.3-0.2-20.6-0.2-30.9,0c-5.4,0.1-8,3.2-8.1,8.7c-0.1,7.1-0.1,14.3,0,21.4
		c0.1,6.1,2.6,8.6,8.9,8.7C209.7,849.2,214.5,849.1,219.4,849.2z M279.8,896.2c5.2,0,10.3,0.1,15.5,0c5.4-0.1,7.9-2.6,8-8
		c0.1-7.5,0.1-15,0-22.5c-0.1-5.3-2.6-8.1-8-8.2c-10.2-0.2-20.3-0.2-30.5,0c-5.2,0.1-8.2,2.9-8.4,8c-0.3,7.7-0.3,15.3,0,23
		c0.2,5.3,3,7.7,8.4,7.7C269.8,896.2,274.8,896.2,279.8,896.2z M279.5,849.1c5.2,0,10.3,0.1,15.5,0c5.7-0.1,8.1-2.5,8.2-8.3
		c0.1-7.3,0.1-14.7,0-22c-0.1-5.4-2.4-8.3-7.7-8.5c-10.3-0.3-20.7-0.2-31,0c-5.2,0.1-8.1,3.2-8.2,8.2c-0.2,7.5-0.2,15,0,22.5
		c0.2,5.5,3.1,8,8.7,8.1C269.9,849.2,274.7,849.1,279.5,849.1z M340.2,849.1c4.8,0,9.7,0,14.5,0c0.2,0,0.3,0,0.5,0
		c5.9-0.1,8.6-2.7,8.7-8.5c0.1-7.3,0-14.7,0-22c0-4.8-2.5-7.9-7.1-8.1c-11-0.4-22-0.3-32.9,0c-4.8,0.1-7,3.4-6.9,8.1
		c0,7.3-0.1,14.7,0,22c0.1,5.8,2.7,8.3,8.7,8.4C330.5,849.2,335.4,849.2,340.2,849.1z M158.9,754.1c-5,0-10-0.1-15,0
		c-5.4,0.1-8.1,2.5-8.2,7.8c-0.1,7.6-0.1,15.3,0,22.9c0.1,5.4,2.6,8,8,8c10.1,0.2,20.3,0.1,30.4,0c5.2-0.1,8-2.9,8-8.1
		c0.1-7.5,0.1-15,0-22.4c-0.1-5.6-2.6-8.1-8.3-8.2C168.9,754,163.9,754.1,158.9,754.1z M340.5,896.2c4.8,0,9.7,0,14.5,0
		c6.2-0.1,8.8-2.6,8.9-8.7c0.1-7,0.1-14,0-21c-0.1-5.9-2.6-8.6-8.4-8.7c-10.1-0.2-20.3-0.3-30.4-0.3c-5,0-8,3-8.1,8.2
		c-0.1,7.5-0.1,15,0,22.5c0.1,5.2,2.8,7.9,8.1,8C330.2,896.2,335.4,896.2,340.5,896.2z M98.7,896.2c4.8,0,9.7,0,14.5,0
		c0.2,0,0.3,0,0.5,0c5.5-0.2,8.2-2.8,8.3-8.4c0.1-7.3,0.1-14.6,0-22c-0.1-5.4-2.6-8-8-8.1c-10.3-0.1-20.6-0.1-31,0
		c-5.4,0.1-7.9,2.6-8,8c-0.1,7.5-0.1,15,0,22.5c0.1,5.1,2.9,7.8,8.2,7.9C88.4,896.2,93.5,896.2,98.7,896.2z M279.8,943.2
		c5.2,0,10.3,0.1,15.5,0c5.5-0.1,7.9-2.5,8-7.9c0.1-7.5,0.1-15,0-22.5c-0.1-5.6-2.4-8-7.9-8c-10.2-0.1-20.3-0.1-30.5,0
		c-5.6,0-8.4,2.6-8.5,8.2c-0.2,7.3-0.2,14.6,0,22c0.2,5.8,3,8.2,8.9,8.3C270.1,943.2,274.9,943.2,279.8,943.2z M159.3,904.7
		c-5.2,0-10.3-0.1-15.5,0c-5.4,0.1-8.2,2.5-8.4,7.8c-0.3,7.6-0.3,15.3,0,23c0.2,5.2,3.1,7.7,8.5,7.7c10.1,0.1,20.3,0.1,30.4,0
		c5.2-0.1,7.8-2.5,7.9-7.6c0.2-7.8,0.1-15.6,0-23.5c-0.1-4.9-2.5-7.2-7.5-7.4C169.6,904.6,164.4,904.7,159.3,904.7z M98.6,943.2
		C98.6,943.2,98.6,943.2,98.6,943.2c5,0,10,0.1,15,0c5.5-0.1,8.3-2.7,8.4-8.3c0.1-7.3,0.1-14.6,0-22c-0.1-5.4-2.6-8.1-7.9-8.2
		c-10.3-0.1-20.6-0.1-30.9,0c-5.4,0.1-8,2.7-8.1,8c-0.1,7.5-0.1,15,0,22.5c0.1,5.2,2.9,7.9,8.1,8C88.3,943.3,93.5,943.2,98.6,943.2z
		 M219,896.2c5.3,0,10.6,0.1,16,0c4.9-0.1,7.8-2.8,7.9-7.7c0.2-7.6,0.2-15.3,0-23c-0.1-4.9-3-7.7-7.9-7.8c-10.5-0.1-21-0.1-31.4,0
		c-5,0.1-7.5,2.7-7.6,7.9c-0.1,7.5-0.1,15,0,22.5c0.1,5.2,2.8,7.9,8.1,8C209.1,896.3,214,896.2,219,896.2z M340.8,904.7
		c-5.2,0-10.3-0.1-15.5,0c-5.7,0.1-8.2,2.6-8.3,8.3c-0.1,7.3-0.1,14.6,0,22c0.1,5.3,2.7,8.1,7.9,8.2c10.3,0.1,20.6,0.1,30.9,0
		c5.2,0,8-2.8,8.1-8c0.1-7.5,0.1-15,0-22.5c-0.1-5.3-2.8-7.8-8.2-7.9C350.7,904.6,345.8,904.7,340.8,904.7z M219.3,904.7
		c-5.2,0-10.3-0.1-15.5,0c-5.1,0.1-7.7,2.7-7.8,7.7c-0.1,7.6-0.2,15.3,0,22.9c0.1,5.1,2.8,7.7,7.8,7.8c10.3,0.1,20.6,0.1,30.9,0
		c5.3,0,8.1-2.7,8.2-7.9c0.2-7.5,0.1-15,0-22.4c-0.1-5.3-2.8-7.9-8.1-8C229.7,904.6,224.5,904.7,219.3,904.7z M98,715
		c-4.8,0-9.6,0.1-14.5,0c-2.9,0-5.2,0.9-7,3.1c-2.8,3.6-2.1,15.5,0.9,18.9c1.8,2,3.7,3,6.5,2.9c7.5-0.2,15-0.3,22.4,0
		c13.2,0.4,16.4-1.7,15.6-15.5c-0.3-6.3-2.8-9.2-9.1-9.4C108,714.9,103,715,98,715z"/>
	<path class="st0" d="M294.8,294.1c-1.8-0.2-3.6-0.3-5.4-0.5c-5.1-0.6-8.2-3.8-8.3-8.9c-0.1-12.3-0.4-24.7,0.2-37
		c0.9-19,16.8-34.9,36.3-36.3c8.8-0.7,17.7-1,26.4,0.4c19.1,3.2,32.8,19.4,33,38.8c0.1,10.3,0,20.7,0,31c0,9-2.5,11.6-11.3,12
		c-0.8,0-1.6,0.2-2.5,0.4C340.3,294,317.5,294,294.8,294.1z M307,264.4c0,5.7,0,11.3,0,17c0,3.1,0,6.5,4.2,6.5
		c3.8,0,4.7-2.9,4.8-6.3c0.5-18.6-1.6-37.2,2-55.7c0.3-1.7,0.4-3.9-1.9-4.6c-2.2-0.6-3.3,1.2-4.1,2.9c-0.5,0.9-0.7,1.8-1.1,2.8
		C306.6,239.1,306.9,251.7,307,264.4z M351,265c0-3.3,0-6.7,0-10c0-10.5-1-20.9-5-30.7c-0.7-1.8-1.8-3.4-4-2.9c-2.1,0.5-2,2.4-2,4.1
		c0,1.3,0.1,2.7,0.3,4c1,5.2,1.8,10.4,1.7,15.8c-0.1,12,0,24,0,36c0,3.3,0,6.8,4.5,6.8c4.5-0.1,4.4-3.7,4.5-6.9
		C351,275.6,351,270.3,351,265z M325,255.5C325,255.5,325,255.5,325,255.5c-0.1,8.8-0.1,17.6-0.1,26.4c0,3.1,0.4,6.1,4.2,6
		c3.5-0.1,3.9-2.9,3.9-5.8c-0.1-6,0.1-12,0-17.9c-0.3-12.4,1-24.9-0.9-37.3c-0.4-2.5,1.3-6.7-3.1-6.6c-4.6,0-2.9,4.7-4,7.4
		c-0.3,0.7-0.1,1.6-0.1,2.5C325,238.5,325,247,325,255.5z M368,265.4c0-5.3,0-10.7,0-16c-0.1-6-2.3-11.3-5.5-16.3
		c-0.8-1.3-1.9-2.4-3.7-1.6c-1.8,0.8-1.7,2-1.3,3.7c2.2,9.3,2.6,18.7,2.4,28.2c-0.1,6.3,0,12.7,0,19c0,2.8,0.7,5.2,3.9,5.4
		c3.5,0.1,4.3-2.4,4.3-5.4C368,276.8,368,271.1,368,265.4z M298,264.5c0.2-9.4-0.7-18.9,1.9-28.2c0.4-1.7,0.8-4-1.4-4.8
		c-1.9-0.7-3,1.3-3.8,2.6c-2.6,4.1-4.6,8.5-4.6,13.5c-0.1,11.7,0,23.3-0.1,35c0,2.8,0.7,5.2,3.8,5.4c3.5,0.2,4.3-2.4,4.3-5.4
		C298,276.5,298,270.5,298,264.5z"/>
	<path class="st1" d="M265.7,357c-30.8,0-61.7,0-92.5,0c0-5.8-0.1-11.5,0-17.3c0.1-10.4,6.1-16.8,16.5-17.9c19.9,0,39.7,0,59.6,0.1
		c9.8,0.9,15.9,7,16.3,16.8C265.8,344.7,265.7,350.9,265.7,357z"/>
	<path class="st0" d="M294.6,344.1c-1.7,0-3.3,0.1-5,0c-5.1-0.3-8.5-3.4-8.6-8.4c-0.2-7.8-0.2-15.6,0-23.4c0.1-5.3,3.4-8.6,8.7-9.1
		c1.6-0.2,3.3-0.1,5-0.2c22.8,0,45.6,0,68.4,0c1.7,0,3.3,0,5,0.2c5,0.4,8.6,3.6,8.7,8.5c0.3,8,0.2,15.9,0,23.9
		c-0.1,5-3.6,8.2-8.6,8.5c-1.7,0.1-3.3,0-5,0C340.4,344.1,317.5,344.1,294.6,344.1z M342,323.3C342,323.3,342,323.3,342,323.3
		c0,3.7-0.1,7.3,0.1,11c0.1,2.4,1.4,4.4,3.9,4.3c2.4-0.1,4.7-1.5,4.8-4.2c0.2-7,0.2-14,0-20.9c-0.1-2.4-1.3-4.6-4.4-4.5
		c-3.1,0.1-4.4,1.9-4.4,4.9C342,317,342,320.2,342,323.3z M307,323.4c0,3.5-0.1,7,0,10.5c0.1,2.6,1.8,4.5,4.3,4.8
		c2.4,0.2,4.3-1.8,4.4-3.9c0.3-7.3,0.2-14.6-0.1-21.9c-0.1-2.2-1.6-4-4.3-3.9c-2.8,0.2-4.2,1.8-4.3,4.5
		C307,316.8,307,320.1,307,323.4z M359.9,323.5C359.9,323.5,360,323.5,359.9,323.5c0,3.8,0,7.6,0,11.5c0,2.5,1.9,3.6,4,3.6
		c2.1,0,4-1.1,4-3.6c0.1-7.5,0.1-15-0.1-22.4c-0.1-2.5-2-3.7-4.6-3.6c-2.6,0.1-3.4,1.7-3.4,4C359.9,316.5,359.9,320,359.9,323.5z
		 M290,323.3c0,3.7,0,7.3,0,11c0,2.7,1.5,4.2,3.9,4.3c2.3,0.1,4.2-1.2,4.2-3.9c0-7.2,0.1-14.3,0-21.5c0-2.5-1.5-4.2-4.1-4.1
		c-2.6,0.1-3.9,1.7-4,4.2C289.9,316.6,290,320,290,323.3z M333,324c0-3.7,0.1-7.3,0-11c-0.1-2.3-1.5-3.8-3.8-3.9
		c-2.6-0.1-4.2,1.5-4.2,4c-0.1,7.2-0.1,14.3,0,21.5c0,2.5,1.4,3.5,3.8,3.6c2.5,0,4.3-0.8,4.3-3.6C333,331,333,327.5,333,324z"/>
	<path class="st2" d="M416.1,676.3c0-52.5,0-105,0-157.5c4.9,0.5,10.1,0.6,11.1,7.1c-0.7,0.3-1.3,0.5-1.3,1.7
		c0.1,48.2,0.2,96.4,0.2,144.6C424,676.5,419.8,675.9,416.1,676.3z"/>
	<path class="st3" d="M157.8,357c-27.3,0-54.6-0.1-82-0.1c0.1-10.7,1.3-12.5,8.8-14.2c21.5,0,43,0.1,64.6,0.1
		C156.5,344.4,157.7,346.4,157.8,357z"/>
	<path class="st0" d="M249.3,321.8c-19.9,0-39.7,0-59.6-0.1c0.1-2.6,0.3-5.3,0.4-7.9c0.2-6.4,3.5-9.7,10-9.8
		c12.9-0.1,25.9-0.1,38.8,0c6.4,0,9.8,3.5,10,9.8C248.9,316.6,249.1,319.2,249.3,321.8z"/>
	<path class="st2" d="M416,925.1c0-33.2,0-66.3,0.1-99.5c4.7,0.3,9.6,0.4,11,6.4c-1.2,1.3-0.8,2.8-0.8,4.3c0,25.8,0,51.7,0,77.5
		c0,1.5-0.3,3,0.9,4.3C425.9,924.2,420.9,924.6,416,925.1z"/>
	<path class="st1" d="M294.6,344.1c22.9,0,45.7,0,68.6,0c0,4.3-0.1,8.6-0.1,12.9c-22.8,0-45.6,0-68.4,0
		C294.7,352.6,294.7,348.4,294.6,344.1z"/>
	<path class="st1" d="M363.1,303c-22.8,0-45.6,0-68.4,0c0-3,0-5.9,0.1-8.9c22.8,0,45.6,0,68.3,0C363.1,297,363.1,300,363.1,303z"/>
	<path class="st0" d="M426.1,672.2c-0.1-48.2-0.1-96.4-0.2-144.6c0-1.2,0.6-1.3,1.3-1.7c1.1,1.5,0.6,3.2,0.6,4.8
		c0,44.3,0,88.6,0,132.9C427.8,666.6,428.4,669.7,426.1,672.2z"/>
	<path class="st0" d="M427.1,868.3c-1.2-1.2-0.9-2.8-0.9-4.3c0-25.8,0-51.7,0-77.5c0-1.5-0.3-3,0.8-4.3c1,1.3,0.7,2.9,0.7,4.3
		c0,26,0,51.9,0,77.9C427.8,865.8,428.1,867.2,427.1,868.3z"/>
	<path class="st4" d="M22.9,410.3c0,82,0,164,0,246.1c-9.9-1.5-11.7-3.7-11.7-14c-0.1-10.1-0.2-20.1-0.3-30.2
		c0-16,0.1-32.1,0.1-48.1c0-8,0-16.1,0-24.1c-0.1-32.7-0.1-65.5-0.2-98.2c0.1-6.1,0.3-12.3,0.3-18.4
		C11.3,413.9,13.5,411.3,22.9,410.3z"/>
	<path class="st4" d="M22.9,825.4c0,33.3,0,66.6,0,99.9c-10.6-2-11.7-3.4-11.7-14.6c0-23.8,0-47.7,0-71.5
		C11.2,828.4,12.5,826.9,22.9,825.4z"/>
	<path class="st3" d="M218.8,594c-43.2,0-86.3-0.2-129.5,0.1c-13.8,0.1-24.7-9-24.5-24.5c0.4-40,0.4-80,0-120
		c-0.1-13.8,10.5-23.7,23.8-23.6c87.3,0.2,174.6,0.2,261.9,0c12.2,0,23.8,10,23.6,23.5c-0.5,40.1-0.4,80.3,0,120.5
		c0.1,12.1-8.2,24.3-24.4,24.2C306.1,593.8,262.5,594,218.8,594z M220,450.1c-42,0-83.9,0.1-125.9-0.1c-4.2,0-5.3,1.2-5.3,5.3
		c0.1,36.3,0.2,72.6,0,108.9c0,4.5,1.1,5.9,5.8,5.9c83.4-0.1,166.9-0.1,250.3,0c4.2,0,5.3-1.2,5.2-5.3c-0.2-36.5-0.2-73,0-109.4
		c0-4.7-1.6-5.4-5.7-5.4C302.9,450.1,261.5,450.1,220,450.1z"/>
	<path class="st2" d="M256.1,738c-33.1,0-66.3,0-99.4,0c-2.9,0-5.7-0.2-7.7-2.6c-3.3-4-1-10.2,4.2-11.2c1.4-0.3,3-0.1,4.5-0.1
		c65.4,0,130.9,0,196.3,0c2.1,0,4.4-0.6,6.3,0.8c2.8,2,4.8,4.6,3.4,8.1c-1.3,3.3-3.8,5.1-7.7,5.1c-27.3-0.1-54.6-0.1-81.9-0.1
		C268.1,738,262.1,738,256.1,738z"/>
	<path class="st2" d="M255.5,669c33.5,0,66.9,0,100.4-0.1c4,0,6.3,1.7,7.6,5.1c1.3,3.4-0.6,5.7-3,7.8c-1.9,1.6-4.1,1-6.2,1
		c-53.8,0-107.6,0-161.3,0c-12.2,0-24.3,0-36.5,0c-6.3,0-8.6-1.9-8.6-7c0-5,2.3-6.9,8.7-6.9C189.6,669,222.5,669,255.5,669z"/>
	<path class="st1" d="M256,697c33.1,0,66.3,0,99.4,0c5.8,0,8.6,2.1,8.6,6.5c0,4.4-2.8,6.5-8.7,6.5c-66.4,0-132.9,0-199.3,0
		c-6.1,0-8.7-2.6-8-7.9c0.6-4.6,3.8-5.2,7.6-5.2C189.1,697,222.5,697,256,697z"/>
	<path class="st1" d="M256,655c-33.5,0-66.9,0-100.4,0c-6,0-8.3-2.4-7.7-7.6c0.4-3.2,2.3-5.1,5.5-5.4c1-0.1,2,0,3,0
		c66.1,0,132.2,0,198.3,0c2.3,0,4.7-0.3,6.7,1.3c2.3,1.9,3.1,4.3,2.2,7.1c-1.1,3.6-3.6,4.7-7.2,4.7C323,655,289.5,655,256,655z"/>
	<path class="st5" d="M105.1,695.3c-15.2-0.1-26.6-11.8-26.4-27.2c0.2-14.8,12.1-26.3,27.1-26.2c14.7,0.1,26.4,12.2,26.3,27
		C131.9,683.7,120,695.4,105.1,695.3z"/>
	<path class="st1" d="M285.7,765c-23.2,0-46.3,0-69.5,0c-5.5,0-8.1-2-8.3-6.3c-0.1-4.5,2.7-6.7,8.5-6.7c46.3,0,92.6,0,138.9,0
		c6.4,0,9.8,3.7,8.2,8.7c-1.2,3.6-3.8,4.5-7.4,4.4C332.7,765,309.2,765,285.7,765z"/>
	<path class="st6" d="M158.7,849.1c-5,0-10,0.1-15,0c-5.3-0.1-8.1-2.6-8.3-7.9c-0.2-7.5-0.2-15,0-22.5c0.2-5.4,3.1-8.2,8.6-8.3
		c10-0.2,20-0.2,30,0c5.4,0.1,8,2.5,8.3,7.9c0.4,7.6,0.5,15.3,0.3,23c-0.1,5.2-3.1,7.8-8.4,7.9C169,849.2,163.8,849.1,158.7,849.1z"
		/>
	<path class="st6" d="M99,754.1c4.8,0,9.6-0.1,14.5,0c5.5,0.1,8.4,2.8,8.5,8.2c0.1,7.5,0.1,15,0,22.4c-0.1,5.2-2.9,8.1-8.1,8.2
		c-10.3,0.1-20.6,0.2-30.9,0c-5.1-0.1-7.9-3-8-8.2c-0.1-7.5-0.1-15,0-22.4c0.1-5.4,3-8.1,8.5-8.2C88.7,754,93.9,754.1,99,754.1
		C99,754.1,99,754.1,99,754.1z"/>
	<path class="st5" d="M158.9,896.2c-5,0-10,0.1-15,0c-5.4-0.1-8.3-2.4-8.5-7.7c-0.3-7.7-0.3-15.3,0-23c0.2-5.2,3.1-8,8.3-8.1
		c10.2-0.2,20.3-0.2,30.5,0c5.6,0.1,8,3,8,8.6c0.1,7.2,0.2,14.3,0.2,21.5c0,5.6-2.8,8.5-8.6,8.6
		C168.9,896.2,163.9,896.2,158.9,896.2z"/>
	<path class="st6" d="M98.2,849.1c-4.8,0-9.7,0-14.5,0c-6.1-0.1-8.7-2.7-8.7-8.9c-0.1-7-0.1-14,0-21c0.1-5.7,2.4-8.6,8-8.8
		c10.5-0.3,21-0.3,31.5,0c4.9,0.1,7.4,3.2,7.5,8.3c0.1,7.3,0.1,14.7,0,22c-0.1,5.7-2.9,8.4-8.7,8.4
		C108.2,849.2,103.2,849.2,98.2,849.1z"/>
	<path class="st6" d="M219.4,849.1c-4.8,0-9.6,0-14.5,0c-6.3-0.1-8.9-2.6-8.9-8.7c-0.1-7.1-0.1-14.3,0-21.4c0.1-5.5,2.7-8.6,8.1-8.7
		c10.3-0.2,20.6-0.2,30.9,0c5,0.1,7.9,3.3,7.9,8.3c0.1,7.3,0.1,14.6,0,21.9c-0.1,5.9-2.7,8.4-8.6,8.5
		C229.3,849.2,224.4,849.2,219.4,849.1z"/>
	<path class="st5" d="M279.8,896.2c-5,0-10,0.1-15,0c-5.4-0.1-8.2-2.5-8.4-7.7c-0.3-7.7-0.3-15.3,0-23c0.2-5.1,3.2-7.9,8.4-8
		c10.2-0.2,20.3-0.2,30.5,0c5.4,0.1,7.9,2.9,8,8.2c0.1,7.5,0.1,15,0,22.5c-0.1,5.5-2.6,7.9-8,8C290.1,896.2,284.9,896.2,279.8,896.2
		z"/>
	<path class="st6" d="M279.5,849.1c-4.8,0-9.7,0.1-14.5,0c-5.6-0.1-8.5-2.6-8.7-8.1c-0.2-7.5-0.2-15,0-22.5c0.1-5,3-8.1,8.2-8.2
		c10.3-0.2,20.7-0.2,31,0c5.2,0.1,7.6,3,7.7,8.5c0.1,7.3,0.1,14.7,0,22c-0.1,5.8-2.5,8.2-8.2,8.3
		C289.8,849.2,284.7,849.1,279.5,849.1z"/>
	<path class="st6" d="M340.2,849.2c-4.8,0-9.7,0.1-14.5,0c-6-0.1-8.6-2.6-8.7-8.4c-0.1-7.3,0-14.7,0-22c0-4.7,2.2-8,6.9-8.1
		c11-0.3,22-0.4,32.9,0c4.6,0.1,7.1,3.3,7.1,8.1c0,7.3,0.1,14.7,0,22c-0.1,5.8-2.8,8.3-8.7,8.5c-0.2,0-0.3,0-0.5,0
		C349.9,849.1,345,849.1,340.2,849.2z"/>
	<path class="st5" d="M158.9,754.1c5,0,10-0.1,15,0c5.7,0.1,8.2,2.6,8.3,8.2c0.1,7.5,0.1,15,0,22.4c-0.1,5.2-2.8,8-8,8.1
		c-10.1,0.1-20.3,0.1-30.4,0c-5.4-0.1-7.9-2.7-8-8c-0.1-7.6-0.1-15.3,0-22.9c0.1-5.3,2.8-7.7,8.2-7.8C149,754,154,754.1,158.9,754.1
		z"/>
	<path class="st5" d="M340.5,896.2c-5.2,0-10.3,0.1-15.5,0c-5.3-0.1-8-2.8-8.1-8c-0.1-7.5-0.1-15,0-22.5c0.1-5.1,3-8.2,8.1-8.2
		c10.1,0,20.3,0.1,30.4,0.3c5.8,0.1,8.4,2.8,8.4,8.7c0.1,7,0.1,14,0,21c-0.1,6.1-2.7,8.7-8.9,8.7
		C350.2,896.2,345.3,896.2,340.5,896.2z"/>
	<path class="st5" d="M98.7,896.2c-5.2,0-10.3,0.1-15.5,0c-5.3-0.1-8.1-2.8-8.2-7.9c-0.1-7.5-0.1-15,0-22.5c0.1-5.4,2.6-8,8-8
		c10.3-0.1,20.6-0.1,31,0c5.3,0.1,7.9,2.7,8,8.1c0.1,7.3,0.1,14.6,0,22c-0.1,5.6-2.8,8.2-8.3,8.4c-0.2,0-0.3,0-0.5,0
		C108.3,896.2,103.5,896.2,98.7,896.2z"/>
	<path class="st5" d="M279.8,943.2c-4.8,0-9.7,0.1-14.5,0c-6-0.1-8.8-2.5-8.9-8.3c-0.2-7.3-0.2-14.6,0-22c0.2-5.6,3-8.1,8.5-8.2
		c10.2-0.1,20.3-0.1,30.5,0c5.5,0.1,7.8,2.4,7.9,8c0.1,7.5,0.1,15,0,22.5c-0.1,5.5-2.5,7.8-8,7.9
		C290.1,943.3,284.9,943.2,279.8,943.2z"/>
	<path class="st5" d="M159.3,904.7c5.2,0,10.3-0.1,15.5,0c5,0.1,7.4,2.5,7.5,7.4c0.2,7.8,0.2,15.6,0,23.5c-0.1,5.1-2.7,7.5-7.9,7.6
		c-10.1,0.1-20.3,0.1-30.4,0c-5.4,0-8.3-2.5-8.5-7.7c-0.3-7.6-0.3-15.3,0-23c0.2-5.3,3-7.7,8.4-7.8
		C148.9,904.7,154.1,904.7,159.3,904.7z"/>
	<path class="st5" d="M98.6,943.2c-5.2,0-10.3,0.1-15.5,0c-5.2-0.1-8-2.8-8.1-8c-0.1-7.5-0.1-15,0-22.5c0.1-5.3,2.7-7.9,8.1-8
		c10.3-0.1,20.6-0.1,30.9,0c5.3,0.1,7.8,2.7,7.9,8.2c0.1,7.3,0.1,14.6,0,22c-0.1,5.5-2.8,8.2-8.4,8.3
		C108.6,943.3,103.6,943.2,98.6,943.2C98.6,943.2,98.6,943.2,98.6,943.2z"/>
	<path class="st5" d="M219,896.2c-5,0-10,0.1-15,0c-5.3-0.1-8-2.8-8.1-8c-0.1-7.5-0.1-15,0-22.5c0.1-5.2,2.6-7.8,7.6-7.9
		c10.5-0.1,21-0.1,31.4,0c4.9,0,7.8,2.8,7.9,7.8c0.2,7.6,0.2,15.3,0,23c-0.1,4.9-3,7.6-7.9,7.7C229.7,896.2,224.4,896.2,219,896.2z"
		/>
	<path class="st5" d="M340.8,904.7c5,0,10-0.1,15,0c5.4,0.1,8,2.6,8.2,7.9c0.2,7.5,0.1,15,0,22.5c-0.1,5.2-2.9,8-8.1,8
		c-10.3,0.1-20.6,0.1-30.9,0c-5.2-0.1-7.8-2.9-7.9-8.2c-0.1-7.3-0.1-14.6,0-22c0.1-5.6,2.6-8.2,8.3-8.3
		C330.4,904.7,335.6,904.7,340.8,904.7z"/>
	<path class="st5" d="M219.3,904.7c5.2,0,10.3-0.1,15.5,0c5.3,0.1,8,2.8,8.1,8c0.1,7.5,0.2,15,0,22.4c-0.1,5.2-2.9,7.9-8.2,7.9
		c-10.3,0.1-20.6,0.1-30.9,0c-5-0.1-7.7-2.7-7.8-7.8c-0.2-7.6-0.1-15.3,0-22.9c0.1-5,2.8-7.6,7.8-7.7
		C209,904.6,214.2,904.7,219.3,904.7z"/>
	<path class="st7" d="M98,715c5,0,10-0.1,15,0c6.3,0.2,8.7,3.1,9.1,9.4c0.8,13.8-2.4,16-15.6,15.5c-7.5-0.2-15-0.2-22.4,0
		c-2.8,0.1-4.8-1-6.5-2.9c-3-3.4-3.7-15.3-0.9-18.9c1.7-2.3,4.1-3.2,7-3.1C88.4,715.1,93.2,715,98,715z"/>
	<path class="st2" d="M307,264.4c-0.1-12.6-0.4-25.3,3.9-37.4c0.3-0.9,0.6-1.9,1.1-2.8c0.9-1.7,1.9-3.4,4.1-2.9
		c2.3,0.6,2.3,2.8,1.9,4.6c-3.6,18.5-1.5,37.1-2,55.7c-0.1,3.4-1,6.3-4.8,6.3c-4.2,0-4.2-3.4-4.2-6.5C307,275.7,307,270,307,264.4z"
		/>
	<path class="st2" d="M351,265c0,5.3,0,10.7,0,16c0,3.2,0,6.9-4.5,6.9c-4.5,0.1-4.5-3.4-4.5-6.8c0-12-0.1-24,0-36
		c0-5.3-0.8-10.6-1.7-15.8c-0.2-1.3-0.3-2.6-0.3-4c-0.1-1.7-0.1-3.6,2-4.1c2.2-0.5,3.3,1.1,4,2.9c4,9.9,5,20.2,5,30.7
		C351,258.3,351,261.6,351,265z"/>
	<path class="st1" d="M325,255.5c0-8.5,0-17,0-25.4c0-0.8-0.2-1.8,0.1-2.5c1-2.6-0.6-7.3,4-7.4c4.4,0,2.7,4.2,3.1,6.6
		c1.9,12.4,0.5,24.9,0.9,37.3c0.2,6,0,12,0,17.9c0,2.9-0.4,5.7-3.9,5.8c-3.9,0.1-4.2-2.9-4.2-6C325,273.1,324.9,264.3,325,255.5
		C325,255.5,325,255.5,325,255.5z"/>
	<path class="st3" d="M368,265.4c0,5.7,0,11.3,0,17c0,3-0.8,5.6-4.3,5.4c-3.2-0.1-3.9-2.6-3.9-5.4c0-6.3-0.1-12.7,0-19
		c0.2-9.5-0.3-18.9-2.4-28.2c-0.4-1.7-0.5-2.9,1.3-3.7c1.8-0.9,2.9,0.3,3.7,1.6c3.3,4.9,5.4,10.3,5.5,16.3
		C368.1,254.8,368,260.1,368,265.4z"/>
	<path class="st1" d="M298,264.5c0,6,0,12,0,18c0,3-0.8,5.5-4.3,5.4c-3.2-0.1-3.8-2.6-3.8-5.4c0.1-11.7,0-23.3,0.1-35
		c0-5,2-9.4,4.6-13.5c0.8-1.3,1.9-3.2,3.8-2.6c2.2,0.8,1.8,3.1,1.4,4.8C297.4,245.6,298.2,255.1,298,264.5z"/>
	<path class="st2" d="M342,323.3c0-3.2,0-6.3,0-9.5c0-2.9,1.3-4.7,4.4-4.9c3-0.1,4.3,2.1,4.4,4.5c0.2,7,0.2,14,0,20.9
		c-0.1,2.7-2.4,4.1-4.8,4.2c-2.5,0.1-3.8-1.9-3.9-4.3C341.9,330.6,342.1,327,342,323.3C342,323.3,342,323.3,342,323.3z"/>
	<path class="st2" d="M307,323.4c0-3.3-0.1-6.7,0-10c0.1-2.7,1.5-4.3,4.3-4.5c2.8-0.2,4.3,1.7,4.3,3.9c0.3,7.3,0.3,14.6,0.1,21.9
		c-0.1,2.1-2,4.2-4.4,3.9c-2.5-0.2-4.1-2.2-4.3-4.8C306.9,330.4,307,326.9,307,323.4z"/>
	<path class="st1" d="M359.9,323.5c0-3.5,0-7,0-10.5c0-2.3,0.8-3.9,3.4-4c2.5-0.1,4.5,1.1,4.6,3.6c0.2,7.5,0.2,15,0.1,22.4
		c0,2.5-2,3.6-4,3.6c-2.1,0-3.9-1.2-4-3.6C359.9,331.1,360,327.3,359.9,323.5C360,323.5,359.9,323.5,359.9,323.5z"/>
	<path class="st3" d="M290,323.3c0-3.3-0.1-6.7,0-10c0.1-2.5,1.4-4.2,4-4.2c2.6-0.1,4,1.6,4.1,4.1c0.1,7.2,0.1,14.3,0,21.5
		c0,2.7-1.9,4-4.2,3.9c-2.3-0.1-3.9-1.6-3.9-4.3C290,330.6,290,326.9,290,323.3z"/>
	<path class="st3" d="M333,324c0,3.5,0,7,0,10.5c0,2.9-1.7,3.7-4.3,3.6c-2.4,0-3.8-1.1-3.8-3.6c0-7.2-0.1-14.3,0-21.5
		c0-2.5,1.6-4.1,4.2-4c2.3,0.1,3.7,1.6,3.8,3.9C333.1,316.6,333,320.3,333,324z"/>
	<path class="st8" d="M220,450.1c41.5,0,82.9,0.1,124.4-0.1c4.1,0,5.8,0.6,5.7,5.4c-0.2,36.5-0.2,73,0,109.4c0,4.1-1,5.3-5.2,5.3
		c-83.4-0.1-166.9-0.1-250.3,0c-4.7,0-5.8-1.4-5.8-5.9c0.2-36.3,0.2-72.6,0-108.9c0-4.1,1.1-5.4,5.3-5.3
		C136.1,450.1,178,450.1,220,450.1z M121.1,523.6c0-2.6,0-5.3,0-7.9c0-1.5-0.4-2.7-2.2-2.6c-1.5,0.1-1.9,1.2-1.9,2.4
		c0,5.3,0,10.6,0,15.8c0,1.5,0.5,2.7,2.2,2.6c1.5-0.1,1.9-1.2,1.9-2.4C121.1,528.9,121.1,526.2,121.1,523.6z M121.1,496.7
		c0-2.8,0-5.6,0-8.4c0-1.3-0.6-2.2-2.1-2.2c-1.5,0-2,1-2,2.3c0,5.4,0,10.9,0,16.3c0,1.3,0.5,2.2,2,2.2c1.5,0,2-1,2-2.3
		C121.1,502,121.1,499.4,121.1,496.7z M181.2,512.7c0,0,0,0.1,0,0.1c1.5,0,3,0,4.5,0c1.9,0,3.4-0.7,3.3-2.9
		c-0.1-2.2-1.8-2.5-3.6-2.5c-3.1,0.1-6.3,0.3-9.4,0.4c-1.4,0.1-2.7,0.2-2.9,2c-0.1,1.6,0.7,2.7,2.2,2.8
		C177.2,512.9,179.2,512.7,181.2,512.7z M284,499.1c-0.1,0-0.1,0-0.2,0c0-1.8,0.1-3.7,0-5.5c-0.1-1.5-1-2.5-2.6-2.5
		c-1.8,0-2.2,1.2-2.2,2.7c0,3.7,0,7.3,0,11c0,1.3,0.6,2.2,2.1,2.3c1.4,0,2.3-0.7,2.5-1.9C283.9,503.1,283.9,501.1,284,499.1z
		 M322.1,521.2c0-1.7,0-3.3,0-5c0-1.6-0.1-3.2-2.3-3.1c-1.9,0-2.6,1.3-2.6,3c-0.1,3.3-0.1,6.7,0,10c0,1.7,0.9,2.9,2.7,2.9
		c2.1,0,2.1-1.7,2.1-3.2C322.1,524.2,322.1,522.7,322.1,521.2z M322.1,499.4C322.1,499.4,322.1,499.4,322.1,499.4c0-1.8,0-3.6,0-5.4
		c0-1.4-0.2-2.7-2-2.9c-1.8-0.2-2.8,0.9-2.9,2.6c-0.1,3.6-0.1,7.2,0,10.8c0.1,1.5,1,2.4,2.6,2.4c1.7,0,2.2-1.2,2.2-2.7
		C322.1,502.7,322.1,501,322.1,499.4z M261.8,520.9C261.8,520.9,261.9,520.9,261.8,520.9c0.1-1.7,0.2-3.3,0.1-5
		c-0.1-1.7-0.8-2.9-2.7-2.8c-1.6,0.1-2.1,1.5-2.1,2.9c0,3.5,0,6.9,0,10.4c0,1.3,0.4,2.3,1.8,2.5c1.6,0.2,2.7-0.6,2.9-2.1
		C262,524.9,261.8,522.9,261.8,520.9z M147.5,513c1.9-0.1,3.9-0.1,5.8-0.4c1.3-0.2,2.4-1.2,2.2-2.8c-0.2-1.4-1.4-1.8-2.6-1.8
		c-2-0.1-4-0.3-5.9,0c-2.6,0.5-7.4-1.9-7.3,2.2C139.7,514.4,144.6,512.3,147.5,513z M160.9,499.7c0-2.1,0-3.7,0-5.4
		c0-1.6-0.4-3.1-2.3-3.2c-2.3-0.1-2.5,1.7-2.6,3.4c0,1.6-0.3,3.3,0,4.9c0.5,2.6-1.8,7.3,2.5,7.2
		C162.7,506.5,160.1,501.8,160.9,499.7z M261.9,499.5c0-2.1,0-3.7,0-5.4c0-1.6-0.7-3.1-2.5-3c-1.9,0-2.3,1.5-2.4,3.1
		c0,1.6-0.3,3.3,0,4.9c0.5,2.6-1.8,7.4,2.2,7.4C264,506.7,261,501.7,261.9,499.5z M283.9,521.2c0-1.7,0-3.3,0-5
		c-0.1-1.6-0.6-3.1-2.5-3c-1.7,0-2.2,1.3-2.3,2.8c0,3.5,0,7,0,10.5c0,1.5,0.8,2.6,2.5,2.5c1.6-0.1,2.2-1.3,2.3-2.8
		C283.9,524.5,283.8,522.8,283.9,521.2z M134.1,520.7c0,1.8,0,3.6,0,5.4c0,1.4,0.6,2.7,2.2,2.8c1.9,0.1,2.6-1.2,2.7-2.8
		c0-3.5,0-6.9,0-10.4c0-1.5-0.8-2.6-2.4-2.6c-1.6,0-2.3,1.1-2.4,2.6C134,517.4,134.1,519,134.1,520.7z M146.4,534.1
		c2.1,0,3.7,0,5.4,0c1.6,0,3.8,0.1,3.7-2.2c-0.1-2.3-2.3-1.9-3.9-2c-1.7-0.1-3.4-0.3-5,0c-2.5,0.5-7-1.8-6.9,2.1
		C139.8,535.9,144.4,533.3,146.4,534.1z M300,521c0-1.8,0-3.7,0-5.5c0-1.3-0.4-2.3-1.9-2.4c-1.5-0.1-2.1,0.9-2.1,2.2
		c-0.1,3.8-0.1,7.7,0,11.5c0,1.3,0.7,2.2,2.2,2.1c1.5-0.1,1.9-1.1,1.9-2.4C300,524.7,300,522.8,300,521z M244,521c0-1.8,0-3.7,0-5.5
		c0-1.3-0.4-2.3-1.9-2.4c-1.5-0.1-2.1,0.9-2.1,2.2c-0.1,3.8-0.1,7.7,0,11.5c0,1.3,0.7,2.3,2.1,2.2c1.5-0.1,1.9-1.1,1.9-2.4
		C244,524.7,244,522.9,244,521z M222.1,521.9c0-2.3,0-4.1,0-5.9c0-1.4-0.2-2.8-2.1-2.8c-1.8,0-2.1,1.3-2.1,2.8
		c0,1.8-0.4,3.7,0.1,5.5c0.6,2.5-2.1,7.3,2.2,7.2C224,528.5,221.1,523.8,222.1,521.9z M194,521.3c0-1.7,0-3.3,0-5
		c0-1.5,0-3.2-2.2-3.1c-1.9,0.1-1.9,1.5-1.9,2.9c0,3.3,0,6.7,0,10c0,1.4,0.2,2.8,2,2.9c2.2,0.1,2.2-1.6,2.2-3.2
		C194.1,524.3,194.1,522.8,194,521.3z M300,498.9c0-1.6,0-3.3,0-4.9c0-1.4-0.1-2.8-1.9-2.9c-1.8-0.1-2.2,1.1-2.2,2.6
		c0,3.6,0,7.2,0,10.9c0,1.3,0.4,2.3,1.9,2.4c1.8,0.1,2.2-1.1,2.2-2.6C300,502.5,300,500.7,300,498.9z M309.1,486
		C309.1,486,309.1,486,309.1,486c-1.8,0-3.6-0.1-5.4,0c-1.4,0-2.7,0.3-2.6,2.1c0,1.5,1,2,2.3,2c3.8,0,7.6,0,11.3,0
		c1.3,0,2.2-0.6,2.2-2.1c-0.1-1.5-1-2-2.3-2C312.8,485.9,310.9,486,309.1,486z M230.3,490.1c1.7,0,3.1,0.1,4.4,0
		c1.7-0.2,4.2,0.7,4.1-2.2c-0.1-2.5-2.3-1.9-3.8-2c-1.5-0.1-3.1-0.3-4.5,0c-2.5,0.6-7.1-1.8-7.1,1.9
		C223.4,492.2,228.3,489.1,230.3,490.1z M180,490.1c2.5,0,4.5,0,6.5,0c1.3,0,2.3-0.5,2.3-2c0-1.5-0.9-2.1-2.2-2.1
		c-2-0.1-4.1-0.4-6,0c-2.6,0.6-7.3-2.1-7.3,2.2C173.4,492,178.1,489.1,180,490.1z M146.2,490.1c2.7,0,4.8,0.1,6.9,0
		c1.3,0,2.3-0.6,2.3-2c0-1.5-1.1-2-2.3-2c-2.1-0.1-4.3-0.3-6.4,0c-2.5,0.4-7-1.8-7,2C139.8,492,144.4,489.2,146.2,490.1z
		 M308.9,534.1c1.8,0,3.7,0,5.5,0c1.3,0,2.4-0.4,2.5-1.9c0.1-1.8-1.1-2.2-2.6-2.2c-3.7,0-7.3,0-11,0c-1.3,0-2.3,0.6-2.2,2.1
		c0,1.5,1,2,2.3,2C305.2,534.1,307.1,534.1,308.9,534.1z M244,498.7C244,498.7,244,498.7,244,498.7c0-1.6,0-3.3,0-4.9
		c0-1.4-0.3-2.7-2.1-2.7c-1.8,0-2,1.4-2.1,2.7c0,3.6,0,7.2,0,10.9c0,1.3,0.6,2.2,2,2.2c1.5,0,2-1,2-2.2
		C244,502.7,244,500.7,244,498.7z M218,498.8c0,2,0,4,0,5.9c0,1.3,0.6,2.2,2.1,2.2c1.5,0,2-1,2-2.3c0-3.8,0-7.6,0-11.4
		c0-1.3-0.6-2.2-2.1-2.2c-1.5,0-2,1-2,2.3C217.9,495.2,218,497,218,498.8z M194,499.1C194,499.1,194,499.1,194,499.1
		c0-1.8,0.1-3.6,0-5.4c0-1.5-0.5-2.6-2.3-2.5c-1.5,0.1-1.8,1.2-1.9,2.4c0,3.8,0,7.6,0,11.3c0,1.3,0.8,2.2,2.2,2
		c1.1-0.1,1.8-0.8,1.8-1.9C194,503,194,501,194,499.1z M180.9,534.1c1.8,0,3.6,0,5.5,0c1.2,0,2.4-0.3,2.5-1.8
		c0.1-1.4-0.9-2.2-2.2-2.2c-3.8-0.1-7.6-0.1-11.4-0.1c-1.3,0-2.2,0.6-2.2,2.1c0.1,1.5,1.1,2,2.3,2
		C177.2,534.1,179,534.1,180.9,534.1z M231.1,534.1C231.1,534.1,231.1,534.1,231.1,534.1c1.7,0,3.3,0.1,5,0c1.4,0,2.8-0.2,2.7-2
		c-0.1-1.7-1.4-2.1-2.8-2.1c-3.5,0-6.9,0-10.4,0c-1.3,0-2.3,0.4-2.4,1.9c-0.1,1.8,1.1,2.2,2.6,2.3
		C227.5,534.1,229.3,534.1,231.1,534.1z M269.5,534.1c2.3,0,4.1,0,5.9,0c1.5,0,2.7-0.5,2.5-2.3c-0.1-1.5-1.2-1.8-2.5-1.8
		c-1.8,0-3.7-0.3-5.5,0c-2.6,0.5-7.3-2-7.3,2.2C262.8,535.8,267.5,533.3,269.5,534.1z M271,485.9c-2.1,0-3.7,0-5.4,0
		c-1.5,0-3.3,0.1-3.2,2.2c0.1,2,1.9,2,3.4,2c1.7,0,3.4,0.3,5,0c2.4-0.5,6.9,1.8,6.8-2.1C277.6,483.9,273,487,271,485.9z
		 M207.9,532.1c0-1.1-0.5-1.9-1.7-2c-1.3-0.1-2.2,0.5-2.3,1.9c0,1.1,0.5,1.9,1.7,2C207,534.1,207.8,533.5,207.9,532.1z"/>
	<path class="st1" d="M121.1,523.6c0,2.6,0,5.3,0,7.9c0,1.3-0.4,2.3-1.9,2.4c-1.8,0.1-2.2-1.1-2.2-2.6c0-5.3,0-10.6,0-15.8
		c0-1.3,0.4-2.3,1.9-2.4c1.8-0.1,2.2,1.1,2.2,2.6C121.1,518.3,121.1,521,121.1,523.6z"/>
	<path class="st1" d="M121.1,496.7c0,2.6,0,5.3,0,7.9c0,1.3-0.6,2.2-2,2.3c-1.5,0-2-0.9-2-2.2c0-5.4,0-10.9,0-16.3
		c0-1.3,0.5-2.3,2-2.3c1.5,0,2,0.9,2.1,2.2C121.1,491.1,121.1,493.9,121.1,496.7z"/>
	<path class="st4" d="M181.2,512.7c-2,0-4,0.2-5.9,0c-1.5-0.2-2.3-1.2-2.2-2.8c0.1-1.8,1.5-1.9,2.9-2c3.1-0.1,6.3-0.3,9.4-0.4
		c1.8-0.1,3.5,0.3,3.6,2.5c0.1,2.1-1.4,2.8-3.3,2.9c-1.5,0-3,0-4.5,0C181.2,512.8,181.2,512.8,181.2,512.7z"/>
	<path class="st4" d="M284,499.1c-0.1,2-0.1,4-0.3,6c-0.2,1.3-1.2,2-2.5,1.9c-1.5,0-2.1-0.9-2.1-2.3c0-3.7,0-7.3,0-11
		c0-1.5,0.4-2.7,2.2-2.7c1.6,0,2.5,1,2.6,2.5c0.1,1.8,0,3.7,0,5.5C283.9,499.1,283.9,499.1,284,499.1z"/>
	<path class="st4" d="M322.1,521.2c0,1.5,0,3,0,4.5c0,1.5,0,3.2-2.1,3.2c-1.8,0-2.7-1.2-2.7-2.9c-0.1-3.3-0.1-6.7,0-10
		c0-1.7,0.8-2.9,2.6-3c2.1,0,2.3,1.5,2.3,3.1C322.1,517.9,322.1,519.5,322.1,521.2z"/>
	<path class="st4" d="M322.1,499.4c0,1.6,0,3.3,0,4.9c0,1.5-0.4,2.6-2.2,2.7c-1.6,0-2.5-1-2.6-2.4c-0.1-3.6-0.1-7.2,0-10.8
		c0-1.7,1-2.8,2.9-2.6c1.7,0.1,2,1.5,2,2.9C322.1,495.7,322.1,497.6,322.1,499.4C322.1,499.4,322.1,499.4,322.1,499.4z"/>
	<path class="st4" d="M261.8,520.9c0,2,0.2,4-0.1,5.9c-0.2,1.5-1.3,2.3-2.9,2.1c-1.5-0.2-1.8-1.2-1.8-2.5c0-3.5,0-7,0-10.4
		c0-1.4,0.5-2.7,2.1-2.9c1.9-0.2,2.6,1.1,2.7,2.8C262,517.6,261.9,519.3,261.8,520.9C261.9,520.9,261.8,520.9,261.8,520.9z"/>
	<path class="st4" d="M147.5,513c-2.8-0.7-7.8,1.4-7.8-2.8c0-4.1,4.7-1.7,7.3-2.2c1.9-0.4,3.9-0.1,5.9,0c1.2,0,2.4,0.4,2.6,1.8
		c0.2,1.6-0.9,2.6-2.2,2.8C151.4,512.9,149.4,512.8,147.5,513z"/>
	<path class="st4" d="M160.9,499.7c-0.8,2.1,1.8,6.8-2.4,6.9c-4.3,0.1-2-4.6-2.5-7.2c-0.3-1.6-0.1-3.3,0-4.9c0-1.7,0.3-3.5,2.6-3.4
		c1.9,0.1,2.3,1.6,2.3,3.2C161,496,160.9,497.6,160.9,499.7z"/>
	<path class="st4" d="M261.9,499.5c-0.9,2.2,2.1,7.2-2.7,7.1c-4-0.1-1.7-4.8-2.2-7.4c-0.3-1.6-0.1-3.3,0-4.9c0-1.6,0.5-3.1,2.4-3.1
		c1.8,0,2.5,1.4,2.5,3C262,495.8,261.9,497.5,261.9,499.5z"/>
	<path class="st4" d="M283.8,521.2c0,1.7,0,3.3,0,5c0,1.5-0.7,2.7-2.3,2.8c-1.6,0.1-2.4-1-2.5-2.5c-0.1-3.5-0.1-7,0-10.5
		c0-1.5,0.6-2.7,2.3-2.8c1.9,0,2.5,1.4,2.5,3C283.9,517.8,283.9,519.5,283.8,521.2z"/>
	<path class="st4" d="M134.1,520.7c0-1.6-0.1-3.3,0-4.9c0.1-1.5,0.8-2.6,2.4-2.6c1.6,0,2.4,1.1,2.4,2.6c0.1,3.5,0.1,6.9,0,10.4
		c0,1.7-0.8,2.9-2.7,2.8c-1.6-0.1-2.2-1.3-2.2-2.8C134,524.3,134.1,522.5,134.1,520.7z"/>
	<path class="st1" d="M146.4,534.1c-2-0.9-6.6,1.8-6.7-2c-0.1-3.9,4.4-1.7,6.9-2.1c1.6-0.3,3.3-0.1,5,0c1.6,0.1,3.8-0.3,3.9,2
		c0.1,2.3-2,2.2-3.7,2.2C150.2,534.1,148.5,534.1,146.4,534.1z"/>
	<path class="st3" d="M300,521c0,1.8,0,3.7,0,5.5c0,1.3-0.4,2.3-1.9,2.4c-1.5,0.1-2.1-0.8-2.2-2.1c0-3.8,0-7.7,0-11.5
		c0-1.3,0.6-2.3,2.1-2.2c1.5,0.1,1.9,1.1,1.9,2.4C300,517.3,300,519.2,300,521z"/>
	<path class="st1" d="M244,521c0,1.8,0,3.7,0,5.5c0,1.3-0.5,2.3-1.9,2.4c-1.5,0.1-2.1-0.8-2.1-2.2c0-3.8,0-7.7,0-11.5
		c0-1.3,0.6-2.3,2.1-2.2c1.5,0.1,1.9,1.1,1.9,2.4C244,517.4,244,519.2,244,521z"/>
	<path class="st3" d="M222.1,521.9c-1,2,1.9,6.7-1.9,6.7c-4.4,0.1-1.6-4.7-2.2-7.2c-0.4-1.7-0.1-3.6-0.1-5.5c0-1.4,0.3-2.8,2.1-2.8
		c1.8,0,2,1.4,2.1,2.8C222.1,517.8,222.1,519.6,222.1,521.9z"/>
	<path class="st3" d="M194.1,521.3c0,1.5,0,3,0,4.5c0,1.5,0,3.2-2.2,3.2c-1.8-0.1-2-1.5-2-2.9c0-3.3,0-6.7,0-10
		c0-1.4,0.1-2.8,1.9-2.9c2.2-0.1,2.2,1.6,2.2,3.1C194.1,517.9,194,519.6,194.1,521.3z"/>
	<path class="st1" d="M300,498.9c0,1.8,0,3.6,0,5.4c0,1.5-0.4,2.7-2.2,2.6c-1.5-0.1-1.9-1.1-1.9-2.4c0-3.6,0-7.2,0-10.9
		c0-1.5,0.4-2.7,2.2-2.6c1.8,0.1,1.9,1.5,1.9,2.9C300.1,495.6,300,497.3,300,498.9z"/>
	<path class="st3" d="M309.1,486c1.8,0,3.6,0,5.4,0c1.3,0,2.2,0.5,2.3,2c0.1,1.5-0.9,2.1-2.2,2.1c-3.8,0-7.6,0-11.3,0
		c-1.3,0-2.3-0.5-2.3-2c0-1.8,1.2-2.1,2.6-2.1C305.5,485.9,307.3,485.9,309.1,486C309.1,486,309.1,486,309.1,486z"/>
	<path class="st3" d="M230.3,490.1c-2.1-1-6.9,2.1-6.9-2.2c0-3.7,4.6-1.3,7.1-1.9c1.4-0.3,3-0.1,4.5,0c1.5,0.1,3.8-0.5,3.8,2
		c0.1,2.9-2.4,2-4.1,2.2C233.4,490.2,232.1,490.1,230.3,490.1z"/>
	<path class="st3" d="M180,490.1c-1.9-0.9-6.6,1.9-6.6-1.9c0-4.3,4.7-1.6,7.3-2.2c1.9-0.4,4-0.1,6,0c1.3,0,2.3,0.6,2.2,2.1
		c0,1.5-1,2-2.3,2C184.5,490.1,182.5,490.1,180,490.1z"/>
	<path class="st3" d="M146.2,490.1c-1.9-0.9-6.5,1.9-6.5-2c0-3.8,4.5-1.6,7-2c2.1-0.3,4.3-0.1,6.4,0c1.2,0,2.3,0.6,2.3,2
		c0,1.4-1.1,2-2.3,2C151,490.1,148.9,490.1,146.2,490.1z"/>
	<path class="st1" d="M308.9,534.1c-1.8,0-3.7,0-5.5,0c-1.3,0-2.3-0.5-2.3-2c0-1.5,0.9-2.1,2.2-2.1c3.7,0,7.3,0,11,0
		c1.5,0,2.7,0.4,2.6,2.2c-0.1,1.5-1.2,1.9-2.5,1.9C312.5,534.1,310.7,534.1,308.9,534.1z"/>
	<path class="st3" d="M244,498.7c0,2,0,4,0,5.9c0,1.3-0.5,2.2-2,2.2c-1.5,0-2-0.9-2-2.2c-0.1-3.6-0.1-7.2,0-10.9
		c0-1.4,0.2-2.7,2.1-2.7c1.8,0,2.1,1.3,2.1,2.7C244.1,495.5,244,497.1,244,498.7C244,498.7,244,498.7,244,498.7z"/>
	<path class="st1" d="M218,498.8c0-1.8,0-3.6,0-5.4c0-1.3,0.5-2.3,2-2.3c1.5,0,2.1,0.9,2.1,2.2c0,3.8,0,7.6,0,11.4
		c0,1.3-0.5,2.3-2,2.3c-1.5,0-2.1-0.9-2.1-2.2C217.9,502.8,218,500.8,218,498.8z"/>
	<path class="st3" d="M194,499.1c0,2,0,3.9,0,5.9c0,1.1-0.7,1.8-1.8,1.9c-1.4,0.1-2.2-0.7-2.2-2c-0.1-3.8,0-7.6,0-11.3
		c0-1.2,0.4-2.3,1.9-2.4c1.8-0.1,2.2,1,2.3,2.5C194,495.4,194,497.3,194,499.1C194,499.1,194,499.1,194,499.1z"/>
	<path class="st1" d="M180.9,534.1c-1.8,0-3.6,0-5.5,0c-1.3,0-2.3-0.5-2.3-2c-0.1-1.5,0.9-2.1,2.2-2.1c3.8,0,7.6,0,11.4,0.1
		c1.3,0,2.2,0.8,2.2,2.2c-0.1,1.5-1.3,1.8-2.5,1.8C184.5,534.1,182.7,534.1,180.9,534.1z"/>
	<path class="st1" d="M231.1,534.1c-1.8,0-3.6,0-5.5,0c-1.5,0-2.7-0.5-2.6-2.3c0.1-1.5,1.2-1.9,2.4-1.9c3.5,0,6.9,0,10.4,0
		c1.4,0,2.7,0.4,2.8,2.1c0.1,1.9-1.4,2-2.7,2C234.4,534.2,232.7,534.1,231.1,534.1C231.1,534.1,231.1,534.1,231.1,534.1z"/>
	<path class="st1" d="M269.5,534.1c-2-0.8-6.7,1.7-6.8-1.9c-0.1-4.2,4.7-1.7,7.3-2.2c1.8-0.4,3.6-0.1,5.5,0c1.3,0,2.4,0.3,2.5,1.8
		c0.1,1.8-1,2.3-2.5,2.3C273.6,534.1,271.8,534.1,269.5,534.1z"/>
	<path class="st1" d="M271,485.9c1.9,1,6.5-2,6.6,2c0.1,3.9-4.4,1.6-6.8,2.1c-1.6,0.3-3.3,0.1-5,0c-1.5,0-3.3,0-3.4-2
		c-0.1-2.1,1.7-2.1,3.2-2.2C267.3,485.9,269,485.9,271,485.9z"/>
	<path class="st4" d="M207.9,532.1c-0.1,1.4-0.9,2.1-2.3,1.9c-1.1-0.1-1.7-0.9-1.7-2c0-1.4,0.9-2,2.3-1.9
		C207.4,530.2,207.9,530.9,207.9,532.1z"/>
</g>
</svg>
