<svg
   xmlns:dc="http://purl.org/dc/elements/1.1/"
   xmlns:cc="http://creativecommons.org/ns#"
   xmlns:rdf="http://www.w3.org/1999/02/22-rdf-syntax-ns#"
   xmlns:svg="http://www.w3.org/2000/svg"
   xmlns="http://www.w3.org/2000/svg"
   class="drawing"
   version="1.1"
   viewBox="0 0 160 140"
   height="140mm"
   width="160mm">
  <defs
     class="defs3716" />
  <metadata
     class="metadata3719">
    <rdf:RDF>
      <cc:Work
         rdf:about="">
        <dc:format>image/svg+xml</dc:format>
        <dc:type
           rdf:resource="http://purl.org/dc/dcmitype/StillImage" />
        <dc:title></dc:title>
      </cc:Work>
    </rdf:RDF>
  </metadata>
  <g
     class="layer1">
    <path
       style="stroke-width:0.08059587;fill:silver"
       class="bullet"
       d="m 42.694469,35.494317 c -1.003798,0.01862 -1.825475,-0.572406 -1.83548,-1.320245 -0.01001,-0.747839 0.795453,-1.36904 1.799251,-1.387655 m 0.07523,-0.114333 0.03925,2.933707 4.005818,-0.07429 -0.03925,-2.933707 z m 4.075176,0.08437 0.03497,2.613888 0.235483,-0.0044 -0.03497,-2.613888 z m 0.29397,-0.1654 0.03925,2.933706 0.310534,-0.0058 -0.03925,-2.933706 z" />
  </g>
  <g
     class="guides">
    <path
       class="bullet-guide"
       d="M 45.414114,35.891667 C 35.029858,4.3580949 35.029858,4.3580949 35.029858,4.3580949"
       style="fill:none;stroke:none;stroke-width:0.02599008px;stroke-linecap:butt;stroke-linejoin:miter;stroke-opacity:1" />
    <ellipse
       ry="0.35896361"
       rx="0.3744323"
       cy="12.89038"
       cx="29.413374"
       class="trigger-guide"
       style="opacity:1;fill:none;fill-opacity:1;stroke:none;stroke-width:0.02603101;stroke-miterlimit:4;stroke-dasharray:none;stroke-dashoffset:0;stroke-opacity:1" />
    <ellipse
       ry="0.38657621"
       rx="0.42435664"
       cy="9.1074581"
       cx="44.690205"
       class="cock-guide"
       style="opacity:1;fill:none;fill-opacity:1;stroke:none;stroke-width:0.02603101;stroke-miterlimit:4;stroke-dasharray:none;stroke-dashoffset:0;stroke-opacity:1" />
  </g>
  <g
     style="display:inline"
     class="firearm">
    <rect
       y="3.1964734"
       x="0.68022943"
       height="2.9228642"
       width="31.741339"
       class="bore"
       style="display:inline;opacity:1;fill:#ececec;fill-opacity:1;stroke:#000000;stroke-width:0.0224378;stroke-miterlimit:4;stroke-dasharray:none;stroke-dashoffset:0;stroke-opacity:1" />
    <path
       d="m 46.502391,4.1838259 c 0,0.2871667 -0.214054,0.51996 -0.478111,0.51996 -0.264051,0 -0.47811,-0.2327933 -0.47811,-0.51996 0,-0.2871636 0.214059,-0.5199559 0.47811,-0.5199559 0.264057,0 0.478111,0.2327923 0.478111,0.5199559 z m 0.451662,0.0903 c 0.12118,-0.3709053 0.04471,-0.6223612 -0.158986,-0.9225594 -0.112896,-0.119526 -0.24702,-0.2780321 -0.582484,-0.2733522 -0.435388,0.026049 -0.371401,0.176062 -0.93035,0.2801967 -0.461062,0.047137 -0.886173,-0.5807883 -1.162295,-0.2410015 -0.276128,0.3397838 -0.357844,4.597885 -0.357844,4.597885 -3.694862,3.1908815 3.252588,5.4484925 2.54024,0.8440038 C 46.114523,7.4906399 45.317841,7.4379261 45.748718,7.0675528 46.417582,6.4926118 46.588162,5.211565 46.954053,4.2741259 Z"
       style="display:inline;opacity:1;fill:#b3b3b3;fill-opacity:0.54143647;stroke:#000000;stroke-width:0.02603101;stroke-miterlimit:4;stroke-dasharray:none;stroke-dashoffset:0;stroke-opacity:1"
       class="hammer" />
    <path
       class="trigger"
       d="m 26.230698,19.738302 0.274582,0.441805 c 0.794631,-0.308341 1.41452,-0.699522 2.046897,-1.380632 0.515885,-0.667305 0.744707,-1.486478 1.210661,-2.167588 l 0.299549,-0.09664 -0.07488,-1.86385 c 0.478441,-0.05062 0.769662,-0.446404 0.836231,-0.938827 0.301025,-4.7272362 -1.11751,-2.217434 -1.988291,-1.710819 l -0.720104,1.186176 c 0.31203,1.049276 0.761345,2.457519 0.57413,3.548214 -0.135491,0.746289 -0.531307,1.356974 -1.010965,1.988107 -0.445163,0.414192 -0.890319,0.731739 -1.447804,0.994058 z"
       style="display:inline;fill:#cccccc;stroke:#000000;stroke-width:0.02599008px;stroke-linecap:butt;stroke-linejoin:miter;stroke-opacity:1" />
    <path
       class="body"
       d="M 2.7427902,8.8429856 V 12.591789 H 16.792932 c 4.189149,-0.208269 5.87189,3.918057 5.15409,7.419549 3.671387,2.160771 7.660454,1.744235 11.437749,1.0934 1.141419,0.234302 1.259129,0.741922 1.835726,1.327673 1.282634,4.85523 2.565274,9.476159 2.047512,14.214235 l 12.455111,0.01153 c 0,0 0.875353,-4.803214 0.473519,-6.231912 -1.315702,-4.677819 -3.29239,-9.016661 -4.482975,-13.079082 -0.198318,-0.676693 -0.129703,-1.240303 0.07862,-1.914842 0.340266,-1.101744 1.628364,-1.91157 2.533296,-2.25381 0.655185,-0.526685 2.217804,-0.213067 1.862848,-1.610311 -0.06146,-0.570025 -0.984023,-0.199422 -1.628142,-0.588931 0,0 -0.890457,-0.52464 -1.414237,-2.1349675 z M 29.784014,13.568056 c 2.471133,0.559717 4.094977,1.275636 4.342094,3.553558 0.03532,3.137025 -3.706676,3.813899 -5.295262,3.905017 -2.282851,0.09112 -5.836577,-0.364496 -6.319039,-3.592639 0.117676,-1.509936 0.553105,-3.293226 2.894792,-3.826909 z"
       style="display:inline;fill:#808080;stroke:#000000;stroke-width:0.02599008px;stroke-linecap:butt;stroke-linejoin:miter;stroke-opacity:1" />
    <ellipse
       ry="0.66385156"
       rx="0.67073447"
       cy="20.206566"
       cx="34.126125"
       class="mag release"
       style="opacity:1;fill:#666666;fill-opacity:1;stroke:#000000;stroke-width:0.02603101;stroke-miterlimit:4;stroke-dasharray:none;stroke-dashoffset:0;stroke-opacity:1" />
    <g
       class="slider-group">
      <g
         class="g3706">
        <g
           transform="matrix(0.09339693,0,0,0.10331364,25.194766,-9.8137297)"
           style="fill:#b3b3b3;stroke:#000000"
           class="slider">
          <path
             style="display:inline;fill:#b3b3b3;stroke:#000000;stroke-width:0.26458332px;stroke-linecap:butt;stroke-linejoin:miter;stroke-opacity:1"
             d="m -240.39286,180.58333 -0.75595,-55.18452 3.02381,-6.80357 c 4.39946,-4.07761 8.53165,-7.75431 19.21194,-8.62468 l 4.30644,10.22436 4.93661,-0.17556 c 3.51118,8.86793 10.76413,15.86496 16.1462,18.98659 l 6.79571,2.57705 163.385289,-0.0419 c 0,0 1.759955,2.85961 3.775828,4.6235 0,0 36.350395,0.8879 53.985744,0.53453 0,0 3.877475,-1.35244 4.669817,-5.90572 l -0.04632,-18.10526 121.620542,0.22141 4.31037,-11.02616 8.98366,0.22141 2.26392,10.80475 13.44827,-0.151 c 19.99428,11.85607 27.15963,23.97942 35.52769,35.43459 l 9.83563,22.40329 z"
             class="path6134" />
          <path
             style="display:inline;fill:none;stroke:#000000;stroke-width:0.26458332px;stroke-linecap:butt;stroke-linejoin:miter;stroke-opacity:1"
             d="m -240.33078,147.99306 376.5699,-0.54193 c 6.58957,20.73958 28.14624,31.85744 36.87397,33.88815 l 23.43453,-30.23809 h 12.09523 l 15.11905,29.48214"
             class="path6248" />
        </g>
        <path
           d="m 39.11251,4.9672673 0.847244,-0.00976 c 0.147087,0.1757243 0.126494,0.3514516 -0.0088,0.4978874 h -0.838417 c -0.199322,-0.043213 -0.226709,-0.3750154 0,-0.4881262 z m 3.503706,-0.3416875 0.114723,0.9372037 -2.303444,0.00976 c -0.229466,-0.058573 -0.556005,-0.6247998 0,-0.9371987 z m 0.16768,-1.1422126 -0.09708,0.4978884 0.211809,1.7377289 -2.426995,0.019504 m -1.629876,-1.2406762 1.781138,-0.011426 c 0.220079,-0.451007 0.529667,-0.7751016 1.208261,-1.0604284 0.312133,-0.04904 0.59334,-0.060067 0.961932,0.076135 l 0.549169,1.325405 -0.0048,1.2553903 c -0.475328,0.3895597 -0.774108,0.740069 -1.302352,0.758655 -0.771823,-0.00588 -1.261229,-0.5681403 -1.556481,-1.1011536 h -1.6122 C 38.443307,5.5312108 38.346734,4.8534372 38.841455,4.4978227 Z m 3.90684,6.744e-4 -2.126934,-0.019505"
           style="fill:#666666;stroke:#000000;stroke-width:0.02599008px;stroke-linecap:butt;stroke-linejoin:miter;stroke-opacity:1"
           class="safety" />
      </g>
      <ellipse
         style="opacity:1;fill:#ff0000;fill-opacity:0.38431373;stroke:#000000;stroke-width:0.02930325;stroke-miterlimit:4;stroke-dasharray:none;stroke-dashoffset:0;stroke-opacity:1"
         class="red-dot"
         cx="41.208549"
         cy="7.949719"
         rx="0.33822438"
         ry="0.38389891" />
    </g>
    <path
       class="slider-remove"
       d="M 29.448636,11.498398 C 29.113268,11.77175 27.665897,9.9949674 29.395679,9.0968174 l 3.19481,-0.1562 0.441276,-0.3514536 4.200914,-0.058573 c 0.347138,0.2082653 0.164744,0.7289354 0.247116,1.0934017 l -0.141208,0.4686025 -2.983003,0.117151 c -0.441274,0.175725 -0.476575,0.273349 -0.688385,0.820053 l 0.03533,0.351449 z"
       style="display:inline;fill:#666666;stroke:#000000;stroke-width:0.02599008px;stroke-linecap:butt;stroke-linejoin:miter;stroke-opacity:1" />
  </g>
</svg>
