<?xml version="1.0" encoding="utf-8"?>
<!--Designed by Vexels.com - 2017 All Rights Reserved - https://vexels.com/terms-and-conditions/-->
<svg version="1.1" id="Layer_1" xmlns="http://www.w3.org/2000/svg" xmlns:xlink="http://www.w3.org/1999/xlink" x="0px" y="0px"
	 viewBox="0 0 1200 1200" enable-background="new 0 0 1200 1200" xml:space="preserve">
<g>
	<g>
		<g>
			<g opacity="0.1">
				<g>
					<polygon fill="#363A4F" points="274.305,1142.564 668.925,1142.564 711.191,1075.33 427.591,900.491 					"/>
				</g>
				<g>
					<path fill="#363A4F" d="M950.573,586.888l-0.165-0.154c-12.393-11.888-30.491-13.909-45.027-6.581l39.054-40.772
						c15.073-15.744,14.519-40.723-1.218-55.802l-0.168-0.143c-12.238-11.728-30.037-13.882-44.447-6.894
						c66.702-75.749,32.198-102.09,32.198-102.09c-13.213-25.094-35.401-19.908-50.388-12.328l-0.014-7.674
						c102.532-120.037,48.277-135.643,48.277-135.643c-15.225-16.997-33.033-14.393-48.614-5.735v-1.626
						c0,0,0.607-29.088-20.485-45.497c-0.023-0.006-0.023-0.022-0.033-0.022c-1.913-1.5-4.053-2.873-6.374-4.131
						c-0.253-0.132-0.472-0.28-0.732-0.401c-2.068-1.077-4.312-2.022-6.725-2.862c-0.554-0.181-1.076-0.401-1.65-0.588
						c-2.261-0.703-4.737-1.247-7.284-1.703c-0.783-0.148-1.492-0.346-2.311-0.461c-3.388-0.483-6.968-0.786-10.876-0.786
						c-57.885,0-260.854,0-260.854,0s-63.257,1.423-63.257,63.246v211.03c-2.351-2.417-4.612-4.67-6.819-6.746
						c-0.776-0.736-1.535-1.445-2.295-2.137c-68.264-62.768-60.646,32.966-60.646,32.966l-2.131,334.775
						c0,51.177,25.574,70.349,25.574,70.349c21.349,23.468-6.39,55.439-6.39,55.439l204.567,125.745l27.867,17.139
						c0-12.811,31.983-63.987,31.983-63.987c55.44,0,97.052-90.597,105.086-109.374h5.163c0,0,60.039-5.911,60.039-64.504
						l-0.24-103.095c0.911-0.802,1.906-1.472,2.767-2.368l67.785-70.788C966.866,626.935,966.317,601.956,950.573,586.888z"/>
				</g>
			</g>
			<g>
				<path fill="#F9B696" d="M383.023,913.917c0,0,27.721-31.972,6.397-55.439c0,0-25.59-19.172-25.59-70.349l2.14-334.775
					c0,0-8.54-106.616,72.482-21.331l117.281,55.451L777.5,248.652c0,0,51.158-70.354,87.409-29.846
					c0,0,59.715,17.052-63.959,153.519c0,0,44.763-38.377,66.098,2.126c0,0,44.774,34.125-66.098,136.478
					c-110.872,102.348-46.916,368.883-46.916,368.883s-44.771,113-106.604,113c0,0-31.984,51.177-31.984,63.987L383.023,913.917z"/>
			</g>
			<g>
				<polygon fill="#7291FB" points="605.161,1142.564 647.429,1075.33 363.83,900.491 210.552,1142.564 				"/>
			</g>
			<g opacity="0.1">
				<polygon fill="#221E1F" points="605.161,1142.564 647.429,1075.33 508.825,990.044 411.833,1142.564 				"/>
			</g>
			<g>
				<g>
					<path fill="#F1A67F" d="M653.155,980.239c-43.819,18.453-60.424,47.688-65.572,59.422l27.862,17.139
						c0-12.811,31.984-63.987,31.984-63.987c61.833,0,106.604-113,106.604-113s-1.391-5.856-3.372-15.953
						C676.2,991.637,653.155,980.239,653.155,980.239z"/>
				</g>
			</g>
			<g>
				<path fill="#F1A67F" d="M777.5,248.652L555.732,487.473l-117.281-55.451c-7.504-7.916-14.249-14.162-20.319-19.013v429.157
					c0,0,20.548,52.891,91.07,52.891l199.779-29.384l45.052,14.14L777.5,248.652z"/>
			</g>
			<g>
				<g>
					<rect x="576.306" y="206.88" fill="#FFFFFF" width="124.18" height="51.133"/>
				</g>
				<g>
					<path d="M816.312,211.445c0,0,1.416-56.45-56.489-56.45c-57.873,0-260.844,0-260.844,0s-63.251,1.423-63.251,63.246v604.969
						c0,0,5.704,60.23,60.204,60.23h261.745c0,0,60.051-5.911,60.051-64.504L816.312,211.445z M654.97,233.073h-57.637
						c-3.887,0-7.011-2.961-7.011-6.603c0-3.648,3.124-6.592,7.011-6.592h57.637c3.876,0,7.004,2.945,7.004,6.592
						C661.974,230.112,658.846,233.073,654.97,233.073z"/>
				</g>
				<g>
					<path fill="#FFFFFF" d="M610.205,802.993v23.645c0.068,2.958,2.014,8.474,8.457,8.474h23.533c2.541,0,6.808-1.836,6.808-8.729
						v-21.597c-0.229-3.068-2.333-8.78-8.793-8.78l-23.407,0.068C616.509,796.126,610.205,797.86,610.205,802.993z M613.205,802.993
						c0-2.473,3.39-3.68,4.171-3.943h22.834c5.31,0,5.718,5.609,5.769,5.847l-0.051,21.486c0,5.304-2.845,5.703-3.733,5.703v1.504
						v-1.504h-23.533c-5.055,0-5.429-4.955-5.457-5.508V802.993z"/>
				</g>
				<g>
					<rect x="463.993" y="278.58" fill="#7291FB" width="325.592" height="491.76"/>
				</g>
				<g opacity="0.1">
					<path fill="#221E1F" d="M697.22,659.036H556.358c-26.298,0-47.617-21.319-47.617-47.617V470.558
						c0-26.298,21.319-47.617,47.617-47.617H697.22c26.298,0,47.617,21.319,47.617,47.617v140.861
						C744.836,637.717,723.518,659.036,697.22,659.036z"/>
				</g>
				<g>
					<g>
						<g>
							<rect x="484.49" y="673.29" fill="#91A9FC" width="142.3" height="13.635"/>
						</g>
						<g>
							<rect x="484.49" y="702.421" fill="#91A9FC" width="142.3" height="13.635"/>
						</g>
						<g>
							<rect x="484.49" y="731.551" fill="#91A9FC" width="142.3" height="13.635"/>
						</g>
					</g>
					<g>
						<g>
							<rect x="484.49" y="335.379" fill="#91A9FC" width="283.454" height="13.635"/>
						</g>
						<g>
							<rect x="484.49" y="364.51" fill="#91A9FC" width="283.454" height="13.635"/>
						</g>
						<g>
							<rect x="484.49" y="393.64" fill="#91A9FC" width="283.454" height="13.635"/>
						</g>
					</g>
					<g>
						<rect x="661.974" y="673.29" fill="#91A9FC" width="106.374" height="71.896"/>
					</g>
					<g>
						<rect x="484.49" y="296.155" fill="#91A9FC" width="81.112" height="20.143"/>
					</g>
					<g>
						<rect x="585.661" y="296.155" fill="#91A9FC" width="81.112" height="20.143"/>
					</g>
					<g>
						<rect x="686.832" y="296.155" fill="#91A9FC" width="81.112" height="20.143"/>
					</g>
				</g>
				<g>
					<g>
						<g>
							
						</g>
					</g>
				</g>
			</g>
			<g>
				<path fill="#FABA98" d="M789.585,630.503c-15.057,15.744-40.066,16.277-55.787,1.209l-0.181-0.148
					c-15.735-15.068-16.274-40.063-1.209-55.791l83.27-83.874c15.085-15.75,40.077-16.282,55.799-1.214l0.162,0.143
					c15.734,15.079,16.284,40.058,1.209,55.802L789.585,630.503z"/>
			</g>
			<g>
				<path fill="#FABA98" d="M818.635,711.855c-15.075,15.744-40.061,16.277-55.787,1.214l-0.178-0.159
					c-15.747-15.068-16.28-40.052-1.198-55.791l67.768-70.794c15.073-15.744,40.08-16.283,55.797-1.209l0.169,0.154
					c15.73,15.068,16.28,40.047,1.204,55.796L818.635,711.855z"/>
			</g>
		</g>
		
	</g>
</g>
</svg>
