<?xml version="1.0" encoding="utf-8"?>
<!-- Designed by Vexels.com - 2018 All Rights Reserved - https://vexels.com/terms-and-conditions/  -->
<svg version="1.1" id="Layer_1" xmlns="http://www.w3.org/2000/svg" xmlns:xlink="http://www.w3.org/1999/xlink" x="0px" y="0px"
	 viewBox="0 0 1200 1200" enable-background="new 0 0 1200 1200" xml:space="preserve">
<g>
	<g>
		<path fill="#F4BDA6" d="M1009.727,439.28c-14.804,19.485-48.802,33.776-59.504,37.945c-0.669-0.089-1.316-0.179-1.984-0.223
			V340.628c0,0,21.291-0.312,51.968,16.788C1036.168,377.481,1027.406,416.028,1009.727,439.28z"/>
		<path opacity="0.1" d="M999.939,415.381c8.502-34.01-15.428-63.952-46.659-74.396c-3.233-0.369-5.041-0.357-5.041-0.357v136.374
			c0.668,0.044,1.315,0.134,1.984,0.223c0.098-0.038,0.212-0.083,0.313-0.123C969.075,457.645,990.318,442.322,999.939,415.381z"/>
		<g>
			<path d="M946.366,812.041v3.233c-8.561,41.891-45.636,73.393-90.069,73.393H576.794c-50.786,0-91.942-41.155-91.942-91.919
				V635.492c3.746-35.27,18.081-82.422,39.84-125.405V715.93c0,18.682,15.138,33.82,33.82,33.82h316.066
				c14.001,0,26.017-8.516,31.167-20.645v-4.08c1.672-0.022,3.366-0.156,5.061-0.424c9.118-1.427,19.752-3.143,30.543-5.685
				c-1.182,0.49-2.341,1.07-3.478,1.694c-13.666,7.558-36.696,21.47-43.05,40.509c-9.185,27.578,11.504,57.452,36.005,53.618
				C935.576,814.003,940.859,813.156,946.366,812.041z"/>
			<path d="M948.239,141.92v335.083c-10.456-0.914-21.113,1.338-30.521,6.532c-2.831,1.56-5.998,3.344-9.319,5.35V169.23
				c0-18.683-15.138-33.821-33.82-33.821H558.513c-18.682,0-33.82,15.138-33.82,33.821v127.412
				c-11.259-17.88-24.658-28.826-39.84-33.196V141.92c0-50.764,41.155-91.92,91.942-91.92h279.504
				C907.084,50,948.239,91.155,948.239,141.92z"/>
			<line fill="none" x1="673.695" y1="93.486" x2="759.401" y2="93.486"/>
			<g>
				<path fill="#FFFFFF" d="M755.647,99.059H677.45c-2.073,0-3.754-1.681-3.754-3.754v0c0-2.073,1.681-3.754,3.754-3.754h78.197
					c2.073,0,3.754,1.681,3.754,3.754v0C759.401,97.379,757.72,99.059,755.647,99.059z"/>
			</g>
			<g>
				<path fill="#FFFFFF" d="M755.647,808.571H677.45c-2.073,0-3.754-1.681-3.754-3.754v0c0-2.073,1.681-3.754,3.754-3.754h78.197
					c2.073,0,3.754,1.681,3.754,3.754v0C759.401,806.891,757.72,808.571,755.647,808.571z"/>
			</g>
			<line fill="none" x1="631.517" y1="809.702" x2="801.579" y2="809.702"/>
		</g>
		<path fill="#F9CEBB" d="M746.119,888.666c-2.831,11.058-30.565,37.521-40.509,45.57c-29.227,23.721-77.718,66.326-134.323,87.148
			C514.682,1042.185,428.715,1150,428.715,1150L175.252,977.732c7.112-0.981,117.981-148.123,113.79-202.789
			c-4.325-56.137,10.077-126.676,50.363-187.116c40.308-60.462,77.74-132.428,86.368-184.24
			c8.65-51.834-7.201-133.877,30.231-141.078c10.189-1.962,19.819-1.672,28.849,0.936c15.183,4.37,28.581,15.316,39.84,33.196
			c0,0.022,0,0.022,0,0.022c6.688,10.612,12.618,23.677,17.679,39.26c18.705,57.586,7.848,123.8-17.679,174.163
			c-21.759,42.983-36.094,90.136-39.84,125.405v161.255c0,50.764,41.155,91.919,91.942,91.919H746.119z"/>
		<path opacity="0.1" d="M500.547,299.451c17.835,51.277,13.377,107.013-4.459,158.289
			c-42.359,131.536-70.73,219.108-55.124,357.332c8.918,84.718,117.184,123.45,188.89,128.683
			c36.576,2.669,74.804-4.823,100.607-33.239c7.726-8.348,14.349-16.742,15.657-21.85H576.794
			c-50.786,0-91.942-41.155-91.942-91.919V635.492c3.746-35.27,18.081-82.422,39.84-125.405
			c25.527-50.363,36.384-116.577,17.679-174.163c-5.061-15.584-10.991-28.648-17.679-39.26c0,0,0,0,0-0.022
			c-11.259-17.88-24.658-28.826-39.84-33.196c-4.947-1.429-10.08-2.137-15.381-2.185
			C484.41,268.879,495.821,285.272,500.547,299.451z"/>
		<path opacity="0.38" fill="#FFFFFF" d="M371.241,578.129c8.918-11.147,8.918-26.753,15.606-37.9
			c22.294-46.818,53.506-86.948,60.195-138.225c3.979-45.762-6.214-102.16,20.064-140.706c-3.624,0.098-7.32,0.482-11.101,1.21
			c-37.432,7.201-21.581,89.244-30.231,141.078c-8.628,51.812-46.06,123.778-86.368,184.24
			c-40.286,60.44-54.688,130.979-50.363,187.116c4.192,54.666-106.678,201.808-113.79,202.789l29.482,20.038
			c29.167-72.823,84.087-134.885,92.935-212.304C306.587,711.895,326.652,642.783,371.241,578.129z"/>
		<path fill="none" d="M174.917,977.487l0.334,0.245C175.073,977.754,174.962,977.665,174.917,977.487z"/>
		<path fill="none" d="M484.852,635.492c-0.647,6.086-0.981,11.816-0.981,17.1"/>
		<path fill="none" d="M746.112,888.672"/>
		<path fill="#FFFFFF" d="M905.746,725.026v4.08c-5.15,12.128-17.167,20.645-31.167,20.645H558.513
			c-18.682,0-33.82-15.138-33.82-33.82V510.087c25.527-50.363,36.384-116.577,17.679-174.163
			c-5.061-15.584-10.991-28.648-17.679-39.26c0,0,0,0,0-0.022V169.23c0-18.683,15.138-33.821,33.82-33.821h316.066
			c18.682,0,33.82,15.138,33.82,33.821v319.655c-16.788,10.055-38.056,25.505-44.7,45.458
			c-11.504,34.534,14.402,71.966,45.101,67.173c1.627-0.245,3.277-0.513,4.993-0.803c-18.593,10.79-44.142,28.247-51.79,51.21
			C850.189,687.394,874.824,725.65,905.746,725.026z"/>
		
		<path fill="#F9CEBB" d="M1006.36,671.966c-5.752,23.632-27.957,36.139-51.968,43.474h-0.045
			c-4.459,0.446-8.851,1.605-12.998,3.478c-10.791,2.542-21.425,4.258-30.543,5.685c-1.694,0.268-3.389,0.401-5.061,0.424
			c-30.922,0.624-55.557-37.633-43.742-73.103c7.647-22.963,33.196-40.42,51.79-51.21h0.023c13.22-2.14,28.983-5.061,43.273-10.389
			c4.882,0.736,9.721,2.14,14.335,4.214c0.223,0.089,0.423,0.178,0.647,0.29C1005.936,610.411,1015.724,633.553,1006.36,671.966z"/>
		<path fill="#F9CEBB" d="M1001.344,775.902c-5.574,22.874-32.081,31.613-54.977,36.139c-5.507,1.115-10.791,1.962-15.539,2.698
			c-24.501,3.835-45.191-26.04-36.005-53.618c6.354-19.039,29.384-32.951,43.05-40.509c1.137-0.624,2.296-1.204,3.478-1.694
			c4.147-1.873,8.539-3.032,12.998-3.478h0.045c7.156-0.758,14.447,0.334,21.157,3.344c0.156,0.067,0.312,0.134,0.468,0.2
			C1001.032,730.489,1008.233,747.566,1001.344,775.902z"/>
		<path fill="#F9CEBB" d="M997.108,552.87c-4.659,19.151-21.068,30.41-40.018,37.455c-14.29,5.328-30.053,8.249-43.273,10.389
			h-0.023c-1.716,0.29-3.366,0.557-4.993,0.803c-30.699,4.793-56.605-32.639-45.101-67.173c6.644-19.954,27.912-35.403,44.7-45.458
			c3.322-2.006,6.488-3.79,9.319-5.35c9.408-5.195,20.065-7.446,30.521-6.532c0.668,0.044,1.315,0.134,1.984,0.223
			c4.994,0.602,9.921,1.962,14.603,4.08c0.201,0.089,0.379,0.178,0.58,0.267C996.707,495.975,1005.736,517.355,997.108,552.87z"/>
		<path opacity="0.1" d="M972.072,594.828c-0.223-0.112-0.423-0.201-0.647-0.29c-4.615-2.074-9.453-3.478-14.335-4.214
			c-0.036,0.014-0.073,0.024-0.109,0.038c22.984,15.643,25.225,39.603,29.582,63.568c2.189,24.075-14.962,45.986-32.464,61.545
			c0.083-0.009,0.166-0.027,0.249-0.035h0.045c24.011-7.335,46.216-19.842,51.968-43.474
			C1015.724,633.553,1005.936,610.411,972.072,594.828z"/>
		<path opacity="0.1" d="M976.018,718.984c-0.156-0.067-0.312-0.134-0.468-0.2c-6.711-3.01-14.001-4.102-21.157-3.344h-0.045
			c-0.083,0.008-0.166,0.026-0.249,0.035c-0.326,0.29-0.651,0.594-0.977,0.879c33.261,13.695,39.043,56.577,23.387,86.46
			c11.98-5.687,21.707-14.072,24.836-26.912C1008.233,747.566,1001.032,730.489,976.018,718.984z"/>
		<path opacity="0.1" d="M997.108,552.87c6.727-27.69,2.718-46.786-14.21-60.683c5.561,36.819,1.513,72.874-27.547,97.09
			c0.559,0.356,1.093,0.721,1.63,1.086c0.036-0.014,0.073-0.024,0.109-0.038C976.04,583.279,992.449,572.021,997.108,552.87z"/>
		<path opacity="0.38" fill="#FFFFFF" d="M890.697,691.83c-17.069-40.54,16.906-70.864,43.308-94.892
			c-7.015,1.549-13.893,2.756-20.189,3.776h-0.023c-18.593,10.79-44.142,28.247-51.79,51.21
			c-11.816,35.47,12.819,73.727,43.742,73.103c1.672-0.022,3.366-0.156,5.061-0.424c9.118-1.427,19.752-3.143,30.543-5.685
			c0.331-0.149,0.673-0.265,1.007-0.406c1.458-2.189,2.839-4.389,4.076-6.617C926.368,718.583,899.615,714.124,890.697,691.83z"/>
		<path opacity="0.38" fill="#FFFFFF" d="M919.68,776.548c-5.945-23.782,11.007-40.518,22.677-58.036
			c-0.334,0.14-0.676,0.256-1.007,0.406c-1.182,0.49-2.341,1.07-3.478,1.694c-13.666,7.558-36.696,21.47-43.05,40.509
			c-9.185,27.578,11.504,57.452,36.005,53.618c4.748-0.736,10.032-1.583,15.539-2.698c0.303-0.06,0.612-0.129,0.915-0.19
			C934.352,804.68,924.305,792.735,919.68,776.548z"/>
		<g opacity="0.38">
			<path fill="#FFFFFF" d="M886.239,562.523c-13.349-28.923,8.128-61.688,32.589-79.549c-0.367,0.192-0.745,0.359-1.109,0.56
				c-2.831,1.56-5.998,3.344-9.319,5.35c-16.788,10.055-38.056,25.505-44.7,45.458c-11.504,34.534,14.402,71.966,45.101,67.173
				c1.627-0.245,3.277-0.513,4.993-0.803h0.023c6.296-1.019,13.174-2.226,20.189-3.776c1.185-1.078,2.36-2.149,3.51-3.203
				C912.992,593.735,892.927,582.588,886.239,562.523z"/>
		</g>
	</g>
	<path opacity="0.1" d="M524.692,233.02v63.621c0,0.022,0,0.022,0,0.022c6.688,10.612,12.618,23.677,17.679,39.26
		c18.705,57.586,7.848,123.8-17.679,174.163V715.93c0,5.667,1.41,10.997,3.872,15.688c1.936-82.93,47.338-171.102,56.702-253.813
		C593.682,391.544,582.218,299.341,524.692,233.02z"/>
	<path opacity="0.1" d="M862.004,651.923c7.647-22.963,33.196-40.42,51.79-51.21c-1.716,0.29-3.366,0.557-4.993,0.803
		c-30.699,4.793-56.605-32.639-45.101-67.173c6.644-19.954,27.912-35.403,44.7-45.458V169.23c0-18.683-15.138-33.821-33.82-33.821
		H558.513c-9.356,0-17.821,3.798-23.943,9.934c38.564,22.802,67.795,56.871,95.285,96.142
		c113.015,158.793,155.345,331.357,175.883,508.265h68.841c14.001,0,26.017-8.516,31.167-20.645v-4.08
		C874.824,725.65,850.189,687.394,862.004,651.923z"/>
</g>
</svg>
