<?xml version="1.0" encoding="utf-8"?>
<!-- Generator: Adobe Illustrator 16.0.0, SVG Export Plug-In . SVG Version: 6.00 Build 0)  -->
<!DOCTYPE svg PUBLIC "-//W3C//DTD SVG 1.0//EN" "http://www.w3.org/TR/2001/REC-SVG-20010904/DTD/svg10.dtd">
<svg version="1.0" xmlns="http://www.w3.org/2000/svg" xmlns:xlink="http://www.w3.org/1999/xlink" x="0px" y="0px" width="1700px"
	 height="1142px" viewBox="0 0 1700 1142" enable-background="new 0 0 1700 1142" xml:space="preserve">
<g id="background">
	<g opacity="0.05">
		<path fill="#343235" d="M1417.24,915.292c0,16.248-13.169,29.42-29.419,29.42H354.325c-16.248,0-29.421-13.172-29.421-29.42
			V268.941c0-16.247,13.173-29.42,29.421-29.42h1033.496c16.25,0,29.419,13.173,29.419,29.42V915.292z"/>
		<g>
			<rect x="408.772" y="313.295" width="924.602" height="500.328"/>
			<g>
				
					<path fill="#343235" stroke="#FFFFFF" stroke-width="5.232" stroke-linecap="round" stroke-linejoin="round" stroke-miterlimit="10" d="
					M981.103,563.457c0,60.767-49.266,110.029-110.027,110.029c-60.77,0-110.031-49.263-110.031-110.029
					c0-60.766,49.262-110.027,110.031-110.027C931.837,453.43,981.103,502.691,981.103,563.457z"/>
				
					<polygon fill="#343235" stroke="#FFFFFF" stroke-width="6.2073" stroke-linecap="round" stroke-linejoin="round" stroke-miterlimit="10" points="
					840.479,563.453 840.479,509.757 886.987,536.605 933.492,563.453 886.987,590.312 840.479,617.159 				"/>
			</g>
			<rect x="408.772" y="812.184" fill="#343235" width="924.602" height="58.756"/>
			
				<polygon fill="#343235" stroke="#FFFFFF" stroke-width="1.6336" stroke-linecap="round" stroke-linejoin="round" stroke-miterlimit="10" points="
				432.831,842.278 432.831,828.148 445.071,835.212 457.312,842.278 445.071,849.348 432.831,856.414 			"/>
			
				<polygon fill="#343235" stroke="#FFFFFF" stroke-width="0.552" stroke-linecap="round" stroke-linejoin="round" stroke-miterlimit="10" points="
				486.264,838.085 490.657,840.622 490.657,833.889 497.925,838.085 505.194,842.28 497.925,846.479 490.657,850.674 
				490.657,843.939 486.264,846.479 478.992,850.674 478.992,842.28 478.992,833.889 			"/>
			
				<line opacity="0.2" fill="#343235" stroke="#FFFFFF" stroke-width="3.2049" stroke-linecap="round" stroke-linejoin="round" stroke-miterlimit="10" x1="724.837" y1="842.28" x2="960.673" y2="842.28"/>
			
				<line fill="#343235" stroke="#FFFFFF" stroke-width="3.2049" stroke-linecap="round" stroke-linejoin="round" stroke-miterlimit="10" x1="527.216" y1="842.28" x2="763.055" y2="842.28"/>
			
				<line opacity="0.2" fill="#343235" stroke="#FFFFFF" stroke-width="2.4036" stroke-linecap="round" stroke-linejoin="round" stroke-miterlimit="10" x1="1159.11" y1="842.28" x2="1202.108" y2="842.28"/>
			
				<line fill="#343235" stroke="#FFFFFF" stroke-width="2.4036" stroke-linecap="round" stroke-linejoin="round" stroke-miterlimit="10" x1="1123.083" y1="842.28" x2="1166.078" y2="842.28"/>
			<path fill="#343235" d="M1314.211,840.068c-0.016-0.719-0.672-0.759-0.703-0.759l-0.022-0.001
				c-0.012-0.006-1.438-0.244-3.019-0.4c-1.615-0.161-2.187-1.427-2.26-1.609c-1.077-1.696-0.309-2.678-0.22-2.78l2.426-3.204
				c0.381-0.527,0.011-0.92-0.005-0.937l-2.508-2.489c-0.157-0.146-0.337-0.22-0.532-0.22c-0.391,0-0.726,0.3-0.73,0.302
				l-0.014,0.016l-2.932,2.187c-0.201,0.132-0.486,0.195-0.883,0.195c-0.658,0-1.396-0.174-1.427-0.182
				c-0.981-0.257-1.649-1.156-1.678-1.194l-0.027-0.039l-0.648-4.508c-0.056-0.416-0.581-0.54-0.673-0.56l-3.514,0.021
				c-0.656,0.015-0.693,0.675-0.694,0.702c-0.023,0.21-0.523,3.991-0.544,4.152l-0.013,0.044c-0.173,0.456-1.197,1.034-1.423,1.157
				c-0.613,0.418-1.248,0.508-1.674,0.508c-0.428,0-0.719-0.086-0.731-0.092l-0.032-0.009l-3.289-2.544
				c-0.117-0.117-0.271-0.177-0.452-0.177c-0.2,0-0.378,0.068-0.44,0.093l-2.715,2.611c-0.441,0.516,0.042,1.229,0.047,1.236
				l2.066,2.827c0.805,0.868,0.135,2.478,0.106,2.548c-0.378,1.076-1.497,1.583-1.543,1.606l-0.027,0.01l-3.628,0.348
				c-1.051,0.118-1.012,1.082-1.009,1.123l-0.042,3.128c0.018,0.879,0.81,0.931,0.9,0.932l0.022,0.001l3.432,0.503
				c1.282,0.127,1.783,1.721,1.84,1.906c0.647,1.41,0.067,2.166-0.011,2.258l-2.1,2.802c-0.634,0.688-0.042,1.362-0.014,1.387
				l2.207,2.214c0.299,0.205,0.578,0.313,0.83,0.313c0.324,0,0.494-0.176,0.496-0.177l0.025-0.025l3.009-2.229
				c0.305-0.225,0.661-0.336,1.063-0.336c0.837,0,1.599,0.5,1.719,0.584c1.215,0.574,1.26,1.554,1.26,1.705l0.424,3.399
				c0.043,0.604,0.776,0.792,0.893,0.818h3.294c0.03,0,0.052,0.001,0.073,0.001c0.865,0,0.896-0.608,0.9-0.677l0.002-0.028
				l0.524-3.772c0.19-1.092,1.676-1.619,1.84-1.678c0.392-0.187,0.778-0.28,1.16-0.28c0.823,0,1.334,0.443,1.407,0.515l2.469,1.944
				c0.154,0.177,0.346,0.262,0.584,0.262c0.252,0,0.48-0.097,0.547-0.132l2.62-2.521c0.464-0.618,0.063-1.047,0.044-1.064
				l-0.02-0.026l-2.489-3.651c-0.427-0.725,0.351-2.003,0.471-2.193c0.584-1.215,1.572-1.336,1.613-1.34l3.167-0.442
				c0.98-0.033,1.001-0.473,1.002-0.491v-0.018C1314.012,843.616,1314.233,840.952,1314.211,840.068z M1296.507,851.811
				c-5.65,0-10.252-4.6-10.252-10.251c0-5.654,4.602-10.254,10.252-10.254c5.655,0,10.254,4.6,10.254,10.254
				C1306.761,847.211,1302.162,851.811,1296.507,851.811z"/>
			<text transform="matrix(1 0 0 1 982.5381 845.9492)" fill="#343235" font-family="'Lato-Regular'" font-size="12.1258">16.09 / 29.43</text>
			<g>
				<path fill="#343235" d="M1094.49,853.164L1094.49,853.164c-0.345,0-0.702-0.184-1.069-0.553l-4.953-4.953h-5.891
					c-1.301,0-2.359-1.059-2.359-2.356v-7.479c0-1.299,1.059-2.359,2.359-2.359h5.891l4.953-4.953
					c0.367-0.365,0.725-0.552,1.069-0.552c0.466,0,0.964,0.367,0.964,1.395v20.416c0,0.396-0.072,0.716-0.217,0.954
					C1095.066,853.008,1094.802,853.164,1094.49,853.164z"/>
				<path fill="#343235" d="M1097.796,846.705l-0.244-0.689c1.889-0.662,3.155-2.453,3.155-4.454c0-2.002-1.267-3.792-3.155-4.454
					l0.244-0.688c2.178,0.766,3.641,2.834,3.641,5.142C1101.437,843.873,1099.974,845.939,1097.796,846.705z"/>
				<path fill="#343235" d="M1097.747,850.028l-0.148-0.716c3.653-0.755,6.305-4.018,6.305-7.751c0-3.734-2.652-6.996-6.305-7.752
					l0.148-0.715c3.989,0.829,6.886,4.388,6.886,8.467C1104.633,845.644,1101.736,849.201,1097.747,850.028z"/>
				<path fill="#343235" d="M1100.33,852.572l-0.272-0.676c4.268-1.707,7.025-5.776,7.025-10.37c0-4.595-2.758-8.665-7.025-10.372
					l0.272-0.678c4.544,1.818,7.481,6.156,7.481,11.05C1107.812,846.419,1104.874,850.756,1100.33,852.572z"/>
			</g>
			<g>
				<g>
					
						<line fill="#343235" stroke="#FFFFFF" stroke-width="2.4036" stroke-linecap="round" stroke-linejoin="round" stroke-miterlimit="10" x1="1232.399" y1="853.026" x2="1232.399" y2="846.577"/>
					
						<line fill="#343235" stroke="#FFFFFF" stroke-width="2.4036" stroke-linecap="round" stroke-linejoin="round" stroke-miterlimit="10" x1="1232.399" y1="853.026" x2="1238.851" y2="853.026"/>
					
						<line fill="#343235" stroke="#FFFFFF" stroke-width="2.4036" stroke-linecap="round" stroke-linejoin="round" stroke-miterlimit="10" x1="1232.495" y1="852.9" x2="1240.139" y2="845.254"/>
				</g>
				<g>
					
						<line fill="#343235" stroke="#FFFFFF" stroke-width="2.4036" stroke-linecap="round" stroke-linejoin="round" stroke-miterlimit="10" x1="1253.339" y1="853.026" x2="1253.339" y2="846.577"/>
					
						<line fill="#343235" stroke="#FFFFFF" stroke-width="2.4036" stroke-linecap="round" stroke-linejoin="round" stroke-miterlimit="10" x1="1253.339" y1="853.026" x2="1246.889" y2="853.026"/>
					
						<line fill="#343235" stroke="#FFFFFF" stroke-width="2.4036" stroke-linecap="round" stroke-linejoin="round" stroke-miterlimit="10" x1="1253.243" y1="852.9" x2="1245.601" y2="845.254"/>
				</g>
				<g>
					
						<line fill="#343235" stroke="#FFFFFF" stroke-width="2.4036" stroke-linecap="round" stroke-linejoin="round" stroke-miterlimit="10" x1="1253.339" y1="831.711" x2="1253.339" y2="838.16"/>
					
						<line fill="#343235" stroke="#FFFFFF" stroke-width="2.4036" stroke-linecap="round" stroke-linejoin="round" stroke-miterlimit="10" x1="1253.339" y1="831.711" x2="1246.889" y2="831.711"/>
					
						<line fill="#343235" stroke="#FFFFFF" stroke-width="2.4036" stroke-linecap="round" stroke-linejoin="round" stroke-miterlimit="10" x1="1253.243" y1="831.84" x2="1245.601" y2="839.483"/>
				</g>
				<g>
					
						<line fill="#343235" stroke="#FFFFFF" stroke-width="2.4036" stroke-linecap="round" stroke-linejoin="round" stroke-miterlimit="10" x1="1232.399" y1="831.711" x2="1232.399" y2="838.16"/>
					
						<line fill="#343235" stroke="#FFFFFF" stroke-width="2.4036" stroke-linecap="round" stroke-linejoin="round" stroke-miterlimit="10" x1="1232.399" y1="831.711" x2="1238.851" y2="831.711"/>
					
						<line fill="#343235" stroke="#FFFFFF" stroke-width="2.4036" stroke-linecap="round" stroke-linejoin="round" stroke-miterlimit="10" x1="1232.495" y1="831.84" x2="1240.139" y2="839.483"/>
				</g>
			</g>
		</g>
		<g>
			<defs>
				<path id="XMLID_6_" d="M1417.24,915.292c0,16.248-13.169,29.42-29.419,29.42H354.325c-16.248,0-29.421-13.172-29.421-29.42
					V268.941c0-16.247,13.173-29.42,29.421-29.42h1033.496c16.25,0,29.419,13.173,29.419,29.42V915.292z"/>
			</defs>
			<use xlink:href="#XMLID_6_"  overflow="visible" fill="#343235"/>
			<clipPath id="XMLID_8_">
				<use xlink:href="#XMLID_6_"  overflow="visible"/>
			</clipPath>
			<polygon opacity="0.1" clip-path="url(#XMLID_8_)" fill="#343235" points="324.904,948.438 1314.213,228.438 304.503,223.438 
				304.503,944.712 			"/>
		</g>
		<polygon fill="#343235" points="443.369,1185.416 444.952,1089.98 198.702,1085.893 196.977,1185.438 		"/>
		<polygon opacity="0.1" fill="#343235" enable-background="new    " points="443.369,1185.416 444.952,1089.98 317.9,1087.871 
			316.282,1185.438 		"/>
		<g>
			<defs>
				<path id="XMLID_5_" d="M324.904,628.65c0,0.002,0,197.387,0,197.387s-8.398,31.067,63.317,30.385
					c0,0-1.657-134.906,26.02-154.004c0,0,37.68-32.611,64.521-0.882c0,0-17.765,128.735-4.774,170.005
					c0.205,0.652,0.358,1.331,0.515,1.996c0.188,0.804,0.35,1.613,0.485,2.428c0.178,1.075,0.314,2.157,0.43,3.241
					c0.152,1.444,0.264,2.895,0.355,4.345c0.118,1.872,0.202,3.746,0.27,5.621c0.082,2.316,0.137,4.633,0.175,6.949
					c0.045,2.737,0.066,5.475,0.069,8.211c0.004,3.107-0.016,6.214-0.059,9.32c-0.048,3.408-0.124,6.815-0.236,10.222
					c-0.118,3.633-0.277,7.265-0.49,10.895c-0.221,3.788-0.501,7.573-0.859,11.351c-0.368,3.885-0.819,7.763-1.378,11.625
					c-0.569,3.939-1.25,7.863-2.065,11.76c-0.83,3.969-1.799,7.908-2.922,11.804c-1.147,3.982-2.455,7.919-3.92,11.796
					c-1.508,3.988-3.184,7.912-5.006,11.767c-1.885,3.985-3.927,7.896-6.093,11.735c-2.243,3.975-4.618,7.873-7.086,11.711
					c-2.544,3.955-5.185,7.847-7.884,11.697c-2.753,3.929-5.566,7.815-8.397,11.688c-1.714,2.345-3.606,4.615-5.098,7.114
					c-0.834,1.399-1.521,2.908-2.205,4.384c-2.14,4.613-3.433,9.743-4.195,14.757c-0.159,1.043-1.026,11.563-0.79,11.569
					l-199.338-3.309c0.122-7.371,0.285-14.744,0.416-22.116c0.314-17.795,0.449-35.593,0.818-53.388
					c0.473-22.868,0.748-45.735,1.065-68.606c0.315-22.753,1.235-45.501,1.271-68.256c0.064-41.915,1.039-84.14,9.952-125.259
					c2.451-11.312,5.409-22.512,8.863-33.558c8.421-26.929,20.81-55.81,43.466-73.755c5.645-4.472,11.888-8.294,18.813-10.408
					C304.769,630.311,324.904,627.3,324.904,628.65z"/>
			</defs>
			<use xlink:href="#XMLID_5_"  overflow="visible" fill="#343235"/>
			<clipPath id="XMLID_9_">
				<use xlink:href="#XMLID_5_"  overflow="visible"/>
			</clipPath>
			<path clip-path="url(#XMLID_9_)" fill="#343235" d="M478.762,716.604c0,0-25.173-16.834-45.931,3c0,0-3.243,38-3.409,38
				s31.167,8,45,4.5C478.832,760.988,478.762,716.604,478.762,716.604z"/>
			<path clip-path="url(#XMLID_9_)" fill="#343235" d="M210.422,907.438c0,0,14.667,192.666,130,185.333
				c12.268-0.78-146.55,12.667-146.55,12.667L210.422,907.438z"/>
			<path opacity="0.1" clip-path="url(#XMLID_9_)" fill="#343235" d="M368.119,779.438l-50,315c0,0-120.285,20-121.143,11
				s31.143-469,31.143-469s70-40.645,73-44.322s36,15.322,36,15.322L368.119,779.438z"/>
		</g>
		<path fill="#343235" d="M324.904,694.063c0,0-46.853,141.037,1.446,175.185c0,0,31.076,20.792,61.871-12.825
			c0,0-63.317,6.683-63.317-49.65V694.063z"/>
		<polygon fill="#343235" points="1545.6,1185.438 1543.874,1085.893 1297.624,1089.98 1299.207,1185.416 		"/>
		<polygon opacity="0.1" fill="#343235" enable-background="new    " points="1545.6,1185.438 1543.874,1085.893 1416.93,1088 
			1418.513,1185.416 		"/>
		<g>
			<defs>
				<path id="XMLID_4_" d="M1439.647,630.872c6.925,2.114,13.168,5.937,18.813,10.408c22.656,17.945,35.045,46.826,43.466,73.755
					c3.454,11.046,6.412,22.246,8.863,33.558c8.913,41.119,9.888,83.344,9.952,125.259c0.035,22.755,0.955,45.503,1.271,68.256
					c0.317,22.871,0.593,45.738,1.065,68.606c0.369,17.795,0.504,35.593,0.818,53.388c0.131,7.372,0.294,14.745,0.416,22.116
					l-199.338,3.309c0.236-0.006-0.631-10.526-0.79-11.569c-0.763-5.014-2.056-10.144-4.195-14.757
					c-0.685-1.476-1.371-2.984-2.205-4.384c-1.491-2.499-3.384-4.77-5.098-7.114c-2.831-3.873-5.645-7.76-8.397-11.688
					c-2.699-3.851-5.34-7.742-7.884-11.697c-2.468-3.838-4.843-7.736-7.086-11.711c-2.166-3.84-4.208-7.75-6.093-11.735
					c-1.822-3.854-3.498-7.778-5.006-11.767c-1.465-3.877-2.772-7.813-3.92-11.796c-1.123-3.896-2.092-7.835-2.922-11.804
					c-0.815-3.896-1.496-7.82-2.065-11.76c-0.559-3.862-1.01-7.74-1.378-11.625c-0.358-3.777-0.639-7.563-0.859-11.351
					c-0.213-3.63-0.372-7.262-0.49-10.895c-0.112-3.406-0.188-6.813-0.236-10.222c-0.043-3.106-0.063-6.213-0.059-9.32
					c0.003-2.736,0.024-5.474,0.069-8.211c0.038-2.316,0.093-4.633,0.175-6.949c0.067-1.875,0.151-3.749,0.27-5.621
					c0.092-1.45,0.203-2.9,0.355-4.345c0.115-1.084,0.252-2.166,0.43-3.241c0.136-0.814,0.297-1.624,0.485-2.428
					c0.156-0.665,0.31-1.344,0.515-1.996c12.99-41.27-4.774-170.005-4.774-170.005c26.841-31.729,64.521,0.882,64.521,0.882
					c27.677,19.098,26.02,154.004,26.02,154.004c71.716,0.683,63.317-30.385,63.317-30.385s0-197.385,0-197.387
					C1417.672,627.3,1437.808,630.311,1439.647,630.872z"/>
			</defs>
			<use xlink:href="#XMLID_4_"  overflow="visible" fill="#343235"/>
			<clipPath id="XMLID_10_">
				<use xlink:href="#XMLID_4_"  overflow="visible"/>
			</clipPath>
			<path clip-path="url(#XMLID_10_)" fill="#343235" d="M1263.814,716.604c0,0,25.173-16.834,45.931,3c0,0,3.243,38,3.409,38
				s-31.167,8-45,4.5C1263.744,760.988,1263.814,716.604,1263.814,716.604z"/>
			<path clip-path="url(#XMLID_10_)" fill="#343235" d="M1532.154,907.438c0,0-14.667,192.666-130,185.333
				c-12.268-0.78,146.55,12.667,146.55,12.667L1532.154,907.438z"/>
			<path opacity="0.1" clip-path="url(#XMLID_10_)" fill="#343235" d="M1383.103,804.486l33.827,296.984l-128.322-1.499
				l-86.499-315.138c0,0,37.983-137.84,43.492-137.84s108.754,17.999,108.754,17.999L1383.103,804.486z"/>
		</g>
		<path fill="#343235" d="M1417.672,806.771c0,56.333-63.317,49.65-63.317,49.65c30.795,33.617,61.871,12.825,61.871,12.825
			c48.299-34.147,1.446-175.185,1.446-175.185V806.771z"/>
	</g>
	<g>
		<path fill="#253134" d="M1395.952,906.854c0,16.248-13.169,29.42-29.419,29.42H333.037c-16.248,0-29.421-13.172-29.421-29.42
			V260.503c0-16.247,13.173-29.42,29.421-29.42h1033.496c16.25,0,29.419,13.173,29.419,29.42V906.854z"/>
		<g>
			<rect x="387.484" y="304.856" fill="#EE274A" width="924.602" height="500.328"/>
			<g>
				
					<path fill="none" stroke="#FFFFFF" stroke-width="5.232" stroke-linecap="round" stroke-linejoin="round" stroke-miterlimit="10" d="
					M959.814,555.019c0,60.767-49.266,110.029-110.027,110.029c-60.77,0-110.031-49.263-110.031-110.029
					c0-60.766,49.262-110.027,110.031-110.027C910.549,444.991,959.814,494.253,959.814,555.019z"/>
				
					<polygon fill="#FFFFFF" stroke="#FFFFFF" stroke-width="6.2073" stroke-linecap="round" stroke-linejoin="round" stroke-miterlimit="10" points="
					819.191,555.015 819.191,501.318 865.699,528.167 912.204,555.015 865.699,581.873 819.191,608.721 				"/>
			</g>
			<rect x="387.484" y="803.745" fill="#CC1F3F" width="924.602" height="58.756"/>
			
				<polygon fill="#FFFFFF" stroke="#FFFFFF" stroke-width="1.6336" stroke-linecap="round" stroke-linejoin="round" stroke-miterlimit="10" points="
				411.543,833.84 411.543,819.71 423.783,826.773 436.023,833.84 423.783,840.909 411.543,847.976 			"/>
			
				<polygon fill="#FFFFFF" stroke="#FFFFFF" stroke-width="0.552" stroke-linecap="round" stroke-linejoin="round" stroke-miterlimit="10" points="
				464.976,829.646 469.369,832.184 469.369,825.45 476.637,829.646 483.906,833.842 476.637,838.04 469.369,842.235 
				469.369,835.501 464.976,838.04 457.704,842.235 457.704,833.842 457.704,825.45 			"/>
			
				<line opacity="0.2" fill="none" stroke="#231F20" stroke-width="3.2049" stroke-linecap="round" stroke-linejoin="round" stroke-miterlimit="10" x1="703.549" y1="833.842" x2="939.385" y2="833.842"/>
			
				<line fill="none" stroke="#FFFFFF" stroke-width="3.2049" stroke-linecap="round" stroke-linejoin="round" stroke-miterlimit="10" x1="505.928" y1="833.842" x2="741.767" y2="833.842"/>
			
				<line opacity="0.2" fill="none" stroke="#231F20" stroke-width="2.4036" stroke-linecap="round" stroke-linejoin="round" stroke-miterlimit="10" x1="1137.822" y1="833.842" x2="1180.82" y2="833.842"/>
			
				<line fill="none" stroke="#FFFFFF" stroke-width="2.4036" stroke-linecap="round" stroke-linejoin="round" stroke-miterlimit="10" x1="1101.795" y1="833.842" x2="1144.79" y2="833.842"/>
			<path fill="#FFFFFF" d="M1292.923,831.63c-0.016-0.719-0.672-0.759-0.703-0.759l-0.022-0.001c-0.012-0.006-1.438-0.244-3.019-0.4
				c-1.615-0.161-2.187-1.427-2.26-1.609c-1.077-1.696-0.309-2.678-0.22-2.78l2.426-3.204c0.381-0.527,0.011-0.92-0.005-0.937
				l-2.508-2.489c-0.157-0.146-0.337-0.22-0.532-0.22c-0.391,0-0.726,0.3-0.73,0.302l-0.014,0.016l-2.932,2.187
				c-0.201,0.132-0.486,0.195-0.883,0.195c-0.658,0-1.396-0.174-1.427-0.182c-0.981-0.257-1.649-1.156-1.678-1.194l-0.027-0.039
				l-0.648-4.508c-0.056-0.416-0.581-0.54-0.673-0.56l-3.514,0.021c-0.656,0.015-0.693,0.675-0.694,0.702
				c-0.023,0.21-0.523,3.991-0.544,4.152l-0.013,0.044c-0.173,0.456-1.197,1.034-1.423,1.157c-0.613,0.418-1.248,0.508-1.674,0.508
				c-0.428,0-0.719-0.086-0.731-0.092l-0.032-0.009l-3.289-2.544c-0.117-0.117-0.271-0.177-0.452-0.177
				c-0.2,0-0.378,0.068-0.44,0.093l-2.715,2.611c-0.441,0.516,0.042,1.229,0.047,1.236l2.066,2.827
				c0.805,0.868,0.135,2.478,0.106,2.548c-0.378,1.076-1.497,1.583-1.543,1.606l-0.027,0.01l-3.628,0.348
				c-1.051,0.118-1.012,1.082-1.009,1.123l-0.042,3.128c0.018,0.879,0.81,0.931,0.9,0.932l0.022,0.001l3.432,0.503
				c1.282,0.127,1.783,1.721,1.84,1.906c0.647,1.41,0.067,2.166-0.011,2.258l-2.1,2.802c-0.634,0.688-0.042,1.362-0.014,1.387
				l2.207,2.214c0.299,0.205,0.578,0.313,0.83,0.313c0.324,0,0.494-0.176,0.496-0.177l0.025-0.025l3.009-2.229
				c0.305-0.225,0.661-0.336,1.063-0.336c0.837,0,1.599,0.5,1.719,0.584c1.215,0.574,1.26,1.554,1.26,1.705l0.424,3.399
				c0.043,0.604,0.776,0.792,0.893,0.818h3.294c0.03,0,0.052,0.001,0.073,0.001c0.865,0,0.896-0.608,0.9-0.677l0.002-0.028
				l0.524-3.772c0.19-1.092,1.676-1.619,1.84-1.678c0.392-0.187,0.778-0.28,1.16-0.28c0.823,0,1.334,0.443,1.407,0.515l2.469,1.944
				c0.154,0.177,0.346,0.262,0.584,0.262c0.252,0,0.48-0.097,0.547-0.132l2.62-2.521c0.464-0.618,0.063-1.047,0.044-1.064
				l-0.02-0.026l-2.489-3.651c-0.427-0.725,0.351-2.003,0.471-2.193c0.584-1.215,1.572-1.336,1.613-1.34l3.167-0.442
				c0.98-0.033,1.001-0.473,1.002-0.491v-0.018C1292.724,835.178,1292.945,832.514,1292.923,831.63z M1275.219,843.372
				c-5.65,0-10.252-4.6-10.252-10.251c0-5.654,4.602-10.254,10.252-10.254c5.655,0,10.254,4.6,10.254,10.254
				C1285.473,838.772,1280.874,843.372,1275.219,843.372z"/>
			<text transform="matrix(1 0 0 1 961.25 837.5107)"><tspan x="0" y="0" fill="#FFFFFF" font-family="'Lato-Regular'" font-size="12.1258">16.09 / </tspan><tspan x="39.904" y="0" fill="#A1A3A6" font-family="'Lato-Regular'" font-size="12.1258">29.43</tspan></text>
			<g>
				<path fill="#FFFFFF" d="M1073.202,844.726L1073.202,844.726c-0.345,0-0.702-0.184-1.069-0.553l-4.953-4.953h-5.891
					c-1.301,0-2.359-1.059-2.359-2.356v-7.479c0-1.299,1.059-2.359,2.359-2.359h5.891l4.953-4.953
					c0.367-0.365,0.725-0.552,1.069-0.552c0.466,0,0.964,0.367,0.964,1.395v20.416c0,0.396-0.072,0.716-0.217,0.954
					C1073.778,844.569,1073.514,844.726,1073.202,844.726z"/>
				<path fill="#FFFFFF" d="M1076.508,838.267l-0.244-0.689c1.889-0.662,3.155-2.453,3.155-4.454c0-2.002-1.267-3.792-3.155-4.454
					l0.244-0.688c2.178,0.766,3.641,2.834,3.641,5.142C1080.148,835.435,1078.686,837.501,1076.508,838.267z"/>
				<path fill="#FFFFFF" d="M1076.459,841.59l-0.148-0.716c3.653-0.755,6.305-4.018,6.305-7.751c0-3.734-2.652-6.996-6.305-7.752
					l0.148-0.715c3.989,0.829,6.886,4.388,6.886,8.467C1083.345,837.205,1080.448,840.763,1076.459,841.59z"/>
				<path fill="#FFFFFF" d="M1079.042,844.134l-0.272-0.676c4.268-1.707,7.025-5.776,7.025-10.37c0-4.595-2.758-8.665-7.025-10.372
					l0.272-0.678c4.544,1.818,7.481,6.156,7.481,11.05C1086.523,837.98,1083.586,842.317,1079.042,844.134z"/>
			</g>
			<g>
				<g>
					
						<line fill="none" stroke="#FFFFFF" stroke-width="2.4036" stroke-linecap="round" stroke-linejoin="round" stroke-miterlimit="10" x1="1211.111" y1="844.588" x2="1211.111" y2="838.139"/>
					
						<line fill="none" stroke="#FFFFFF" stroke-width="2.4036" stroke-linecap="round" stroke-linejoin="round" stroke-miterlimit="10" x1="1211.111" y1="844.588" x2="1217.563" y2="844.588"/>
					
						<line fill="none" stroke="#FFFFFF" stroke-width="2.4036" stroke-linecap="round" stroke-linejoin="round" stroke-miterlimit="10" x1="1211.207" y1="844.462" x2="1218.851" y2="836.815"/>
				</g>
				<g>
					
						<line fill="none" stroke="#FFFFFF" stroke-width="2.4036" stroke-linecap="round" stroke-linejoin="round" stroke-miterlimit="10" x1="1232.051" y1="844.588" x2="1232.051" y2="838.139"/>
					
						<line fill="none" stroke="#FFFFFF" stroke-width="2.4036" stroke-linecap="round" stroke-linejoin="round" stroke-miterlimit="10" x1="1232.051" y1="844.588" x2="1225.601" y2="844.588"/>
					
						<line fill="none" stroke="#FFFFFF" stroke-width="2.4036" stroke-linecap="round" stroke-linejoin="round" stroke-miterlimit="10" x1="1231.955" y1="844.462" x2="1224.313" y2="836.815"/>
				</g>
				<g>
					
						<line fill="none" stroke="#FFFFFF" stroke-width="2.4036" stroke-linecap="round" stroke-linejoin="round" stroke-miterlimit="10" x1="1232.051" y1="823.272" x2="1232.051" y2="829.722"/>
					
						<line fill="none" stroke="#FFFFFF" stroke-width="2.4036" stroke-linecap="round" stroke-linejoin="round" stroke-miterlimit="10" x1="1232.051" y1="823.272" x2="1225.601" y2="823.272"/>
					
						<line fill="none" stroke="#FFFFFF" stroke-width="2.4036" stroke-linecap="round" stroke-linejoin="round" stroke-miterlimit="10" x1="1231.955" y1="823.401" x2="1224.313" y2="831.045"/>
				</g>
				<g>
					
						<line fill="none" stroke="#FFFFFF" stroke-width="2.4036" stroke-linecap="round" stroke-linejoin="round" stroke-miterlimit="10" x1="1211.111" y1="823.272" x2="1211.111" y2="829.722"/>
					
						<line fill="none" stroke="#FFFFFF" stroke-width="2.4036" stroke-linecap="round" stroke-linejoin="round" stroke-miterlimit="10" x1="1211.111" y1="823.272" x2="1217.563" y2="823.272"/>
					
						<line fill="none" stroke="#FFFFFF" stroke-width="2.4036" stroke-linecap="round" stroke-linejoin="round" stroke-miterlimit="10" x1="1211.207" y1="823.401" x2="1218.851" y2="831.045"/>
				</g>
			</g>
		</g>
		<g>
			<defs>
				<path id="XMLID_3_" d="M1395.952,906.854c0,16.248-13.169,29.42-29.419,29.42H333.037c-16.248,0-29.421-13.172-29.421-29.42
					V260.503c0-16.247,13.173-29.42,29.421-29.42h1033.496c16.25,0,29.419,13.173,29.419,29.42V906.854z"/>
			</defs>
			<clipPath id="XMLID_11_">
				<use xlink:href="#XMLID_3_"  overflow="visible"/>
			</clipPath>
			<polygon opacity="0.1" clip-path="url(#XMLID_11_)" fill="#FFFFFF" points="303.616,940 1292.925,220 283.215,215 
				283.215,936.273 			"/>
		</g>
		<polygon fill="#AB3351" points="422.081,1176.978 423.664,1081.542 177.414,1077.454 175.688,1176.999 		"/>
		<polygon opacity="0.1" enable-background="new    " points="422.081,1176.978 423.664,1081.542 296.612,1079.433 
			294.994,1176.999 		"/>
		<g>
			<defs>
				<path id="XMLID_1_" d="M303.616,620.212c0,0.002,0,197.387,0,197.387s-8.398,31.067,63.317,30.385
					c0,0-1.657-134.906,26.02-154.004c0,0,37.68-32.611,64.521-0.882c0,0-17.765,128.735-4.774,170.005
					c0.205,0.652,0.358,1.331,0.515,1.996c0.188,0.804,0.35,1.613,0.485,2.428c0.178,1.075,0.314,2.157,0.43,3.241
					c0.152,1.444,0.264,2.895,0.355,4.345c0.118,1.872,0.202,3.746,0.27,5.621c0.082,2.316,0.137,4.633,0.175,6.949
					c0.045,2.737,0.066,5.475,0.069,8.211c0.004,3.107-0.016,6.214-0.059,9.32c-0.048,3.408-0.124,6.815-0.236,10.222
					c-0.118,3.633-0.277,7.265-0.49,10.895c-0.221,3.788-0.501,7.573-0.859,11.351c-0.368,3.885-0.819,7.763-1.378,11.625
					c-0.569,3.939-1.25,7.863-2.065,11.76c-0.83,3.969-1.799,7.908-2.922,11.804c-1.147,3.982-2.455,7.919-3.92,11.796
					c-1.508,3.988-3.184,7.912-5.006,11.767c-1.885,3.985-3.927,7.896-6.093,11.735c-2.243,3.975-4.618,7.873-7.086,11.711
					c-2.544,3.955-5.185,7.847-7.884,11.697c-2.753,3.929-5.566,7.815-8.397,11.688c-1.714,2.345-3.606,4.615-5.098,7.114
					c-0.834,1.399-1.521,2.908-2.205,4.384c-2.14,4.613-3.433,9.743-4.195,14.757c-0.159,1.043-1.026,11.563-0.79,11.569
					l-199.338-3.309c0.122-7.371,0.285-14.744,0.416-22.116c0.314-17.795,0.449-35.593,0.818-53.388
					c0.473-22.868,0.748-45.735,1.065-68.606c0.315-22.753,1.235-45.501,1.271-68.256c0.064-41.915,1.039-84.14,9.952-125.259
					c2.451-11.312,5.409-22.512,8.863-33.558c8.421-26.929,20.81-55.81,43.466-73.755c5.645-4.472,11.888-8.294,18.813-10.408
					C283.48,621.872,303.616,618.861,303.616,620.212z"/>
			</defs>
			<use xlink:href="#XMLID_1_"  overflow="visible" fill="#FAC9A6"/>
			<clipPath id="XMLID_12_">
				<use xlink:href="#XMLID_1_"  overflow="visible"/>
			</clipPath>
			<path clip-path="url(#XMLID_12_)" fill="#E7AF8F" d="M457.474,708.166c0,0-25.173-16.834-45.931,3c0,0-3.243,38-3.409,38
				s31.167,8,45,4.5C457.544,752.55,457.474,708.166,457.474,708.166z"/>
			<path clip-path="url(#XMLID_12_)" fill="#F9B793" d="M189.134,899c0,0,14.667,192.666,130,185.333
				c12.268-0.78-146.55,12.667-146.55,12.667L189.134,899z"/>
			<path opacity="0.1" clip-path="url(#XMLID_12_)" fill="#FFFFFF" d="M346.831,771l-50,315c0,0-120.285,20-121.143,11
				s31.143-469,31.143-469s70-40.645,73-44.322s36,15.322,36,15.322L346.831,771z"/>
		</g>
		<path fill="#F9B793" d="M303.616,685.624c0,0-46.853,141.037,1.446,175.185c0,0,31.076,20.792,61.871-12.825
			c0,0-63.317,6.683-63.317-49.65V685.624z"/>
		<polygon fill="#AB3351" points="1524.312,1176.999 1522.586,1077.454 1276.336,1081.542 1277.919,1176.978 		"/>
		<polygon opacity="0.1" enable-background="new    " points="1524.312,1176.999 1522.586,1077.454 1395.642,1079.562 
			1397.225,1176.978 		"/>
		<g>
			<defs>
				<path id="XMLID_2_" d="M1418.359,622.434c6.925,2.114,13.168,5.937,18.813,10.408c22.656,17.945,35.045,46.826,43.466,73.755
					c3.454,11.046,6.412,22.246,8.863,33.558c8.913,41.119,9.888,83.344,9.952,125.259c0.035,22.755,0.955,45.503,1.271,68.256
					c0.317,22.871,0.593,45.738,1.065,68.606c0.369,17.795,0.504,35.593,0.818,53.388c0.131,7.372,0.294,14.745,0.416,22.116
					l-199.338,3.309c0.236-0.006-0.631-10.526-0.79-11.569c-0.763-5.014-2.056-10.144-4.195-14.757
					c-0.685-1.476-1.371-2.984-2.205-4.384c-1.491-2.499-3.384-4.77-5.098-7.114c-2.831-3.873-5.645-7.76-8.397-11.688
					c-2.699-3.851-5.34-7.742-7.884-11.697c-2.468-3.838-4.843-7.736-7.086-11.711c-2.166-3.84-4.208-7.75-6.093-11.735
					c-1.822-3.854-3.498-7.778-5.006-11.767c-1.465-3.877-2.772-7.813-3.92-11.796c-1.123-3.896-2.092-7.835-2.922-11.804
					c-0.815-3.896-1.496-7.82-2.065-11.76c-0.559-3.862-1.01-7.74-1.378-11.625c-0.358-3.777-0.639-7.563-0.859-11.351
					c-0.213-3.63-0.372-7.262-0.49-10.895c-0.112-3.406-0.188-6.813-0.236-10.222c-0.043-3.106-0.063-6.213-0.059-9.32
					c0.003-2.736,0.024-5.474,0.069-8.211c0.038-2.316,0.093-4.633,0.175-6.949c0.067-1.875,0.151-3.749,0.27-5.621
					c0.092-1.45,0.203-2.9,0.355-4.345c0.115-1.084,0.252-2.166,0.43-3.241c0.136-0.814,0.297-1.624,0.485-2.428
					c0.156-0.665,0.31-1.344,0.515-1.996c12.99-41.27-4.774-170.005-4.774-170.005c26.841-31.729,64.521,0.882,64.521,0.882
					c27.677,19.098,26.02,154.004,26.02,154.004c71.716,0.683,63.317-30.385,63.317-30.385s0-197.385,0-197.387
					C1396.384,618.861,1416.52,621.872,1418.359,622.434z"/>
			</defs>
			<use xlink:href="#XMLID_2_"  overflow="visible" fill="#FAC9A6"/>
			<clipPath id="XMLID_13_">
				<use xlink:href="#XMLID_2_"  overflow="visible"/>
			</clipPath>
			<path clip-path="url(#XMLID_13_)" fill="#E7AF8F" d="M1242.526,708.166c0,0,25.173-16.834,45.931,3c0,0,3.243,38,3.409,38
				s-31.167,8-45,4.5C1242.456,752.55,1242.526,708.166,1242.526,708.166z"/>
			<path clip-path="url(#XMLID_13_)" fill="#F9B793" d="M1510.866,899c0,0-14.667,192.666-130,185.333
				c-12.268-0.78,146.55,12.667,146.55,12.667L1510.866,899z"/>
			<path opacity="0.1" clip-path="url(#XMLID_13_)" fill="#FFFFFF" d="M1361.814,796.048l33.827,296.984l-128.322-1.499
				l-86.499-315.138c0,0,37.983-137.84,43.492-137.84s108.754,17.999,108.754,17.999L1361.814,796.048z"/>
		</g>
		<path fill="#F9B793" d="M1396.384,798.333c0,56.333-63.317,49.65-63.317,49.65c30.795,33.617,61.871,12.825,61.871,12.825
			c48.299-34.147,1.446-175.185,1.446-175.185V798.333z"/>
	</g>
</g>
<g id="Layer_3">
</g>
</svg>
